<svg width="1946" height="1154" viewBox="0 0 1946 1154" fill="none" xmlns="http://www.w3.org/2000/svg">
<rect width="1946" height="1154" rx="50" fill="#E5E3DC"/>
<ellipse cx="293.5" cy="377.5" rx="153.5" ry="155.5" fill="#495A58"/>
<path d="M271.859 346.12C276.275 346.12 280.403 347.112 284.243 349.096C288.147 351.08 291.539 353.8 294.419 357.256C297.299 360.712 299.571 364.776 301.235 369.448C302.963 374.12 303.827 379.176 303.827 384.616C303.827 389.8 302.963 394.664 301.235 399.208C299.571 403.752 297.299 407.72 294.419 411.112C291.539 414.44 288.147 417.096 284.243 419.08C280.403 421 276.275 421.96 271.859 421.96C267.507 421.96 263.411 421 259.571 419.08C255.795 417.096 252.467 414.44 249.587 411.112C246.771 407.72 244.531 403.752 242.867 399.208C241.203 394.664 240.371 389.8 240.371 384.616C240.371 379.176 241.203 374.12 242.867 369.448C244.531 364.776 246.771 360.712 249.587 357.256C252.467 353.8 255.795 351.08 259.571 349.096C263.411 347.112 267.507 346.12 271.859 346.12ZM271.859 416.392C274.163 416.392 276.211 415.912 278.003 414.952C279.859 413.928 281.427 412.2 282.707 409.768C283.987 407.336 284.947 404.104 285.587 400.072C286.291 396.04 286.643 390.984 286.643 384.904C286.643 378.568 286.291 373.288 285.587 369.064C284.947 364.776 283.987 361.352 282.707 358.792C281.427 356.232 279.859 354.408 278.003 353.32C276.211 352.232 274.163 351.688 271.859 351.688C269.555 351.688 267.475 352.232 265.619 353.32C263.827 354.408 262.291 356.232 261.011 358.792C259.731 361.352 258.739 364.776 258.035 369.064C257.395 373.288 257.075 378.568 257.075 384.904C257.075 390.984 257.395 396.04 258.035 400.072C258.739 404.104 259.731 407.336 261.011 409.768C262.291 412.2 263.827 413.928 265.619 414.952C267.475 415.912 269.555 416.392 271.859 416.392ZM337.32 405.256C337.32 407.752 337.416 409.768 337.608 411.304C337.864 412.776 338.344 413.96 339.048 414.856C339.816 415.688 340.872 416.264 342.216 416.584C343.624 416.904 345.48 417.096 347.784 417.16V421H311.688V417.16C314.184 417.096 316.168 416.904 317.64 416.584C319.176 416.2 320.328 415.624 321.096 414.856C321.928 414.024 322.472 412.904 322.728 411.496C323.048 410.024 323.208 408.168 323.208 405.928V371.08C323.208 367.368 323.176 364.296 323.112 361.864C323.112 359.432 322.984 357.832 322.728 357.064C322.344 355.656 321.224 354.792 319.368 354.472C317.576 354.152 314.856 353.992 311.208 353.992V350.152C312.936 350.088 314.92 349.96 317.16 349.768C319.464 349.512 321.8 349.224 324.168 348.904C326.6 348.52 328.968 348.104 331.272 347.656C333.576 347.208 335.592 346.696 337.32 346.12V405.256Z" fill="white"/>
<path d="M308.328 430.6H350.184V435.4H308.328V430.6Z" fill="white"/>
<path d="M586.36 315V311.16C588.472 311.096 590.168 310.936 591.448 310.68C592.792 310.36 593.816 309.816 594.52 309.048C595.288 308.216 595.8 307.128 596.056 305.784C596.312 304.376 596.44 302.52 596.44 300.216V255.864C596.44 253.624 596.344 251.832 596.152 250.488C595.96 249.08 595.544 247.992 594.904 247.224C594.264 246.392 593.368 245.848 592.216 245.592C591.128 245.272 589.688 245.048 587.896 244.92V241.08H624.376C630.52 241.08 636.184 242.04 641.368 243.96C646.552 245.88 651.032 248.536 654.808 251.928C658.584 255.32 661.528 259.352 663.64 264.024C665.752 268.696 666.808 273.784 666.808 279.288C666.808 284.536 665.816 289.368 663.832 293.784C661.848 298.136 659.064 301.88 655.48 305.016C651.96 308.152 647.704 310.616 642.712 312.408C637.784 314.136 632.344 315 626.392 315H586.36ZM612.184 246.936C611.096 246.936 610.552 247.48 610.552 248.568V298.2C610.552 301.912 611.704 304.664 614.008 306.456C616.312 308.248 619.864 309.144 624.664 309.144C633.048 309.144 639.48 306.616 643.96 301.56C648.504 296.504 650.776 289.144 650.776 279.48C650.776 274.36 650.168 269.784 648.952 265.752C647.736 261.72 645.976 258.328 643.672 255.576C641.368 252.76 638.552 250.616 635.224 249.144C631.96 247.672 628.28 246.936 624.184 246.936H612.184ZM695.891 299.256C695.891 301.816 695.987 303.864 696.179 305.4C696.371 306.936 696.755 308.12 697.331 308.952C697.907 309.784 698.739 310.36 699.827 310.68C700.915 310.936 702.387 311.096 704.243 311.16V315H674.003V311.16C675.795 311.096 677.235 310.904 678.323 310.584C679.475 310.2 680.339 309.624 680.915 308.856C681.555 308.024 681.971 306.904 682.163 305.496C682.419 304.024 682.547 302.168 682.547 299.928V288.12C682.547 284.408 682.483 281.368 682.355 279C682.227 276.568 682.067 274.904 681.875 274.008C681.555 272.408 680.819 271.352 679.667 270.84C678.579 270.328 676.563 270.072 673.619 270.072V266.808L695.891 263.16V299.256ZM681.779 242.808C681.779 240.696 682.483 238.936 683.891 237.528C685.363 236.056 687.123 235.32 689.171 235.32C691.283 235.32 693.043 236.056 694.451 237.528C695.923 238.936 696.659 240.696 696.659 242.808C696.659 244.856 695.923 246.616 694.451 248.088C693.043 249.496 691.283 250.2 689.171 250.2C687.123 250.2 685.363 249.496 683.891 248.088C682.483 246.616 681.779 244.856 681.779 242.808ZM714.066 315H711.09V297.528H715.122C716.21 302.136 717.778 305.496 719.826 307.608C721.874 309.72 724.53 310.776 727.794 310.776C730.162 310.776 731.986 310.296 733.266 309.336C734.61 308.312 735.282 306.936 735.282 305.208C735.282 303.416 734.482 301.688 732.882 300.024C731.282 298.296 728.69 296.472 725.106 294.552C720.242 291.928 716.754 289.336 714.642 286.776C712.53 284.152 711.474 281.208 711.474 277.944C711.474 275.832 711.858 273.88 712.626 272.088C713.458 270.232 714.546 268.632 715.89 267.288C717.298 265.944 718.962 264.92 720.882 264.216C722.802 263.448 724.882 263.064 727.122 263.064C729.106 263.064 731.058 263.352 732.978 263.928C734.962 264.504 736.69 265.304 738.162 266.328L739.89 264.024H742.386V278.52H738.642C737.17 274.872 735.634 272.248 734.034 270.648C732.498 269.048 730.61 268.248 728.37 268.248C726.578 268.248 725.138 268.728 724.05 269.688C723.026 270.648 722.514 271.928 722.514 273.528C722.514 275.32 723.282 277.016 724.818 278.616C726.418 280.216 729.042 281.976 732.69 283.896C735.25 285.304 737.458 286.68 739.314 288.024C741.17 289.368 742.674 290.744 743.826 292.152C744.978 293.496 745.81 294.936 746.322 296.472C746.898 297.944 747.186 299.544 747.186 301.272C747.186 303.512 746.77 305.528 745.938 307.32C745.106 309.112 743.922 310.648 742.386 311.928C740.85 313.208 738.994 314.2 736.818 314.904C734.706 315.608 732.338 315.96 729.714 315.96C726.962 315.96 724.402 315.608 722.034 314.904C719.666 314.136 717.714 313.048 716.178 311.64L714.066 315ZM801.313 307.032C798.881 309.72 795.841 311.8 792.193 313.272C788.609 314.744 784.705 315.48 780.481 315.48C776.577 315.48 773.025 314.872 769.825 313.656C766.625 312.376 763.873 310.616 761.569 308.376C759.265 306.136 757.473 303.448 756.193 300.312C754.977 297.112 754.369 293.592 754.369 289.752C754.369 285.784 755.041 282.168 756.385 278.904C757.729 275.64 759.617 272.856 762.049 270.552C764.481 268.184 767.393 266.36 770.785 265.08C774.177 263.8 777.921 263.16 782.017 263.16C784.897 263.16 787.553 263.448 789.985 264.024C792.481 264.6 794.593 265.4 796.321 266.424C798.113 267.448 799.521 268.664 800.545 270.072C801.569 271.416 802.081 272.888 802.081 274.488C802.081 276.344 801.537 277.816 800.449 278.904C799.425 279.992 798.017 280.536 796.225 280.536C794.753 280.536 793.441 280.152 792.289 279.384C791.201 278.616 790.113 277.368 789.025 275.64C788.065 274.104 787.233 272.888 786.529 271.992C785.889 271.096 785.281 270.424 784.705 269.976C784.129 269.464 783.553 269.144 782.977 269.016C782.401 268.824 781.697 268.728 780.865 268.728C777.153 268.728 774.273 270.456 772.225 273.912C770.177 277.368 769.153 282.2 769.153 288.408C769.153 295.064 770.369 300.184 772.801 303.768C775.297 307.352 778.849 309.144 783.457 309.144C786.081 309.144 788.705 308.664 791.329 307.704C793.953 306.68 796.449 305.24 798.817 303.384L801.313 307.032ZM836.301 263.16C840.141 263.16 843.757 263.832 847.149 265.176C850.605 266.456 853.613 268.248 856.173 270.552C858.797 272.856 860.845 275.608 862.317 278.808C863.853 281.944 864.621 285.4 864.621 289.176C864.621 293.08 863.853 296.664 862.317 299.928C860.845 303.192 858.797 306.008 856.173 308.376C853.613 310.744 850.605 312.6 847.149 313.944C843.757 315.288 840.141 315.96 836.301 315.96C832.525 315.96 828.941 315.32 825.549 314.04C822.157 312.696 819.181 310.84 816.621 308.472C814.061 306.104 812.045 303.288 810.573 300.024C809.101 296.696 808.365 293.08 808.365 289.176C808.365 285.4 809.101 281.912 810.573 278.712C812.045 275.512 814.061 272.76 816.621 270.456C819.181 268.152 822.157 266.36 825.549 265.08C828.941 263.8 832.525 263.16 836.301 263.16ZM836.301 268.728C834.381 268.728 832.621 269.24 831.021 270.264C829.421 271.224 828.045 272.6 826.893 274.392C825.805 276.184 824.941 278.36 824.301 280.92C823.725 283.416 823.437 286.2 823.437 289.272C823.437 292.472 823.725 295.352 824.301 297.912C824.941 300.472 825.805 302.648 826.893 304.44C828.045 306.232 829.389 307.64 830.925 308.664C832.525 309.624 834.317 310.104 836.301 310.104C838.285 310.104 840.077 309.624 841.677 308.664C843.341 307.64 844.749 306.232 845.901 304.44C847.053 302.584 847.949 300.376 848.589 297.816C849.229 295.256 849.549 292.408 849.549 289.272C849.549 286.2 849.229 283.416 848.589 280.92C847.949 278.424 847.053 276.28 845.901 274.488C844.749 272.632 843.341 271.224 841.677 270.264C840.077 269.24 838.285 268.728 836.301 268.728ZM875.446 276.504C874.742 274.648 874.07 273.176 873.43 272.088C872.79 270.936 872.118 270.072 871.414 269.496C870.774 268.856 870.038 268.44 869.206 268.248C868.438 268.056 867.51 267.96 866.422 267.96V264.12H895.126V267.96C893.526 267.96 892.246 268.024 891.286 268.152C890.39 268.28 889.686 268.472 889.174 268.728C888.726 268.984 888.438 269.336 888.31 269.784C888.182 270.168 888.118 270.616 888.118 271.128C888.118 271.96 888.278 272.92 888.598 274.008C888.918 275.096 889.302 276.184 889.75 277.272L898.87 302.424H899.254L909.526 277.368C909.974 276.28 910.326 275.32 910.582 274.488C910.838 273.592 910.966 272.792 910.966 272.088C910.966 270.68 910.486 269.656 909.526 269.016C908.566 268.376 906.87 268.024 904.438 267.96V264.12H925.654V267.96C923.926 267.96 922.422 268.408 921.142 269.304C919.926 270.2 918.646 272.184 917.302 275.256L899.35 315.96H890.614L875.446 276.504ZM975.434 306.072C969.61 312.664 962.346 315.96 953.642 315.96C949.674 315.96 946.058 315.352 942.794 314.136C939.594 312.856 936.842 311.096 934.538 308.856C932.234 306.552 930.442 303.832 929.162 300.696C927.882 297.56 927.242 294.072 927.242 290.232C927.242 286.264 927.914 282.648 929.258 279.384C930.602 276.056 932.49 273.208 934.922 270.84C937.418 268.408 940.33 266.52 943.658 265.176C947.05 263.832 950.762 263.16 954.794 263.16C961.578 263.16 966.858 264.984 970.634 268.632C974.41 272.28 976.298 277.4 976.298 283.992C976.298 285.016 976.138 285.656 975.818 285.912C975.498 286.104 974.602 286.2 973.13 286.2H942.218C941.962 286.776 941.834 287.832 941.834 289.368C941.834 295.64 943.178 300.6 945.866 304.248C948.618 307.896 952.33 309.72 957.002 309.72C959.69 309.72 962.346 309.112 964.97 307.896C967.658 306.68 970.25 304.952 972.746 302.712L975.434 306.072ZM956.81 280.824C959.37 280.824 961.002 280.696 961.706 280.44C962.474 280.12 962.858 279.416 962.858 278.328C962.858 275.512 962.058 273.208 960.458 271.416C958.858 269.624 956.842 268.728 954.41 268.728C951.658 268.728 949.194 269.88 947.018 272.184C944.906 274.424 943.53 277.304 942.89 280.824H956.81ZM1004.52 300.12C1004.52 302.616 1004.61 304.6 1004.81 306.072C1005.06 307.48 1005.54 308.568 1006.25 309.336C1006.95 310.104 1007.97 310.616 1009.32 310.872C1010.66 311.064 1012.45 311.16 1014.69 311.16V315H982.63V311.16C984.55 311.032 986.086 310.84 987.238 310.584C988.39 310.328 989.254 309.816 989.83 309.048C990.406 308.28 990.758 307.192 990.886 305.784C991.078 304.312 991.174 302.36 991.174 299.928V288.216C991.174 284.248 991.078 281.08 990.886 278.712C990.694 276.344 990.278 274.52 989.638 273.24C988.998 271.96 988.07 271.128 986.854 270.744C985.702 270.296 984.166 270.072 982.246 270.072V266.712L1001.45 263.16L1002.98 274.2H1003.37C1005.09 270.808 1007.37 268.12 1010.18 266.136C1013 264.152 1015.97 263.16 1019.11 263.16C1021.54 263.16 1023.53 263.768 1025.06 264.984C1026.6 266.2 1027.37 267.736 1027.37 269.592C1027.37 271.64 1026.76 273.368 1025.54 274.776C1024.39 276.184 1022.79 276.888 1020.74 276.888C1019.78 276.888 1018.92 276.696 1018.15 276.312C1017.38 275.928 1016.68 275.512 1016.04 275.064C1015.46 274.552 1014.85 274.104 1014.21 273.72C1013.64 273.272 1013.03 273.048 1012.39 273.048C1011.17 273.048 1010.02 273.848 1008.93 275.448C1007.85 277.048 1006.95 279.192 1006.25 281.88C1005.73 283.8 1005.32 285.976 1005 288.408C1004.68 290.776 1004.52 293.144 1004.52 295.512V300.12ZM1055.11 330.072C1054.41 331.48 1053.51 332.792 1052.43 334.008C1051.4 335.224 1050.22 336.248 1048.87 337.08C1047.59 337.976 1046.25 338.68 1044.84 339.192C1043.43 339.704 1042.03 339.96 1040.62 339.96C1038.51 339.96 1036.81 339.448 1035.53 338.424C1034.25 337.4 1033.61 336.024 1033.61 334.296C1033.61 332.696 1034.15 331.448 1035.24 330.552C1036.39 329.656 1038.22 329.112 1040.71 328.92C1046.41 328.472 1050.09 326.68 1051.75 323.544L1054.35 318.552L1037.35 276.504C1036.59 274.648 1035.91 273.176 1035.34 272.088C1034.83 271 1034.25 270.168 1033.61 269.592C1032.97 268.952 1032.23 268.536 1031.4 268.344C1030.57 268.152 1029.55 268.024 1028.33 267.96V264.12H1057.42V267.96C1054.92 267.96 1053.16 268.216 1052.14 268.728C1051.18 269.176 1050.7 270.04 1050.7 271.32C1050.7 271.832 1050.76 272.44 1050.89 273.144C1051.08 273.784 1051.31 274.456 1051.56 275.16L1061.35 303.192H1061.74L1069.99 284.472C1070.83 282.488 1071.53 280.856 1072.11 279.576C1072.68 278.232 1073.1 277.112 1073.35 276.216C1073.67 275.256 1073.9 274.488 1074.03 273.912C1074.15 273.336 1074.22 272.76 1074.22 272.184C1074.22 270.52 1073.74 269.4 1072.78 268.824C1071.88 268.248 1070.03 267.96 1067.21 267.96V264.12H1090.35V267.96C1089.07 267.96 1087.98 268.152 1087.08 268.536C1086.19 268.856 1085.26 269.56 1084.3 270.648C1083.4 271.736 1082.38 273.368 1081.23 275.544C1080.14 277.656 1078.76 280.472 1077.1 283.992L1055.11 330.072Z" fill="black"/>
<path d="M611.656 491L591.88 427.64H596.872L614.728 486.584L631.24 427.64H636.808L653.416 486.68L671.272 427.64H676.072L656.296 491H650.344L637.576 446.552L634.024 432.824H633.928L630.376 446.552L617.608 491H611.656ZM703.753 491.96C699.337 491.96 695.401 490.968 691.945 488.984C688.489 487 685.769 484.152 683.785 480.44C681.865 476.664 680.905 472.184 680.905 467C680.905 461.816 681.865 457.368 683.785 453.656C685.769 449.88 688.425 447 691.753 445.016C695.081 443.032 698.889 442.04 703.177 442.04C707.529 442.04 711.241 443 714.313 444.92C717.385 446.84 719.753 449.528 721.417 452.984C723.081 456.376 723.913 460.312 723.913 464.792C723.913 465.368 723.881 465.944 723.817 466.52C723.817 467.032 723.785 467.512 723.721 467.96H683.881V463.64H721.609L719.209 464.312C719.145 458.808 717.673 454.424 714.793 451.16C711.977 447.896 708.073 446.264 703.081 446.264C699.625 446.264 696.585 447.096 693.961 448.76C691.337 450.36 689.289 452.728 687.817 455.864C686.345 458.936 685.609 462.648 685.609 467C685.609 471.288 686.345 475 687.817 478.136C689.353 481.272 691.465 483.672 694.153 485.336C696.905 486.936 700.073 487.736 703.657 487.736C707.369 487.736 710.537 486.936 713.161 485.336C715.849 483.736 717.929 481.528 719.401 478.712L723.241 480.92C722.089 483.224 720.553 485.208 718.633 486.872C716.713 488.472 714.505 489.72 712.009 490.616C709.513 491.512 706.761 491.96 703.753 491.96ZM807.444 434.168L808.596 438.392C808.532 438.392 808.468 438.392 808.404 438.392C808.34 438.392 808.244 438.392 808.116 438.392C804.98 438.392 802.548 439.224 800.82 440.888C799.156 442.488 798.324 444.76 798.324 447.704L795.252 446.168C795.252 443.736 795.764 441.624 796.788 439.832C797.812 438.04 799.22 436.664 801.012 435.704C802.804 434.68 804.82 434.168 807.06 434.168C807.188 434.168 807.252 434.168 807.252 434.168C807.316 434.168 807.38 434.168 807.444 434.168ZM792.276 486.104C797.012 486.104 800.724 487.096 803.412 489.08C806.1 491.064 807.444 493.72 807.444 497.048C807.444 499.992 806.452 502.552 804.468 504.728C802.548 506.904 799.892 508.6 796.5 509.816C793.108 511.032 789.236 511.64 784.884 511.64C777.652 511.64 772.116 510.392 768.276 507.896C764.436 505.464 762.516 502.392 762.516 498.68C762.516 495.992 763.476 493.656 765.396 491.672C767.38 489.688 770.26 488.504 774.036 488.12L773.652 488.984C771.604 488.408 769.78 487.448 768.18 486.104C766.644 484.76 765.876 482.84 765.876 480.344C765.876 477.656 766.868 475.48 768.852 473.816C770.9 472.088 773.588 471.096 776.916 470.84L782.004 472.568H779.988C777.044 472.76 774.676 473.496 772.884 474.776C771.156 475.992 770.292 477.592 770.292 479.576C770.292 481.752 771.124 483.384 772.788 484.472C774.516 485.56 776.692 486.104 779.316 486.104H792.276ZM784.884 507.608C788.66 507.608 791.892 507.16 794.58 506.264C797.268 505.368 799.316 504.152 800.724 502.616C802.196 501.144 802.932 499.48 802.932 497.624C802.932 495.384 801.94 493.592 799.956 492.248C798.036 490.904 795.092 490.232 791.124 490.232H777.492C774.484 490.232 771.988 490.936 770.004 492.344C768.02 493.752 767.028 495.64 767.028 498.008C767.028 500.888 768.596 503.192 771.732 504.92C774.932 506.712 779.316 507.608 784.884 507.608ZM784.212 442.04C787.988 442.04 791.316 442.712 794.196 444.056C797.14 445.336 799.412 447.16 801.012 449.528C802.612 451.832 803.412 454.552 803.412 457.688C803.412 460.76 802.612 463.512 801.012 465.944C799.412 468.312 797.14 470.168 794.196 471.512C791.316 472.792 787.988 473.432 784.212 473.432C778.132 473.432 773.364 471.992 769.908 469.112C766.516 466.168 764.82 462.36 764.82 457.688C764.82 454.552 765.62 451.832 767.22 449.528C768.884 447.16 771.156 445.336 774.036 444.056C776.98 442.712 780.372 442.04 784.212 442.04ZM784.212 445.976C779.988 445.976 776.532 447.064 773.844 449.24C771.156 451.352 769.812 454.168 769.812 457.688C769.812 461.208 771.156 464.056 773.844 466.232C776.532 468.408 779.988 469.496 784.212 469.496C788.436 469.496 791.86 468.408 794.484 466.232C797.172 464.056 798.516 461.208 798.516 457.688C798.516 454.168 797.172 451.352 794.484 449.24C791.86 447.064 788.436 445.976 784.212 445.976ZM836.691 491.96C832.275 491.96 828.339 490.968 824.883 488.984C821.427 487 818.707 484.152 816.723 480.44C814.803 476.664 813.843 472.184 813.843 467C813.843 461.816 814.803 457.368 816.723 453.656C818.707 449.88 821.363 447 824.691 445.016C828.019 443.032 831.827 442.04 836.115 442.04C840.467 442.04 844.179 443 847.251 444.92C850.323 446.84 852.691 449.528 854.355 452.984C856.019 456.376 856.851 460.312 856.851 464.792C856.851 465.368 856.819 465.944 856.755 466.52C856.755 467.032 856.723 467.512 856.659 467.96H816.819V463.64H854.547L852.147 464.312C852.083 458.808 850.611 454.424 847.731 451.16C844.915 447.896 841.011 446.264 836.019 446.264C832.563 446.264 829.523 447.096 826.899 448.76C824.275 450.36 822.227 452.728 820.755 455.864C819.283 458.936 818.547 462.648 818.547 467C818.547 471.288 819.283 475 820.755 478.136C822.291 481.272 824.403 483.672 827.091 485.336C829.843 486.936 833.011 487.736 836.595 487.736C840.307 487.736 843.475 486.936 846.099 485.336C848.787 483.736 850.867 481.528 852.339 478.712L856.179 480.92C855.027 483.224 853.491 485.208 851.571 486.872C849.651 488.472 847.443 489.72 844.947 490.616C842.451 491.512 839.699 491.96 836.691 491.96ZM877.481 429.656V478.328C877.481 481.336 878.185 483.64 879.593 485.24C881.065 486.776 883.177 487.544 885.929 487.544C887.721 487.544 889.289 487.256 890.633 486.68C892.041 486.04 893.289 485.144 894.377 483.992L896.201 487.928C894.985 489.144 893.449 490.136 891.593 490.904C889.737 491.608 887.657 491.96 885.353 491.96C882.857 491.96 880.649 491.512 878.729 490.616C876.809 489.656 875.305 488.216 874.217 486.296C873.193 484.376 872.681 481.944 872.681 479V431L877.481 429.656ZM895.433 443V447.128H863.081V443H895.433ZM941.418 429.656V478.328C941.418 481.336 942.122 483.64 943.53 485.24C945.002 486.776 947.114 487.544 949.866 487.544C951.658 487.544 953.226 487.256 954.57 486.68C955.978 486.04 957.226 485.144 958.314 483.992L960.138 487.928C958.922 489.144 957.386 490.136 955.53 490.904C953.674 491.608 951.594 491.96 949.29 491.96C946.794 491.96 944.586 491.512 942.666 490.616C940.746 489.656 939.242 488.216 938.154 486.296C937.13 484.376 936.618 481.944 936.618 479V431L941.418 429.656ZM959.37 443V447.128H927.018V443H959.37ZM989.222 442.04C993.702 442.04 997.638 443.032 1001.03 445.016C1004.49 447 1007.17 449.88 1009.09 453.656C1011.08 457.368 1012.07 461.816 1012.07 467C1012.07 472.184 1011.08 476.664 1009.09 480.44C1007.17 484.152 1004.49 487 1001.03 488.984C997.638 490.968 993.702 491.96 989.222 491.96C984.742 491.96 980.774 490.968 977.318 488.984C973.926 487 971.238 484.152 969.254 480.44C967.334 476.664 966.374 472.184 966.374 467C966.374 461.816 967.334 457.368 969.254 453.656C971.238 449.88 973.926 447 977.318 445.016C980.774 443.032 984.742 442.04 989.222 442.04ZM989.222 446.168C985.574 446.168 982.406 447 979.718 448.664C977.03 450.328 974.918 452.728 973.382 455.864C971.91 458.936 971.174 462.648 971.174 467C971.174 471.288 971.91 475 973.382 478.136C974.918 481.272 977.03 483.672 979.718 485.336C982.406 487 985.574 487.832 989.222 487.832C992.87 487.832 996.038 487 998.726 485.336C1001.41 483.672 1003.49 481.272 1004.97 478.136C1006.5 475 1007.27 471.288 1007.27 467C1007.27 462.648 1006.5 458.936 1004.97 455.864C1003.49 452.728 1001.41 450.328 998.726 448.664C996.038 447 992.87 446.168 989.222 446.168ZM1095.44 443L1074.32 463.352L1073.17 464.504L1058.29 478.904V472.76L1089.2 443H1095.44ZM1060.69 420.92V491H1055.89V420.92H1060.69ZM1074.61 460.856L1096.21 491H1090.35L1070.67 463.64L1074.61 460.856ZM1106.51 491V443H1110.83L1111.22 455L1110.45 454.328C1111.34 451.704 1112.69 449.496 1114.48 447.704C1116.27 445.848 1118.42 444.44 1120.91 443.48C1123.41 442.52 1126.1 442.04 1128.98 442.04C1132.56 442.04 1135.73 442.712 1138.48 444.056C1141.23 445.4 1143.38 447.384 1144.91 450.008C1146.51 452.632 1147.31 455.928 1147.31 459.896V491H1142.51V461.432C1142.51 456.184 1141.2 452.344 1138.58 449.912C1136.02 447.48 1132.66 446.264 1128.5 446.264C1125.49 446.264 1122.67 446.968 1120.05 448.376C1117.49 449.72 1115.38 451.704 1113.71 454.328C1112.11 456.952 1111.31 460.152 1111.31 463.928V491H1106.51ZM1183.47 442.04C1187.95 442.04 1191.89 443.032 1195.28 445.016C1198.74 447 1201.42 449.88 1203.34 453.656C1205.33 457.368 1206.32 461.816 1206.32 467C1206.32 472.184 1205.33 476.664 1203.34 480.44C1201.42 484.152 1198.74 487 1195.28 488.984C1191.89 490.968 1187.95 491.96 1183.47 491.96C1178.99 491.96 1175.02 490.968 1171.57 488.984C1168.18 487 1165.49 484.152 1163.5 480.44C1161.58 476.664 1160.62 472.184 1160.62 467C1160.62 461.816 1161.58 457.368 1163.5 453.656C1165.49 449.88 1168.18 447 1171.57 445.016C1175.02 443.032 1178.99 442.04 1183.47 442.04ZM1183.47 446.168C1179.82 446.168 1176.66 447 1173.97 448.664C1171.28 450.328 1169.17 452.728 1167.63 455.864C1166.16 458.936 1165.42 462.648 1165.42 467C1165.42 471.288 1166.16 475 1167.63 478.136C1169.17 481.272 1171.28 483.672 1173.97 485.336C1176.66 487 1179.82 487.832 1183.47 487.832C1187.12 487.832 1190.29 487 1192.98 485.336C1195.66 483.672 1197.74 481.272 1199.22 478.136C1200.75 475 1201.52 471.288 1201.52 467C1201.52 462.648 1200.75 458.936 1199.22 455.864C1197.74 452.728 1195.66 450.328 1192.98 448.664C1190.29 447 1187.12 446.168 1183.47 446.168ZM1279.98 443H1285.26L1268.94 491H1264.14L1248.97 449.24L1234.09 491H1229.29L1212.97 443H1218.25L1231.79 485.24L1246.67 443H1251.56L1266.54 485.24L1279.98 443ZM1359.77 443L1336.54 499.832C1335.39 502.776 1334.14 505.112 1332.8 506.84C1331.45 508.568 1329.95 509.784 1328.29 510.488C1326.62 511.256 1324.7 511.64 1322.53 511.64C1320.61 511.64 1318.85 511.352 1317.25 510.776C1315.65 510.2 1314.33 509.4 1313.31 508.376L1314.85 504.248C1315.81 505.4 1316.96 506.2 1318.3 506.648C1319.65 507.16 1321.02 507.416 1322.43 507.416C1324.48 507.416 1326.3 506.808 1327.9 505.592C1329.5 504.44 1331.01 502.136 1332.41 498.68L1335.58 491L1330.49 479.096L1315.33 443H1320.8L1335.49 479.384L1337.89 485.816L1340.48 478.904L1354.59 443H1359.77ZM1388.88 442.04C1393.36 442.04 1397.29 443.032 1400.69 445.016C1404.14 447 1406.83 449.88 1408.75 453.656C1410.73 457.368 1411.73 461.816 1411.73 467C1411.73 472.184 1410.73 476.664 1408.75 480.44C1406.83 484.152 1404.14 487 1400.69 488.984C1397.29 490.968 1393.36 491.96 1388.88 491.96C1384.4 491.96 1380.43 490.968 1376.97 488.984C1373.58 487 1370.89 484.152 1368.91 480.44C1366.99 476.664 1366.03 472.184 1366.03 467C1366.03 461.816 1366.99 457.368 1368.91 453.656C1370.89 449.88 1373.58 447 1376.97 445.016C1380.43 443.032 1384.4 442.04 1388.88 442.04ZM1388.88 446.168C1385.23 446.168 1382.06 447 1379.37 448.664C1376.69 450.328 1374.57 452.728 1373.04 455.864C1371.57 458.936 1370.83 462.648 1370.83 467C1370.83 471.288 1371.57 475 1373.04 478.136C1374.57 481.272 1376.69 483.672 1379.37 485.336C1382.06 487 1385.23 487.832 1388.88 487.832C1392.53 487.832 1395.69 487 1398.38 485.336C1401.07 483.672 1403.15 481.272 1404.62 478.136C1406.16 475 1406.93 471.288 1406.93 467C1406.93 462.648 1406.16 458.936 1404.62 455.864C1403.15 452.728 1401.07 450.328 1398.38 448.664C1395.69 447 1392.53 446.168 1388.88 446.168ZM1442.35 491.96C1439.02 491.96 1436.04 491.352 1433.42 490.136C1430.79 488.92 1428.71 487.032 1427.18 484.472C1425.71 481.848 1424.97 478.584 1424.97 474.68V443H1429.77V473.528C1429.77 478.52 1430.95 482.136 1433.32 484.376C1435.75 486.616 1439.15 487.736 1443.5 487.736C1446.06 487.736 1448.36 487.288 1450.41 486.392C1452.52 485.496 1454.31 484.248 1455.79 482.648C1457.26 481.048 1458.38 479.224 1459.15 477.176C1459.98 475.128 1460.39 472.92 1460.39 470.552V443H1465.19V491H1460.87L1460.68 481.112C1459.27 484.504 1456.97 487.16 1453.77 489.08C1450.57 491 1446.76 491.96 1442.35 491.96ZM1482.26 491V443H1486.29L1486.87 453.08C1488.09 449.688 1490.04 447 1492.73 445.016C1495.41 443.032 1498.65 442.04 1502.42 442.04C1503.7 442.04 1504.85 442.168 1505.88 442.424C1506.9 442.68 1507.73 443.096 1508.37 443.672L1507.32 447.896C1506.61 447.448 1505.85 447.096 1505.01 446.84C1504.18 446.584 1502.93 446.456 1501.27 446.456C1498.84 446.456 1496.53 447.224 1494.36 448.76C1492.18 450.232 1490.42 452.312 1489.08 455C1487.73 457.624 1487.06 460.664 1487.06 464.12V491H1482.26ZM620.104 604.96C617.16 604.96 614.408 604.416 611.848 603.328C609.352 602.24 607.208 600.672 605.416 598.624C603.688 596.576 602.408 594.176 601.576 591.424L602.248 590.656L601.864 604H597.544V533.92H602.344V568.864L601.768 568C603.048 564.032 605.32 560.896 608.584 558.592C611.912 556.224 615.752 555.04 620.104 555.04C624.328 555.04 628.072 556.032 631.336 558.016C634.6 560 637.192 562.848 639.112 566.56C641.032 570.272 641.992 574.752 641.992 580C641.992 585.184 641.032 589.664 639.112 593.44C637.192 597.152 634.568 600 631.24 601.984C627.976 603.968 624.264 604.96 620.104 604.96ZM619.528 600.736C624.968 600.736 629.256 598.88 632.392 595.168C635.592 591.456 637.192 586.4 637.192 580C637.192 573.6 635.624 568.544 632.488 564.832C629.352 561.12 625.064 559.264 619.624 559.264C616.296 559.264 613.32 560.128 610.696 561.856C608.072 563.52 606.024 565.92 604.552 569.056C603.08 572.192 602.344 575.872 602.344 580.096C602.344 584.32 603.08 588 604.552 591.136C606.024 594.208 608.04 596.576 610.6 598.24C613.224 599.904 616.2 600.736 619.528 600.736ZM672.753 604.96C669.425 604.96 666.449 604.352 663.825 603.136C661.201 601.92 659.121 600.032 657.585 597.472C656.113 594.848 655.377 591.584 655.377 587.68V556H660.177V586.528C660.177 591.52 661.361 595.136 663.729 597.376C666.161 599.616 669.553 600.736 673.905 600.736C676.465 600.736 678.769 600.288 680.817 599.392C682.929 598.496 684.721 597.248 686.193 595.648C687.665 594.048 688.785 592.224 689.553 590.176C690.385 588.128 690.801 585.92 690.801 583.552V556H695.601V604H691.281L691.089 594.112C689.681 597.504 687.377 600.16 684.177 602.08C680.977 604 677.169 604.96 672.753 604.96ZM728.893 604.96C724.029 604.96 719.709 603.968 715.933 601.984C712.221 600 709.597 597.152 708.061 593.44L712.189 590.656C713.341 593.856 715.389 596.352 718.333 598.144C721.341 599.872 724.989 600.736 729.277 600.736C733.501 600.736 736.797 599.904 739.165 598.24C741.597 596.576 742.813 594.368 742.813 591.616C742.813 589.76 742.205 588.16 740.989 586.816C739.837 585.408 737.629 584.352 734.365 583.648L723.133 581.248C718.525 580.288 715.229 578.752 713.245 576.64C711.325 574.464 710.365 571.84 710.365 568.768C710.365 566.208 711.133 563.904 712.669 561.856C714.205 559.808 716.317 558.176 719.005 556.96C721.757 555.68 724.957 555.04 728.605 555.04C733.405 555.04 737.373 556 740.509 557.92C743.645 559.776 745.853 562.592 747.133 566.368L743.101 568.96C742.141 565.568 740.349 563.104 737.725 561.568C735.165 560.032 732.125 559.264 728.605 559.264C725.917 559.264 723.549 559.68 721.501 560.512C719.517 561.28 717.949 562.368 716.797 563.776C715.709 565.12 715.165 566.688 715.165 568.48C715.165 570.336 715.805 572.032 717.085 573.568C718.365 575.04 720.637 576.128 723.901 576.832L735.421 579.328C739.965 580.288 743.133 581.76 744.925 583.744C746.717 585.664 747.613 588.064 747.613 590.944C747.613 593.824 746.845 596.32 745.309 598.432C743.773 600.544 741.597 602.176 738.781 603.328C735.965 604.416 732.669 604.96 728.893 604.96ZM763.444 546.688C762.228 546.688 761.236 546.336 760.468 545.632C759.764 544.864 759.412 543.872 759.412 542.656C759.412 541.44 759.764 540.48 760.468 539.776C761.236 539.008 762.228 538.624 763.444 538.624C764.66 538.624 765.62 539.008 766.324 539.776C767.092 540.48 767.476 541.44 767.476 542.656C767.476 543.872 767.092 544.864 766.324 545.632C765.62 546.336 764.66 546.688 763.444 546.688ZM765.844 556V604H761.044V556H765.844ZM782.888 604V556H787.208L787.592 568L786.824 567.328C787.72 564.704 789.064 562.496 790.856 560.704C792.648 558.848 794.792 557.44 797.288 556.48C799.784 555.52 802.472 555.04 805.352 555.04C808.936 555.04 812.104 555.712 814.856 557.056C817.608 558.4 819.752 560.384 821.288 563.008C822.888 565.632 823.688 568.928 823.688 572.896V604H818.888V574.432C818.888 569.184 817.576 565.344 814.952 562.912C812.392 560.48 809.032 559.264 804.872 559.264C801.864 559.264 799.048 559.968 796.424 561.376C793.864 562.72 791.752 564.704 790.088 567.328C788.488 569.952 787.688 573.152 787.688 576.928V604H782.888ZM859.847 604.96C855.431 604.96 851.495 603.968 848.039 601.984C844.583 600 841.863 597.152 839.879 593.44C837.959 589.664 836.999 585.184 836.999 580C836.999 574.816 837.959 570.368 839.879 566.656C841.863 562.88 844.519 560 847.847 558.016C851.175 556.032 854.983 555.04 859.271 555.04C863.623 555.04 867.335 556 870.407 557.92C873.479 559.84 875.847 562.528 877.511 565.984C879.175 569.376 880.007 573.312 880.007 577.792C880.007 578.368 879.975 578.944 879.911 579.52C879.911 580.032 879.879 580.512 879.815 580.96H839.975V576.64H877.703L875.303 577.312C875.239 571.808 873.767 567.424 870.887 564.16C868.071 560.896 864.167 559.264 859.175 559.264C855.719 559.264 852.679 560.096 850.055 561.76C847.431 563.36 845.383 565.728 843.911 568.864C842.439 571.936 841.703 575.648 841.703 580C841.703 584.288 842.439 588 843.911 591.136C845.447 594.272 847.559 596.672 850.247 598.336C852.999 599.936 856.167 600.736 859.751 600.736C863.463 600.736 866.631 599.936 869.255 598.336C871.943 596.736 874.023 594.528 875.495 591.712L879.335 593.92C878.183 596.224 876.647 598.208 874.727 599.872C872.807 601.472 870.599 602.72 868.103 603.616C865.607 604.512 862.855 604.96 859.847 604.96ZM909.924 604.96C905.06 604.96 900.74 603.968 896.964 601.984C893.252 600 890.628 597.152 889.092 593.44L893.22 590.656C894.372 593.856 896.42 596.352 899.364 598.144C902.372 599.872 906.02 600.736 910.308 600.736C914.532 600.736 917.828 599.904 920.196 598.24C922.628 596.576 923.844 594.368 923.844 591.616C923.844 589.76 923.236 588.16 922.02 586.816C920.868 585.408 918.66 584.352 915.396 583.648L904.164 581.248C899.556 580.288 896.26 578.752 894.276 576.64C892.356 574.464 891.396 571.84 891.396 568.768C891.396 566.208 892.164 563.904 893.7 561.856C895.236 559.808 897.348 558.176 900.036 556.96C902.788 555.68 905.988 555.04 909.636 555.04C914.436 555.04 918.404 556 921.54 557.92C924.676 559.776 926.884 562.592 928.164 566.368L924.132 568.96C923.172 565.568 921.38 563.104 918.756 561.568C916.196 560.032 913.156 559.264 909.636 559.264C906.948 559.264 904.58 559.68 902.532 560.512C900.548 561.28 898.98 562.368 897.828 563.776C896.74 565.12 896.196 566.688 896.196 568.48C896.196 570.336 896.836 572.032 898.116 573.568C899.396 575.04 901.668 576.128 904.932 576.832L916.452 579.328C920.996 580.288 924.164 581.76 925.956 583.744C927.748 585.664 928.644 588.064 928.644 590.944C928.644 593.824 927.876 596.32 926.34 598.432C924.804 600.544 922.628 602.176 919.812 603.328C916.996 604.416 913.7 604.96 909.924 604.96ZM958.299 604.96C953.435 604.96 949.115 603.968 945.339 601.984C941.627 600 939.003 597.152 937.467 593.44L941.595 590.656C942.747 593.856 944.795 596.352 947.739 598.144C950.747 599.872 954.395 600.736 958.683 600.736C962.907 600.736 966.203 599.904 968.571 598.24C971.003 596.576 972.219 594.368 972.219 591.616C972.219 589.76 971.611 588.16 970.395 586.816C969.243 585.408 967.035 584.352 963.771 583.648L952.539 581.248C947.931 580.288 944.635 578.752 942.651 576.64C940.731 574.464 939.771 571.84 939.771 568.768C939.771 566.208 940.539 563.904 942.075 561.856C943.611 559.808 945.723 558.176 948.411 556.96C951.163 555.68 954.363 555.04 958.011 555.04C962.811 555.04 966.779 556 969.915 557.92C973.051 559.776 975.259 562.592 976.539 566.368L972.507 568.96C971.547 565.568 969.755 563.104 967.131 561.568C964.571 560.032 961.531 559.264 958.011 559.264C955.323 559.264 952.955 559.68 950.907 560.512C948.923 561.28 947.355 562.368 946.203 563.776C945.115 565.12 944.571 566.688 944.571 568.48C944.571 570.336 945.211 572.032 946.491 573.568C947.771 575.04 950.043 576.128 953.307 576.832L964.827 579.328C969.371 580.288 972.539 581.76 974.331 583.744C976.123 585.664 977.019 588.064 977.019 590.944C977.019 593.824 976.251 596.32 974.715 598.432C973.179 600.544 971.003 602.176 968.187 603.328C965.371 604.416 962.075 604.96 958.299 604.96ZM992.466 596.128C993.618 596.128 994.578 596.448 995.346 597.088C996.178 597.664 996.786 598.464 997.17 599.488C997.618 600.512 997.842 601.728 997.842 603.136C997.842 604.8 997.522 606.464 996.882 608.128C996.306 609.792 995.41 611.328 994.194 612.736C993.042 614.144 991.506 615.328 989.586 616.288L986.898 613.888C988.434 613.312 989.778 612.448 990.93 611.296C992.082 610.208 992.946 608.992 993.522 607.648C994.162 606.368 994.45 605.12 994.386 603.904L994.098 603.808C993.906 604.128 993.65 604.352 993.33 604.48C993.01 604.672 992.53 604.768 991.89 604.768C991.314 604.768 990.738 604.576 990.162 604.192C989.586 603.872 989.106 603.424 988.722 602.848C988.338 602.208 988.146 601.44 988.146 600.544C988.146 599.776 988.338 599.04 988.722 598.336C989.17 597.632 989.714 597.088 990.354 596.704C990.994 596.32 991.698 596.128 992.466 596.128ZM1071.01 572.416C1071.01 568.256 1069.89 565.024 1067.65 562.72C1065.41 560.416 1062.21 559.264 1058.05 559.264C1054.41 559.264 1051.27 560.064 1048.65 561.664C1046.02 563.2 1044.07 565.792 1042.79 569.44L1038.85 566.944C1040.26 563.168 1042.6 560.256 1045.86 558.208C1049.19 556.096 1053.29 555.04 1058.15 555.04C1061.67 555.04 1064.74 555.68 1067.37 556.96C1070.05 558.176 1072.13 560 1073.61 562.432C1075.08 564.864 1075.81 567.904 1075.81 571.552V595.552C1075.81 598.944 1077.35 600.64 1080.42 600.64C1081.77 600.64 1082.92 600.416 1083.88 599.968L1083.59 603.808C1082.5 604.384 1081.09 604.672 1079.37 604.672C1077.89 604.672 1076.52 604.384 1075.24 603.808C1073.96 603.232 1072.9 602.272 1072.07 600.928C1071.3 599.584 1070.92 597.76 1070.92 595.456V592.864L1072.26 592.768C1071.69 595.52 1070.41 597.824 1068.42 599.68C1066.5 601.472 1064.26 602.816 1061.7 603.712C1059.14 604.544 1056.58 604.96 1054.02 604.96C1051.01 604.96 1048.33 604.48 1045.96 603.52C1043.59 602.56 1041.73 601.184 1040.39 599.392C1039.05 597.536 1038.37 595.264 1038.37 592.576C1038.37 588.992 1039.56 586.112 1041.93 583.936C1044.36 581.696 1047.75 580.16 1052.1 579.328L1071.97 575.392V579.424L1054.5 582.88C1050.73 583.648 1047.91 584.768 1046.05 586.24C1044.2 587.712 1043.27 589.728 1043.27 592.288C1043.27 594.912 1044.26 596.992 1046.25 598.528C1048.23 600 1051.05 600.736 1054.69 600.736C1056.55 600.736 1058.44 600.48 1060.36 599.968C1062.28 599.456 1064.04 598.656 1065.64 597.568C1067.3 596.416 1068.61 595.008 1069.57 593.344C1070.53 591.616 1071.01 589.536 1071.01 587.104V572.416ZM1110.66 604.96C1107.33 604.96 1104.35 604.352 1101.73 603.136C1099.11 601.92 1097.03 600.032 1095.49 597.472C1094.02 594.848 1093.28 591.584 1093.28 587.68V556H1098.08V586.528C1098.08 591.52 1099.27 595.136 1101.63 597.376C1104.07 599.616 1107.46 600.736 1111.81 600.736C1114.37 600.736 1116.67 600.288 1118.72 599.392C1120.83 598.496 1122.63 597.248 1124.1 595.648C1125.57 594.048 1126.69 592.224 1127.46 590.176C1128.29 588.128 1128.71 585.92 1128.71 583.552V556H1133.51V604H1129.19L1128.99 594.112C1127.59 597.504 1125.28 600.16 1122.08 602.08C1118.88 604 1115.07 604.96 1110.66 604.96ZM1169.3 604.96C1165.14 604.96 1161.39 603.968 1158.06 601.984C1154.74 600 1152.11 597.152 1150.19 593.44C1148.34 589.664 1147.41 585.184 1147.41 580C1147.41 574.688 1148.4 570.176 1150.38 566.464C1152.37 562.752 1155.06 559.936 1158.45 558.016C1161.84 556.032 1165.58 555.04 1169.68 555.04C1174.16 555.04 1177.97 556.224 1181.1 558.592C1184.3 560.96 1186.45 564.256 1187.54 568.48L1186.96 568.864V533.92H1191.76V604H1187.44L1187.15 590.656L1187.73 590.464C1187.15 593.536 1185.97 596.16 1184.18 598.336C1182.45 600.512 1180.27 602.176 1177.65 603.328C1175.09 604.416 1172.3 604.96 1169.3 604.96ZM1169.87 600.736C1173.26 600.736 1176.24 599.904 1178.8 598.24C1181.36 596.512 1183.34 594.048 1184.75 590.848C1186.22 587.648 1186.96 583.904 1186.96 579.616C1186.96 575.392 1186.22 571.776 1184.75 568.768C1183.34 565.696 1181.36 563.36 1178.8 561.76C1176.3 560.096 1173.39 559.264 1170.06 559.264C1164.56 559.264 1160.21 561.12 1157.01 564.832C1153.81 568.544 1152.21 573.6 1152.21 580C1152.21 586.4 1153.78 591.456 1156.91 595.168C1160.11 598.88 1164.43 600.736 1169.87 600.736ZM1211.29 546.688C1210.07 546.688 1209.08 546.336 1208.31 545.632C1207.61 544.864 1207.26 543.872 1207.26 542.656C1207.26 541.44 1207.61 540.48 1208.31 539.776C1209.08 539.008 1210.07 538.624 1211.29 538.624C1212.5 538.624 1213.46 539.008 1214.17 539.776C1214.94 540.48 1215.32 541.44 1215.32 542.656C1215.32 543.872 1214.94 544.864 1214.17 545.632C1213.46 546.336 1212.5 546.688 1211.29 546.688ZM1213.69 556V604H1208.89V556H1213.69ZM1250.32 604.96C1245.9 604.96 1241.96 603.968 1238.51 601.984C1235.05 600 1232.33 597.152 1230.35 593.44C1228.43 589.664 1227.47 585.184 1227.47 580C1227.47 574.816 1228.43 570.368 1230.35 566.656C1232.33 562.88 1234.99 560 1238.32 558.016C1241.64 556.032 1245.45 555.04 1249.74 555.04C1254.09 555.04 1257.8 556 1260.88 557.92C1263.95 559.84 1266.32 562.528 1267.98 565.984C1269.64 569.376 1270.48 573.312 1270.48 577.792C1270.48 578.368 1270.44 578.944 1270.38 579.52C1270.38 580.032 1270.35 580.512 1270.28 580.96H1230.44V576.64H1268.17L1265.77 577.312C1265.71 571.808 1264.24 567.424 1261.36 564.16C1258.54 560.896 1254.64 559.264 1249.64 559.264C1246.19 559.264 1243.15 560.096 1240.52 561.76C1237.9 563.36 1235.85 565.728 1234.38 568.864C1232.91 571.936 1232.17 575.648 1232.17 580C1232.17 584.288 1232.91 588 1234.38 591.136C1235.92 594.272 1238.03 596.672 1240.72 598.336C1243.47 599.936 1246.64 600.736 1250.22 600.736C1253.93 600.736 1257.1 599.936 1259.72 598.336C1262.41 596.736 1264.49 594.528 1265.96 591.712L1269.8 593.92C1268.65 596.224 1267.12 598.208 1265.2 599.872C1263.28 601.472 1261.07 602.72 1258.57 603.616C1256.08 604.512 1253.32 604.96 1250.32 604.96ZM1284.17 604V556H1288.49L1288.87 568L1288.11 567.328C1289 564.704 1290.35 562.496 1292.14 560.704C1293.93 558.848 1296.07 557.44 1298.57 556.48C1301.07 555.52 1303.75 555.04 1306.63 555.04C1310.22 555.04 1313.39 555.712 1316.14 557.056C1318.89 558.4 1321.03 560.384 1322.57 563.008C1324.17 565.632 1324.97 568.928 1324.97 572.896V604H1320.17V574.432C1320.17 569.184 1318.86 565.344 1316.23 562.912C1313.67 560.48 1310.31 559.264 1306.15 559.264C1303.15 559.264 1300.33 559.968 1297.71 561.376C1295.15 562.72 1293.03 564.704 1291.37 567.328C1289.77 569.952 1288.97 573.152 1288.97 576.928V604H1284.17ZM1360.94 555.04C1364.2 555.04 1367.11 555.552 1369.67 556.576C1372.23 557.6 1374.41 559.072 1376.2 560.992C1377.99 562.912 1379.37 565.248 1380.33 568L1375.82 570.112C1374.79 566.656 1373 564 1370.44 562.144C1367.94 560.224 1364.74 559.264 1360.84 559.264C1357.32 559.264 1354.22 560.096 1351.53 561.76C1348.84 563.36 1346.76 565.728 1345.29 568.864C1343.82 571.936 1343.08 575.648 1343.08 580C1343.08 584.288 1343.82 588 1345.29 591.136C1346.76 594.272 1348.81 596.672 1351.43 598.336C1354.06 599.936 1357.16 600.736 1360.74 600.736C1363.43 600.736 1365.86 600.288 1368.04 599.392C1370.28 598.496 1372.1 597.184 1373.51 595.456C1374.98 593.728 1375.94 591.68 1376.39 589.312L1380.81 590.848C1379.98 593.792 1378.6 596.32 1376.68 598.432C1374.82 600.544 1372.55 602.176 1369.86 603.328C1367.18 604.416 1364.17 604.96 1360.84 604.96C1356.49 604.96 1352.58 603.968 1349.13 601.984C1345.74 600 1343.08 597.152 1341.16 593.44C1339.24 589.664 1338.28 585.184 1338.28 580C1338.28 574.816 1339.24 570.368 1341.16 566.656C1343.14 562.88 1345.83 560 1349.22 558.016C1352.68 556.032 1356.58 555.04 1360.94 555.04ZM1413.25 604.96C1408.84 604.96 1404.9 603.968 1401.45 601.984C1397.99 600 1395.27 597.152 1393.29 593.44C1391.37 589.664 1390.41 585.184 1390.41 580C1390.41 574.816 1391.37 570.368 1393.29 566.656C1395.27 562.88 1397.93 560 1401.25 558.016C1404.58 556.032 1408.39 555.04 1412.68 555.04C1417.03 555.04 1420.74 556 1423.81 557.92C1426.89 559.84 1429.25 562.528 1430.92 565.984C1432.58 569.376 1433.41 573.312 1433.41 577.792C1433.41 578.368 1433.38 578.944 1433.32 579.52C1433.32 580.032 1433.29 580.512 1433.22 580.96H1393.38V576.64H1431.11L1428.71 577.312C1428.65 571.808 1427.17 567.424 1424.29 564.16C1421.48 560.896 1417.57 559.264 1412.58 559.264C1409.13 559.264 1406.09 560.096 1403.46 561.76C1400.84 563.36 1398.79 565.728 1397.32 568.864C1395.85 571.936 1395.11 575.648 1395.11 580C1395.11 584.288 1395.85 588 1397.32 591.136C1398.85 594.272 1400.97 596.672 1403.65 598.336C1406.41 599.936 1409.57 600.736 1413.16 600.736C1416.87 600.736 1420.04 599.936 1422.66 598.336C1425.35 596.736 1427.43 594.528 1428.9 591.712L1432.74 593.92C1431.59 596.224 1430.05 598.208 1428.13 599.872C1426.21 601.472 1424.01 602.72 1421.51 603.616C1419.01 604.512 1416.26 604.96 1413.25 604.96ZM1448.65 596.128C1449.81 596.128 1450.77 596.448 1451.53 597.088C1452.37 597.664 1452.97 598.464 1453.36 599.488C1453.81 600.512 1454.03 601.728 1454.03 603.136C1454.03 604.8 1453.71 606.464 1453.07 608.128C1452.49 609.792 1451.6 611.328 1450.38 612.736C1449.23 614.144 1447.69 615.328 1445.77 616.288L1443.09 613.888C1444.62 613.312 1445.97 612.448 1447.12 611.296C1448.27 610.208 1449.13 608.992 1449.71 607.648C1450.35 606.368 1450.64 605.12 1450.57 603.904L1450.29 603.808C1450.09 604.128 1449.84 604.352 1449.52 604.48C1449.2 604.672 1448.72 604.768 1448.08 604.768C1447.5 604.768 1446.93 604.576 1446.35 604.192C1445.77 603.872 1445.29 603.424 1444.91 602.848C1444.53 602.208 1444.33 601.44 1444.33 600.544C1444.33 599.776 1444.53 599.04 1444.91 598.336C1445.36 597.632 1445.9 597.088 1446.54 596.704C1447.18 596.32 1447.89 596.128 1448.65 596.128ZM1527.2 572.416C1527.2 568.256 1526.08 565.024 1523.84 562.72C1521.6 560.416 1518.4 559.264 1514.24 559.264C1510.59 559.264 1507.46 560.064 1504.83 561.664C1502.21 563.2 1500.26 565.792 1498.98 569.44L1495.04 566.944C1496.45 563.168 1498.79 560.256 1502.05 558.208C1505.38 556.096 1509.47 555.04 1514.34 555.04C1517.86 555.04 1520.93 555.68 1523.55 556.96C1526.24 558.176 1528.32 560 1529.79 562.432C1531.27 564.864 1532 567.904 1532 571.552V595.552C1532 598.944 1533.54 600.64 1536.61 600.64C1537.95 600.64 1539.11 600.416 1540.07 599.968L1539.78 603.808C1538.69 604.384 1537.28 604.672 1535.55 604.672C1534.08 604.672 1532.71 604.384 1531.43 603.808C1530.15 603.232 1529.09 602.272 1528.26 600.928C1527.49 599.584 1527.11 597.76 1527.11 595.456V592.864L1528.45 592.768C1527.87 595.52 1526.59 597.824 1524.61 599.68C1522.69 601.472 1520.45 602.816 1517.89 603.712C1515.33 604.544 1512.77 604.96 1510.21 604.96C1507.2 604.96 1504.51 604.48 1502.15 603.52C1499.78 602.56 1497.92 601.184 1496.58 599.392C1495.23 597.536 1494.56 595.264 1494.56 592.576C1494.56 588.992 1495.75 586.112 1498.11 583.936C1500.55 581.696 1503.94 580.16 1508.29 579.328L1528.16 575.392V579.424L1510.69 582.88C1506.91 583.648 1504.1 584.768 1502.24 586.24C1500.39 587.712 1499.46 589.728 1499.46 592.288C1499.46 594.912 1500.45 596.992 1502.43 598.528C1504.42 600 1507.23 600.736 1510.88 600.736C1512.74 600.736 1514.63 600.48 1516.55 599.968C1518.47 599.456 1520.23 598.656 1521.83 597.568C1523.49 596.416 1524.8 595.008 1525.76 593.344C1526.72 591.616 1527.2 589.536 1527.2 587.104V572.416ZM1549.95 604V556H1554.27L1554.65 568L1553.89 567.328C1554.78 564.704 1556.13 562.496 1557.92 560.704C1559.71 558.848 1561.85 557.44 1564.35 556.48C1566.85 555.52 1569.53 555.04 1572.41 555.04C1576 555.04 1579.17 555.712 1581.92 557.056C1584.67 558.4 1586.81 560.384 1588.35 563.008C1589.95 565.632 1590.75 568.928 1590.75 572.896V604H1585.95V574.432C1585.95 569.184 1584.64 565.344 1582.01 562.912C1579.45 560.48 1576.09 559.264 1571.93 559.264C1568.93 559.264 1566.11 559.968 1563.49 561.376C1560.93 562.72 1558.81 564.704 1557.15 567.328C1555.55 569.952 1554.75 573.152 1554.75 576.928V604H1549.95ZM1626.05 604.96C1621.89 604.96 1618.14 603.968 1614.81 601.984C1611.49 600 1608.86 597.152 1606.94 593.44C1605.09 589.664 1604.16 585.184 1604.16 580C1604.16 574.688 1605.15 570.176 1607.13 566.464C1609.12 562.752 1611.81 559.936 1615.2 558.016C1618.59 556.032 1622.33 555.04 1626.43 555.04C1630.91 555.04 1634.72 556.224 1637.85 558.592C1641.05 560.96 1643.2 564.256 1644.29 568.48L1643.71 568.864V533.92H1648.51V604H1644.19L1643.9 590.656L1644.48 590.464C1643.9 593.536 1642.72 596.16 1640.93 598.336C1639.2 600.512 1637.02 602.176 1634.4 603.328C1631.84 604.416 1629.05 604.96 1626.05 604.96ZM1626.62 600.736C1630.01 600.736 1632.99 599.904 1635.55 598.24C1638.11 596.512 1640.09 594.048 1641.5 590.848C1642.97 587.648 1643.71 583.904 1643.71 579.616C1643.71 575.392 1642.97 571.776 1641.5 568.768C1640.09 565.696 1638.11 563.36 1635.55 561.76C1633.05 560.096 1630.14 559.264 1626.81 559.264C1621.31 559.264 1616.96 561.12 1613.76 564.832C1610.56 568.544 1608.96 573.6 1608.96 580C1608.96 586.4 1610.53 591.456 1613.66 595.168C1616.86 598.88 1621.18 600.736 1626.62 600.736ZM637.288 660.168L638.44 664.392C638.376 664.392 638.312 664.392 638.248 664.392C638.184 664.392 638.088 664.392 637.96 664.392C634.824 664.392 632.392 665.224 630.664 666.888C629 668.488 628.168 670.76 628.168 673.704L625.096 672.168C625.096 669.736 625.608 667.624 626.632 665.832C627.656 664.04 629.064 662.664 630.856 661.704C632.648 660.68 634.664 660.168 636.904 660.168C637.032 660.168 637.096 660.168 637.096 660.168C637.16 660.168 637.224 660.168 637.288 660.168ZM622.12 712.104C626.856 712.104 630.568 713.096 633.256 715.08C635.944 717.064 637.288 719.72 637.288 723.048C637.288 725.992 636.296 728.552 634.312 730.728C632.392 732.904 629.736 734.6 626.344 735.816C622.952 737.032 619.08 737.64 614.728 737.64C607.496 737.64 601.96 736.392 598.12 733.896C594.28 731.464 592.36 728.392 592.36 724.68C592.36 721.992 593.32 719.656 595.24 717.672C597.224 715.688 600.104 714.504 603.88 714.12L603.496 714.984C601.448 714.408 599.624 713.448 598.024 712.104C596.488 710.76 595.72 708.84 595.72 706.344C595.72 703.656 596.712 701.48 598.696 699.816C600.744 698.088 603.432 697.096 606.76 696.84L611.848 698.568H609.832C606.888 698.76 604.52 699.496 602.728 700.776C601 701.992 600.136 703.592 600.136 705.576C600.136 707.752 600.968 709.384 602.632 710.472C604.36 711.56 606.536 712.104 609.16 712.104H622.12ZM614.728 733.608C618.504 733.608 621.736 733.16 624.424 732.264C627.112 731.368 629.16 730.152 630.568 728.616C632.04 727.144 632.776 725.48 632.776 723.624C632.776 721.384 631.784 719.592 629.8 718.248C627.88 716.904 624.936 716.232 620.968 716.232H607.336C604.328 716.232 601.832 716.936 599.848 718.344C597.864 719.752 596.872 721.64 596.872 724.008C596.872 726.888 598.44 729.192 601.576 730.92C604.776 732.712 609.16 733.608 614.728 733.608ZM614.056 668.04C617.832 668.04 621.16 668.712 624.04 670.056C626.984 671.336 629.256 673.16 630.856 675.528C632.456 677.832 633.256 680.552 633.256 683.688C633.256 686.76 632.456 689.512 630.856 691.944C629.256 694.312 626.984 696.168 624.04 697.512C621.16 698.792 617.832 699.432 614.056 699.432C607.976 699.432 603.208 697.992 599.752 695.112C596.36 692.168 594.664 688.36 594.664 683.688C594.664 680.552 595.464 677.832 597.064 675.528C598.728 673.16 601 671.336 603.88 670.056C606.824 668.712 610.216 668.04 614.056 668.04ZM614.056 671.976C609.832 671.976 606.376 673.064 603.688 675.24C601 677.352 599.656 680.168 599.656 683.688C599.656 687.208 601 690.056 603.688 692.232C606.376 694.408 609.832 695.496 614.056 695.496C618.28 695.496 621.704 694.408 624.328 692.232C627.016 690.056 628.36 687.208 628.36 683.688C628.36 680.168 627.016 677.352 624.328 675.24C621.704 673.064 618.28 671.976 614.056 671.976ZM666.534 668.04C671.014 668.04 674.95 669.032 678.342 671.016C681.798 673 684.486 675.88 686.406 679.656C688.39 683.368 689.382 687.816 689.382 693C689.382 698.184 688.39 702.664 686.406 706.44C684.486 710.152 681.798 713 678.342 714.984C674.95 716.968 671.014 717.96 666.534 717.96C662.054 717.96 658.086 716.968 654.63 714.984C651.238 713 648.55 710.152 646.566 706.44C644.646 702.664 643.686 698.184 643.686 693C643.686 687.816 644.646 683.368 646.566 679.656C648.55 675.88 651.238 673 654.63 671.016C658.086 669.032 662.054 668.04 666.534 668.04ZM666.534 672.168C662.886 672.168 659.718 673 657.03 674.664C654.342 676.328 652.23 678.728 650.694 681.864C649.222 684.936 648.486 688.648 648.486 693C648.486 697.288 649.222 701 650.694 704.136C652.23 707.272 654.342 709.672 657.03 711.336C659.718 713 662.886 713.832 666.534 713.832C670.182 713.832 673.35 713 676.038 711.336C678.726 709.672 680.806 707.272 682.278 704.136C683.814 701 684.582 697.288 684.582 693C684.582 688.648 683.814 684.936 682.278 681.864C680.806 678.728 678.726 676.328 676.038 674.664C673.35 673 670.182 672.168 666.534 672.168ZM732.483 685.416C732.483 681.256 731.363 678.024 729.123 675.72C726.883 673.416 723.683 672.264 719.523 672.264C715.875 672.264 712.739 673.064 710.115 674.664C707.491 676.2 705.539 678.792 704.259 682.44L700.323 679.944C701.731 676.168 704.067 673.256 707.331 671.208C710.659 669.096 714.755 668.04 719.619 668.04C723.139 668.04 726.211 668.68 728.835 669.96C731.523 671.176 733.603 673 735.075 675.432C736.547 677.864 737.283 680.904 737.283 684.552V708.552C737.283 711.944 738.819 713.64 741.891 713.64C743.235 713.64 744.387 713.416 745.347 712.968L745.059 716.808C743.971 717.384 742.563 717.672 740.835 717.672C739.363 717.672 737.987 717.384 736.707 716.808C735.427 716.232 734.371 715.272 733.539 713.928C732.771 712.584 732.387 710.76 732.387 708.456V705.864L733.731 705.768C733.155 708.52 731.875 710.824 729.891 712.68C727.971 714.472 725.731 715.816 723.171 716.712C720.611 717.544 718.051 717.96 715.491 717.96C712.483 717.96 709.795 717.48 707.427 716.52C705.059 715.56 703.203 714.184 701.859 712.392C700.515 710.536 699.843 708.264 699.843 705.576C699.843 701.992 701.027 699.112 703.395 696.936C705.827 694.696 709.219 693.16 713.571 692.328L733.443 688.392V692.424L715.971 695.88C712.195 696.648 709.379 697.768 707.523 699.24C705.667 700.712 704.739 702.728 704.739 705.288C704.739 707.912 705.731 709.992 707.715 711.528C709.699 713 712.515 713.736 716.163 713.736C718.019 713.736 719.907 713.48 721.827 712.968C723.747 712.456 725.507 711.656 727.107 710.568C728.771 709.416 730.083 708.008 731.043 706.344C732.003 704.616 732.483 702.536 732.483 700.104V685.416ZM759.648 646.92V705.672C759.648 708.616 760.16 710.696 761.184 711.912C762.208 713.128 763.808 713.736 765.984 713.736C767.328 713.736 768.384 713.64 769.152 713.448C769.984 713.256 770.944 712.936 772.031 712.488L771.359 716.712C770.528 717.096 769.568 717.384 768.48 717.576C767.456 717.832 766.304 717.96 765.024 717.96C761.632 717.96 759.072 717 757.344 715.08C755.68 713.096 754.848 710.024 754.848 705.864V646.92H759.648ZM797.799 717.96C792.935 717.96 788.615 716.968 784.839 714.984C781.127 713 778.503 710.152 776.967 706.44L781.095 703.656C782.247 706.856 784.295 709.352 787.239 711.144C790.247 712.872 793.895 713.736 798.183 713.736C802.407 713.736 805.703 712.904 808.071 711.24C810.503 709.576 811.719 707.368 811.719 704.616C811.719 702.76 811.111 701.16 809.895 699.816C808.743 698.408 806.535 697.352 803.271 696.648L792.039 694.248C787.431 693.288 784.135 691.752 782.151 689.64C780.231 687.464 779.271 684.84 779.271 681.768C779.271 679.208 780.039 676.904 781.575 674.856C783.111 672.808 785.223 671.176 787.911 669.96C790.663 668.68 793.863 668.04 797.511 668.04C802.311 668.04 806.279 669 809.415 670.92C812.551 672.776 814.759 675.592 816.039 679.368L812.007 681.96C811.047 678.568 809.255 676.104 806.631 674.568C804.071 673.032 801.031 672.264 797.511 672.264C794.823 672.264 792.455 672.68 790.407 673.512C788.423 674.28 786.855 675.368 785.703 676.776C784.615 678.12 784.071 679.688 784.071 681.48C784.071 683.336 784.711 685.032 785.991 686.568C787.271 688.04 789.543 689.128 792.807 689.832L804.327 692.328C808.871 693.288 812.039 694.76 813.831 696.744C815.623 698.664 816.519 701.064 816.519 703.944C816.519 706.824 815.751 709.32 814.215 711.432C812.679 713.544 810.503 715.176 807.687 716.328C804.871 717.416 801.575 717.96 797.799 717.96ZM938.188 689.256V693.768H858.7V689.256H938.188ZM988.491 646.92V705.672C988.491 708.616 989.003 710.696 990.027 711.912C991.051 713.128 992.651 713.736 994.827 713.736C996.171 713.736 997.227 713.64 997.995 713.448C998.827 713.256 999.787 712.936 1000.88 712.488L1000.2 716.712C999.371 717.096 998.411 717.384 997.323 717.576C996.299 717.832 995.147 717.96 993.867 717.96C990.475 717.96 987.915 717 986.187 715.08C984.523 713.096 983.691 710.024 983.691 705.864V646.92H988.491ZM1039.8 685.416C1039.8 681.256 1038.68 678.024 1036.44 675.72C1034.2 673.416 1031 672.264 1026.84 672.264C1023.19 672.264 1020.05 673.064 1017.43 674.664C1014.8 676.2 1012.85 678.792 1011.57 682.44L1007.64 679.944C1009.04 676.168 1011.38 673.256 1014.64 671.208C1017.97 669.096 1022.07 668.04 1026.93 668.04C1030.45 668.04 1033.52 668.68 1036.15 669.96C1038.84 671.176 1040.92 673 1042.39 675.432C1043.86 677.864 1044.6 680.904 1044.6 684.552V708.552C1044.6 711.944 1046.13 713.64 1049.2 713.64C1050.55 713.64 1051.7 713.416 1052.66 712.968L1052.37 716.808C1051.28 717.384 1049.88 717.672 1048.15 717.672C1046.68 717.672 1045.3 717.384 1044.02 716.808C1042.74 716.232 1041.68 715.272 1040.85 713.928C1040.08 712.584 1039.7 710.76 1039.7 708.456V705.864L1041.04 705.768C1040.47 708.52 1039.19 710.824 1037.2 712.68C1035.28 714.472 1033.04 715.816 1030.48 716.712C1027.92 717.544 1025.36 717.96 1022.8 717.96C1019.8 717.96 1017.11 717.48 1014.74 716.52C1012.37 715.56 1010.52 714.184 1009.17 712.392C1007.83 710.536 1007.16 708.264 1007.16 705.576C1007.16 701.992 1008.34 699.112 1010.71 696.936C1013.14 694.696 1016.53 693.16 1020.88 692.328L1040.76 688.392V692.424L1023.28 695.88C1019.51 696.648 1016.69 697.768 1014.84 699.24C1012.98 700.712 1012.05 702.728 1012.05 705.288C1012.05 707.912 1013.04 709.992 1015.03 711.528C1017.01 713 1019.83 713.736 1023.48 713.736C1025.33 713.736 1027.22 713.48 1029.14 712.968C1031.06 712.456 1032.82 711.656 1034.42 710.568C1036.08 709.416 1037.4 708.008 1038.36 706.344C1039.32 704.616 1039.8 702.536 1039.8 700.104V685.416ZM1098.12 669L1074.89 725.832C1073.73 728.776 1072.49 731.112 1071.14 732.84C1069.8 734.568 1068.29 735.784 1066.63 736.488C1064.97 737.256 1063.05 737.64 1060.87 737.64C1058.95 737.64 1057.19 737.352 1055.59 736.776C1053.99 736.2 1052.68 735.4 1051.65 734.376L1053.19 730.248C1054.15 731.4 1055.3 732.2 1056.65 732.648C1057.99 733.16 1059.37 733.416 1060.77 733.416C1062.82 733.416 1064.65 732.808 1066.25 731.592C1067.85 730.44 1069.35 728.136 1070.76 724.68L1073.93 717L1068.84 705.096L1053.67 669H1059.14L1073.83 705.384L1076.23 711.816L1078.82 704.904L1092.93 669H1098.12ZM1110.69 659.688C1109.48 659.688 1108.49 659.336 1107.72 658.632C1107.01 657.864 1106.66 656.872 1106.66 655.656C1106.66 654.44 1107.01 653.48 1107.72 652.776C1108.49 652.008 1109.48 651.624 1110.69 651.624C1111.91 651.624 1112.87 652.008 1113.57 652.776C1114.34 653.48 1114.73 654.44 1114.73 655.656C1114.73 656.872 1114.34 657.864 1113.57 658.632C1112.87 659.336 1111.91 659.688 1110.69 659.688ZM1113.09 669V717H1108.29V669H1113.09ZM1130.14 717V669H1134.46L1134.84 681L1134.07 680.328C1134.97 677.704 1136.31 675.496 1138.11 673.704C1139.9 671.848 1142.04 670.44 1144.54 669.48C1147.03 668.52 1149.72 668.04 1152.6 668.04C1156.19 668.04 1159.35 668.712 1162.11 670.056C1164.86 671.4 1167 673.384 1168.54 676.008C1170.14 678.632 1170.94 681.928 1170.94 685.896V717H1166.14V687.432C1166.14 682.184 1164.83 678.344 1162.2 675.912C1159.64 673.48 1156.28 672.264 1152.12 672.264C1149.11 672.264 1146.3 672.968 1143.67 674.376C1141.11 675.72 1139 677.704 1137.34 680.328C1135.74 682.952 1134.94 686.152 1134.94 689.928V717H1130.14ZM1227.26 660.168L1228.41 664.392C1228.34 664.392 1228.28 664.392 1228.22 664.392C1228.15 664.392 1228.06 664.392 1227.93 664.392C1224.79 664.392 1222.36 665.224 1220.63 666.888C1218.97 668.488 1218.14 670.76 1218.14 673.704L1215.06 672.168C1215.06 669.736 1215.58 667.624 1216.6 665.832C1217.62 664.04 1219.03 662.664 1220.82 661.704C1222.62 660.68 1224.63 660.168 1226.87 660.168C1227 660.168 1227.06 660.168 1227.06 660.168C1227.13 660.168 1227.19 660.168 1227.26 660.168ZM1212.09 712.104C1216.82 712.104 1220.54 713.096 1223.22 715.08C1225.91 717.064 1227.26 719.72 1227.26 723.048C1227.26 725.992 1226.26 728.552 1224.28 730.728C1222.36 732.904 1219.7 734.6 1216.31 735.816C1212.92 737.032 1209.05 737.64 1204.7 737.64C1197.46 737.64 1191.93 736.392 1188.09 733.896C1184.25 731.464 1182.33 728.392 1182.33 724.68C1182.33 721.992 1183.29 719.656 1185.21 717.672C1187.19 715.688 1190.07 714.504 1193.85 714.12L1193.46 714.984C1191.42 714.408 1189.59 713.448 1187.99 712.104C1186.46 710.76 1185.69 708.84 1185.69 706.344C1185.69 703.656 1186.68 701.48 1188.66 699.816C1190.71 698.088 1193.4 697.096 1196.73 696.84L1201.82 698.568H1199.8C1196.86 698.76 1194.49 699.496 1192.7 700.776C1190.97 701.992 1190.1 703.592 1190.1 705.576C1190.1 707.752 1190.94 709.384 1192.6 710.472C1194.33 711.56 1196.5 712.104 1199.13 712.104H1212.09ZM1204.7 733.608C1208.47 733.608 1211.7 733.16 1214.39 732.264C1217.08 731.368 1219.13 730.152 1220.54 728.616C1222.01 727.144 1222.74 725.48 1222.74 723.624C1222.74 721.384 1221.75 719.592 1219.77 718.248C1217.85 716.904 1214.9 716.232 1210.94 716.232H1197.3C1194.3 716.232 1191.8 716.936 1189.82 718.344C1187.83 719.752 1186.84 721.64 1186.84 724.008C1186.84 726.888 1188.41 729.192 1191.54 730.92C1194.74 732.712 1199.13 733.608 1204.7 733.608ZM1204.02 668.04C1207.8 668.04 1211.13 668.712 1214.01 670.056C1216.95 671.336 1219.22 673.16 1220.82 675.528C1222.42 677.832 1223.22 680.552 1223.22 683.688C1223.22 686.76 1222.42 689.512 1220.82 691.944C1219.22 694.312 1216.95 696.168 1214.01 697.512C1211.13 698.792 1207.8 699.432 1204.02 699.432C1197.94 699.432 1193.18 697.992 1189.72 695.112C1186.33 692.168 1184.63 688.36 1184.63 683.688C1184.63 680.552 1185.43 677.832 1187.03 675.528C1188.7 673.16 1190.97 671.336 1193.85 670.056C1196.79 668.712 1200.18 668.04 1204.02 668.04ZM1204.02 671.976C1199.8 671.976 1196.34 673.064 1193.66 675.24C1190.97 677.352 1189.62 680.168 1189.62 683.688C1189.62 687.208 1190.97 690.056 1193.66 692.232C1196.34 694.408 1199.8 695.496 1204.02 695.496C1208.25 695.496 1211.67 694.408 1214.3 692.232C1216.98 690.056 1218.33 687.208 1218.33 683.688C1218.33 680.168 1216.98 677.352 1214.3 675.24C1211.67 673.064 1208.25 671.976 1204.02 671.976ZM1273.11 655.656V704.328C1273.11 707.336 1273.81 709.64 1275.22 711.24C1276.69 712.776 1278.8 713.544 1281.55 713.544C1283.35 713.544 1284.91 713.256 1286.26 712.68C1287.67 712.04 1288.91 711.144 1290 709.992L1291.83 713.928C1290.61 715.144 1289.07 716.136 1287.22 716.904C1285.36 717.608 1283.28 717.96 1280.98 717.96C1278.48 717.96 1276.27 717.512 1274.35 716.616C1272.43 715.656 1270.93 714.216 1269.84 712.296C1268.82 710.376 1268.31 707.944 1268.31 705V657L1273.11 655.656ZM1291.06 669V673.128H1258.71V669H1291.06ZM1301.33 717V646.92H1306.13V678.792C1307.53 675.4 1309.81 672.776 1312.94 670.92C1316.08 669 1319.69 668.04 1323.79 668.04C1327.37 668.04 1330.54 668.712 1333.29 670.056C1336.05 671.336 1338.19 673.32 1339.73 676.008C1341.33 678.632 1342.13 681.896 1342.13 685.8V717H1337.33V687.336C1337.33 682.152 1336.01 678.344 1333.39 675.912C1330.83 673.416 1327.47 672.168 1323.31 672.168C1320.3 672.168 1317.49 672.872 1314.86 674.28C1312.3 675.688 1310.19 677.704 1308.53 680.328C1306.93 682.952 1306.13 686.152 1306.13 689.928V717H1301.33ZM1378.28 717.96C1373.87 717.96 1369.93 716.968 1366.48 714.984C1363.02 713 1360.3 710.152 1358.32 706.44C1356.4 702.664 1355.44 698.184 1355.44 693C1355.44 687.816 1356.4 683.368 1358.32 679.656C1360.3 675.88 1362.96 673 1366.28 671.016C1369.61 669.032 1373.42 668.04 1377.71 668.04C1382.06 668.04 1385.77 669 1388.84 670.92C1391.92 672.84 1394.28 675.528 1395.95 678.984C1397.61 682.376 1398.44 686.312 1398.44 690.792C1398.44 691.368 1398.41 691.944 1398.35 692.52C1398.35 693.032 1398.32 693.512 1398.25 693.96H1358.41V689.64H1396.14L1393.74 690.312C1393.68 684.808 1392.2 680.424 1389.32 677.16C1386.51 673.896 1382.6 672.264 1377.61 672.264C1374.16 672.264 1371.12 673.096 1368.49 674.76C1365.87 676.36 1363.82 678.728 1362.35 681.864C1360.88 684.936 1360.14 688.648 1360.14 693C1360.14 697.288 1360.88 701 1362.35 704.136C1363.88 707.272 1366 709.672 1368.68 711.336C1371.44 712.936 1374.6 713.736 1378.19 713.736C1381.9 713.736 1385.07 712.936 1387.69 711.336C1390.38 709.736 1392.46 707.528 1393.93 704.712L1397.77 706.92C1396.62 709.224 1395.08 711.208 1393.16 712.872C1391.24 714.472 1389.04 715.72 1386.54 716.616C1384.04 717.512 1381.29 717.96 1378.28 717.96ZM637.288 773.168L638.44 777.392C638.376 777.392 638.312 777.392 638.248 777.392C638.184 777.392 638.088 777.392 637.96 777.392C634.824 777.392 632.392 778.224 630.664 779.888C629 781.488 628.168 783.76 628.168 786.704L625.096 785.168C625.096 782.736 625.608 780.624 626.632 778.832C627.656 777.04 629.064 775.664 630.856 774.704C632.648 773.68 634.664 773.168 636.904 773.168C637.032 773.168 637.096 773.168 637.096 773.168C637.16 773.168 637.224 773.168 637.288 773.168ZM622.12 825.104C626.856 825.104 630.568 826.096 633.256 828.08C635.944 830.064 637.288 832.72 637.288 836.048C637.288 838.992 636.296 841.552 634.312 843.728C632.392 845.904 629.736 847.6 626.344 848.816C622.952 850.032 619.08 850.64 614.728 850.64C607.496 850.64 601.96 849.392 598.12 846.896C594.28 844.464 592.36 841.392 592.36 837.68C592.36 834.992 593.32 832.656 595.24 830.672C597.224 828.688 600.104 827.504 603.88 827.12L603.496 827.984C601.448 827.408 599.624 826.448 598.024 825.104C596.488 823.76 595.72 821.84 595.72 819.344C595.72 816.656 596.712 814.48 598.696 812.816C600.744 811.088 603.432 810.096 606.76 809.84L611.848 811.568H609.832C606.888 811.76 604.52 812.496 602.728 813.776C601 814.992 600.136 816.592 600.136 818.576C600.136 820.752 600.968 822.384 602.632 823.472C604.36 824.56 606.536 825.104 609.16 825.104H622.12ZM614.728 846.608C618.504 846.608 621.736 846.16 624.424 845.264C627.112 844.368 629.16 843.152 630.568 841.616C632.04 840.144 632.776 838.48 632.776 836.624C632.776 834.384 631.784 832.592 629.8 831.248C627.88 829.904 624.936 829.232 620.968 829.232H607.336C604.328 829.232 601.832 829.936 599.848 831.344C597.864 832.752 596.872 834.64 596.872 837.008C596.872 839.888 598.44 842.192 601.576 843.92C604.776 845.712 609.16 846.608 614.728 846.608ZM614.056 781.04C617.832 781.04 621.16 781.712 624.04 783.056C626.984 784.336 629.256 786.16 630.856 788.528C632.456 790.832 633.256 793.552 633.256 796.688C633.256 799.76 632.456 802.512 630.856 804.944C629.256 807.312 626.984 809.168 624.04 810.512C621.16 811.792 617.832 812.432 614.056 812.432C607.976 812.432 603.208 810.992 599.752 808.112C596.36 805.168 594.664 801.36 594.664 796.688C594.664 793.552 595.464 790.832 597.064 788.528C598.728 786.16 601 784.336 603.88 783.056C606.824 781.712 610.216 781.04 614.056 781.04ZM614.056 784.976C609.832 784.976 606.376 786.064 603.688 788.24C601 790.352 599.656 793.168 599.656 796.688C599.656 800.208 601 803.056 603.688 805.232C606.376 807.408 609.832 808.496 614.056 808.496C618.28 808.496 621.704 807.408 624.328 805.232C627.016 803.056 628.36 800.208 628.36 796.688C628.36 793.168 627.016 790.352 624.328 788.24C621.704 786.064 618.28 784.976 614.056 784.976ZM646.95 830V782H650.982L651.558 792.08C652.774 788.688 654.726 786 657.414 784.016C660.102 782.032 663.334 781.04 667.11 781.04C668.39 781.04 669.542 781.168 670.566 781.424C671.59 781.68 672.422 782.096 673.062 782.672L672.006 786.896C671.302 786.448 670.534 786.096 669.702 785.84C668.87 785.584 667.622 785.456 665.958 785.456C663.526 785.456 661.222 786.224 659.046 787.76C656.87 789.232 655.11 791.312 653.766 794C652.422 796.624 651.75 799.664 651.75 803.12V830H646.95ZM700.566 781.04C705.046 781.04 708.982 782.032 712.374 784.016C715.83 786 718.518 788.88 720.438 792.656C722.422 796.368 723.414 800.816 723.414 806C723.414 811.184 722.422 815.664 720.438 819.44C718.518 823.152 715.83 826 712.374 827.984C708.982 829.968 705.046 830.96 700.566 830.96C696.086 830.96 692.118 829.968 688.662 827.984C685.27 826 682.582 823.152 680.598 819.44C678.678 815.664 677.718 811.184 677.718 806C677.718 800.816 678.678 796.368 680.598 792.656C682.582 788.88 685.27 786 688.662 784.016C692.118 782.032 696.086 781.04 700.566 781.04ZM700.566 785.168C696.918 785.168 693.75 786 691.062 787.664C688.374 789.328 686.262 791.728 684.726 794.864C683.254 797.936 682.518 801.648 682.518 806C682.518 810.288 683.254 814 684.726 817.136C686.262 820.272 688.374 822.672 691.062 824.336C693.75 826 696.918 826.832 700.566 826.832C704.214 826.832 707.382 826 710.07 824.336C712.758 822.672 714.838 820.272 716.31 817.136C717.846 814 718.614 810.288 718.614 806C718.614 801.648 717.846 797.936 716.31 794.864C714.838 791.728 712.758 789.328 710.07 787.664C707.382 786 704.214 785.168 700.566 785.168ZM754.034 830.96C750.706 830.96 747.73 830.352 745.106 829.136C742.482 827.92 740.402 826.032 738.866 823.472C737.394 820.848 736.658 817.584 736.658 813.68V782H741.458V812.528C741.458 817.52 742.642 821.136 745.01 823.376C747.442 825.616 750.834 826.736 755.186 826.736C757.746 826.736 760.05 826.288 762.098 825.392C764.21 824.496 766.002 823.248 767.474 821.648C768.946 820.048 770.066 818.224 770.834 816.176C771.666 814.128 772.082 811.92 772.082 809.552V782H776.882V830H772.562L772.37 820.112C770.962 823.504 768.658 826.16 765.458 828.08C762.258 830 758.45 830.96 754.034 830.96ZM793.95 830V782H798.27L798.654 794L797.886 793.328C798.782 790.704 800.126 788.496 801.918 786.704C803.71 784.848 805.854 783.44 808.35 782.48C810.846 781.52 813.534 781.04 816.414 781.04C819.998 781.04 823.166 781.712 825.918 783.056C828.67 784.4 830.814 786.384 832.35 789.008C833.95 791.632 834.75 794.928 834.75 798.896V830H829.95V800.432C829.95 795.184 828.638 791.344 826.014 788.912C823.454 786.48 820.094 785.264 815.934 785.264C812.926 785.264 810.11 785.968 807.486 787.376C804.926 788.72 802.814 790.704 801.15 793.328C799.55 795.952 798.75 799.152 798.75 802.928V830H793.95ZM870.045 830.96C865.885 830.96 862.141 829.968 858.813 827.984C855.485 826 852.861 823.152 850.941 819.44C849.085 815.664 848.157 811.184 848.157 806C848.157 800.688 849.149 796.176 851.133 792.464C853.117 788.752 855.805 785.936 859.197 784.016C862.589 782.032 866.333 781.04 870.429 781.04C874.909 781.04 878.717 782.224 881.853 784.592C885.053 786.96 887.197 790.256 888.285 794.48L887.709 794.864V759.92H892.509V830H888.189L887.901 816.656L888.477 816.464C887.901 819.536 886.717 822.16 884.925 824.336C883.197 826.512 881.021 828.176 878.397 829.328C875.837 830.416 873.053 830.96 870.045 830.96ZM870.621 826.736C874.013 826.736 876.989 825.904 879.549 824.24C882.109 822.512 884.093 820.048 885.501 816.848C886.973 813.648 887.709 809.904 887.709 805.616C887.709 801.392 886.973 797.776 885.501 794.768C884.093 791.696 882.109 789.36 879.549 787.76C877.053 786.096 874.141 785.264 870.813 785.264C865.309 785.264 860.957 787.12 857.757 790.832C854.557 794.544 852.957 799.6 852.957 806C852.957 812.4 854.525 817.456 857.661 821.168C860.861 824.88 865.181 826.736 870.621 826.736ZM970.79 782H976.07L959.75 830H954.95L939.782 788.24L924.902 830H920.102L903.782 782H909.062L922.598 824.24L937.478 782H942.374L957.35 824.24L970.79 782ZM1005.63 781.04C1010.11 781.04 1014.04 782.032 1017.44 784.016C1020.89 786 1023.58 788.88 1025.5 792.656C1027.48 796.368 1028.48 800.816 1028.48 806C1028.48 811.184 1027.48 815.664 1025.5 819.44C1023.58 823.152 1020.89 826 1017.44 827.984C1014.04 829.968 1010.11 830.96 1005.63 830.96C1001.15 830.96 997.18 829.968 993.724 827.984C990.332 826 987.644 823.152 985.66 819.44C983.74 815.664 982.78 811.184 982.78 806C982.78 800.816 983.74 796.368 985.66 792.656C987.644 788.88 990.332 786 993.724 784.016C997.18 782.032 1001.15 781.04 1005.63 781.04ZM1005.63 785.168C1001.98 785.168 998.812 786 996.124 787.664C993.436 789.328 991.324 791.728 989.788 794.864C988.316 797.936 987.58 801.648 987.58 806C987.58 810.288 988.316 814 989.788 817.136C991.324 820.272 993.436 822.672 996.124 824.336C998.812 826 1001.98 826.832 1005.63 826.832C1009.28 826.832 1012.44 826 1015.13 824.336C1017.82 822.672 1019.9 820.272 1021.37 817.136C1022.91 814 1023.68 810.288 1023.68 806C1023.68 801.648 1022.91 797.936 1021.37 794.864C1019.9 791.728 1017.82 789.328 1015.13 787.664C1012.44 786 1009.28 785.168 1005.63 785.168ZM1042.2 830V782H1046.23L1046.81 792.08C1048.02 788.688 1049.98 786 1052.66 784.016C1055.35 782.032 1058.58 781.04 1062.36 781.04C1063.64 781.04 1064.79 781.168 1065.82 781.424C1066.84 781.68 1067.67 782.096 1068.31 782.672L1067.26 786.896C1066.55 786.448 1065.78 786.096 1064.95 785.84C1064.12 785.584 1062.87 785.456 1061.21 785.456C1058.78 785.456 1056.47 786.224 1054.3 787.76C1052.12 789.232 1050.36 791.312 1049.02 794C1047.67 796.624 1047 799.664 1047 803.12V830H1042.2ZM1118.03 782L1096.91 802.352L1095.76 803.504L1080.88 817.904V811.76L1111.79 782H1118.03ZM1083.28 759.92V830H1078.48V759.92H1083.28ZM1097.2 799.856L1118.8 830H1112.95L1093.27 802.64L1097.2 799.856ZM1173.21 759.44C1174.93 759.44 1176.47 759.664 1177.81 760.112C1179.16 760.56 1180.21 761.2 1180.98 762.032L1179.64 765.872C1178.81 765.104 1177.91 764.56 1176.95 764.24C1175.99 763.92 1174.87 763.76 1173.59 763.76C1170.45 763.76 1168.02 764.656 1166.29 766.448C1164.57 768.24 1163.7 770.896 1163.7 774.416V782V783.728V830H1158.9V773.936C1158.9 771.76 1159.19 769.776 1159.77 767.984C1160.41 766.192 1161.33 764.688 1162.55 763.472C1163.77 762.192 1165.27 761.2 1167.06 760.496C1168.85 759.792 1170.9 759.44 1173.21 759.44ZM1180.6 782V786.128H1149.3V782H1180.6ZM1207.66 781.04C1212.14 781.04 1216.08 782.032 1219.47 784.016C1222.92 786 1225.61 788.88 1227.53 792.656C1229.52 796.368 1230.51 800.816 1230.51 806C1230.51 811.184 1229.52 815.664 1227.53 819.44C1225.61 823.152 1222.92 826 1219.47 827.984C1216.08 829.968 1212.14 830.96 1207.66 830.96C1203.18 830.96 1199.21 829.968 1195.76 827.984C1192.36 826 1189.68 823.152 1187.69 819.44C1185.77 815.664 1184.81 811.184 1184.81 806C1184.81 800.816 1185.77 796.368 1187.69 792.656C1189.68 788.88 1192.36 786 1195.76 784.016C1199.21 782.032 1203.18 781.04 1207.66 781.04ZM1207.66 785.168C1204.01 785.168 1200.84 786 1198.16 787.664C1195.47 789.328 1193.36 791.728 1191.82 794.864C1190.35 797.936 1189.61 801.648 1189.61 806C1189.61 810.288 1190.35 814 1191.82 817.136C1193.36 820.272 1195.47 822.672 1198.16 824.336C1200.84 826 1204.01 826.832 1207.66 826.832C1211.31 826.832 1214.48 826 1217.16 824.336C1219.85 822.672 1221.93 820.272 1223.4 817.136C1224.94 814 1225.71 810.288 1225.71 806C1225.71 801.648 1224.94 797.936 1223.4 794.864C1221.93 791.728 1219.85 789.328 1217.16 787.664C1214.48 786 1211.31 785.168 1207.66 785.168ZM1244.23 830V782H1248.26L1248.84 792.08C1250.06 788.688 1252.01 786 1254.7 784.016C1257.38 782.032 1260.62 781.04 1264.39 781.04C1265.67 781.04 1266.82 781.168 1267.85 781.424C1268.87 781.68 1269.7 782.096 1270.34 782.672L1269.29 786.896C1268.58 786.448 1267.82 786.096 1266.98 785.84C1266.15 785.584 1264.9 785.456 1263.24 785.456C1260.81 785.456 1258.5 786.224 1256.33 787.76C1254.15 789.232 1252.39 791.312 1251.05 794C1249.7 796.624 1249.03 799.664 1249.03 803.12V830H1244.23ZM1324.05 759.44C1325.78 759.44 1327.31 759.664 1328.66 760.112C1330 760.56 1331.06 761.2 1331.83 762.032L1330.48 765.872C1329.65 765.104 1328.75 764.56 1327.79 764.24C1326.83 763.92 1325.71 763.76 1324.43 763.76C1321.3 763.76 1318.87 764.656 1317.14 766.448C1315.41 768.24 1314.55 770.896 1314.55 774.416V782V783.728V830H1309.75V773.936C1309.75 771.76 1310.03 769.776 1310.61 767.984C1311.25 766.192 1312.18 764.688 1313.39 763.472C1314.61 762.192 1316.11 761.2 1317.91 760.496C1319.7 759.792 1321.75 759.44 1324.05 759.44ZM1331.44 782V786.128H1300.15V782H1331.44ZM1358.5 781.04C1362.98 781.04 1366.92 782.032 1370.31 784.016C1373.77 786 1376.46 788.88 1378.38 792.656C1380.36 796.368 1381.35 800.816 1381.35 806C1381.35 811.184 1380.36 815.664 1378.38 819.44C1376.46 823.152 1373.77 826 1370.31 827.984C1366.92 829.968 1362.98 830.96 1358.5 830.96C1354.02 830.96 1350.06 829.968 1346.6 827.984C1343.21 826 1340.52 823.152 1338.54 819.44C1336.62 815.664 1335.66 811.184 1335.66 806C1335.66 800.816 1336.62 796.368 1338.54 792.656C1340.52 788.88 1343.21 786 1346.6 784.016C1350.06 782.032 1354.02 781.04 1358.5 781.04ZM1358.5 785.168C1354.86 785.168 1351.69 786 1349 787.664C1346.31 789.328 1344.2 791.728 1342.66 794.864C1341.19 797.936 1340.46 801.648 1340.46 806C1340.46 810.288 1341.19 814 1342.66 817.136C1344.2 820.272 1346.31 822.672 1349 824.336C1351.69 826 1354.86 826.832 1358.5 826.832C1362.15 826.832 1365.32 826 1368.01 824.336C1370.7 822.672 1372.78 820.272 1374.25 817.136C1375.78 814 1376.55 810.288 1376.55 806C1376.55 801.648 1375.78 797.936 1374.25 794.864C1372.78 791.728 1370.7 789.328 1368.01 787.664C1365.32 786 1362.15 785.168 1358.5 785.168ZM1414.47 781.04C1417.73 781.04 1420.64 781.552 1423.2 782.576C1425.76 783.6 1427.94 785.072 1429.73 786.992C1431.52 788.912 1432.9 791.248 1433.86 794L1429.35 796.112C1428.32 792.656 1426.53 790 1423.97 788.144C1421.48 786.224 1418.28 785.264 1414.37 785.264C1410.85 785.264 1407.75 786.096 1405.06 787.76C1402.37 789.36 1400.29 791.728 1398.82 794.864C1397.35 797.936 1396.61 801.648 1396.61 806C1396.61 810.288 1397.35 814 1398.82 817.136C1400.29 820.272 1402.34 822.672 1404.96 824.336C1407.59 825.936 1410.69 826.736 1414.28 826.736C1416.96 826.736 1419.4 826.288 1421.57 825.392C1423.81 824.496 1425.64 823.184 1427.04 821.456C1428.52 819.728 1429.48 817.68 1429.92 815.312L1434.34 816.848C1433.51 819.792 1432.13 822.32 1430.21 824.432C1428.36 826.544 1426.08 828.176 1423.4 829.328C1420.71 830.416 1417.7 830.96 1414.37 830.96C1410.02 830.96 1406.12 829.968 1402.66 827.984C1399.27 826 1396.61 823.152 1394.69 819.44C1392.77 815.664 1391.81 811.184 1391.81 806C1391.81 800.816 1392.77 796.368 1394.69 792.656C1396.68 788.88 1399.36 786 1402.76 784.016C1406.21 782.032 1410.12 781.04 1414.47 781.04ZM1464.1 830.96C1460.77 830.96 1457.79 830.352 1455.17 829.136C1452.54 827.92 1450.46 826.032 1448.93 823.472C1447.46 820.848 1446.72 817.584 1446.72 813.68V782H1451.52V812.528C1451.52 817.52 1452.7 821.136 1455.07 823.376C1457.5 825.616 1460.9 826.736 1465.25 826.736C1467.81 826.736 1470.11 826.288 1472.16 825.392C1474.27 824.496 1476.06 823.248 1477.54 821.648C1479.01 820.048 1480.13 818.224 1480.9 816.176C1481.73 814.128 1482.14 811.92 1482.14 809.552V782H1486.94V830H1482.62L1482.43 820.112C1481.02 823.504 1478.72 826.16 1475.52 828.08C1472.32 830 1468.51 830.96 1464.1 830.96ZM1520.24 830.96C1515.37 830.96 1511.05 829.968 1507.28 827.984C1503.56 826 1500.94 823.152 1499.4 819.44L1503.53 816.656C1504.68 819.856 1506.73 822.352 1509.68 824.144C1512.68 825.872 1516.33 826.736 1520.62 826.736C1524.84 826.736 1528.14 825.904 1530.51 824.24C1532.94 822.576 1534.16 820.368 1534.16 817.616C1534.16 815.76 1533.55 814.16 1532.33 812.816C1531.18 811.408 1528.97 810.352 1525.71 809.648L1514.48 807.248C1509.87 806.288 1506.57 804.752 1504.59 802.64C1502.67 800.464 1501.71 797.84 1501.71 794.768C1501.71 792.208 1502.48 789.904 1504.01 787.856C1505.55 785.808 1507.66 784.176 1510.35 782.96C1513.1 781.68 1516.3 781.04 1519.95 781.04C1524.75 781.04 1528.72 782 1531.85 783.92C1534.99 785.776 1537.2 788.592 1538.48 792.368L1534.44 794.96C1533.48 791.568 1531.69 789.104 1529.07 787.568C1526.51 786.032 1523.47 785.264 1519.95 785.264C1517.26 785.264 1514.89 785.68 1512.84 786.512C1510.86 787.28 1509.29 788.368 1508.14 789.776C1507.05 791.12 1506.51 792.688 1506.51 794.48C1506.51 796.336 1507.15 798.032 1508.43 799.568C1509.71 801.04 1511.98 802.128 1515.24 802.832L1526.76 805.328C1531.31 806.288 1534.48 807.76 1536.27 809.744C1538.06 811.664 1538.96 814.064 1538.96 816.944C1538.96 819.824 1538.19 822.32 1536.65 824.432C1535.12 826.544 1532.94 828.176 1530.12 829.328C1527.31 830.416 1524.01 830.96 1520.24 830.96ZM1571.97 830.96C1567.56 830.96 1563.62 829.968 1560.16 827.984C1556.71 826 1553.99 823.152 1552 819.44C1550.08 815.664 1549.12 811.184 1549.12 806C1549.12 800.816 1550.08 796.368 1552 792.656C1553.99 788.88 1556.64 786 1559.97 784.016C1563.3 782.032 1567.11 781.04 1571.4 781.04C1575.75 781.04 1579.46 782 1582.53 783.92C1585.6 785.84 1587.97 788.528 1589.64 791.984C1591.3 795.376 1592.13 799.312 1592.13 803.792C1592.13 804.368 1592.1 804.944 1592.04 805.52C1592.04 806.032 1592 806.512 1591.94 806.96H1552.1V802.64H1589.83L1587.43 803.312C1587.36 797.808 1585.89 793.424 1583.01 790.16C1580.2 786.896 1576.29 785.264 1571.3 785.264C1567.84 785.264 1564.8 786.096 1562.18 787.76C1559.56 789.36 1557.51 791.728 1556.04 794.864C1554.56 797.936 1553.83 801.648 1553.83 806C1553.83 810.288 1554.56 814 1556.04 817.136C1557.57 820.272 1559.68 822.672 1562.37 824.336C1565.12 825.936 1568.29 826.736 1571.88 826.736C1575.59 826.736 1578.76 825.936 1581.38 824.336C1584.07 822.736 1586.15 820.528 1587.62 817.712L1591.46 819.92C1590.31 822.224 1588.77 824.208 1586.85 825.872C1584.93 827.472 1582.72 828.72 1580.23 829.616C1577.73 830.512 1574.98 830.96 1571.97 830.96ZM1624.55 830.96C1620.39 830.96 1616.64 829.968 1613.31 827.984C1609.99 826 1607.36 823.152 1605.44 819.44C1603.59 815.664 1602.66 811.184 1602.66 806C1602.66 800.688 1603.65 796.176 1605.63 792.464C1607.62 788.752 1610.31 785.936 1613.7 784.016C1617.09 782.032 1620.83 781.04 1624.93 781.04C1629.41 781.04 1633.22 782.224 1636.35 784.592C1639.55 786.96 1641.7 790.256 1642.79 794.48L1642.21 794.864V759.92H1647.01V830H1642.69L1642.4 816.656L1642.98 816.464C1642.4 819.536 1641.22 822.16 1639.43 824.336C1637.7 826.512 1635.52 828.176 1632.9 829.328C1630.34 830.416 1627.55 830.96 1624.55 830.96ZM1625.12 826.736C1628.51 826.736 1631.49 825.904 1634.05 824.24C1636.61 822.512 1638.59 820.048 1640 816.848C1641.47 813.648 1642.21 809.904 1642.21 805.616C1642.21 801.392 1641.47 797.776 1640 794.768C1638.59 791.696 1636.61 789.36 1634.05 787.76C1631.55 786.096 1628.64 785.264 1625.31 785.264C1619.81 785.264 1615.46 787.12 1612.26 790.832C1609.06 794.544 1607.46 799.6 1607.46 806C1607.46 812.4 1609.03 817.456 1612.16 821.168C1615.36 824.88 1619.68 826.736 1625.12 826.736ZM1666.15 822.128C1667.31 822.128 1668.27 822.448 1669.03 823.088C1669.87 823.664 1670.47 824.464 1670.86 825.488C1671.31 826.512 1671.53 827.728 1671.53 829.136C1671.53 830.8 1671.21 832.464 1670.57 834.128C1669.99 835.792 1669.1 837.328 1667.88 838.736C1666.73 840.144 1665.19 841.328 1663.27 842.288L1660.59 839.888C1662.12 839.312 1663.47 838.448 1664.62 837.296C1665.77 836.208 1666.63 834.992 1667.21 833.648C1667.85 832.368 1668.14 831.12 1668.07 829.904L1667.79 829.808C1667.59 830.128 1667.34 830.352 1667.02 830.48C1666.7 830.672 1666.22 830.768 1665.58 830.768C1665 830.768 1664.43 830.576 1663.85 830.192C1663.27 829.872 1662.79 829.424 1662.41 828.848C1662.03 828.208 1661.83 827.44 1661.83 826.544C1661.83 825.776 1662.03 825.04 1662.41 824.336C1662.86 823.632 1663.4 823.088 1664.04 822.704C1664.68 822.32 1665.39 822.128 1666.15 822.128ZM617.128 943.96C612.712 943.96 608.776 942.968 605.32 940.984C601.864 939 599.144 936.152 597.16 932.44C595.24 928.664 594.28 924.184 594.28 919C594.28 913.816 595.24 909.368 597.16 905.656C599.144 901.88 601.8 899 605.128 897.016C608.456 895.032 612.264 894.04 616.552 894.04C620.904 894.04 624.616 895 627.688 896.92C630.76 898.84 633.128 901.528 634.792 904.984C636.456 908.376 637.288 912.312 637.288 916.792C637.288 917.368 637.256 917.944 637.192 918.52C637.192 919.032 637.16 919.512 637.096 919.96H597.256V915.64H634.984L632.584 916.312C632.52 910.808 631.048 906.424 628.168 903.16C625.352 899.896 621.448 898.264 616.456 898.264C613 898.264 609.96 899.096 607.336 900.76C604.712 902.36 602.664 904.728 601.192 907.864C599.72 910.936 598.984 914.648 598.984 919C598.984 923.288 599.72 927 601.192 930.136C602.728 933.272 604.84 935.672 607.528 937.336C610.28 938.936 613.448 939.736 617.032 939.736C620.744 939.736 623.912 938.936 626.536 937.336C629.224 935.736 631.304 933.528 632.776 930.712L636.616 932.92C635.464 935.224 633.928 937.208 632.008 938.872C630.088 940.472 627.88 941.72 625.384 942.616C622.888 943.512 620.136 943.96 617.128 943.96ZM668.081 872.44C669.809 872.44 671.345 872.664 672.689 873.112C674.033 873.56 675.089 874.2 675.857 875.032L674.513 878.872C673.681 878.104 672.785 877.56 671.825 877.24C670.865 876.92 669.745 876.76 668.465 876.76C665.329 876.76 662.897 877.656 661.169 879.448C659.441 881.24 658.577 883.896 658.577 887.416V895V896.728V943H653.777V886.936C653.777 884.76 654.065 882.776 654.641 880.984C655.281 879.192 656.209 877.688 657.425 876.472C658.641 875.192 660.145 874.2 661.937 873.496C663.729 872.792 665.777 872.44 668.081 872.44ZM675.473 895V899.128H644.177V895H675.473ZM701.201 872.44C702.929 872.44 704.465 872.664 705.809 873.112C707.153 873.56 708.209 874.2 708.977 875.032L707.633 878.872C706.801 878.104 705.905 877.56 704.945 877.24C703.985 876.92 702.865 876.76 701.585 876.76C698.449 876.76 696.017 877.656 694.289 879.448C692.561 881.24 691.697 883.896 691.697 887.416V895V896.728V943H686.897V886.936C686.897 884.76 687.185 882.776 687.761 880.984C688.401 879.192 689.329 877.688 690.545 876.472C691.761 875.192 693.265 874.2 695.057 873.496C696.849 872.792 698.897 872.44 701.201 872.44ZM708.593 895V899.128H677.297V895H708.593ZM735.534 943.96C731.118 943.96 727.182 942.968 723.726 940.984C720.27 939 717.55 936.152 715.566 932.44C713.646 928.664 712.686 924.184 712.686 919C712.686 913.816 713.646 909.368 715.566 905.656C717.55 901.88 720.206 899 723.534 897.016C726.862 895.032 730.67 894.04 734.958 894.04C739.31 894.04 743.022 895 746.094 896.92C749.166 898.84 751.534 901.528 753.198 904.984C754.862 908.376 755.694 912.312 755.694 916.792C755.694 917.368 755.662 917.944 755.598 918.52C755.598 919.032 755.566 919.512 755.502 919.96H715.662V915.64H753.39L750.99 916.312C750.926 910.808 749.454 906.424 746.574 903.16C743.758 899.896 739.854 898.264 734.862 898.264C731.406 898.264 728.366 899.096 725.742 900.76C723.118 902.36 721.07 904.728 719.598 907.864C718.126 910.936 717.39 914.648 717.39 919C717.39 923.288 718.126 927 719.598 930.136C721.134 933.272 723.246 935.672 725.934 937.336C728.686 938.936 731.854 939.736 735.438 939.736C739.15 939.736 742.318 938.936 744.942 937.336C747.63 935.736 749.71 933.528 751.182 930.712L755.022 932.92C753.87 935.224 752.334 937.208 750.414 938.872C748.494 940.472 746.286 941.72 743.79 942.616C741.294 943.512 738.542 943.96 735.534 943.96ZM788.78 894.04C792.044 894.04 794.956 894.552 797.516 895.576C800.076 896.6 802.252 898.072 804.044 899.992C805.836 901.912 807.212 904.248 808.172 907L803.66 909.112C802.636 905.656 800.844 903 798.284 901.144C795.788 899.224 792.588 898.264 788.684 898.264C785.164 898.264 782.06 899.096 779.372 900.76C776.684 902.36 774.604 904.728 773.132 907.864C771.66 910.936 770.924 914.648 770.924 919C770.924 923.288 771.66 927 773.132 930.136C774.604 933.272 776.652 935.672 779.276 937.336C781.9 938.936 785.004 939.736 788.588 939.736C791.276 939.736 793.708 939.288 795.884 938.392C798.124 937.496 799.948 936.184 801.356 934.456C802.828 932.728 803.788 930.68 804.236 928.312L808.652 929.848C807.82 932.792 806.444 935.32 804.524 937.432C802.668 939.544 800.396 941.176 797.708 942.328C795.02 943.416 792.012 943.96 788.684 943.96C784.332 943.96 780.428 942.968 776.972 940.984C773.58 939 770.924 936.152 769.004 932.44C767.084 928.664 766.124 924.184 766.124 919C766.124 913.816 767.084 909.368 769.004 905.656C770.988 901.88 773.676 899 777.068 897.016C780.524 895.032 784.428 894.04 788.78 894.04ZM829.481 881.656V930.328C829.481 933.336 830.185 935.64 831.593 937.24C833.065 938.776 835.177 939.544 837.929 939.544C839.721 939.544 841.289 939.256 842.633 938.68C844.041 938.04 845.289 937.144 846.377 935.992L848.201 939.928C846.985 941.144 845.449 942.136 843.593 942.904C841.737 943.608 839.657 943.96 837.353 943.96C834.857 943.96 832.649 943.512 830.729 942.616C828.809 941.656 827.305 940.216 826.217 938.296C825.193 936.376 824.681 933.944 824.681 931V883L829.481 881.656ZM847.433 895V899.128H815.081V895H847.433ZM860.1 885.688C858.884 885.688 857.892 885.336 857.124 884.632C856.42 883.864 856.068 882.872 856.068 881.656C856.068 880.44 856.42 879.48 857.124 878.776C857.892 878.008 858.884 877.624 860.1 877.624C861.316 877.624 862.276 878.008 862.98 878.776C863.748 879.48 864.132 880.44 864.132 881.656C864.132 882.872 863.748 883.864 862.98 884.632C862.276 885.336 861.316 885.688 860.1 885.688ZM862.5 895V943H857.7V895H862.5ZM912.472 895H917.56L897.496 943H892.696L872.632 895H878.008L895.192 938.008L912.472 895ZM946.659 943.96C942.243 943.96 938.307 942.968 934.851 940.984C931.395 939 928.675 936.152 926.691 932.44C924.771 928.664 923.811 924.184 923.811 919C923.811 913.816 924.771 909.368 926.691 905.656C928.675 901.88 931.331 899 934.659 897.016C937.987 895.032 941.795 894.04 946.083 894.04C950.435 894.04 954.147 895 957.219 896.92C960.291 898.84 962.659 901.528 964.323 904.984C965.987 908.376 966.819 912.312 966.819 916.792C966.819 917.368 966.787 917.944 966.723 918.52C966.723 919.032 966.691 919.512 966.627 919.96H926.787V915.64H964.515L962.115 916.312C962.051 910.808 960.579 906.424 957.699 903.16C954.883 899.896 950.979 898.264 945.987 898.264C942.531 898.264 939.491 899.096 936.867 900.76C934.243 902.36 932.195 904.728 930.723 907.864C929.251 910.936 928.515 914.648 928.515 919C928.515 923.288 929.251 927 930.723 930.136C932.259 933.272 934.371 935.672 937.059 937.336C939.811 938.936 942.979 939.736 946.563 939.736C950.275 939.736 953.443 938.936 956.067 937.336C958.755 935.736 960.835 933.528 962.307 930.712L966.147 932.92C964.995 935.224 963.459 937.208 961.539 938.872C959.619 940.472 957.411 941.72 954.915 942.616C952.419 943.512 949.667 943.96 946.659 943.96ZM1010.61 943V895H1014.93L1015.21 904.984C1016.62 901.528 1018.89 898.84 1022.03 896.92C1025.23 895 1028.78 894.04 1032.69 894.04C1036.85 894.04 1040.43 895.032 1043.44 897.016C1046.51 899 1048.62 901.912 1049.77 905.752C1050.61 903.32 1051.95 901.24 1053.81 899.512C1055.66 897.72 1057.84 896.344 1060.33 895.384C1062.83 894.424 1065.42 893.944 1068.11 893.944C1071.44 893.944 1074.45 894.616 1077.13 895.96C1079.89 897.24 1082.06 899.224 1083.66 901.912C1085.33 904.536 1086.16 907.832 1086.16 911.8V942.904H1081.36V912.28C1081.36 907.544 1080.08 904.024 1077.52 901.72C1075.02 899.352 1071.69 898.168 1067.53 898.168C1064.53 898.168 1061.74 898.904 1059.18 900.376C1056.62 901.784 1054.57 903.8 1053.04 906.424C1051.57 908.984 1050.83 911.96 1050.83 915.352V943H1046.03V912.376C1046.03 907.64 1044.75 904.12 1042.19 901.816C1039.63 899.448 1036.3 898.264 1032.21 898.264C1029.33 898.264 1026.61 898.968 1024.05 900.376C1021.49 901.784 1019.41 903.8 1017.81 906.424C1016.21 909.048 1015.41 912.184 1015.41 915.832V943H1010.61ZM1132.14 911.416C1132.14 907.256 1131.02 904.024 1128.78 901.72C1126.54 899.416 1123.34 898.264 1119.18 898.264C1115.53 898.264 1112.39 899.064 1109.77 900.664C1107.15 902.2 1105.19 904.792 1103.91 908.44L1099.98 905.944C1101.39 902.168 1103.72 899.256 1106.99 897.208C1110.31 895.096 1114.41 894.04 1119.27 894.04C1122.79 894.04 1125.87 894.68 1128.49 895.96C1131.18 897.176 1133.26 899 1134.73 901.432C1136.2 903.864 1136.94 906.904 1136.94 910.552V934.552C1136.94 937.944 1138.47 939.64 1141.55 939.64C1142.89 939.64 1144.04 939.416 1145 938.968L1144.71 942.808C1143.63 943.384 1142.22 943.672 1140.49 943.672C1139.02 943.672 1137.64 943.384 1136.36 942.808C1135.08 942.232 1134.03 941.272 1133.19 939.928C1132.43 938.584 1132.04 936.76 1132.04 934.456V931.864L1133.39 931.768C1132.81 934.52 1131.53 936.824 1129.55 938.68C1127.63 940.472 1125.39 941.816 1122.83 942.712C1120.27 943.544 1117.71 943.96 1115.15 943.96C1112.14 943.96 1109.45 943.48 1107.08 942.52C1104.71 941.56 1102.86 940.184 1101.51 938.392C1100.17 936.536 1099.5 934.264 1099.5 931.576C1099.5 927.992 1100.68 925.112 1103.05 922.936C1105.48 920.696 1108.87 919.16 1113.23 918.328L1133.1 914.392V918.424L1115.63 921.88C1111.85 922.648 1109.03 923.768 1107.18 925.24C1105.32 926.712 1104.39 928.728 1104.39 931.288C1104.39 933.912 1105.39 935.992 1107.37 937.528C1109.35 939 1112.17 939.736 1115.82 939.736C1117.67 939.736 1119.56 939.48 1121.48 938.968C1123.4 938.456 1125.16 937.656 1126.76 936.568C1128.43 935.416 1129.74 934.008 1130.7 932.344C1131.66 930.616 1132.14 928.536 1132.14 926.104V911.416ZM1154.89 943V895H1158.92L1159.5 905.08C1160.71 901.688 1162.66 899 1165.35 897.016C1168.04 895.032 1171.27 894.04 1175.05 894.04C1176.33 894.04 1177.48 894.168 1178.5 894.424C1179.53 894.68 1180.36 895.096 1181 895.672L1179.94 899.896C1179.24 899.448 1178.47 899.096 1177.64 898.84C1176.81 898.584 1175.56 898.456 1173.9 898.456C1171.46 898.456 1169.16 899.224 1166.98 900.76C1164.81 902.232 1163.05 904.312 1161.7 907C1160.36 909.624 1159.69 912.664 1159.69 916.12V943H1154.89ZM1230.72 895L1209.6 915.352L1208.45 916.504L1193.57 930.904V924.76L1224.48 895H1230.72ZM1195.97 872.92V943H1191.17V872.92H1195.97ZM1209.89 912.856L1231.49 943H1225.63L1205.95 915.64L1209.89 912.856ZM1259.69 943.96C1255.27 943.96 1251.34 942.968 1247.88 940.984C1244.43 939 1241.71 936.152 1239.72 932.44C1237.8 928.664 1236.84 924.184 1236.84 919C1236.84 913.816 1237.8 909.368 1239.72 905.656C1241.71 901.88 1244.36 899 1247.69 897.016C1251.02 895.032 1254.83 894.04 1259.11 894.04C1263.47 894.04 1267.18 895 1270.25 896.92C1273.32 898.84 1275.69 901.528 1277.35 904.984C1279.02 908.376 1279.85 912.312 1279.85 916.792C1279.85 917.368 1279.82 917.944 1279.75 918.52C1279.75 919.032 1279.72 919.512 1279.66 919.96H1239.82V915.64H1277.55L1275.15 916.312C1275.08 910.808 1273.61 906.424 1270.73 903.16C1267.91 899.896 1264.01 898.264 1259.02 898.264C1255.56 898.264 1252.52 899.096 1249.9 900.76C1247.27 902.36 1245.23 904.728 1243.75 907.864C1242.28 910.936 1241.55 914.648 1241.55 919C1241.55 923.288 1242.28 927 1243.75 930.136C1245.29 933.272 1247.4 935.672 1250.09 937.336C1252.84 938.936 1256.01 939.736 1259.59 939.736C1263.31 939.736 1266.47 938.936 1269.1 937.336C1271.79 935.736 1273.87 933.528 1275.34 930.712L1279.18 932.92C1278.03 935.224 1276.49 937.208 1274.57 938.872C1272.65 940.472 1270.44 941.72 1267.95 942.616C1265.45 943.512 1262.7 943.96 1259.69 943.96ZM1300.48 881.656V930.328C1300.48 933.336 1301.18 935.64 1302.59 937.24C1304.06 938.776 1306.18 939.544 1308.93 939.544C1310.72 939.544 1312.29 939.256 1313.63 938.68C1315.04 938.04 1316.29 937.144 1317.38 935.992L1319.2 939.928C1317.98 941.144 1316.45 942.136 1314.59 942.904C1312.74 943.608 1310.66 943.96 1308.35 943.96C1305.86 943.96 1303.65 943.512 1301.73 942.616C1299.81 941.656 1298.3 940.216 1297.22 938.296C1296.19 936.376 1295.68 933.944 1295.68 931V883L1300.48 881.656ZM1318.43 895V899.128H1286.08V895H1318.43ZM1331.1 885.688C1329.88 885.688 1328.89 885.336 1328.12 884.632C1327.42 883.864 1327.07 882.872 1327.07 881.656C1327.07 880.44 1327.42 879.48 1328.12 878.776C1328.89 878.008 1329.88 877.624 1331.1 877.624C1332.32 877.624 1333.28 878.008 1333.98 878.776C1334.75 879.48 1335.13 880.44 1335.13 881.656C1335.13 882.872 1334.75 883.864 1333.98 884.632C1333.28 885.336 1332.32 885.688 1331.1 885.688ZM1333.5 895V943H1328.7V895H1333.5ZM1350.54 943V895H1354.86L1355.25 907L1354.48 906.328C1355.38 903.704 1356.72 901.496 1358.51 899.704C1360.3 897.848 1362.45 896.44 1364.94 895.48C1367.44 894.52 1370.13 894.04 1373.01 894.04C1376.59 894.04 1379.76 894.712 1382.51 896.056C1385.26 897.4 1387.41 899.384 1388.94 902.008C1390.54 904.632 1391.34 907.928 1391.34 911.896V943H1386.54V913.432C1386.54 908.184 1385.23 904.344 1382.61 901.912C1380.05 899.48 1376.69 898.264 1372.53 898.264C1369.52 898.264 1366.7 898.968 1364.08 900.376C1361.52 901.72 1359.41 903.704 1357.74 906.328C1356.14 908.952 1355.34 912.152 1355.34 915.928V943H1350.54ZM1447.66 886.168L1448.82 890.392C1448.75 890.392 1448.69 890.392 1448.62 890.392C1448.56 890.392 1448.46 890.392 1448.34 890.392C1445.2 890.392 1442.77 891.224 1441.04 892.888C1439.38 894.488 1438.54 896.76 1438.54 899.704L1435.47 898.168C1435.47 895.736 1435.98 893.624 1437.01 891.832C1438.03 890.04 1439.44 888.664 1441.23 887.704C1443.02 886.68 1445.04 886.168 1447.28 886.168C1447.41 886.168 1447.47 886.168 1447.47 886.168C1447.54 886.168 1447.6 886.168 1447.66 886.168ZM1432.5 938.104C1437.23 938.104 1440.94 939.096 1443.63 941.08C1446.32 943.064 1447.66 945.72 1447.66 949.048C1447.66 951.992 1446.67 954.552 1444.69 956.728C1442.77 958.904 1440.11 960.6 1436.72 961.816C1433.33 963.032 1429.46 963.64 1425.1 963.64C1417.87 963.64 1412.34 962.392 1408.5 959.896C1404.66 957.464 1402.74 954.392 1402.74 950.68C1402.74 947.992 1403.7 945.656 1405.62 943.672C1407.6 941.688 1410.48 940.504 1414.26 940.12L1413.87 940.984C1411.82 940.408 1410 939.448 1408.4 938.104C1406.86 936.76 1406.1 934.84 1406.1 932.344C1406.1 929.656 1407.09 927.48 1409.07 925.816C1411.12 924.088 1413.81 923.096 1417.14 922.84L1422.22 924.568H1420.21C1417.26 924.76 1414.9 925.496 1413.1 926.776C1411.38 927.992 1410.51 929.592 1410.51 931.576C1410.51 933.752 1411.34 935.384 1413.01 936.472C1414.74 937.56 1416.91 938.104 1419.54 938.104H1432.5ZM1425.1 959.608C1428.88 959.608 1432.11 959.16 1434.8 958.264C1437.49 957.368 1439.54 956.152 1440.94 954.616C1442.42 953.144 1443.15 951.48 1443.15 949.624C1443.15 947.384 1442.16 945.592 1440.18 944.248C1438.26 942.904 1435.31 942.232 1431.34 942.232H1417.71C1414.7 942.232 1412.21 942.936 1410.22 944.344C1408.24 945.752 1407.25 947.64 1407.25 950.008C1407.25 952.888 1408.82 955.192 1411.95 956.92C1415.15 958.712 1419.54 959.608 1425.1 959.608ZM1424.43 894.04C1428.21 894.04 1431.54 894.712 1434.42 896.056C1437.36 897.336 1439.63 899.16 1441.23 901.528C1442.83 903.832 1443.63 906.552 1443.63 909.688C1443.63 912.76 1442.83 915.512 1441.23 917.944C1439.63 920.312 1437.36 922.168 1434.42 923.512C1431.54 924.792 1428.21 925.432 1424.43 925.432C1418.35 925.432 1413.58 923.992 1410.13 921.112C1406.74 918.168 1405.04 914.36 1405.04 909.688C1405.04 906.552 1405.84 903.832 1407.44 901.528C1409.1 899.16 1411.38 897.336 1414.26 896.056C1417.2 894.712 1420.59 894.04 1424.43 894.04ZM1424.43 897.976C1420.21 897.976 1416.75 899.064 1414.06 901.24C1411.38 903.352 1410.03 906.168 1410.03 909.688C1410.03 913.208 1411.38 916.056 1414.06 918.232C1416.75 920.408 1420.21 921.496 1424.43 921.496C1428.66 921.496 1432.08 920.408 1434.7 918.232C1437.39 916.056 1438.74 913.208 1438.74 909.688C1438.74 906.168 1437.39 903.352 1434.7 901.24C1432.08 899.064 1428.66 897.976 1424.43 897.976Z" fill="black"/>
</svg>
