<svg width="731" height="116" viewBox="0 0 731 116" fill="none" xmlns="http://www.w3.org/2000/svg">
<g filter="url(#filter0_d_1226_340)">
<rect x="16.7493" y="16.7933" width="121.899" height="82.2886" rx="11.0006" fill="white" stroke="#D9D9D9" stroke-width="2.0001"/>
<path fill-rule="evenodd" clip-rule="evenodd" d="M53.3625 72.8926H45.8566L40.2281 51.5891C39.9609 50.6091 39.3937 49.7428 38.5593 49.3344C36.4769 48.3083 34.1824 47.4917 31.6792 47.0798V46.2596H43.7706C45.4394 46.2596 46.691 47.4917 46.8996 48.9226L49.8199 64.2895L57.3222 46.2596H64.6195L53.3625 72.8926ZM68.7915 72.8926H61.7028L67.5399 46.2596H74.6286L68.7915 72.8926ZM83.7996 53.6377C84.0082 52.2033 85.2598 51.3831 86.72 51.3831C89.0146 51.1772 91.5141 51.589 93.6001 52.6116L94.8517 46.8774C92.7657 46.0572 90.4711 45.6453 88.3888 45.6453C81.5087 45.6453 76.5023 49.3344 76.5023 54.4543C76.5023 58.3493 80.0485 60.3945 82.5517 61.6265C85.2598 62.855 86.3028 63.6752 86.0942 64.9037C86.0942 66.7465 84.0082 67.5667 81.9259 67.5667C79.4227 67.5667 76.9195 66.9524 74.6286 65.9263L73.377 71.664C75.8802 72.6866 78.5883 73.0985 81.0915 73.0985C88.806 73.3009 93.6001 69.6154 93.6001 64.0835C93.6001 57.1173 83.7996 56.709 83.7996 53.6377V53.6377ZM118.409 72.8926L112.78 46.2596H106.734C105.483 46.2596 104.231 47.0798 103.814 48.3083L93.3915 72.8926H100.689L102.145 69.0011H111.111L111.946 72.8926H118.409ZM107.778 53.4319L109.86 63.4694H104.023L107.778 53.4319Z" fill="#172B85"/>
</g>
<g filter="url(#filter1_d_1226_340)">
<rect x="592.85" y="16.7933" width="121.899" height="82.2886" rx="11.0006" fill="#FEB4C7" stroke="#D9D9D9" stroke-width="2.0001"/>
<path d="M641.557 53.8809C643.229 53.8809 644.78 54.406 646.065 55.2998V54.3086H650.611V69.8008H646.065V68.8105C644.78 69.7041 643.229 70.2294 641.557 70.2295C637.13 70.2295 633.542 66.5692 633.542 62.0547C633.542 57.5402 637.131 53.8809 641.557 53.8809ZM689.531 53.8809C691.204 53.8809 692.755 54.406 694.039 55.2998V54.3086H698.586V69.8008H694.039V68.8105C692.755 69.7041 691.204 70.2294 689.531 70.2295C685.105 70.2295 681.517 66.5692 681.517 62.0547C681.517 57.5402 685.105 53.8809 689.531 53.8809ZM703.413 64.3057C704.989 64.3057 706.268 65.6091 706.268 67.2168C706.268 68.8239 704.989 70.127 703.413 70.127C701.837 70.1268 700.56 68.8239 700.56 67.2168C700.56 65.6092 701.837 64.3058 703.413 64.3057ZM623.638 47.4014C623.638 52.2519 621.785 56.7642 618.482 60.1182L625.449 69.8076H619.224L611.652 59.2773L613.607 57.7852C616.847 55.3093 618.706 51.5245 618.706 47.4014H623.638ZM611.052 47.4014V69.8066H606.01V47.4014H611.052ZM631.679 69.8008H626.918V47.4053H631.679V69.8008ZM657.647 56.3271C658.558 55.117 660.256 54.3107 662.103 54.3105V58.8184C662.084 58.8181 662.067 58.8164 662.049 58.8164C660.25 58.8165 657.656 60.1282 657.656 62.5684V69.8008H652.99V54.3096H657.647V56.3271ZM673.436 53.8926C677.099 53.8926 679.909 56.3441 679.909 59.9492V69.8008H675.367V61.6279C675.367 59.3684 674.218 58.1504 672.22 58.1504C670.355 58.1505 668.807 59.3045 668.807 61.6602V69.8008H664.223V54.3096H668.751V56.0547C669.9 54.4678 671.619 53.8926 673.436 53.8926ZM641.93 58.0703C639.654 58.0703 637.81 59.8544 637.81 62.0557C637.81 64.2567 639.654 66.041 641.93 66.041C644.205 66.041 646.05 64.2567 646.05 62.0557C646.05 59.8544 644.205 58.0704 641.93 58.0703ZM689.904 58.0703C687.629 58.0703 685.784 59.8544 685.784 62.0557C685.784 64.2567 687.629 66.041 689.904 66.041C692.18 66.041 694.024 64.2567 694.024 62.0557C694.024 59.8544 692.18 58.0703 689.904 58.0703Z" fill="#17120F"/>
</g>
<g filter="url(#filter2_d_1226_340)">
<rect x="160.509" y="16.7933" width="122.422" height="82.2886" rx="11.0006" fill="white" stroke="#D9D9D9" stroke-width="2.0001"/>
<path d="M238.343 33.3533C251.74 33.3533 262.601 44.2072 262.601 57.5964C262.601 70.9857 251.74 81.8406 238.343 81.8406C232.338 81.8405 226.844 79.6587 222.608 76.0466C218.372 79.6583 212.878 81.8406 206.873 81.8406C193.476 81.8405 182.616 70.9857 182.616 57.5964C182.616 44.2073 193.476 33.3533 206.873 33.3533C212.878 33.3533 218.372 35.5347 222.608 39.1462C226.844 35.5343 232.338 33.3533 238.343 33.3533Z" fill="#ED0006"/>
<path d="M238.344 33.3533C251.741 33.3535 262.601 44.2074 262.602 57.5964C262.602 70.9856 251.741 81.8403 238.344 81.8406C232.339 81.8406 226.844 79.6585 222.608 76.0466C227.824 71.5999 231.132 64.9846 231.132 57.5964C231.132 50.2085 227.823 43.5939 222.608 39.1472C226.845 35.5352 232.339 33.3533 238.344 33.3533Z" fill="#F9A000"/>
<path d="M222.608 39.1465C227.823 43.5932 231.131 50.2083 231.131 57.5967C231.131 64.9848 227.823 71.5992 222.608 76.0459C217.393 71.5992 214.085 64.9845 214.085 57.5967C214.085 50.2086 217.393 43.5932 222.608 39.1465Z" fill="#FF5E00"/>
</g>
<g filter="url(#filter3_d_1226_340)">
<rect x="304.8" y="16.7933" width="121.899" height="82.2886" rx="11.0006" fill="white" stroke="#D9D9D9" stroke-width="2.0001"/>
<path fill-rule="evenodd" clip-rule="evenodd" d="M333.345 47.1661C335.009 47.3053 336.673 46.3306 337.713 45.0947C338.735 43.824 339.411 42.1182 339.238 40.3775C337.765 40.4471 335.945 41.3523 334.905 42.623C333.952 43.7196 333.137 45.4951 333.345 47.1661ZM353.139 69.5859V42.4489H363.279C368.513 42.4489 372.17 46.0695 372.17 51.3611C372.17 56.6527 368.444 60.3081 363.14 60.3081H357.333V69.5859H353.139ZM339.221 47.4968C337.755 47.412 336.417 47.9395 335.337 48.3656L335.337 48.3656L335.337 48.3656C334.641 48.6397 334.053 48.8719 333.605 48.8719C333.102 48.8719 332.489 48.6273 331.801 48.3527C330.899 47.9929 329.868 47.5815 328.786 47.6012C326.308 47.636 324.003 49.046 322.737 51.2914C320.137 55.7823 322.061 62.4317 324.574 66.0871C325.805 67.8974 327.278 69.8817 329.22 69.8121C330.074 69.7797 330.688 69.5179 331.324 69.247C332.056 68.9351 332.816 68.6111 334.003 68.6111C335.15 68.6111 335.877 68.9266 336.575 69.2296C337.238 69.5176 337.876 69.7943 338.822 69.7773C340.833 69.7425 342.098 67.967 343.328 66.1567C344.656 64.2138 345.24 62.3176 345.329 62.0298L345.335 62.0084L345.339 61.9965C345.337 61.9944 345.321 61.9868 345.292 61.9735C344.848 61.7694 341.454 60.2094 341.422 56.026C341.389 52.5147 344.113 50.7357 344.542 50.4556L344.542 50.4556C344.568 50.4386 344.586 50.4271 344.594 50.4211C342.86 47.8449 340.157 47.5664 339.221 47.4968ZM379.831 69.7946C382.466 69.7946 384.91 68.4543 386.019 66.3307H386.106V69.5858H389.988V56.0782C389.988 52.1617 386.868 49.6377 382.067 49.6377C377.613 49.6377 374.32 52.1965 374.198 55.7127H377.977C378.289 54.0416 379.831 52.945 381.946 52.945C384.511 52.945 385.95 54.1461 385.95 56.3567V57.8537L380.715 58.167C375.845 58.4629 373.21 60.4647 373.21 63.946C373.21 67.4622 375.931 69.7946 379.831 69.7946ZM380.958 66.5745C378.722 66.5745 377.301 65.4953 377.301 63.8416C377.301 62.1358 378.67 61.1436 381.287 60.987L385.95 60.691V62.2228C385.95 64.7642 383.8 66.5745 380.958 66.5745ZM402.866 70.6477C401.185 75.3997 399.261 76.9663 395.171 76.9663C394.859 76.9663 393.819 76.9315 393.576 76.8619V73.6068C393.836 73.6417 394.477 73.6765 394.807 73.6765C396.661 73.6765 397.701 72.8932 398.343 70.8566L398.724 69.6555L391.617 49.899H396.003L400.942 65.9305H401.029L405.969 49.899H410.233L402.866 70.6477ZM357.333 45.9999H362.169C365.809 45.9999 367.889 47.9494 367.889 51.3785C367.889 54.8076 365.809 56.7746 362.151 56.7746H357.333V45.9999Z" fill="black"/>
</g>
<g filter="url(#filter4_d_1226_340)">
<rect x="448.559" y="16.7933" width="122.422" height="82.2886" rx="11.0006" fill="white" stroke="#D9D9D9" stroke-width="2.0001"/>
<path d="M545.309 66.0818H545.372L550.56 53.2166H554.207L542.996 79.0095H539.537L543.705 69.9871L536.349 53.2166H539.996L545.309 66.0818ZM527.764 52.6326C530.244 52.6326 532.202 53.3003 533.64 54.616C535.078 55.9316 535.787 57.7696 535.787 60.0876V71.1365H532.578V68.6511H532.431C531.035 70.6978 529.201 71.7214 526.888 71.7214C524.93 71.7214 523.262 71.136 521.95 69.9666C520.658 68.8805 519.929 67.2723 519.97 65.5808C519.97 63.7222 520.679 62.26 522.075 61.1531C523.471 60.0462 525.347 59.5037 527.68 59.5037C529.681 59.5037 531.306 59.8795 532.598 60.5896V59.8162C532.598 58.6677 532.098 57.5816 531.223 56.8298C530.327 56.0362 529.18 55.5974 527.993 55.5974C526.118 55.5975 524.638 56.3911 523.554 57.9783L520.596 56.1199C522.18 53.8018 524.576 52.6326 527.764 52.6326ZM511.865 44.946C514.011 44.9043 516.095 45.7188 517.616 47.2224C520.658 50.0628 520.846 54.8456 517.991 57.9158L517.616 58.2917C516.053 59.7745 514.136 60.5261 511.865 60.5261H506.322V71.1365H502.967V44.946H511.865ZM528.203 62.2185C526.848 62.2185 525.702 62.5525 524.785 63.2C523.889 63.8474 523.43 64.6618 523.43 65.6433C523.43 66.5205 523.847 67.3354 524.535 67.8367C525.285 68.4212 526.202 68.7344 527.139 68.7136C528.556 68.7136 529.911 68.1496 530.912 67.1472C532.016 66.1031 532.579 64.8709 532.579 63.4509C531.537 62.6156 530.078 62.1976 528.203 62.2185ZM506.323 57.3103H511.95C513.2 57.352 514.409 56.8509 515.263 55.9529C517.014 54.1359 516.972 51.2121 515.159 49.4578C514.304 48.6224 513.158 48.1629 511.95 48.1628H506.323V57.3103Z" fill="#3C4043"/>
<path d="M494.74 58.2292C494.74 57.2058 494.657 56.1824 494.49 55.1799H480.342V60.9651H488.447C488.114 62.8239 487.03 64.4947 485.447 65.539V69.2983H490.281C493.115 66.6877 494.74 62.8239 494.74 58.2292Z" fill="#4285F4"/>
<path d="M480.342 72.9323C484.385 72.9323 487.802 71.5956 490.282 69.2983L485.447 65.5389C484.093 66.4579 482.363 66.98 480.342 66.98C476.425 66.98 473.112 64.3276 471.924 60.7771H466.944V64.6617C469.486 69.7368 474.674 72.9323 480.342 72.9323Z" fill="#34A853"/>
<path d="M471.924 60.777C471.299 58.9182 471.299 56.8924 471.924 55.0127V51.1489H466.943C464.797 55.3886 464.797 60.4011 466.943 64.6408L471.924 60.777Z" fill="#FBBC04"/>
<path d="M480.342 48.8099C482.488 48.7681 484.551 49.5826 486.093 51.0655L490.386 46.7631C487.656 44.2151 484.072 42.8158 480.342 42.8576C474.674 42.8576 469.486 46.0739 466.944 51.149L471.924 55.0337C473.112 51.4623 476.425 48.8099 480.342 48.8099Z" fill="#EA4335"/>
</g>
<defs>
<filter id="filter0_d_1226_340" x="0.630375" y="0.67432" width="154.137" height="114.526" filterUnits="userSpaceOnUse" color-interpolation-filters="sRGB">
<feFlood flood-opacity="0" result="BackgroundImageFix"/>
<feColorMatrix in="SourceAlpha" type="matrix" values="0 0 0 0 0 0 0 0 0 0 0 0 0 0 0 0 0 0 127 0" result="hardAlpha"/>
<feOffset/>
<feGaussianBlur stdDeviation="7.55945"/>
<feComposite in2="hardAlpha" operator="out"/>
<feColorMatrix type="matrix" values="0 0 0 0 0 0 0 0 0 0 0 0 0 0 0 0 0 0 0.07 0"/>
<feBlend mode="normal" in2="BackgroundImageFix" result="effect1_dropShadow_1226_340"/>
<feBlend mode="normal" in="SourceGraphic" in2="effect1_dropShadow_1226_340" result="shape"/>
</filter>
<filter id="filter1_d_1226_340" x="576.731" y="0.67432" width="154.137" height="114.526" filterUnits="userSpaceOnUse" color-interpolation-filters="sRGB">
<feFlood flood-opacity="0" result="BackgroundImageFix"/>
<feColorMatrix in="SourceAlpha" type="matrix" values="0 0 0 0 0 0 0 0 0 0 0 0 0 0 0 0 0 0 127 0" result="hardAlpha"/>
<feOffset/>
<feGaussianBlur stdDeviation="7.55945"/>
<feComposite in2="hardAlpha" operator="out"/>
<feColorMatrix type="matrix" values="0 0 0 0 0 0 0 0 0 0 0 0 0 0 0 0 0 0 0.07 0"/>
<feBlend mode="normal" in2="BackgroundImageFix" result="effect1_dropShadow_1226_340"/>
<feBlend mode="normal" in="SourceGraphic" in2="effect1_dropShadow_1226_340" result="shape"/>
</filter>
<filter id="filter2_d_1226_340" x="144.39" y="0.67432" width="154.66" height="114.526" filterUnits="userSpaceOnUse" color-interpolation-filters="sRGB">
<feFlood flood-opacity="0" result="BackgroundImageFix"/>
<feColorMatrix in="SourceAlpha" type="matrix" values="0 0 0 0 0 0 0 0 0 0 0 0 0 0 0 0 0 0 127 0" result="hardAlpha"/>
<feOffset/>
<feGaussianBlur stdDeviation="7.55945"/>
<feComposite in2="hardAlpha" operator="out"/>
<feColorMatrix type="matrix" values="0 0 0 0 0 0 0 0 0 0 0 0 0 0 0 0 0 0 0.07 0"/>
<feBlend mode="normal" in2="BackgroundImageFix" result="effect1_dropShadow_1226_340"/>
<feBlend mode="normal" in="SourceGraphic" in2="effect1_dropShadow_1226_340" result="shape"/>
</filter>
<filter id="filter3_d_1226_340" x="288.681" y="0.67432" width="154.137" height="114.526" filterUnits="userSpaceOnUse" color-interpolation-filters="sRGB">
<feFlood flood-opacity="0" result="BackgroundImageFix"/>
<feColorMatrix in="SourceAlpha" type="matrix" values="0 0 0 0 0 0 0 0 0 0 0 0 0 0 0 0 0 0 127 0" result="hardAlpha"/>
<feOffset/>
<feGaussianBlur stdDeviation="7.55945"/>
<feComposite in2="hardAlpha" operator="out"/>
<feColorMatrix type="matrix" values="0 0 0 0 0 0 0 0 0 0 0 0 0 0 0 0 0 0 0.07 0"/>
<feBlend mode="normal" in2="BackgroundImageFix" result="effect1_dropShadow_1226_340"/>
<feBlend mode="normal" in="SourceGraphic" in2="effect1_dropShadow_1226_340" result="shape"/>
</filter>
<filter id="filter4_d_1226_340" x="432.44" y="0.67432" width="154.66" height="114.526" filterUnits="userSpaceOnUse" color-interpolation-filters="sRGB">
<feFlood flood-opacity="0" result="BackgroundImageFix"/>
<feColorMatrix in="SourceAlpha" type="matrix" values="0 0 0 0 0 0 0 0 0 0 0 0 0 0 0 0 0 0 127 0" result="hardAlpha"/>
<feOffset/>
<feGaussianBlur stdDeviation="7.55945"/>
<feComposite in2="hardAlpha" operator="out"/>
<feColorMatrix type="matrix" values="0 0 0 0 0 0 0 0 0 0 0 0 0 0 0 0 0 0 0.07 0"/>
<feBlend mode="normal" in2="BackgroundImageFix" result="effect1_dropShadow_1226_340"/>
<feBlend mode="normal" in="SourceGraphic" in2="effect1_dropShadow_1226_340" result="shape"/>
</filter>
</defs>
</svg>
