<svg width="314" height="493" viewBox="0 0 314 493" fill="none" xmlns="http://www.w3.org/2000/svg">
<g id="Group 98">
<g id="Group 95">
<g id="Group 129">
<rect id="Rectangle 58" x="0.95" y="0.95" width="312.1" height="491.1" rx="25.05" stroke="black" stroke-width="0.1"/>
<text id="Strategy" fill="black" stroke="#495A58" stroke-width="0.1" xml:space="preserve" style="white-space: pre" font-family="Libre Baskerville" font-size="18" font-weight="bold" letter-spacing="0em"><tspan x="122.559" y="112.3">Strategy</tspan></text>
<text id="Marketing audit Competitor &#38; market review Audience &#38; customer research Objective &#38; goal setting Key messaging &#38; content pillars Channel &#38; comms strategy Campaign &#38; go-to-market planning Marketing plan &#38; roadmap" fill="black" xml:space="preserve" style="white-space: pre" font-family="Work Sans" font-size="16" letter-spacing="0em"><tspan x="74" y="174.996">Marketing audit&#10;</tspan><tspan x="74" y="203.996">Competitor &#38; market </tspan><tspan x="74" y="222.996">review&#10;</tspan><tspan x="74" y="251.996">Audience &#38; customer </tspan><tspan x="74" y="270.996">research&#10;</tspan><tspan x="74" y="299.996">Objective &#38; goal setting&#10;</tspan><tspan x="74" y="328.996">Key messaging &#38; content </tspan><tspan x="74" y="347.996">pillars&#10;</tspan><tspan x="74" y="376.996">Channel &#38; comms strategy&#10;</tspan><tspan x="74" y="405.996">Campaign &#38; go-to-market </tspan><tspan x="74" y="424.996">planning&#10;</tspan><tspan x="74" y="453.996">Marketing plan &#38; roadmap</tspan></text>
<path id="Vector" fill-rule="evenodd" clip-rule="evenodd" d="M141.122 31.0028C140.807 31.0233 140.512 31.1443 140.29 31.3435C140.168 31.4516 140.071 31.5799 140.005 31.7212C139.94 31.8625 139.906 32.0139 139.906 32.1669C139.906 32.3199 139.94 32.4714 140.005 32.6127C140.071 32.754 140.168 32.8823 140.29 32.9903L143.152 35.5366L140.29 38.0806C140.168 38.1887 140.071 38.3172 140.004 38.4587C139.938 38.6002 139.904 38.7519 139.904 38.9051C139.904 39.0584 139.938 39.2101 140.004 39.3516C140.071 39.4931 140.168 39.6216 140.29 39.7297C140.411 39.838 140.555 39.9239 140.714 39.9825C140.873 40.0412 141.043 40.0714 141.215 40.0714C141.387 40.0714 141.558 40.0412 141.716 39.9825C141.875 39.9239 142.019 39.838 142.141 39.7297L145.001 37.1811L147.866 39.7297C148.11 39.9456 148.441 40.0668 148.786 40.0668C149.131 40.0668 149.462 39.9456 149.707 39.7297C149.829 39.6216 149.926 39.4931 149.992 39.3516C150.058 39.2101 150.092 39.0584 150.092 38.9051C150.092 38.7519 150.058 38.6002 149.992 38.4587C149.926 38.3172 149.829 38.1887 149.707 38.0806L146.849 35.5366L149.707 32.9903C149.828 32.8823 149.925 32.754 149.991 32.6127C150.057 32.4714 150.091 32.3199 150.091 32.1669C150.091 32.014 150.057 31.8625 149.991 31.7212C149.925 31.5799 149.828 31.4516 149.707 31.3435C149.462 31.1276 149.131 31.0064 148.786 31.0064C148.441 31.0064 148.11 31.1276 147.866 31.3435L145.001 33.8898L142.141 31.3435C142.009 31.225 141.849 31.1332 141.673 31.0744C141.497 31.0156 141.309 30.9912 141.122 31.0028ZM165.548 31.682C165.361 31.6886 165.178 31.7307 165.011 31.8055C164.844 31.8804 164.697 31.9862 164.58 32.1158C164.472 32.2351 164.391 32.3722 164.343 32.5194C164.294 32.6665 164.279 32.8207 164.298 32.9731C164.316 33.1256 164.369 33.2732 164.452 33.4075C164.535 33.5418 164.647 33.6602 164.782 33.7558L167.44 35.6502C156.497 37.1947 148.046 45.2513 147.322 55.2027C145.153 55.6963 143.532 57.4518 143.532 59.5275C143.532 61.9829 145.8 64 148.56 64C151.32 64 153.578 61.9829 153.578 59.5275C153.578 57.4984 152.035 55.7743 149.942 55.2368C150.642 46.4106 158.122 39.3111 167.851 37.9443L165.448 40.3475C165.218 40.5775 165.1 40.8793 165.12 41.1868C165.139 41.4942 165.295 41.7822 165.553 41.9875C165.812 42.1923 166.151 42.2974 166.496 42.28C166.842 42.2625 167.166 42.1238 167.397 41.8944L171.885 37.4037C172.004 37.286 172.094 37.148 172.151 36.9982C172.207 36.8484 172.229 36.6899 172.215 36.5324C172.2 36.3749 172.149 36.2216 172.066 36.0821C171.983 35.9425 171.868 35.8195 171.73 35.7206L166.414 31.9341C166.168 31.7605 165.861 31.671 165.548 31.682ZM179.336 32.2181C176.576 32.2181 174.306 34.226 174.306 36.6814C174.306 39.1368 176.576 41.1562 179.336 41.1562C182.096 41.1562 184.354 39.1368 184.354 36.6814C184.354 34.226 182.096 32.2181 179.336 32.2181ZM179.336 34.544C180.683 34.544 181.739 35.4827 181.739 36.6814C181.739 37.8801 180.683 38.8279 179.336 38.8279C177.99 38.8279 176.923 37.8801 176.923 36.6814C176.923 35.4827 177.99 34.544 179.336 34.544ZM160.771 47.598C160.456 47.6179 160.161 47.7381 159.938 47.9364C159.816 48.0445 159.719 48.173 159.653 48.3145C159.587 48.456 159.553 48.6077 159.553 48.7609C159.553 48.9142 159.587 49.0659 159.653 49.2074C159.719 49.3489 159.816 49.4774 159.938 49.5855L162.798 52.1318L159.938 54.6758C159.816 54.7838 159.719 54.9123 159.653 55.0538C159.587 55.1953 159.553 55.3471 159.553 55.5003C159.553 55.6535 159.587 55.8053 159.653 55.9468C159.719 56.0883 159.816 56.2168 159.938 56.3248C160.06 56.4331 160.204 56.5191 160.363 56.5777C160.521 56.6363 160.692 56.6665 160.864 56.6665C161.036 56.6665 161.206 56.6363 161.365 56.5777C161.524 56.5191 161.668 56.4331 161.789 56.3248L164.652 53.7786L167.514 56.3248C167.635 56.4331 167.78 56.5191 167.939 56.5777C168.097 56.6363 168.268 56.6665 168.44 56.6665C168.612 56.6665 168.782 56.6363 168.941 56.5777C169.1 56.5191 169.244 56.4331 169.365 56.3248C169.487 56.2168 169.584 56.0883 169.65 55.9468C169.717 55.8053 169.751 55.6535 169.751 55.5003C169.751 55.3471 169.717 55.1953 169.65 55.0538C169.584 54.9123 169.487 54.7838 169.365 54.6758L166.505 52.1317L169.365 49.5855C169.487 49.4774 169.584 49.3489 169.65 49.2074C169.717 49.0659 169.751 48.9142 169.751 48.7609C169.751 48.6077 169.717 48.456 169.65 48.3145C169.584 48.173 169.487 48.0445 169.365 47.9364C169.244 47.8281 169.1 47.7422 168.941 47.6835C168.782 47.6249 168.612 47.5947 168.44 47.5947C168.268 47.5947 168.097 47.6249 167.939 47.6835C167.78 47.7422 167.635 47.8281 167.514 47.9364L164.652 50.4827L161.789 47.9364C161.657 47.8183 161.497 47.7269 161.321 47.6685C161.146 47.6101 160.958 47.586 160.771 47.598ZM148.56 57.3901C149.907 57.3901 150.973 58.3288 150.973 59.5276C150.973 60.7263 149.907 61.6741 148.56 61.6741C147.214 61.6741 146.147 60.7263 146.147 59.5276C146.147 58.3288 147.214 57.3901 148.56 57.3901Z" fill="#495A58"/>
</g>
</g>
</g>
</svg>
