<svg width="283" height="467" viewBox="0 0 283 467" fill="none" xmlns="http://www.w3.org/2000/svg">
<rect x="0.95" y="25.95" width="281.1" height="440.1" rx="25.05" stroke="black" stroke-width="0.1"/>
<text fill="black" xml:space="preserve" style="white-space: pre" font-family="Libre Baskerville" font-size="18" font-weight="bold" letter-spacing="0em"><tspan x="101.485" y="102.3">Strategy</tspan></text>
<text fill="black" xml:space="preserve" style="white-space: pre" font-family="Work Sans" font-size="14" letter-spacing="0em"><tspan x="59" y="146.809">Marketing audit&#10;</tspan><tspan x="59" y="172.809">Competitor &#38; market </tspan><tspan x="59" y="188.809">review&#10;</tspan><tspan x="59" y="214.809">Audience &#38; customer </tspan><tspan x="59" y="230.809">research&#10;</tspan><tspan x="59" y="256.809">Objective &#38; goal setting&#10;</tspan><tspan x="59" y="282.809">Key messaging &#38; content </tspan><tspan x="59" y="298.809">pillars&#10;</tspan><tspan x="59" y="324.809">Channel &#38; comms strategy&#10;</tspan><tspan x="59" y="350.809">Campaign &#38; go-to-market </tspan><tspan x="59" y="366.809">planning&#10;</tspan><tspan x="59" y="392.809">Marketing plan &#38; roadmap</tspan></text>
<rect x="115" width="51" height="48" rx="10" fill="#495A58"/>
<path fill-rule="evenodd" clip-rule="evenodd" d="M129.63 16.0016C129.467 16.0136 129.314 16.0838 129.199 16.1995C129.136 16.2623 129.086 16.3368 129.052 16.4189C129.018 16.5009 129.001 16.5889 129.001 16.6778C129.001 16.7666 129.018 16.8546 129.052 16.9366C129.086 17.0187 129.136 17.0932 129.199 17.156L130.681 18.6349L129.199 20.1125C129.136 20.1752 129.086 20.2499 129.052 20.3321C129.018 20.4142 129 20.5024 129 20.5914C129 20.6804 129.018 20.7685 129.052 20.8507C129.086 20.9329 129.136 21.0075 129.199 21.0703C129.262 21.1332 129.337 21.1831 129.419 21.2171C129.501 21.2512 129.589 21.2687 129.678 21.2687C129.767 21.2687 129.855 21.2512 129.938 21.2171C130.02 21.1831 130.094 21.1332 130.157 21.0703L131.637 19.59L133.12 21.0703C133.246 21.1957 133.417 21.2661 133.596 21.2661C133.774 21.2661 133.945 21.1957 134.072 21.0703C134.135 21.0075 134.185 20.9329 134.22 20.8507C134.254 20.7685 134.272 20.6804 134.272 20.5914C134.272 20.5024 134.254 20.4142 134.22 20.3321C134.185 20.2499 134.135 20.1752 134.072 20.1125L132.594 18.6349L134.072 17.156C134.135 17.0933 134.185 17.0187 134.219 16.9367C134.253 16.8546 134.271 16.7666 134.271 16.6778C134.271 16.5889 134.253 16.5009 134.219 16.4189C134.185 16.3368 134.135 16.2623 134.072 16.1995C133.945 16.0741 133.774 16.0037 133.596 16.0037C133.417 16.0037 133.246 16.0741 133.12 16.1995L131.637 17.6784L130.157 16.1995C130.089 16.1307 130.006 16.0774 129.915 16.0432C129.824 16.0091 129.727 15.9949 129.63 16.0016ZM142.269 16.3961C142.172 16.3999 142.078 16.4244 141.991 16.4678C141.905 16.5113 141.829 16.5728 141.768 16.6481C141.712 16.7174 141.671 16.797 141.645 16.8825C141.62 16.9679 141.612 17.0575 141.622 17.146C141.632 17.2345 141.659 17.3203 141.702 17.3983C141.745 17.4763 141.803 17.5451 141.873 17.6006L143.248 18.7009C137.586 19.5979 133.213 24.2773 132.838 30.0571C131.716 30.3438 130.877 31.3634 130.877 32.569C130.877 33.9951 132.051 35.1667 133.479 35.1667C134.907 35.1667 136.075 33.9951 136.075 32.569C136.075 31.3905 135.277 30.3891 134.194 30.0769C134.556 24.9506 138.426 20.8271 143.461 20.0333L142.218 21.4291C142.098 21.5627 142.037 21.738 142.047 21.9166C142.058 22.0951 142.138 22.2624 142.272 22.3816C142.406 22.5006 142.581 22.5616 142.76 22.5515C142.939 22.5414 143.106 22.4608 143.226 22.3275L145.548 19.7193C145.61 19.651 145.656 19.5708 145.686 19.4838C145.715 19.3968 145.726 19.3047 145.719 19.2132C145.711 19.1218 145.685 19.0328 145.642 18.9517C145.599 18.8706 145.54 18.7992 145.468 18.7418L142.717 16.5425C142.59 16.4417 142.431 16.3897 142.269 16.3961ZM149.404 16.7075C147.976 16.7075 146.801 17.8737 146.801 19.2998C146.801 20.7259 147.976 21.8988 149.404 21.8988C150.832 21.8988 152 20.7259 152 19.2998C152 17.8737 150.832 16.7075 149.404 16.7075ZM149.404 18.0584C150.101 18.0584 150.647 18.6036 150.647 19.2998C150.647 19.996 150.101 20.5465 149.404 20.5465C148.707 20.5465 148.155 19.996 148.155 19.2998C148.155 18.6036 148.707 18.0584 149.404 18.0584ZM139.797 25.6402C139.634 25.6518 139.481 25.7216 139.366 25.8368C139.303 25.8996 139.253 25.9742 139.219 26.0564C139.185 26.1386 139.167 26.2267 139.167 26.3157C139.167 26.4047 139.185 26.4928 139.219 26.575C139.253 26.6572 139.303 26.7318 139.366 26.7946L140.846 28.2735L139.366 29.7511C139.303 29.8138 139.253 29.8885 139.219 29.9707C139.185 30.0528 139.167 30.141 139.167 30.23C139.167 30.319 139.185 30.4071 139.219 30.4893C139.253 30.5715 139.303 30.6461 139.366 30.7089C139.429 30.7718 139.504 30.8217 139.586 30.8557C139.668 30.8898 139.756 30.9073 139.845 30.9073C139.934 30.9073 140.022 30.8898 140.105 30.8557C140.187 30.8217 140.261 30.7718 140.324 30.7089L141.805 29.23L143.286 30.7089C143.349 30.7718 143.424 30.8217 143.506 30.8557C143.588 30.8898 143.676 30.9073 143.765 30.9073C143.854 30.9073 143.942 30.8898 144.025 30.8557C144.107 30.8217 144.181 30.7718 144.244 30.7089C144.308 30.6461 144.358 30.5715 144.392 30.4893C144.426 30.4071 144.444 30.319 144.444 30.23C144.444 30.141 144.426 30.0528 144.392 29.9707C144.358 29.8885 144.308 29.8138 144.244 29.7511L142.765 28.2735L144.244 26.7946C144.308 26.7318 144.358 26.6572 144.392 26.575C144.426 26.4928 144.444 26.4047 144.444 26.3157C144.444 26.2267 144.426 26.1386 144.392 26.0564C144.358 25.9742 144.308 25.8996 144.244 25.8368C144.181 25.7739 144.107 25.724 144.025 25.6899C143.942 25.6559 143.854 25.6384 143.765 25.6384C143.676 25.6384 143.588 25.6559 143.506 25.6899C143.424 25.724 143.349 25.7739 143.286 25.8368L141.805 27.3157L140.324 25.8368C140.256 25.7682 140.173 25.7151 140.082 25.6812C139.991 25.6473 139.894 25.6333 139.797 25.6402ZM133.479 31.3276C134.176 31.3276 134.727 31.8728 134.727 32.569C134.727 33.2653 134.176 33.8157 133.479 33.8157C132.782 33.8157 132.23 33.2653 132.23 32.569C132.23 31.8728 132.782 31.3276 133.479 31.3276Z" fill="white"/>
</svg>
