<svg width="1200" height="1321" viewBox="0 0 1200 1321" fill="none" xmlns="http://www.w3.org/2000/svg" xmlns:xlink="http://www.w3.org/1999/xlink">
<g id="Group 179">
<g id="Pillar 3">
<rect id="Rectangle 103" x="829" y="37.5454" width="370.909" height="1282.91" rx="20.8192" fill="#F3ECE6"/>
<path id="Rectangle 114" d="M829 58.6652C829 47.0505 838.416 37.6349 850.03 37.6349H1178.88C1190.49 37.6349 1199.91 47.0505 1199.91 58.6652V244.908H829V58.6652Z" fill="#2E2E2E"/>
<path id="Rectangle 117" d="M829 5C829 2.23858 831.239 0 834 0H1195C1197.76 0 1200 2.23858 1200 5V76H829V5Z" fill="#264653"/>
<text id="&#194;&#163;1000" fill="white" xml:space="preserve" style="white-space: pre" font-family="Work Sans" font-size="35" font-weight="500" letter-spacing="0em"><tspan x="963.641" y="50.0225">&#xa3;1000</tspan></text>
<a xlink:href="https://tally.so/r/3jVXP6" target="_blank"> <rect id="Buy now rectangle - pillar 3" x="901" y="218" width="228" height="53" rx="6" fill="#E76F51"/> </a>
<text id="Take your business to the next level" fill="white" xml:space="preserve" style="white-space: pre" font-family="Work Sans" font-size="21.8182" letter-spacing="0em"><tspan x="878.809" y="161.949">Take your business to the </tspan><tspan x="963.813" y="187.949">next level</tspan></text>
<text id="Expansion" fill="white" xml:space="preserve" style="white-space: pre" font-family="Libre Baskerville" font-size="28.3636" font-weight="bold" letter-spacing="0em"><tspan x="935.787" y="117.564">Expansion</tspan></text>
<g id="Pillar 3 - text">
<text id="Marketing" fill="black" xml:space="preserve" style="white-space: pre" font-family="Libre Baskerville" font-size="27.2727" font-weight="bold" letter-spacing="0em"><tspan x="858.301" y="583.517">Marketing</tspan></text>
<text id="2 weeks of social media content" fill="black" xml:space="preserve" style="white-space: pre" font-family="Work Sans" font-size="21.8182" letter-spacing="0em"><tspan x="901.636" y="710.404">2 weeks of social media </tspan><tspan x="901.636" y="736.404">content</tspan></text>
<text id="Simple brand reference sheet" fill="black" xml:space="preserve" style="white-space: pre" font-family="Work Sans" font-size="21.8182" letter-spacing="0em"><tspan x="901.636" y="777.712">Simple brand &#10;</tspan><tspan x="901.636" y="803.712">reference sheet</tspan></text>
<g id="Group">
<path id="Vector" d="M878.284 372.998C879.257 374.731 879.818 376.738 879.818 378.885C879.818 385.348 874.788 390.594 868.591 390.594C862.394 390.594 857.364 385.348 857.364 378.885C857.364 372.421 862.394 367.175 868.591 367.175C872.184 367.175 875.38 368.939 877.43 371.679L867.842 381.687L864.631 378.338C864.34 378.034 863.868 378.034 863.576 378.338C863.284 378.643 863.284 379.134 863.576 379.439L867.319 383.342C867.461 383.49 867.648 383.568 867.842 383.568C868.037 383.568 868.224 383.49 868.374 383.342L878.284 372.998Z" fill="#E76F51"/>
</g>
<g id="Group_2">
<path id="Vector_2" d="M878.283 629.963C879.256 631.696 879.818 633.702 879.818 635.849C879.818 642.313 874.788 647.559 868.591 647.559C862.393 647.559 857.364 642.313 857.364 635.849C857.364 629.385 862.393 624.139 868.591 624.139C872.183 624.139 875.379 625.903 877.43 628.643L867.842 638.651L864.631 635.302C864.339 634.998 863.868 634.998 863.576 635.302C863.284 635.607 863.284 636.099 863.576 636.403L867.318 640.306C867.46 640.455 867.648 640.533 867.842 640.533C868.037 640.533 868.224 640.455 868.374 640.306L878.283 629.963Z" fill="#E76F51"/>
</g>
<g id="Group_3">
<path id="Vector_3" d="M878.284 439.618C879.257 441.351 879.818 443.357 879.818 445.504C879.818 451.968 874.788 457.214 868.591 457.214C862.394 457.214 857.364 451.968 857.364 445.504C857.364 439.04 862.394 433.794 868.591 433.794C872.184 433.794 875.38 435.558 877.43 438.299L867.842 448.306L864.631 444.957C864.34 444.653 863.868 444.653 863.576 444.957C863.284 445.262 863.284 445.754 863.576 446.058L867.319 449.961C867.461 450.11 867.648 450.188 867.842 450.188C868.037 450.188 868.224 450.11 868.374 449.961L878.284 439.618Z" fill="#E76F51"/>
</g>
<g id="Group_4">
<path id="Vector_4" d="M878.284 696.582C879.257 698.315 879.818 700.322 879.818 702.468C879.818 708.932 874.788 714.178 868.591 714.178C862.394 714.178 857.364 708.932 857.364 702.468C857.364 696.005 862.394 690.759 868.591 690.759C872.184 690.759 875.38 692.523 877.43 695.263L867.842 705.271L864.631 701.922C864.34 701.618 863.868 701.618 863.576 701.922C863.284 702.226 863.284 702.718 863.576 703.023L867.319 706.926C867.461 707.074 867.648 707.152 867.842 707.152C868.037 707.152 868.224 707.074 868.374 706.926L878.284 696.582Z" fill="#E76F51"/>
</g>
<g id="Group_5">
<path id="Vector_5" d="M878.284 480.819C879.257 482.552 879.818 484.558 879.818 486.705C879.818 493.169 874.788 498.415 868.591 498.415C862.394 498.415 857.364 493.169 857.364 486.705C857.364 480.241 862.394 474.995 868.591 474.995C872.184 474.995 875.38 476.759 877.43 479.499L867.842 489.507L864.631 486.158C864.34 485.854 863.868 485.854 863.576 486.158C863.284 486.463 863.284 486.955 863.576 487.259L867.319 491.162C867.461 491.311 867.648 491.389 867.842 491.389C868.037 491.389 868.224 491.311 868.374 491.162L878.284 480.819Z" fill="#E76F51"/>
</g>
<g id="Group_6">
<path id="Vector_6" d="M878.284 763.202C879.257 764.935 879.818 766.941 879.818 769.088C879.818 775.552 874.788 780.798 868.591 780.798C862.394 780.798 857.364 775.552 857.364 769.088C857.364 762.624 862.394 757.378 868.591 757.378C872.184 757.378 875.38 759.142 877.43 761.883L867.842 771.89L864.631 768.541C864.34 768.237 863.868 768.237 863.576 768.541C863.284 768.846 863.284 769.338 863.576 769.642L867.319 773.545C867.461 773.694 867.648 773.772 867.842 773.772C868.037 773.772 868.224 773.694 868.374 773.545L878.284 763.202Z" fill="#E76F51"/>
</g>
<text id="30-minute wrap-up session" fill="black" xml:space="preserve" style="white-space: pre" font-family="Work Sans" font-size="21.8182" letter-spacing="0em"><tspan x="901.246" y="1001.44">30-minute wrap-up </tspan><tspan x="901.246" y="1027.44">session</tspan></text>
<path id="Vector_7" d="M877.921 915.535C878.877 917.238 879.428 919.209 879.428 921.319C879.428 927.67 874.486 932.825 868.396 932.825C862.306 932.825 857.364 927.67 857.364 921.319C857.364 914.967 862.306 909.812 868.396 909.812C871.926 909.812 875.067 911.546 877.082 914.239L867.661 924.073L864.505 920.782C864.218 920.483 863.755 920.483 863.468 920.782C863.181 921.081 863.181 921.564 863.468 921.864L867.146 925.699C867.285 925.845 867.469 925.922 867.661 925.922C867.852 925.922 868.036 925.845 868.183 925.699L877.921 915.535Z" fill="#E76F51"/>
<path id="Vector_8" d="M877.921 986.548C878.877 988.251 879.428 990.222 879.428 992.332C879.428 998.683 874.486 1003.84 868.396 1003.84C862.306 1003.84 857.364 998.683 857.364 992.332C857.364 985.98 862.306 980.825 868.396 980.825C871.926 980.825 875.067 982.559 877.082 985.252L867.661 995.086L864.505 991.795C864.218 991.496 863.755 991.496 863.468 991.795C863.181 992.094 863.181 992.577 863.468 992.877L867.146 996.712C867.285 996.858 867.469 996.934 867.661 996.934C867.852 996.934 868.036 996.858 868.183 996.712L877.921 986.548Z" fill="#E76F51"/>
<text id="Branding and account access folder" fill="black" xml:space="preserve" style="white-space: pre" font-family="Work Sans" font-size="21.8182" letter-spacing="0em"><tspan x="901.246" y="926.089">Branding and account </tspan><tspan x="901.246" y="952.089">access folder</tspan></text>
<text id="1 full marketing campaign" fill="black" xml:space="preserve" style="white-space: pre" font-family="Work Sans" font-size="21.8182" letter-spacing="0em"><tspan x="901.636" y="642.767">1 full marketing </tspan><tspan x="901.636" y="668.767">campaign</tspan></text>
<text id="Handover" fill="black" xml:space="preserve" style="white-space: pre" font-family="Libre Baskerville" font-size="29.4545" font-weight="bold" letter-spacing="0em"><tspan x="860.261" y="871.117">Handover</tspan></text>
<text id="Mobile-friendly design" fill="black" xml:space="preserve" style="white-space: pre" font-family="Work Sans" font-size="21.8182" letter-spacing="0em"><tspan x="901.636" y="451.949">Mobile-friendly design </tspan></text>
<text id="4-page templated website" fill="black" xml:space="preserve" style="white-space: pre" font-family="Work Sans" font-size="21.8182" letter-spacing="0em"><tspan x="901.636" y="385.313">4-page templated </tspan><tspan x="901.636" y="411.313">website</tspan></text>
<text id="Booking system integration" fill="black" xml:space="preserve" style="white-space: pre" font-family="Work Sans" font-size="21.8182" letter-spacing="0em"><tspan x="901.636" y="492.222">Booking system&#10;</tspan><tspan x="901.636" y="518.222">integration</tspan></text>
<text id="Website essentials" fill="black" xml:space="preserve" style="white-space: pre" font-family="Libre Baskerville" font-size="29.4545" font-weight="bold" letter-spacing="0em"><tspan x="859.546" y="330.355">Website essentials</tspan></text>
<text id="Buy now - pillar 3" fill="white" xml:space="preserve" style="white-space: pre" font-family="Libre Baskerville" font-size="25" font-weight="bold" letter-spacing="0em"><tspan x="957.2" y="253.25"><a href="https://tally.so/r/3jVXP6">Buy now</a></tspan></text>
</g>
</g>
<g id="Pillar 2">
<rect id="Rectangle 103_2" x="415" y="37.5454" width="370.909" height="1282.91" rx="20.8192" fill="#F3ECE6"/>
<path id="Rectangle 114_2" d="M415.455 53.5757C415.455 41.961 424.87 32.5454 436.485 32.5454H765.333C776.948 32.5454 786.364 41.961 786.364 53.5757V239.818H415.455V53.5757Z" fill="#2E2E2E"/>
<text id="Increase sales and visibility" fill="white" xml:space="preserve" style="white-space: pre" font-family="Work Sans" font-size="21.8182" letter-spacing="0em"><tspan x="501.818" y="161.969">Increase sales and </tspan><tspan x="557.801" y="187.969">visibility</tspan></text>
<a xlink:href="https://tally.so/r/3EOYKr" target="_blank" rel="noopener noreferrer">
  <rect id="Buy now rectangle - pillar 2" x="486" y="218" width="228" height="53" rx="6" fill="#E76F51"/>
  <text id="Buy now - pillar 2" fill="white" xml:space="preserve" style="white-space: pre" font-family="Libre Baskerville" font-size="25" font-weight="bold" letter-spacing="0em">
    <tspan x="542.2" y="253.25">Buy now</tspan>
  </text>
</a>
<text id="Growth" fill="white" xml:space="preserve" style="white-space: pre" font-family="Libre Baskerville" font-size="28.3636" font-weight="bold" letter-spacing="0em"><tspan x="544.755" y="117.073">Growth</tspan></text>
<g id="Pillar 2 - text">
<text id="Marketing_2" fill="black" xml:space="preserve" style="white-space: pre" font-family="Libre Baskerville" font-size="27.2727" font-weight="bold" letter-spacing="0em"><tspan x="444.301" y="583.516">Marketing</tspan></text>
<text id="2 weeks of social media content_2" fill="black" xml:space="preserve" style="white-space: pre" font-family="Work Sans" font-size="21.8182" letter-spacing="0em"><tspan x="487.636" y="710.404">2 weeks of social media </tspan><tspan x="487.636" y="736.404">content</tspan></text>
<text id="Simple brand reference sheet_2" fill="black" xml:space="preserve" style="white-space: pre" font-family="Work Sans" font-size="21.8182" letter-spacing="0em"><tspan x="487.636" y="777.712">Simple brand &#10;</tspan><tspan x="487.636" y="803.712">reference sheet</tspan></text>
<g id="Group_7">
<path id="Vector_9" d="M464.284 372.998C465.257 374.731 465.818 376.738 465.818 378.885C465.818 385.348 460.788 390.594 454.591 390.594C448.394 390.594 443.364 385.348 443.364 378.885C443.364 372.421 448.394 367.175 454.591 367.175C458.184 367.175 461.38 368.939 463.43 371.679L453.842 381.687L450.631 378.338C450.34 378.034 449.868 378.034 449.576 378.338C449.284 378.643 449.284 379.134 449.576 379.439L453.319 383.342C453.461 383.49 453.648 383.568 453.842 383.568C454.037 383.568 454.224 383.49 454.374 383.342L464.284 372.998Z" fill="#E76F51"/>
</g>
<g id="Group_8">
<path id="Vector_10" d="M464.283 629.963C465.256 631.696 465.818 633.702 465.818 635.849C465.818 642.313 460.788 647.559 454.591 647.559C448.393 647.559 443.364 642.313 443.364 635.849C443.364 629.385 448.393 624.139 454.591 624.139C458.183 624.139 461.379 625.903 463.43 628.643L453.842 638.651L450.631 635.302C450.339 634.998 449.868 634.998 449.576 635.302C449.284 635.607 449.284 636.099 449.576 636.403L453.318 640.306C453.46 640.455 453.648 640.533 453.842 640.533C454.037 640.533 454.224 640.455 454.374 640.306L464.283 629.963Z" fill="#E76F51"/>
</g>
<g id="Group_9">
<path id="Vector_11" d="M464.284 439.618C465.257 441.351 465.818 443.357 465.818 445.504C465.818 451.968 460.788 457.214 454.591 457.214C448.394 457.214 443.364 451.968 443.364 445.504C443.364 439.04 448.394 433.794 454.591 433.794C458.184 433.794 461.38 435.558 463.43 438.299L453.842 448.306L450.631 444.957C450.34 444.653 449.868 444.653 449.576 444.957C449.284 445.262 449.284 445.754 449.576 446.058L453.319 449.961C453.461 450.11 453.648 450.188 453.842 450.188C454.037 450.188 454.224 450.11 454.374 449.961L464.284 439.618Z" fill="#E76F51"/>
</g>
<g id="Group_10">
<path id="Vector_12" d="M464.284 696.582C465.257 698.315 465.818 700.322 465.818 702.468C465.818 708.932 460.788 714.178 454.591 714.178C448.394 714.178 443.364 708.932 443.364 702.468C443.364 696.005 448.394 690.759 454.591 690.759C458.184 690.759 461.38 692.523 463.43 695.263L453.842 705.271L450.631 701.922C450.34 701.618 449.868 701.618 449.576 701.922C449.284 702.226 449.284 702.718 449.576 703.023L453.319 706.926C453.461 707.074 453.648 707.152 453.842 707.152C454.037 707.152 454.224 707.074 454.374 706.926L464.284 696.582Z" fill="#E76F51"/>
</g>
<g id="Group_11">
<path id="Vector_13" d="M464.284 480.819C465.257 482.552 465.818 484.558 465.818 486.705C465.818 493.169 460.788 498.415 454.591 498.415C448.394 498.415 443.364 493.169 443.364 486.705C443.364 480.241 448.394 474.995 454.591 474.995C458.184 474.995 461.38 476.759 463.43 479.499L453.842 489.507L450.631 486.158C450.34 485.854 449.868 485.854 449.576 486.158C449.284 486.463 449.284 486.955 449.576 487.259L453.319 491.162C453.461 491.311 453.648 491.389 453.842 491.389C454.037 491.389 454.224 491.311 454.374 491.162L464.284 480.819Z" fill="#E76F51"/>
</g>
<g id="Group_12">
<path id="Vector_14" d="M464.284 763.202C465.257 764.935 465.818 766.941 465.818 769.088C465.818 775.552 460.788 780.798 454.591 780.798C448.394 780.798 443.364 775.552 443.364 769.088C443.364 762.624 448.394 757.378 454.591 757.378C458.184 757.378 461.38 759.142 463.43 761.883L453.842 771.89L450.631 768.541C450.34 768.237 449.868 768.237 449.576 768.541C449.284 768.846 449.284 769.338 449.576 769.642L453.319 773.545C453.461 773.694 453.648 773.772 453.842 773.772C454.037 773.772 454.224 773.694 454.374 773.545L464.284 763.202Z" fill="#E76F51"/>
</g>
<text id="30-minute wrap-up session_2" fill="black" xml:space="preserve" style="white-space: pre" font-family="Work Sans" font-size="21.8182" letter-spacing="0em"><tspan x="487.246" y="1001.44">30-minute wrap-up </tspan><tspan x="487.246" y="1027.44">session</tspan></text>
<path id="Vector_15" d="M463.921 915.535C464.877 917.238 465.428 919.209 465.428 921.319C465.428 927.67 460.486 932.825 454.396 932.825C448.306 932.825 443.364 927.67 443.364 921.319C443.364 914.967 448.306 909.812 454.396 909.812C457.926 909.812 461.067 911.546 463.082 914.239L453.661 924.073L450.505 920.782C450.218 920.483 449.755 920.483 449.468 920.782C449.181 921.081 449.181 921.564 449.468 921.864L453.146 925.699C453.285 925.845 453.469 925.922 453.661 925.922C453.852 925.922 454.036 925.845 454.183 925.699L463.921 915.535Z" fill="#E76F51"/>
<path id="Vector_16" d="M463.921 986.548C464.877 988.251 465.428 990.222 465.428 992.332C465.428 998.683 460.486 1003.84 454.396 1003.84C448.306 1003.84 443.364 998.683 443.364 992.332C443.364 985.98 448.306 980.825 454.396 980.825C457.926 980.825 461.067 982.559 463.082 985.252L453.661 995.086L450.505 991.795C450.218 991.496 449.755 991.496 449.468 991.795C449.181 992.094 449.181 992.577 449.468 992.877L453.146 996.712C453.285 996.858 453.469 996.934 453.661 996.934C453.852 996.934 454.036 996.858 454.183 996.712L463.921 986.548Z" fill="#E76F51"/>
<text id="Branding and account access folder_2" fill="black" xml:space="preserve" style="white-space: pre" font-family="Work Sans" font-size="21.8182" letter-spacing="0em"><tspan x="487.246" y="926.089">Branding and account </tspan><tspan x="487.246" y="952.089">access folder</tspan></text>
<text id="1 full marketing campaign_2" fill="black" xml:space="preserve" style="white-space: pre" font-family="Work Sans" font-size="21.8182" letter-spacing="0em"><tspan x="487.636" y="642.767">1 full marketing </tspan><tspan x="487.636" y="668.767">campaign</tspan></text>
<text id="Handover_2" fill="black" xml:space="preserve" style="white-space: pre" font-family="Libre Baskerville" font-size="29.4545" font-weight="bold" letter-spacing="0em"><tspan x="446.261" y="871.117">Handover</tspan></text>
<text id="Mobile-friendly design_2" fill="black" xml:space="preserve" style="white-space: pre" font-family="Work Sans" font-size="21.8182" letter-spacing="0em"><tspan x="487.636" y="451.949">Mobile-friendly design </tspan></text>
<text id="4-page templated website_2" fill="black" xml:space="preserve" style="white-space: pre" font-family="Work Sans" font-size="21.8182" letter-spacing="0em"><tspan x="487.636" y="385.313">4-page templated </tspan><tspan x="487.636" y="411.313">website</tspan></text>
<text id="Booking system integration_2" fill="black" xml:space="preserve" style="white-space: pre" font-family="Work Sans" font-size="21.8182" letter-spacing="0em"><tspan x="487.636" y="492.222">Booking system&#10;</tspan><tspan x="487.636" y="518.222">integration</tspan></text>
<text id="Website essentials_2" fill="black" xml:space="preserve" style="white-space: pre" font-family="Libre Baskerville" font-size="29.4545" font-weight="bold" letter-spacing="0em"><tspan x="445.545" y="330.355">Website essentials</tspan></text>
</g>
</g>
<g id="Pillar 1">
<path id="Rectangle 103_3" d="M0 42.5454C0 39.784 2.23858 37.5454 5 37.5454H365.909C368.671 37.5454 370.909 39.784 370.909 42.5454V1315.45C370.909 1318.22 368.671 1320.45 365.909 1320.45H4.99999C2.23857 1320.45 0 1318.22 0 1315.45V42.5454Z" fill="#F3ECE6"/>
<g id="Pillar 1 - text">
<text id="Branding toolkit" fill="black" xml:space="preserve" style="white-space: pre" font-family="Libre Baskerville" font-size="29.4545" font-weight="bold" letter-spacing="0em"><tspan x="29.301" y="601.053">Branding toolkit</tspan></text>
<text id="Marketing_3" fill="black" xml:space="preserve" style="white-space: pre" font-family="Libre Baskerville" font-size="29.4545" font-weight="bold" letter-spacing="0em"><tspan x="35.8467" y="858.882">Marketing</tspan></text>
<text id="Colour palette and font pairing" fill="black" xml:space="preserve" style="white-space: pre" font-family="Work Sans" font-size="21.8182" letter-spacing="0em"><tspan x="74.9233" y="697.568">Colour palette and &#10;</tspan><tspan x="74.9233" y="723.568">font pairing</tspan></text>
<text id="Simple brand reference sheet_3" fill="black" xml:space="preserve" style="white-space: pre" font-family="Work Sans" font-size="21.8182" letter-spacing="0em"><tspan x="74.1819" y="764.949">Simple brand &#10;</tspan><tspan x="74.1819" y="790.949">reference sheet</tspan></text>
<g id="Group_13">
<path id="Vector_17" d="M49.2223 377.439C51.3394 375.229 55.0112 375.824 55.0112 378.885V378.885C55.0112 385.348 49.9814 390.594 43.784 390.594C37.5866 390.594 32.5569 385.348 32.5569 378.885C32.5569 372.421 37.5866 367.175 43.784 367.175C45.8822 367.175 47.8451 367.777 49.5236 368.823C51.5991 370.117 51.3828 372.974 49.6909 374.74L46.2452 378.337C44.4951 380.164 41.5755 380.164 39.8246 378.338V378.338C39.5327 378.034 39.0611 378.034 38.7692 378.338C38.4773 378.643 38.4773 379.134 38.7692 379.439L42.5116 383.342C42.6538 383.49 42.841 383.568 43.0356 383.568C43.2302 383.568 43.4173 383.49 43.567 383.342L49.2223 377.439Z" fill="#E76F51"/>
</g>
<g id="Group_14">
<path id="Vector_18" d="M48.1481 649.676C50.2652 647.466 53.937 648.061 53.937 651.122V651.122C53.937 657.585 48.9072 662.831 42.7098 662.831C36.5124 662.831 31.4827 657.585 31.4827 651.122C31.4827 644.658 36.5124 639.412 42.7098 639.412C44.808 639.412 46.7709 640.014 48.4494 641.06C50.5248 642.354 50.3086 645.211 48.6166 646.977L45.171 650.574C43.4208 652.401 40.5013 652.401 38.7504 650.575V650.575C38.4585 650.271 37.9869 650.271 37.695 650.575C37.4031 650.88 37.4031 651.371 37.695 651.676L41.4374 655.579C41.5796 655.727 41.7667 655.805 41.9613 655.805C42.1559 655.805 42.3431 655.727 42.4928 655.579L48.1481 649.676Z" fill="#E76F51"/>
</g>
<g id="Group_15">
<path id="Vector_19" d="M49.2223 416.482C51.3394 414.272 55.0112 414.867 55.0112 417.927V417.927C55.0112 424.391 49.9814 429.637 43.784 429.637C37.5866 429.637 32.5569 424.391 32.5569 417.927C32.5569 411.463 37.5866 406.217 43.784 406.217C45.8822 406.217 47.8451 406.819 49.5236 407.865C51.5991 409.159 51.3828 412.017 49.6909 413.783L46.2452 417.379C44.4951 419.206 41.5755 419.207 39.8246 417.381V417.381C39.5327 417.076 39.0611 417.076 38.7692 417.381C38.4773 417.685 38.4773 418.177 38.7692 418.481L42.5116 422.384C42.6538 422.533 42.841 422.611 43.0356 422.611C43.2302 422.611 43.4173 422.533 43.567 422.384L49.2223 416.482Z" fill="#E76F51"/>
</g>
<g id="Group_16">
<path id="Vector_20" d="M48.1483 692.047C50.2654 689.837 53.9372 690.432 53.9372 693.492V693.492C53.9372 699.956 48.9075 705.202 42.7101 705.202C36.5127 705.202 31.4829 699.956 31.4829 693.492C31.4829 687.029 36.5127 681.783 42.7101 681.783C44.8082 681.783 46.7711 682.384 48.4496 683.431C50.5251 684.725 50.3089 687.582 48.6169 689.348L45.1712 692.945C43.4211 694.772 40.5015 694.772 38.7506 692.946V692.946C38.4587 692.642 37.9872 692.642 37.6953 692.946C37.4034 693.25 37.4034 693.742 37.6953 694.047L41.4377 697.95C41.5799 698.098 41.767 698.176 41.9616 698.176C42.1562 698.176 42.3433 698.098 42.493 697.95L48.1483 692.047Z" fill="#E76F51"/>
</g>
<g id="Group_17">
<path id="Vector_21" d="M49.2223 457.689C51.3394 455.479 55.0112 456.074 55.0112 459.135V459.135C55.0112 465.598 49.9814 470.844 43.784 470.844C37.5866 470.844 32.5569 465.598 32.5569 459.135C32.5569 452.671 37.5866 447.425 43.784 447.425C45.8822 447.425 47.8451 448.027 49.5236 449.073C51.5991 450.367 51.3828 453.224 49.6909 454.99L46.2452 458.587C44.4951 460.414 41.5755 460.414 39.8246 458.588V458.588C39.5327 458.284 39.0611 458.284 38.7692 458.588C38.4773 458.893 38.4773 459.384 38.7692 459.689L42.5116 463.592C42.6538 463.74 42.841 463.818 43.0356 463.818C43.2302 463.818 43.4173 463.74 43.567 463.592L49.2223 457.689Z" fill="#E76F51"/>
</g>
<g id="Group_18">
<path id="Vector_22" d="M48.1483 758.256C50.2654 756.046 53.9372 756.641 53.9372 759.701V759.701C53.9372 766.165 48.9075 771.411 42.7101 771.411C36.5127 771.411 31.4829 766.165 31.4829 759.701C31.4829 753.237 36.5127 747.991 42.7101 747.991C44.8082 747.991 46.7711 748.593 48.4496 749.64C50.5251 750.934 50.3089 753.791 48.6169 755.557L45.1712 759.153C43.4211 760.98 40.5015 760.981 38.7506 759.155V759.155C38.4587 758.85 37.9872 758.85 37.6953 759.155C37.4034 759.459 37.4034 759.951 37.6953 760.255L41.4377 764.159C41.5799 764.307 41.767 764.385 41.9616 764.385C42.1562 764.385 42.3433 764.307 42.493 764.159L48.1483 758.256Z" fill="#E76F51"/>
</g>
<text id="3 branded Instagram post templates" fill="black" xml:space="preserve" style="white-space: pre" font-family="Work Sans" font-size="21.8182" letter-spacing="0em"><tspan x="80.7273" y="980.04">3 branded Instagram </tspan><tspan x="80.7273" y="1006.04">post templates</tspan></text>
<text id="30-minute wrap-up session_3" fill="black" xml:space="preserve" style="white-space: pre" font-family="Work Sans" font-size="21.8182" letter-spacing="0em"><tspan x="67.6279" y="1247.07">30-minute wrap-up </tspan><tspan x="67.6279" y="1273.07">session</tspan></text>
<g id="Group_19">
<path id="Vector_23" d="M48.1483 524.307C50.2654 522.097 53.9372 522.692 53.9372 525.752V525.752C53.9372 532.216 48.9075 537.462 42.7101 537.462C36.5127 537.462 31.4829 532.216 31.4829 525.752C31.4829 519.289 36.5127 514.043 42.7101 514.043C44.8082 514.043 46.7711 514.644 48.4496 515.691C50.5251 516.985 50.3089 519.842 48.6169 521.608L45.1712 525.205C43.4211 527.032 40.5015 527.032 38.7506 525.206V525.206C38.4587 524.902 37.9872 524.902 37.6953 525.206C37.4034 525.51 37.4034 526.002 37.6953 526.307L41.4377 530.21C41.5799 530.358 41.767 530.436 41.9616 530.436C42.1562 530.436 42.3433 530.358 42.493 530.21L48.1483 524.307Z" fill="#E76F51"/>
</g>
<path id="Vector_24" d="M52.4352 904.813C54.5523 902.603 58.2241 903.198 58.2241 906.258V906.258C58.2241 912.722 53.1943 917.968 46.9969 917.968C40.7995 917.968 35.7698 912.722 35.7698 906.258C35.7698 899.794 40.7995 894.548 46.9969 894.548C49.0951 894.548 51.058 895.15 52.7365 896.197C54.812 897.49 54.5957 900.348 52.9037 902.114L49.4581 905.71C47.7079 907.537 44.7884 907.538 43.0375 905.712V905.712C42.7456 905.407 42.274 905.407 41.9821 905.712C41.6902 906.016 41.6902 906.508 41.9821 906.812L45.7245 910.716C45.8667 910.864 46.0538 910.942 46.2485 910.942C46.4431 910.942 46.6302 910.864 46.7799 910.716L52.4352 904.813Z" fill="#E76F51"/>
<path id="Vector_25" d="M47.7824 1183.9C49.8627 1181.73 53.4708 1182.31 53.4708 1185.32V1185.32C53.4708 1191.67 48.5283 1196.83 42.4385 1196.83C36.3487 1196.83 31.4062 1191.67 31.4062 1185.32C31.4062 1178.97 36.3487 1173.81 42.4385 1173.81C44.4743 1173.81 46.3804 1174.39 48.0159 1175.39C50.1 1176.67 49.8839 1179.53 48.1919 1181.3L44.857 1184.78C43.1372 1186.58 40.2683 1186.58 38.5478 1184.78V1184.78C38.261 1184.48 37.7976 1184.48 37.5108 1184.78C37.2239 1185.08 37.2239 1185.56 37.5108 1185.86L41.1882 1189.7C41.3279 1189.84 41.5118 1189.92 41.703 1189.92C41.8943 1189.92 42.0781 1189.84 42.2252 1189.7L47.7824 1183.9Z" fill="#E76F51"/>
<path id="Vector_26" d="M52.4352 973.757C54.5523 971.548 58.2241 972.142 58.2241 975.203V975.203C58.2241 981.666 53.1943 986.912 46.9969 986.912C40.7995 986.912 35.7698 981.666 35.7698 975.203C35.7698 968.739 40.7995 963.493 46.9969 963.493C49.0951 963.493 51.058 964.095 52.7365 965.141C54.812 966.435 54.5957 969.292 52.9038 971.058L49.4581 974.655C47.7079 976.482 44.7884 976.482 43.0375 974.656V974.656C42.7456 974.352 42.274 974.352 41.9821 974.656C41.6902 974.961 41.6902 975.452 41.9821 975.757L45.7245 979.66C45.8667 979.808 46.0538 979.886 46.2485 979.886C46.4431 979.886 46.6302 979.808 46.7799 979.66L52.4352 973.757Z" fill="#E76F51"/>
<path id="Vector_27" d="M46.2057 1239.27C48.2861 1237.1 51.8941 1237.68 51.8941 1240.69V1240.69C51.8941 1247.04 46.9517 1252.19 40.8619 1252.19C34.772 1252.19 29.8296 1247.04 29.8296 1240.69C29.8296 1234.34 34.772 1229.18 40.8619 1229.18C42.8976 1229.18 44.8037 1229.76 46.4392 1230.76C48.5234 1232.04 48.3072 1234.9 46.6152 1236.67L43.2803 1240.15C41.5605 1241.94 38.6916 1241.94 36.9711 1240.15V1240.15C36.6843 1239.85 36.221 1239.85 35.9341 1240.15C35.6473 1240.45 35.6473 1240.93 35.9341 1241.23L39.6115 1245.07C39.7513 1245.21 39.9351 1245.29 40.1264 1245.29C40.3176 1245.29 40.5015 1245.21 40.6486 1245.07L46.2057 1239.27Z" fill="#E76F51"/>
<path id="Vector_28" d="M52.4352 1046.11C54.5523 1043.9 58.2241 1044.49 58.2241 1047.55V1047.55C58.2241 1054.02 53.1943 1059.26 46.9969 1059.26C40.7995 1059.26 35.7698 1054.02 35.7698 1047.55C35.7698 1041.09 40.7995 1035.84 46.9969 1035.84C49.0951 1035.84 51.058 1036.44 52.7365 1037.49C54.812 1038.78 54.5957 1041.64 52.9037 1043.41L49.4581 1047C47.7079 1048.83 44.7884 1048.83 43.0375 1047.01V1047.01C42.7456 1046.7 42.274 1046.7 41.9821 1047.01C41.6902 1047.31 41.6902 1047.8 41.9821 1048.11L45.7245 1052.01C45.8667 1052.16 46.0538 1052.24 46.2485 1052.24C46.4431 1052.24 46.6302 1052.16 46.7799 1052.01L52.4352 1046.11Z" fill="#E76F51"/>
<text id="Guidance on business registration" fill="black" xml:space="preserve" style="white-space: pre" font-family="Work Sans" font-size="21.8182" letter-spacing="0em"><tspan x="80.7273" y="1050.95">Guidance on &#10;</tspan><tspan x="80.7273" y="1076.95">business registration</tspan></text>
<text id="Instagram bio + highlight setup" fill="black" xml:space="preserve" style="white-space: pre" font-family="Work Sans" font-size="21.8182" letter-spacing="0em"><tspan x="80.7273" y="910.222">Instagram bio + </tspan><tspan x="80.7273" y="936.222">highlight setup</tspan></text>
<text id="Branding and account access folder_3" fill="black" xml:space="preserve" style="white-space: pre" font-family="Work Sans" font-size="21.8182" letter-spacing="0em"><tspan x="72.7842" y="1190.09">Branding and account </tspan><tspan x="72.7842" y="1216.09">access folder</tspan></text>
<text id="Custom logo" fill="black" xml:space="preserve" style="white-space: pre" font-family="Work Sans" font-size="21.8182" letter-spacing="0em"><tspan x="74.9233" y="657.712">Custom logo</tspan></text>
<text id="Handover_3" fill="black" xml:space="preserve" style="white-space: pre" font-family="Libre Baskerville" font-size="29.4545" font-weight="bold" letter-spacing="0em"><tspan x="37.0908" y="1139.81">Handover</tspan></text>
<text id="Online booking system" fill="black" xml:space="preserve" style="white-space: pre" font-family="Work Sans" font-size="21.8182" letter-spacing="0em"><tspan x="74.9233" y="533.834">Online booking system</tspan></text>
<text id="Business email setup" fill="black" xml:space="preserve" style="white-space: pre" font-family="Work Sans" font-size="21.8182" letter-spacing="0em"><tspan x="76.3635" y="425.767">Business email setup</tspan></text>
<text id="Domain purchase" fill="black" xml:space="preserve" style="white-space: pre" font-family="Work Sans" font-size="21.8182" letter-spacing="0em"><tspan x="76.3635" y="385.313">Domain purchase</tspan></text>
<text id="Guidance on business registration_2" fill="black" xml:space="preserve" style="white-space: pre" font-family="Work Sans" font-size="21.8182" letter-spacing="0em"><tspan x="76.3635" y="466.04">Guidance on business </tspan><tspan x="76.3635" y="492.04">registration</tspan></text>
<text id="Setup" fill="black" xml:space="preserve" style="white-space: pre" font-family="Libre Baskerville" font-size="29.4545" font-weight="bold" letter-spacing="0em"><tspan x="30.5454" y="330.355">Setup</tspan></text>
</g>
<path id="Rectangle 114_3" d="M0 42.5454C0 39.784 2.23858 37.5454 5 37.5454H365.909C368.671 37.5454 370.909 39.784 370.909 42.5454V239.818C370.909 242.58 368.671 244.818 365.909 244.818H4.99999C2.23857 244.818 0 242.58 0 239.818V42.5454Z" fill="#2E2E2E"/>
<path id="Rectangle 115" d="M0 5C0 2.23858 2.23858 0 5 0H366C368.761 0 371 2.23858 371 5V76H0V5Z" fill="#264653"/>
<path id="Rectangle 117_2" d="M415 5C415 2.23858 417.239 0 420 0H781C783.761 0 786 2.23858 786 5V76H415V5Z" fill="#264653"/>
<g id="Frame 2">
<g id="Frame 1">
<a xlink:href="https://tally.so/r/3EOeWq" target="_blank" rel="noopener noreferrer">
  <rect id="Buy now rectangle - pillar 1" x="71" y="218" width="228" height="53" rx="6" fill="#E76F51"/>
  <text id="Buy now - pillar 1" fill="white" xml:space="preserve" style="white-space: pre" font-family="Libre Baskerville" font-size="25" font-weight="bold" letter-spacing="0em">
    <tspan x="127.2" y="253.25">Buy now</tspan>
  </text>
</a>
</g>
</g>
<text id="&#194;&#163;500" fill="white" xml:space="preserve" style="white-space: pre" font-family="Work Sans" font-size="35" font-weight="500" letter-spacing="0em"><tspan x="142.311" y="49.9803">&#xa3;500 </tspan></text>
<text id="&#194;&#163;750" fill="white" xml:space="preserve" style="white-space: pre" font-family="Work Sans" font-size="35" font-weight="500" letter-spacing="0em"><tspan x="558.832" y="49.9803">&#xa3;750</tspan></text>
<text id="Core services to build your business" fill="white" xml:space="preserve" style="white-space: pre" font-family="Work Sans" font-size="21.8182" letter-spacing="0em"><tspan x="69.0291" y="161.949">Core services to build </tspan><tspan x="111.952" y="187.949">your business</tspan></text>
<text id="Essentials" fill="white" xml:space="preserve" style="white-space: pre" font-family="Libre Baskerville" font-size="28.3636" font-weight="bold" letter-spacing="0em"><tspan x="112.573" y="116.473">Essentials</tspan></text>
</g>
</g>
</svg>
