<svg width="283" height="442" viewBox="0 0 283 442" fill="none" xmlns="http://www.w3.org/2000/svg">
<g id="Group 95">
<rect id="Rectangle 58" x="0.95" y="0.95" width="281.1" height="440.1" rx="25.05" stroke="black" stroke-width="0.1"/>
<text id="Strategy" fill="black" xml:space="preserve" style="white-space: pre" font-family="Libre Baskerville" font-size="18" font-weight="bold" letter-spacing="0em"><tspan x="106.485" y="112.3">Strategy</tspan></text>
<text id="Marketing audit Competitor &#38; market review Audience &#38; customer research Objective &#38; goal setting Key messaging &#38; content pillars Channel &#38; comms strategy Campaign &#38; go-to-market planning Marketing plan &#38; roadmap" fill="black" xml:space="preserve" style="white-space: pre" font-family="Work Sans" font-size="14" letter-spacing="0em"><tspan x="64" y="156.809">Marketing audit&#10;</tspan><tspan x="64" y="182.809">Competitor &#38; market </tspan><tspan x="64" y="198.809">review&#10;</tspan><tspan x="64" y="224.809">Audience &#38; customer </tspan><tspan x="64" y="240.809">research&#10;</tspan><tspan x="64" y="266.809">Objective &#38; goal setting&#10;</tspan><tspan x="64" y="292.809">Key messaging &#38; content </tspan><tspan x="64" y="308.809">pillars&#10;</tspan><tspan x="64" y="334.809">Channel &#38; comms strategy&#10;</tspan><tspan x="64" y="360.809">Campaign &#38; go-to-market </tspan><tspan x="64" y="376.809">planning&#10;</tspan><tspan x="64" y="402.809">Marketing plan &#38; roadmap</tspan></text>
<rect id="Rectangle 63" x="116" y="23" width="51" height="48" rx="10" fill="#495A58"/>
<path id="Vector" fill-rule="evenodd" clip-rule="evenodd" d="M130.63 39.0016C130.467 39.0136 130.314 39.0838 130.199 39.1995C130.136 39.2623 130.086 39.3368 130.052 39.4189C130.018 39.5009 130.001 39.5889 130.001 39.6778C130.001 39.7666 130.018 39.8546 130.052 39.9366C130.086 40.0187 130.136 40.0932 130.199 40.156L131.681 41.6349L130.199 43.1125C130.136 43.1752 130.086 43.2499 130.052 43.3321C130.018 43.4142 130 43.5024 130 43.5914C130 43.6804 130.018 43.7685 130.052 43.8507C130.086 43.9329 130.136 44.0075 130.199 44.0703C130.262 44.1332 130.337 44.1831 130.419 44.2171C130.501 44.2512 130.589 44.2687 130.678 44.2687C130.767 44.2687 130.855 44.2512 130.938 44.2171C131.02 44.1831 131.094 44.1332 131.157 44.0703L132.637 42.59L134.12 44.0703C134.246 44.1957 134.417 44.2661 134.596 44.2661C134.774 44.2661 134.945 44.1957 135.072 44.0703C135.135 44.0075 135.185 43.9329 135.22 43.8507C135.254 43.7685 135.272 43.6804 135.272 43.5914C135.272 43.5024 135.254 43.4142 135.22 43.3321C135.185 43.2499 135.135 43.1752 135.072 43.1125L133.594 41.6349L135.072 40.156C135.135 40.0933 135.185 40.0187 135.219 39.9367C135.253 39.8546 135.271 39.7666 135.271 39.6778C135.271 39.5889 135.253 39.5009 135.219 39.4189C135.185 39.3368 135.135 39.2623 135.072 39.1995C134.945 39.0741 134.774 39.0037 134.596 39.0037C134.417 39.0037 134.246 39.0741 134.12 39.1995L132.637 40.6784L131.157 39.1995C131.089 39.1307 131.006 39.0774 130.915 39.0432C130.824 39.0091 130.727 38.9949 130.63 39.0016ZM143.269 39.3961C143.172 39.3999 143.078 39.4244 142.991 39.4678C142.905 39.5113 142.829 39.5728 142.768 39.6481C142.712 39.7174 142.671 39.797 142.645 39.8825C142.62 39.9679 142.612 40.0575 142.622 40.146C142.632 40.2345 142.659 40.3203 142.702 40.3983C142.745 40.4763 142.803 40.5451 142.873 40.6006L144.248 41.7009C138.586 42.5979 134.213 47.2773 133.838 53.0571C132.716 53.3438 131.877 54.3634 131.877 55.569C131.877 56.9951 133.051 58.1667 134.479 58.1667C135.907 58.1667 137.075 56.9951 137.075 55.569C137.075 54.3905 136.277 53.3891 135.194 53.0769C135.556 47.9506 139.426 43.8271 144.461 43.0333L143.218 44.4291C143.098 44.5627 143.037 44.738 143.047 44.9166C143.058 45.0951 143.138 45.2624 143.272 45.3816C143.406 45.5006 143.581 45.5616 143.76 45.5515C143.939 45.5414 144.106 45.4608 144.226 45.3275L146.548 42.7193C146.61 42.651 146.656 42.5708 146.686 42.4838C146.715 42.3968 146.726 42.3047 146.719 42.2132C146.711 42.1218 146.685 42.0328 146.642 41.9517C146.599 41.8706 146.54 41.7992 146.468 41.7418L143.717 39.5425C143.59 39.4417 143.431 39.3897 143.269 39.3961ZM150.404 39.7075C148.976 39.7075 147.801 40.8737 147.801 42.2998C147.801 43.7259 148.976 44.8988 150.404 44.8988C151.832 44.8988 153 43.7259 153 42.2998C153 40.8737 151.832 39.7075 150.404 39.7075ZM150.404 41.0584C151.101 41.0584 151.647 41.6036 151.647 42.2998C151.647 42.996 151.101 43.5465 150.404 43.5465C149.707 43.5465 149.155 42.996 149.155 42.2998C149.155 41.6036 149.707 41.0584 150.404 41.0584ZM140.797 48.6402C140.634 48.6518 140.481 48.7216 140.366 48.8368C140.303 48.8996 140.253 48.9742 140.219 49.0564C140.185 49.1386 140.167 49.2267 140.167 49.3157C140.167 49.4047 140.185 49.4928 140.219 49.575C140.253 49.6572 140.303 49.7318 140.366 49.7946L141.846 51.2735L140.366 52.7511C140.303 52.8138 140.253 52.8885 140.219 52.9707C140.185 53.0528 140.167 53.141 140.167 53.23C140.167 53.319 140.185 53.4071 140.219 53.4893C140.253 53.5715 140.303 53.6461 140.366 53.7089C140.429 53.7718 140.504 53.8217 140.586 53.8557C140.668 53.8898 140.756 53.9073 140.845 53.9073C140.934 53.9073 141.022 53.8898 141.105 53.8557C141.187 53.8217 141.261 53.7718 141.324 53.7089L142.805 52.23L144.286 53.7089C144.349 53.7718 144.424 53.8217 144.506 53.8557C144.588 53.8898 144.676 53.9073 144.765 53.9073C144.854 53.9073 144.942 53.8898 145.025 53.8557C145.107 53.8217 145.181 53.7718 145.244 53.7089C145.308 53.6461 145.358 53.5715 145.392 53.4893C145.426 53.4071 145.444 53.319 145.444 53.23C145.444 53.141 145.426 53.0528 145.392 52.9707C145.358 52.8885 145.308 52.8138 145.244 52.7511L143.765 51.2735L145.244 49.7946C145.308 49.7318 145.358 49.6572 145.392 49.575C145.426 49.4928 145.444 49.4047 145.444 49.3157C145.444 49.2267 145.426 49.1386 145.392 49.0564C145.358 48.9742 145.308 48.8996 145.244 48.8368C145.181 48.7739 145.107 48.724 145.025 48.6899C144.942 48.6559 144.854 48.6384 144.765 48.6384C144.676 48.6384 144.588 48.6559 144.506 48.6899C144.424 48.724 144.349 48.7739 144.286 48.8368L142.805 50.3157L141.324 48.8368C141.256 48.7682 141.173 48.7151 141.082 48.6812C140.991 48.6473 140.894 48.6333 140.797 48.6402ZM134.479 54.3276C135.176 54.3276 135.727 54.8728 135.727 55.569C135.727 56.2653 135.176 56.8157 134.479 56.8157C133.782 56.8157 133.23 56.2653 133.23 55.569C133.23 54.8728 133.782 54.3276 134.479 54.3276Z" fill="white"/>
</g>
</svg>
