<svg width="991" height="493" viewBox="0 0 991 493" fill="none" xmlns="http://www.w3.org/2000/svg">
<g id="Group 130">
<rect id="Rectangle 59" x="335.191" y="0.95" width="313.1" height="491.1" rx="25.05" stroke="black" stroke-width="0.1"/>
<text id="Execution" fill="black" xml:space="preserve" style="white-space: pre" font-family="Libre Baskerville" font-size="16" font-weight="bold" letter-spacing="0em"><tspan x="443.038" y="110.6">Execution</tspan></text>
<text id="Content creation &#38; copywriting Campaign rollout Social media &#38; email marketing Website &#38; landing page updates Sales support materials Internal comms &#38; adoption support Launches &#38; announcements" fill="black" xml:space="preserve" style="white-space: pre" font-family="Work Sans" font-size="16" letter-spacing="0em"><tspan x="406.328" y="174.996">Content creation &#38; </tspan><tspan x="406.328" y="193.996">copywriting&#10;</tspan><tspan x="406.328" y="222.996">Campaign rollout&#10;</tspan><tspan x="406.328" y="251.996">Social media &#38; email </tspan><tspan x="406.328" y="270.996">marketing&#10;</tspan><tspan x="406.328" y="299.996">Website &#38; landing page </tspan><tspan x="406.328" y="318.996">updates&#10;</tspan><tspan x="406.328" y="347.996">Sales support materials&#10;</tspan><tspan x="406.328" y="376.996">Internal comms &#38; </tspan><tspan x="406.328" y="395.996">adoption support&#10;</tspan><tspan x="406.328" y="424.996">Launches &#38; </tspan><tspan x="406.328" y="443.996">announcements</tspan></text>
<g id="Group 96">
<path id="Vector" d="M474.073 50.1526L474.287 50.0736C475.717 49.5446 477.362 49.5142 478.783 49.9277L487.321 43.0386L482.757 41.9563C480.847 41.5002 478.732 41.8529 477.31 42.8684L467.719 49.6784L469.354 50.2257C470.862 50.7242 472.6 50.6938 474.073 50.1526Z" fill="#495A58"/>
<path id="Vector_2" d="M493.241 65.4148C492.64 66.5194 492.606 67.8231 493.16 68.9534L493.769 70.18L501.336 62.9873C502.464 61.9212 502.856 60.335 502.35 58.9029L501.147 55.48L493.492 61.8827C493.951 62.9488 493.917 64.1818 493.329 65.2542L493.241 65.4148Z" fill="#495A58"/>
<g id="Vector_3">
<mask id="path-6-inside-1_915_4" fill="white">
<path d="M482.646 66.2524L484.448 64.6317L485.652 65.7146L505.696 49.8392C511.345 45.3675 514.547 38.9363 514.547 32.2254C514.547 31.5182 514.515 30.8036 514.441 30.0964C506.146 29.4187 497.991 32.3433 492.497 37.9643L474.852 55.9982L476.055 57.0811L474.254 58.7018L482.655 66.26L482.646 66.2524ZM497.418 38.9291C499.408 37.1389 502.634 37.1389 504.615 38.9291C506.605 40.7118 506.605 43.6143 504.615 45.4043C502.634 47.187 499.407 47.187 497.418 45.4043C495.437 43.6141 495.437 40.7117 497.418 38.9291Z"/>
</mask>
<path d="M482.646 66.2524L484.448 64.6317L485.652 65.7146L505.696 49.8392C511.345 45.3675 514.547 38.9363 514.547 32.2254C514.547 31.5182 514.515 30.8036 514.441 30.0964C506.146 29.4187 497.991 32.3433 492.497 37.9643L474.852 55.9982L476.055 57.0811L474.254 58.7018L482.655 66.26L482.646 66.2524ZM497.418 38.9291C499.408 37.1389 502.634 37.1389 504.615 38.9291C506.605 40.7118 506.605 43.6143 504.615 45.4043C502.634 47.187 499.407 47.187 497.418 45.4043C495.437 43.6141 495.437 40.7117 497.418 38.9291Z" fill="#495A58" stroke="#495A58" stroke-width="4" mask="url(#path-6-inside-1_915_4)"/>
</g>
<path id="Vector_4" d="M472.68 65.7686C472.169 67.4967 473.059 68.8717 473.292 69.2C473.663 68.6426 474.569 67.4657 476.357 66.7473C477.031 66.4747 477.673 66.3323 478.2 66.2579C478.812 67.0755 478.812 67.4038 479.423 68.2214L481.877 64.3007L476.977 60.38L472.076 62.3434C473.098 62.8328 473.508 62.8328 474.53 63.3221C474.12 63.6132 473.09 64.4308 472.696 65.7748L472.68 65.7686Z" fill="#495A58"/>
</g>
<g id="Group 98">
<g id="Group 129">
<rect id="Rectangle 58" x="0.95" y="0.95" width="312.1" height="491.1" rx="25.05" stroke="black" stroke-width="0.1"/>
<text id="Strategy" fill="black" stroke="#495A58" stroke-width="0.1" xml:space="preserve" style="white-space: pre" font-family="Libre Baskerville" font-size="16" font-weight="bold" letter-spacing="0em"><tspan x="126.894" y="110.6">Strategy</tspan></text>
<text id="Marketing audit Competitor &#38; market review Audience &#38; customer research Objective &#38; goal setting Key messaging &#38; content pillars Channel &#38; comms strategy Campaign &#38; go-to-market planning Marketing plan &#38; roadmap" fill="black" xml:space="preserve" style="white-space: pre" font-family="Work Sans" font-size="16" letter-spacing="0em"><tspan x="74" y="174.996">Marketing audit&#10;</tspan><tspan x="74" y="203.996">Competitor &#38; market </tspan><tspan x="74" y="222.996">review&#10;</tspan><tspan x="74" y="251.996">Audience &#38; customer </tspan><tspan x="74" y="270.996">research&#10;</tspan><tspan x="74" y="299.996">Objective &#38; goal setting&#10;</tspan><tspan x="74" y="328.996">Key messaging &#38; content </tspan><tspan x="74" y="347.996">pillars&#10;</tspan><tspan x="74" y="376.996">Channel &#38; comms strategy&#10;</tspan><tspan x="74" y="405.996">Campaign &#38; go-to-market </tspan><tspan x="74" y="424.996">planning&#10;</tspan><tspan x="74" y="453.996">Marketing plan &#38; roadmap</tspan></text>
<path id="Vector_5" fill-rule="evenodd" clip-rule="evenodd" d="M141.122 31.0028C140.807 31.0233 140.512 31.1443 140.29 31.3435C140.168 31.4516 140.071 31.5799 140.005 31.7212C139.94 31.8625 139.906 32.0139 139.906 32.1669C139.906 32.3199 139.94 32.4714 140.005 32.6127C140.071 32.754 140.168 32.8823 140.29 32.9903L143.152 35.5366L140.29 38.0806C140.168 38.1887 140.071 38.3172 140.004 38.4587C139.938 38.6002 139.904 38.7519 139.904 38.9051C139.904 39.0584 139.938 39.2101 140.004 39.3516C140.071 39.4931 140.168 39.6216 140.29 39.7297C140.411 39.838 140.555 39.9239 140.714 39.9825C140.873 40.0412 141.043 40.0714 141.215 40.0714C141.387 40.0714 141.558 40.0412 141.716 39.9825C141.875 39.9239 142.019 39.838 142.141 39.7297L145.001 37.1811L147.866 39.7297C148.11 39.9456 148.441 40.0668 148.786 40.0668C149.131 40.0668 149.462 39.9456 149.707 39.7297C149.829 39.6216 149.926 39.4931 149.992 39.3516C150.058 39.2101 150.092 39.0584 150.092 38.9051C150.092 38.7519 150.058 38.6002 149.992 38.4587C149.926 38.3172 149.829 38.1887 149.707 38.0806L146.849 35.5366L149.707 32.9903C149.828 32.8823 149.925 32.754 149.991 32.6127C150.057 32.4714 150.091 32.3199 150.091 32.1669C150.091 32.014 150.057 31.8625 149.991 31.7212C149.925 31.5799 149.828 31.4516 149.707 31.3435C149.462 31.1276 149.131 31.0064 148.786 31.0064C148.441 31.0064 148.11 31.1276 147.866 31.3435L145.001 33.8898L142.141 31.3435C142.009 31.225 141.849 31.1332 141.673 31.0744C141.497 31.0156 141.309 30.9912 141.122 31.0028ZM165.548 31.682C165.361 31.6886 165.178 31.7307 165.011 31.8055C164.844 31.8804 164.697 31.9862 164.58 32.1158C164.472 32.2351 164.391 32.3722 164.343 32.5194C164.294 32.6665 164.279 32.8207 164.298 32.9731C164.316 33.1256 164.369 33.2732 164.452 33.4075C164.535 33.5418 164.647 33.6602 164.782 33.7558L167.44 35.6502C156.497 37.1947 148.046 45.2513 147.322 55.2027C145.153 55.6963 143.532 57.4518 143.532 59.5275C143.532 61.9829 145.8 64 148.56 64C151.32 64 153.578 61.9829 153.578 59.5275C153.578 57.4984 152.035 55.7743 149.942 55.2368C150.642 46.4106 158.122 39.3111 167.851 37.9443L165.448 40.3475C165.218 40.5775 165.1 40.8793 165.12 41.1868C165.139 41.4942 165.295 41.7822 165.553 41.9875C165.812 42.1923 166.151 42.2974 166.496 42.28C166.842 42.2625 167.166 42.1238 167.397 41.8944L171.885 37.4037C172.004 37.286 172.094 37.148 172.151 36.9982C172.207 36.8484 172.229 36.6899 172.215 36.5324C172.2 36.3749 172.149 36.2216 172.066 36.0821C171.983 35.9425 171.868 35.8195 171.73 35.7206L166.414 31.9341C166.168 31.7605 165.861 31.671 165.548 31.682ZM179.336 32.2181C176.576 32.2181 174.306 34.226 174.306 36.6814C174.306 39.1368 176.576 41.1562 179.336 41.1562C182.096 41.1562 184.354 39.1368 184.354 36.6814C184.354 34.226 182.096 32.2181 179.336 32.2181ZM179.336 34.544C180.683 34.544 181.739 35.4827 181.739 36.6814C181.739 37.8801 180.683 38.8279 179.336 38.8279C177.99 38.8279 176.923 37.8801 176.923 36.6814C176.923 35.4827 177.99 34.544 179.336 34.544ZM160.771 47.598C160.456 47.6179 160.161 47.7381 159.938 47.9364C159.816 48.0445 159.719 48.173 159.653 48.3145C159.587 48.456 159.553 48.6077 159.553 48.7609C159.553 48.9142 159.587 49.0659 159.653 49.2074C159.719 49.3489 159.816 49.4774 159.938 49.5855L162.798 52.1318L159.938 54.6758C159.816 54.7838 159.719 54.9123 159.653 55.0538C159.587 55.1953 159.553 55.3471 159.553 55.5003C159.553 55.6535 159.587 55.8053 159.653 55.9468C159.719 56.0883 159.816 56.2168 159.938 56.3248C160.06 56.4331 160.204 56.5191 160.363 56.5777C160.521 56.6363 160.692 56.6665 160.864 56.6665C161.036 56.6665 161.206 56.6363 161.365 56.5777C161.524 56.5191 161.668 56.4331 161.789 56.3248L164.652 53.7786L167.514 56.3248C167.635 56.4331 167.78 56.5191 167.939 56.5777C168.097 56.6363 168.268 56.6665 168.44 56.6665C168.612 56.6665 168.782 56.6363 168.941 56.5777C169.1 56.5191 169.244 56.4331 169.365 56.3248C169.487 56.2168 169.584 56.0883 169.65 55.9468C169.717 55.8053 169.751 55.6535 169.751 55.5003C169.751 55.3471 169.717 55.1953 169.65 55.0538C169.584 54.9123 169.487 54.7838 169.365 54.6758L166.505 52.1317L169.365 49.5855C169.487 49.4774 169.584 49.3489 169.65 49.2074C169.717 49.0659 169.751 48.9142 169.751 48.7609C169.751 48.6077 169.717 48.456 169.65 48.3145C169.584 48.173 169.487 48.0445 169.365 47.9364C169.244 47.8281 169.1 47.7422 168.941 47.6835C168.782 47.6249 168.612 47.5947 168.44 47.5947C168.268 47.5947 168.097 47.6249 167.939 47.6835C167.78 47.7422 167.635 47.8281 167.514 47.9364L164.652 50.4827L161.789 47.9364C161.657 47.8183 161.497 47.7269 161.321 47.6685C161.146 47.6101 160.958 47.586 160.771 47.598ZM148.56 57.3901C149.907 57.3901 150.973 58.3288 150.973 59.5276C150.973 60.7263 149.907 61.6741 148.56 61.6741C147.214 61.6741 146.147 60.7263 146.147 59.5276C146.147 58.3288 147.214 57.3901 148.56 57.3901Z" fill="#495A58"/>
</g>
</g>
<g id="Group 101">
<rect id="Rectangle 60" x="677.934" y="0.95" width="312.357" height="491.1" rx="25.05" stroke="black" stroke-width="0.1"/>
<text id="Project management" fill="black" xml:space="preserve" style="white-space: pre" font-family="Libre Baskerville" font-size="16" font-weight="bold" letter-spacing="0em"><tspan x="752.474" y="109.496">Project management</tspan></text>
<text id="Brand refresh or repositioning Website or content overhaul Product or feature launch Event or campaign delivery One-off consulting or workshops" fill="black" xml:space="preserve" style="white-space: pre" font-family="Work Sans" font-size="16" letter-spacing="0em"><tspan x="746" y="178.496">Brand refresh or </tspan><tspan x="746" y="197.496">repositioning&#10;</tspan><tspan x="746" y="226.496">Website or content </tspan><tspan x="746" y="245.496">overhaul&#10;</tspan><tspan x="746" y="274.496">Product or feature launch&#10;</tspan><tspan x="746" y="303.496">Event or campaign delivery&#10;</tspan><tspan x="746" y="332.496">One-off consulting or </tspan><tspan x="746" y="351.496">workshops</tspan></text>
<g id="Group 97">
<g id="Vector_6">
<mask id="path-15-outside-2_915_4" maskUnits="userSpaceOnUse" x="843.137" y="62.0669" width="19" height="19" fill="black">
<rect fill="white" x="843.137" y="62.0669" width="19" height="19"/>
<path d="M852.849 63.0669C848.045 63.0669 844.137 66.9915 844.137 71.8156C844.137 76.6397 848.045 80.5643 852.849 80.5643C857.652 80.5643 861.561 76.6397 861.561 71.8156C861.561 66.9915 857.652 63.0669 852.849 63.0669ZM852.849 78.4152C849.259 78.4152 846.338 75.4545 846.338 71.8165C846.338 68.1785 849.259 65.2178 852.849 65.2178C856.439 65.2178 859.36 68.1785 859.36 71.8165C859.36 75.4545 856.439 78.4152 852.849 78.4152Z"/>
</mask>
<path d="M852.849 63.0669C848.045 63.0669 844.137 66.9915 844.137 71.8156C844.137 76.6397 848.045 80.5643 852.849 80.5643C857.652 80.5643 861.561 76.6397 861.561 71.8156C861.561 66.9915 857.652 63.0669 852.849 63.0669ZM852.849 78.4152C849.259 78.4152 846.338 75.4545 846.338 71.8165C846.338 68.1785 849.259 65.2178 852.849 65.2178C856.439 65.2178 859.36 68.1785 859.36 71.8165C859.36 75.4545 856.439 78.4152 852.849 78.4152Z" fill="#495A58"/>
<path d="M852.849 63.0669C848.045 63.0669 844.137 66.9915 844.137 71.8156C844.137 76.6397 848.045 80.5643 852.849 80.5643C857.652 80.5643 861.561 76.6397 861.561 71.8156C861.561 66.9915 857.652 63.0669 852.849 63.0669ZM852.849 78.4152C849.259 78.4152 846.338 75.4545 846.338 71.8165C846.338 68.1785 849.259 65.2178 852.849 65.2178C856.439 65.2178 859.36 68.1785 859.36 71.8165C859.36 75.4545 856.439 78.4152 852.849 78.4152Z" stroke="#495A58" stroke-width="0.2" mask="url(#path-15-outside-2_915_4)"/>
</g>
<g id="Vector_7">
<mask id="path-16-outside-3_915_4" maskUnits="userSpaceOnUse" x="850.759" y="65.3477" width="6" height="8" fill="black">
<rect fill="white" x="850.759" y="65.3477" width="6" height="8"/>
<path d="M855.142 70.6113H853.705V67.4966C853.705 66.8618 853.27 66.3477 852.732 66.3477C852.194 66.3477 851.759 66.8618 851.759 67.4966V71.7602C851.759 72.395 852.194 72.9092 852.732 72.9092H855.142C855.679 72.9092 856.115 72.395 856.115 71.7602C856.115 71.1254 855.679 70.6113 855.142 70.6113Z"/>
</mask>
<path d="M855.142 70.6113H853.705V67.4966C853.705 66.8618 853.27 66.3477 852.732 66.3477C852.194 66.3477 851.759 66.8618 851.759 67.4966V71.7602C851.759 72.395 852.194 72.9092 852.732 72.9092H855.142C855.679 72.9092 856.115 72.395 856.115 71.7602C856.115 71.1254 855.679 70.6113 855.142 70.6113Z" fill="#495A58"/>
<path d="M855.142 70.6113H853.705V67.4966C853.705 66.8618 853.27 66.3477 852.732 66.3477C852.194 66.3477 851.759 66.8618 851.759 67.4966V71.7602C851.759 72.395 852.194 72.9092 852.732 72.9092H855.142C855.679 72.9092 856.115 72.395 856.115 71.7602C856.115 71.1254 855.679 70.6113 855.142 70.6113Z" stroke="#495A58" stroke-width="0.2" mask="url(#path-16-outside-3_915_4)"/>
</g>
<g id="Vector_8">
<mask id="path-17-outside-4_915_4" maskUnits="userSpaceOnUse" x="817" y="41.2886" width="19" height="25" fill="black">
<rect fill="white" x="817" y="41.2886" width="19" height="25"/>
<path d="M835.111 52.4792L830.637 43.7961C830.158 42.8656 829.215 42.2886 828.177 42.2886H820.773C819.244 42.2886 818 43.5448 818 45.0887V62.4539C818 63.9977 819.244 65.254 820.773 65.254H828.177C829.215 65.254 830.158 64.676 830.637 63.7465L835.111 55.0634C835.528 54.2542 835.528 53.2884 835.111 52.4792ZM833.097 54.0058L828.622 62.6889C828.535 62.857 828.365 62.9621 828.177 62.9621H820.773C820.496 62.9621 820.271 62.7348 820.271 62.4548V45.0887C820.271 44.8088 820.496 44.5814 820.773 44.5814H828.177C828.365 44.5814 828.535 44.6865 828.622 44.8546L833.097 53.5377C833.173 53.6839 833.173 53.8596 833.097 54.0058Z"/>
</mask>
<path d="M835.111 52.4792L830.637 43.7961C830.158 42.8656 829.215 42.2886 828.177 42.2886H820.773C819.244 42.2886 818 43.5448 818 45.0887V62.4539C818 63.9977 819.244 65.254 820.773 65.254H828.177C829.215 65.254 830.158 64.676 830.637 63.7465L835.111 55.0634C835.528 54.2542 835.528 53.2884 835.111 52.4792ZM833.097 54.0058L828.622 62.6889C828.535 62.857 828.365 62.9621 828.177 62.9621H820.773C820.496 62.9621 820.271 62.7348 820.271 62.4548V45.0887C820.271 44.8088 820.496 44.5814 820.773 44.5814H828.177C828.365 44.5814 828.535 44.6865 828.622 44.8546L833.097 53.5377C833.173 53.6839 833.173 53.8596 833.097 54.0058Z" fill="#495A58"/>
<path d="M835.111 52.4792L830.637 43.7961C830.158 42.8656 829.215 42.2886 828.177 42.2886H820.773C819.244 42.2886 818 43.5448 818 45.0887V62.4539C818 63.9977 819.244 65.254 820.773 65.254H828.177C829.215 65.254 830.158 64.676 830.637 63.7465L835.111 55.0634C835.528 54.2542 835.528 53.2884 835.111 52.4792ZM833.097 54.0058L828.622 62.6889C828.535 62.857 828.365 62.9621 828.177 62.9621H820.773C820.496 62.9621 820.271 62.7348 820.271 62.4548V45.0887C820.271 44.8088 820.496 44.5814 820.773 44.5814H828.177C828.365 44.5814 828.535 44.6865 828.622 44.8546L833.097 53.5377C833.173 53.6839 833.173 53.8596 833.097 54.0058Z" stroke="#495A58" stroke-width="0.2" mask="url(#path-17-outside-4_915_4)"/>
</g>
<g id="Vector_9">
<mask id="path-18-outside-5_915_4" maskUnits="userSpaceOnUse" x="832.245" y="41.2886" width="17" height="25" fill="black">
<rect fill="white" x="832.245" y="41.2886" width="17" height="25"/>
<path d="M843.656 63.7331L848.172 55.0734C848.598 54.2575 848.598 53.2841 848.172 52.4682L843.656 43.8085C843.166 42.8713 842.205 42.2886 841.145 42.2886H834.394C833.759 42.2886 833.245 42.8016 833.245 43.4349C833.245 44.0683 833.759 44.5813 834.394 44.5813H841.145C841.345 44.5813 841.525 44.6902 841.617 44.8669L846.133 53.5267C846.213 53.6796 846.213 53.863 846.133 54.0158L841.617 62.6756C841.525 62.8514 841.345 62.9613 841.145 62.9613H834.394C833.759 62.9613 833.245 63.4743 833.245 64.1076C833.245 64.741 833.759 65.254 834.394 65.254H841.145C842.205 65.254 843.166 64.6703 843.656 63.7331Z"/>
</mask>
<path d="M843.656 63.7331L848.172 55.0734C848.598 54.2575 848.598 53.2841 848.172 52.4682L843.656 43.8085C843.166 42.8713 842.205 42.2886 841.145 42.2886H834.394C833.759 42.2886 833.245 42.8016 833.245 43.4349C833.245 44.0683 833.759 44.5813 834.394 44.5813H841.145C841.345 44.5813 841.525 44.6902 841.617 44.8669L846.133 53.5267C846.213 53.6796 846.213 53.863 846.133 54.0158L841.617 62.6756C841.525 62.8514 841.345 62.9613 841.145 62.9613H834.394C833.759 62.9613 833.245 63.4743 833.245 64.1076C833.245 64.741 833.759 65.254 834.394 65.254H841.145C842.205 65.254 843.166 64.6703 843.656 63.7331Z" fill="#495A58"/>
<path d="M843.656 63.7331L848.172 55.0734C848.598 54.2575 848.598 53.2841 848.172 52.4682L843.656 43.8085C843.166 42.8713 842.205 42.2886 841.145 42.2886H834.394C833.759 42.2886 833.245 42.8016 833.245 43.4349C833.245 44.0683 833.759 44.5813 834.394 44.5813H841.145C841.345 44.5813 841.525 44.6902 841.617 44.8669L846.133 53.5267C846.213 53.6796 846.213 53.863 846.133 54.0158L841.617 62.6756C841.525 62.8514 841.345 62.9613 841.145 62.9613H834.394C833.759 62.9613 833.245 63.4743 833.245 64.1076C833.245 64.741 833.759 65.254 834.394 65.254H841.145C842.205 65.254 843.166 64.6703 843.656 63.7331Z" stroke="#495A58" stroke-width="0.2" mask="url(#path-18-outside-5_915_4)"/>
</g>
<g id="Vector_10">
<mask id="path-19-outside-6_915_4" maskUnits="userSpaceOnUse" x="845.314" y="41.2886" width="17" height="21" fill="black">
<rect fill="white" x="845.314" y="41.2886" width="17" height="21"/>
<path d="M847.464 44.7208H854.214C854.413 44.7208 854.594 44.8363 854.685 45.0239L859.202 54.2143C859.281 54.3776 859.281 54.5722 859.202 54.7344L856.518 60.1949C856.225 60.7911 856.445 61.5251 857.008 61.8353C857.177 61.9286 857.358 61.9732 857.537 61.9732C857.952 61.9732 858.353 61.735 858.558 61.3183L861.242 55.8578C861.667 54.9919 861.667 53.9588 861.242 53.093L856.725 43.9026C856.237 42.907 855.274 42.2886 854.214 42.2886H847.464C846.829 42.2886 846.314 42.833 846.314 43.5052C846.314 44.1774 846.829 44.7208 847.464 44.7208Z"/>
</mask>
<path d="M847.464 44.7208H854.214C854.413 44.7208 854.594 44.8363 854.685 45.0239L859.202 54.2143C859.281 54.3776 859.281 54.5722 859.202 54.7344L856.518 60.1949C856.225 60.7911 856.445 61.5251 857.008 61.8353C857.177 61.9286 857.358 61.9732 857.537 61.9732C857.952 61.9732 858.353 61.735 858.558 61.3183L861.242 55.8578C861.667 54.9919 861.667 53.9588 861.242 53.093L856.725 43.9026C856.237 42.907 855.274 42.2886 854.214 42.2886H847.464C846.829 42.2886 846.314 42.833 846.314 43.5052C846.314 44.1774 846.829 44.7208 847.464 44.7208Z" fill="#495A58"/>
<path d="M847.464 44.7208H854.214C854.413 44.7208 854.594 44.8363 854.685 45.0239L859.202 54.2143C859.281 54.3776 859.281 54.5722 859.202 54.7344L856.518 60.1949C856.225 60.7911 856.445 61.5251 857.008 61.8353C857.177 61.9286 857.358 61.9732 857.537 61.9732C857.952 61.9732 858.353 61.735 858.558 61.3183L861.242 55.8578C861.667 54.9919 861.667 53.9588 861.242 53.093L856.725 43.9026C856.237 42.907 855.274 42.2886 854.214 42.2886H847.464C846.829 42.2886 846.314 42.833 846.314 43.5052C846.314 44.1774 846.829 44.7208 847.464 44.7208Z" stroke="#495A58" stroke-width="0.2" mask="url(#path-19-outside-6_915_4)"/>
</g>
</g>
</g>
</g>
</svg>
