<svg width="283" height="442" viewBox="0 0 283 442" fill="none" xmlns="http://www.w3.org/2000/svg">
<g id="Group 101">
<rect id="Rectangle 60" x="0.95" y="0.95" width="281.1" height="440.1" rx="25.05" stroke="black" stroke-width="0.1"/>
<text id="Project management" fill="black" xml:space="preserve" style="white-space: pre" font-family="Libre Baskerville" font-size="18" font-weight="bold" letter-spacing="0em"><tspan x="48.2812" y="112.3">Project management</tspan></text>
<text id="Brand refresh or repositioning Website or content overhaul Product or feature launch Event or campaign delivery One-off consulting or workshops" fill="black" xml:space="preserve" style="white-space: pre" font-family="Work Sans" font-size="14" letter-spacing="0em"><tspan x="62" y="156.809">Brand refresh or </tspan><tspan x="62" y="172.809">repositioning&#10;</tspan><tspan x="62" y="198.809">Website or content </tspan><tspan x="62" y="214.809">overhaul&#10;</tspan><tspan x="62" y="240.809">Product or feature launch&#10;</tspan><tspan x="62" y="266.809">Event or campaign delivery&#10;</tspan><tspan x="62" y="292.809">One-off consulting or </tspan><tspan x="62" y="308.809">workshops</tspan></text>
<g id="Group 97">
<path id="Vector" d="M158.36 56.495C162.752 56.495 166.325 60.0679 166.325 64.4598C166.325 68.8519 162.752 72.4247 158.36 72.4247C153.969 72.4246 150.396 68.8518 150.396 64.4598C150.396 60.0679 153.969 56.4951 158.36 56.495ZM158.36 58.6727C155.2 58.6728 152.626 61.2687 152.626 64.4608C152.626 67.6529 155.2 70.2488 158.36 70.2489C161.521 70.2489 164.095 67.653 164.095 64.4608C164.095 61.2687 161.521 58.6727 158.36 58.6727Z" fill="#495A58" stroke="#495A58" stroke-width="0.25"/>
<path id="Vector_2" d="M158.256 59.4351C158.827 59.4352 159.257 59.9714 159.257 60.5894V63.2554H160.424C160.995 63.2554 161.425 63.7925 161.425 64.4106C161.425 65.0287 160.995 65.5649 160.424 65.5649H158.256C157.685 65.5649 157.255 65.0287 157.255 64.4106V60.5894L157.26 60.4751C157.309 59.9067 157.72 59.4351 158.256 59.4351Z" fill="#495A58" stroke="#495A58" stroke-width="0.25"/>
<path id="Vector_3" d="M136.158 37.875C137.139 37.875 138.031 38.4187 138.483 39.2939L142.51 47.0742L142.579 47.2188C142.881 47.8999 142.881 48.6802 142.579 49.3613L142.51 49.5049L138.483 57.2861C138.031 58.1604 137.139 58.7051 136.158 58.7051H129.495C128.05 58.7048 126.875 57.522 126.875 56.0703V40.5088C126.875 39.0573 128.05 37.8753 129.495 37.875H136.158ZM129.495 40.1797C129.316 40.1799 129.169 40.3267 129.169 40.5088V56.0713C129.169 56.2536 129.316 56.4011 129.495 56.4014H136.158C136.28 56.4013 136.391 56.3335 136.448 56.2236L140.475 48.4424L140.503 48.3682C140.521 48.2916 140.511 48.2097 140.475 48.1387V48.1377L136.448 40.3574C136.391 40.2476 136.28 40.1797 136.158 40.1797H129.495Z" fill="#495A58" stroke="#495A58" stroke-width="0.25"/>
<path id="Vector_4" d="M147.829 37.875C148.829 37.875 149.737 38.4226 150.199 39.3037L154.264 47.0645L154.334 47.21C154.641 47.8966 154.641 48.6825 154.334 49.3691L154.264 49.5146L150.199 57.2754C149.737 58.1565 148.829 58.7051 147.829 58.7051H141.754C141.114 58.705 140.595 58.1901 140.595 57.5527C140.595 56.9153 141.114 56.4004 141.754 56.4004H147.829C147.929 56.4004 148.021 56.3597 148.087 56.29L148.143 56.2109L152.207 48.4512L152.236 48.373C152.25 48.3185 152.25 48.2615 152.236 48.207L152.207 48.1289L148.143 40.3682C148.082 40.2515 147.962 40.1797 147.829 40.1797H141.754C141.114 40.1797 140.595 39.6647 140.595 39.0273C140.595 38.39 141.114 37.875 141.754 37.875H147.829Z" fill="#495A58" stroke="#495A58" stroke-width="0.25"/>
<path id="Vector_5" d="M159.59 37.875C160.593 37.8751 161.5 38.4587 161.96 39.3906H161.961L166.025 47.627L166.096 47.7803C166.402 48.5058 166.402 49.3359 166.096 50.0615L166.025 50.2148L163.61 55.1084C163.405 55.5238 163.001 55.7646 162.58 55.7646C162.444 55.7646 162.306 55.7397 162.174 55.6875L162.043 55.626C161.475 55.3142 161.259 54.5824 161.551 53.9912L163.966 49.0977L163.996 49.0117C164.01 48.9519 164.01 48.8892 163.996 48.8291L163.966 48.7422L159.901 40.5068V40.5059C159.84 40.3791 159.719 40.3048 159.59 40.3047H153.515C152.868 40.3047 152.355 39.7551 152.355 39.0898C152.356 38.4249 152.868 37.875 153.515 37.875H159.59Z" fill="#495A58" stroke="#495A58" stroke-width="0.25"/>
</g>
</g>
</svg>
