<svg width="283" height="442" viewBox="0 0 283 442" fill="none" xmlns="http://www.w3.org/2000/svg">
<g id="Group 98">
<g id="Group 95">
<rect id="Rectangle 58" x="0.95" y="0.95" width="281.1" height="440.1" rx="25.05" stroke="black" stroke-width="0.1"/>
<text id="Strategy" fill="black" stroke="#495A58" stroke-width="0.1" xml:space="preserve" style="white-space: pre" font-family="Libre Baskerville" font-size="18" font-weight="bold" letter-spacing="0em"><tspan x="106.485" y="112.3">Strategy</tspan></text>
<text id="Marketing audit Competitor &#38; market review Audience &#38; customer research Objective &#38; goal setting Key messaging &#38; content pillars Channel &#38; comms strategy Campaign &#38; go-to-market planning Marketing plan &#38; roadmap" fill="black" xml:space="preserve" style="white-space: pre" font-family="Work Sans" font-size="14" letter-spacing="0em"><tspan x="64" y="156.809">Marketing audit&#10;</tspan><tspan x="64" y="182.809">Competitor &#38; market </tspan><tspan x="64" y="198.809">review&#10;</tspan><tspan x="64" y="224.809">Audience &#38; customer </tspan><tspan x="64" y="240.809">research&#10;</tspan><tspan x="64" y="266.809">Objective &#38; goal setting&#10;</tspan><tspan x="64" y="292.809">Key messaging &#38; content </tspan><tspan x="64" y="308.809">pillars&#10;</tspan><tspan x="64" y="334.809">Channel &#38; comms strategy&#10;</tspan><tspan x="64" y="360.809">Campaign &#38; go-to-market </tspan><tspan x="64" y="376.809">planning&#10;</tspan><tspan x="64" y="402.809">Marketing plan &#38; roadmap</tspan></text>
<path id="Vector" fill-rule="evenodd" clip-rule="evenodd" d="M127.096 31.0028C126.813 31.0233 126.547 31.1443 126.347 31.3435C126.237 31.4516 126.15 31.5799 126.091 31.7212C126.032 31.8625 126.001 32.0139 126.001 32.1669C126.001 32.3199 126.032 32.4714 126.091 32.6127C126.15 32.754 126.237 32.8823 126.347 32.9903L128.923 35.5366L126.347 38.0806C126.237 38.1887 126.15 38.3172 126.09 38.4587C126.031 38.6002 126 38.7519 126 38.9051C126 39.0584 126.031 39.2101 126.09 39.3516C126.15 39.4931 126.237 39.6216 126.347 39.7297C126.456 39.838 126.586 39.9239 126.729 39.9825C126.872 40.0412 127.025 40.0714 127.18 40.0714C127.335 40.0714 127.488 40.0412 127.631 39.9825C127.774 39.9239 127.903 39.838 128.013 39.7297L130.586 37.1811L133.164 39.7297C133.385 39.9456 133.682 40.0668 133.993 40.0668C134.303 40.0668 134.601 39.9456 134.821 39.7297C134.931 39.6216 135.018 39.4931 135.078 39.3516C135.137 39.2101 135.168 39.0584 135.168 38.9051C135.168 38.7519 135.137 38.6002 135.078 38.4587C135.018 38.3172 134.931 38.1887 134.821 38.0806L132.25 35.5366L134.821 32.9903C134.931 32.8823 135.018 32.754 135.077 32.6127C135.136 32.4714 135.167 32.3199 135.167 32.1669C135.167 32.014 135.136 31.8625 135.077 31.7212C135.018 31.5799 134.931 31.4516 134.821 31.3435C134.601 31.1276 134.303 31.0064 133.993 31.0064C133.682 31.0064 133.385 31.1276 133.164 31.3435L130.586 33.8898L128.013 31.3435C127.894 31.225 127.75 31.1332 127.592 31.0744C127.434 31.0156 127.264 30.9912 127.096 31.0028ZM149.077 31.682C148.909 31.6886 148.744 31.7307 148.594 31.8055C148.443 31.8804 148.311 31.9862 148.206 32.1158C148.108 32.2351 148.036 32.3722 147.992 32.5194C147.948 32.6665 147.935 32.8207 147.951 32.9731C147.968 33.1256 148.016 33.2732 148.09 33.4075C148.165 33.5418 148.266 33.6602 148.387 33.7558L150.779 35.6502C140.932 37.1947 133.326 45.2513 132.675 55.2027C130.723 55.6963 129.265 57.4518 129.265 59.5275C129.265 61.9829 131.306 64 133.789 64C136.273 64 138.305 61.9829 138.305 59.5275C138.305 57.4984 136.916 55.7743 135.032 55.2368C135.663 46.4106 142.394 39.3111 151.149 37.9443L148.987 40.3475C148.78 40.5775 148.674 40.8793 148.691 41.1868C148.709 41.4942 148.849 41.7822 149.081 41.9875C149.314 42.1923 149.619 42.2974 149.93 42.28C150.241 42.2625 150.533 42.1238 150.74 41.8944L154.78 37.4037C154.886 37.286 154.968 37.148 155.019 36.9982C155.07 36.8484 155.089 36.6899 155.076 36.5324C155.063 36.3749 155.017 36.2216 154.942 36.0821C154.867 35.9425 154.764 35.8195 154.64 35.7206L149.856 31.9341C149.635 31.7605 149.359 31.671 149.077 31.682ZM161.485 32.2181C159.001 32.2181 156.958 34.226 156.958 36.6814C156.958 39.1368 159.001 41.1562 161.485 41.1562C163.969 41.1562 166 39.1368 166 36.6814C166 34.226 163.969 32.2181 161.485 32.2181ZM161.485 34.544C162.697 34.544 163.647 35.4827 163.647 36.6814C163.647 37.8801 162.697 38.8279 161.485 38.8279C160.273 38.8279 159.313 37.8801 159.313 36.6814C159.313 35.4827 160.273 34.544 161.485 34.544ZM144.777 47.598C144.495 47.6179 144.229 47.7381 144.028 47.9364C143.918 48.0445 143.831 48.173 143.772 48.3145C143.712 48.456 143.682 48.6077 143.682 48.7609C143.682 48.9142 143.712 49.0659 143.772 49.2074C143.831 49.3489 143.918 49.4774 144.028 49.5855L146.602 52.1318L144.028 54.6758C143.918 54.7838 143.831 54.9123 143.772 55.0538C143.712 55.1953 143.682 55.3471 143.682 55.5003C143.682 55.6535 143.712 55.8053 143.772 55.9468C143.831 56.0883 143.918 56.2168 144.028 56.3248C144.138 56.4331 144.268 56.5191 144.41 56.5777C144.553 56.6363 144.707 56.6665 144.861 56.6665C145.016 56.6665 145.169 56.6363 145.312 56.5777C145.455 56.5191 145.585 56.4331 145.694 56.3248L148.27 53.7786L150.846 56.3248C150.955 56.4331 151.085 56.5191 151.228 56.5777C151.371 56.6363 151.524 56.6665 151.679 56.6665C151.834 56.6665 151.987 56.6363 152.13 56.5777C152.273 56.5191 152.403 56.4331 152.512 56.3248C152.622 56.2168 152.709 56.0883 152.769 55.9468C152.828 55.8053 152.859 55.6535 152.859 55.5003C152.859 55.3471 152.828 55.1953 152.769 55.0538C152.709 54.9123 152.622 54.7838 152.512 54.6758L149.938 52.1317L152.512 49.5855C152.622 49.4774 152.709 49.3489 152.769 49.2074C152.828 49.0659 152.859 48.9142 152.859 48.7609C152.859 48.6077 152.828 48.456 152.769 48.3145C152.709 48.173 152.622 48.0445 152.512 47.9364C152.403 47.8281 152.273 47.7422 152.13 47.6835C151.987 47.6249 151.834 47.5947 151.679 47.5947C151.524 47.5947 151.371 47.6249 151.228 47.6835C151.085 47.7422 150.955 47.8281 150.846 47.9364L148.27 50.4827L145.694 47.9364C145.575 47.8183 145.431 47.7269 145.273 47.6685C145.115 47.6101 144.946 47.586 144.777 47.598ZM133.789 57.3901C135.001 57.3901 135.961 58.3288 135.961 59.5276C135.961 60.7263 135.001 61.6741 133.789 61.6741C132.578 61.6741 131.618 60.7263 131.618 59.5276C131.618 58.3288 132.578 57.3901 133.789 57.3901Z" fill="#495A58"/>
</g>
</g>
</svg>
