<svg width="283" height="442" viewBox="0 0 283 442" fill="none" xmlns="http://www.w3.org/2000/svg">
<g id="Group 100">
<rect id="Rectangle 59" x="0.95" y="0.95" width="281.1" height="440.1" rx="25.05" stroke="black" stroke-width="0.1"/>
<text id="Execution" fill="black" xml:space="preserve" style="white-space: pre" font-family="Libre Baskerville" font-size="18" font-weight="bold" letter-spacing="0em"><tspan x="88.1074" y="112.3">Execution</tspan></text>
<text id="Content creation &#38; copywriting Campaign rollout Social media &#38; email marketing Website &#38; landing page updates Sales support materials Internal comms &#38; adoption support Launches &#38; announcements" fill="black" xml:space="preserve" style="white-space: pre" font-family="Work Sans" font-size="14" letter-spacing="0em"><tspan x="59" y="156.809">Content creation &#38; </tspan><tspan x="59" y="172.809">copywriting&#10;</tspan><tspan x="59" y="198.809">Campaign rollout&#10;</tspan><tspan x="59" y="224.809">Social media &#38; email </tspan><tspan x="59" y="240.809">marketing&#10;</tspan><tspan x="59" y="266.809">Website &#38; landing page </tspan><tspan x="59" y="282.809">updates&#10;</tspan><tspan x="59" y="308.809">Sales support materials&#10;</tspan><tspan x="59" y="334.809">Internal comms &#38; adoption </tspan><tspan x="59" y="350.809">support&#10;</tspan><tspan x="59" y="376.809">Launches &#38; </tspan><tspan x="59" y="392.809">announcements</tspan></text>
<g id="Group 96">
<path id="Vector" d="M125.718 50.1526L125.911 50.0736C127.198 49.5446 128.678 49.5142 129.957 49.9277L137.64 43.0386L133.532 41.9563C131.814 41.5002 129.91 41.8529 128.631 42.8684L120 49.6784L121.472 50.2257C122.828 50.7242 124.393 50.6938 125.718 50.1526Z" fill="#495A58"/>
<path id="Vector_2" d="M142.967 65.4148C142.426 66.5194 142.396 67.8231 142.894 68.9534L143.442 70.18L150.252 62.9873C151.267 61.9212 151.62 60.335 151.164 58.9029L150.081 55.48L143.192 61.8827C143.606 62.9488 143.576 64.1818 143.047 65.2542L142.967 65.4148Z" fill="#495A58"/>
<path id="Vector_3" d="M143.049 38.625C147.595 33.4564 154.256 30.6703 161.108 31.0332C161.129 31.4299 161.141 31.8284 161.141 32.2256C161.141 38.4497 158.552 44.4225 153.965 48.6816L153.515 49.0879V49.0889L136.181 64.3438L135.055 63.2178L134.348 63.9248L133.433 64.8379L127.295 58.7012L128.209 57.7881L128.916 57.0811L127.789 55.9541L143.048 38.625H143.049ZM153.908 38.2207C151.801 36.1085 148.418 36.0449 146.228 38.0234L146.02 38.2217C143.913 40.3276 143.849 43.7105 145.82 45.9014L146.018 46.1104L146.021 46.1133C148.132 48.2158 151.516 48.283 153.702 46.3086L153.91 46.1113C156.022 43.9996 156.09 40.614 154.106 38.4277L153.908 38.2207Z" stroke="#495A58" stroke-width="2"/>
<path id="Vector_4" d="M124.464 65.7686C124.004 67.4967 124.806 68.8717 125.015 69.2C125.349 68.6426 126.164 67.4657 127.774 66.7473C128.38 66.4747 128.958 66.3323 129.432 66.2579C129.982 67.0755 129.982 67.4038 130.532 68.2214L132.741 64.3007L128.331 60.38L123.921 62.3434C124.841 62.8328 125.21 62.8328 126.129 63.3221C125.76 63.6132 124.834 64.4308 124.478 65.7748L124.464 65.7686Z" fill="#495A58"/>
</g>
</g>
</svg>
