<svg width="74" height="17" viewBox="0 0 74 17" fill="none" xmlns="http://www.w3.org/2000/svg">
<path d="M15.8223 15.6582C15.8158 15.9186 15.679 16.1172 15.4121 16.2539C15.1452 16.3906 14.875 16.459 14.6016 16.459C14.2435 16.459 13.8822 16.3776 13.5176 16.2148C13.1595 16.0586 12.7656 15.8405 12.3359 15.5605C12.1081 15.4108 11.8281 15.2155 11.4961 14.9746C11.1641 14.7272 10.7734 14.4277 10.3242 14.0762C10.2135 13.9915 9.9987 13.8255 9.67969 13.5781C9.36068 13.3307 8.9375 12.9987 8.41016 12.582C7.35547 11.7552 6.75977 11.3158 6.62305 11.2637C6.4082 11.1921 6.06641 11.1562 5.59766 11.1562C5.5 11.1562 5.34049 11.1628 5.11914 11.1758C4.9043 11.1823 4.62435 11.1986 4.2793 11.2246C4.03841 11.0618 3.91797 10.7656 3.91797 10.3359C3.91797 9.97135 4.04492 9.75326 4.29883 9.68164C4.33138 9.67513 4.38346 9.66862 4.45508 9.66211C4.5332 9.64909 4.62109 9.63932 4.71875 9.63281C4.81641 9.61979 4.92057 9.61003 5.03125 9.60352C5.14844 9.59049 5.26562 9.57747 5.38281 9.56445C6.25521 9.42773 7.02669 9.18685 7.69727 8.8418C7.93815 8.7181 8.17578 8.58789 8.41016 8.45117C8.64453 8.30794 8.88216 8.1582 9.12305 8.00195C9.59831 7.68294 10.0215 7.32812 10.3926 6.9375C10.7702 6.55339 10.959 6.17578 10.959 5.80469C10.9655 5.53125 10.8841 5.27083 10.7148 5.02344C10.5521 4.76953 10.3405 4.54167 10.0801 4.33984C9.82617 4.13802 9.54622 3.96549 9.24023 3.82227C8.93424 3.67253 8.64779 3.55859 8.38086 3.48047C7.89909 3.34375 7.4043 3.27539 6.89648 3.27539C6.74674 3.27539 6.56771 3.2819 6.35938 3.29492C6.15755 3.30794 5.92643 3.32747 5.66602 3.35352C5.41211 3.37956 5.17122 3.4056 4.94336 3.43164C4.72201 3.45768 4.51693 3.48698 4.32812 3.51953C4.13932 3.55208 3.93424 3.58789 3.71289 3.62695C3.49805 3.66602 3.26693 3.71159 3.01953 3.76367C3.16927 4.00456 3.29948 4.38216 3.41016 4.89648C3.52083 5.41081 3.57617 5.83073 3.57617 6.15625C3.57617 6.35156 3.56966 6.54036 3.55664 6.72266C3.55013 6.90495 3.54036 7.08073 3.52734 7.25C3.51432 7.41927 3.49479 7.5918 3.46875 7.76758C3.44922 7.94336 3.42318 8.1224 3.39062 8.30469C3.33203 8.66927 3.25391 9.12826 3.15625 9.68164C2.98698 10.6452 2.86979 11.4004 2.80469 11.9473C2.77214 12.2272 2.74609 12.4974 2.72656 12.7578C2.70703 13.0182 2.69727 13.2721 2.69727 13.5195C2.69727 13.9622 2.73633 14.3594 2.81445 14.7109C2.89258 15.056 3.04232 15.4043 3.26367 15.7559C3.17253 15.8926 3.04232 16.0098 2.87305 16.1074C2.70378 16.2116 2.54102 16.2637 2.38477 16.2637C1.94857 16.2637 1.62956 16.1758 1.42773 16C1.2194 15.8112 1.09245 15.5801 1.04688 15.3066C1.0013 15.0397 0.978516 14.6426 0.978516 14.1152C0.978516 13.7832 0.998047 13.4349 1.03711 13.0703C1.07617 12.7057 1.12174 12.3737 1.17383 12.0742C1.22591 11.7682 1.28125 11.4492 1.33984 11.1172C1.3724 10.9674 1.40495 10.7852 1.4375 10.5703C1.47005 10.349 1.50911 10.0951 1.55469 9.80859C1.64583 9.23568 1.71745 8.68555 1.76953 8.1582C1.82812 7.63086 1.85742 7.15885 1.85742 6.74219C1.85742 6.34505 1.8444 5.9349 1.81836 5.51172C1.79232 5.08854 1.75326 4.64583 1.70117 4.18359C0.985026 4.39193 0.584635 4.49609 0.5 4.49609C0.298177 4.49609 0.164714 4.43424 0.0996094 4.31055C0.0345052 4.18685 0.00195312 4.01758 0.00195312 3.80273C0.00195312 3.55534 0.233073 3.31771 0.695312 3.08984C0.929688 2.97917 1.16081 2.87826 1.38867 2.78711C1.62305 2.69596 1.85417 2.61458 2.08203 2.54297C2.60938 2.3737 3.30599 2.22721 4.17188 2.10352C5.03776 1.9668 5.76042 1.89844 6.33984 1.89844C7.32943 1.89844 8.28971 2.01562 9.2207 2.25C10.1387 2.47135 10.9232 2.87826 11.5742 3.4707C12.2188 4.05664 12.541 4.84115 12.541 5.82422C12.541 6.44922 12.3066 7.05469 11.8379 7.64062C11.3691 8.22005 10.8158 8.72461 10.1777 9.1543C9.54622 9.58398 8.85938 9.99414 8.11719 10.3848C8.54688 10.6777 9.13281 11.0879 9.875 11.6152C10.2461 11.8757 10.5944 12.1198 10.9199 12.3477C11.2454 12.5755 11.5482 12.7904 11.8281 12.9922C12.1146 13.1875 12.4303 13.4056 12.7754 13.6465C13.1204 13.8809 13.5013 14.138 13.918 14.418C14.3346 14.6979 14.6992 14.9421 15.0117 15.1504C15.3307 15.3522 15.6009 15.5215 15.8223 15.6582ZM31.6328 9.34961C31.6328 9.42773 31.623 9.52214 31.6035 9.63281C31.584 9.73698 31.5547 9.8444 31.5156 9.95508C31.4831 10.0658 31.444 10.1732 31.3984 10.2773C31.3594 10.375 31.3171 10.4531 31.2715 10.5117C31.2324 10.5638 31.1738 10.6354 31.0957 10.7266C31.0241 10.8112 30.9427 10.9056 30.8516 11.0098C30.7604 11.1139 30.6595 11.2246 30.5488 11.3418C30.4447 11.4525 30.334 11.5599 30.2168 11.6641C29.8132 12.0352 29.416 12.3965 29.0254 12.748C28.6413 13.0931 28.2441 13.3991 27.834 13.666C27.4238 13.9329 26.9941 14.1478 26.5449 14.3105C26.1022 14.4668 25.6204 14.5417 25.0996 14.5352C24.8587 14.5352 24.6146 14.4928 24.3672 14.4082C24.1263 14.3171 23.8984 14.1901 23.6836 14.0273C23.4688 13.8646 23.2832 13.6693 23.127 13.4414C22.9707 13.2135 22.86 12.9629 22.7949 12.6895C22.6061 12.8848 22.4076 13.0898 22.1992 13.3047C21.9909 13.513 21.7728 13.7246 21.5449 13.9395C21.3236 14.1543 21.0924 14.3626 20.8516 14.5645C20.6107 14.7663 20.3633 14.9518 20.1094 15.1211C19.9661 15.2122 19.7936 15.3099 19.5918 15.4141C19.3965 15.5182 19.1882 15.6159 18.9668 15.707C18.752 15.7917 18.5339 15.8633 18.3125 15.9219C18.0977 15.974 17.9023 16 17.7266 16C17.4596 16 17.2285 15.9186 17.0332 15.7559C16.8444 15.5866 16.6849 15.3815 16.5547 15.1406C16.431 14.8997 16.3366 14.6426 16.2715 14.3691C16.2129 14.0957 16.1836 13.8516 16.1836 13.6367C16.1836 13.207 16.2454 12.7676 16.3691 12.3184C16.4928 11.8691 16.6523 11.4329 16.8477 11.0098C17.0495 10.5801 17.2708 10.1732 17.5117 9.78906C17.7591 9.40495 18 9.06315 18.2344 8.76367C18.4818 8.45117 18.7747 8.14193 19.1133 7.83594C19.4518 7.52344 19.8034 7.24674 20.168 7.00586C20.5326 6.75846 20.8906 6.5599 21.2422 6.41016C21.5938 6.26042 21.9062 6.18555 22.1797 6.18555C22.3164 6.18555 22.4596 6.18555 22.6094 6.18555C22.7656 6.18555 22.9186 6.19531 23.0684 6.21484C23.2181 6.22786 23.3646 6.25391 23.5078 6.29297C23.651 6.32552 23.7812 6.3776 23.8984 6.44922C23.957 6.48828 24.0254 6.56315 24.1035 6.67383C24.1816 6.78451 24.2533 6.9082 24.3184 7.04492C24.39 7.18164 24.4486 7.31836 24.4941 7.45508C24.5397 7.5918 24.5625 7.69922 24.5625 7.77734C24.5625 7.99219 24.5137 8.27865 24.416 8.63672C24.3118 9.08594 24.2142 9.49609 24.123 9.86719C24.0384 10.2318 23.9961 10.6094 23.9961 11C23.9961 11.2214 24.0319 11.4492 24.1035 11.6836C24.1751 11.9115 24.276 12.1198 24.4062 12.3086C24.543 12.4974 24.7057 12.6536 24.8945 12.7773C25.0898 12.8945 25.3079 12.9531 25.5488 12.9531C25.946 12.9531 26.3529 12.8717 26.7695 12.709C27.1862 12.5397 27.6061 12.3118 28.0293 12.0254C28.459 11.7324 28.8854 11.3971 29.3086 11.0195C29.7318 10.6354 30.1484 10.2285 30.5586 9.79883C30.5911 9.75977 30.6465 9.69466 30.7246 9.60352C30.8092 9.50586 30.8939 9.41146 30.9785 9.32031C31.0697 9.22266 31.1576 9.13802 31.2422 9.06641C31.3268 8.98828 31.3887 8.94922 31.4277 8.94922C31.5645 8.94922 31.6328 9.08268 31.6328 9.34961ZM22.9414 8.53906C22.9414 8.42839 22.9349 8.29167 22.9219 8.12891C22.9089 7.96615 22.8665 7.83268 22.7949 7.72852C22.7233 7.62435 22.6354 7.57552 22.5312 7.58203C22.4271 7.58203 22.3229 7.58203 22.2188 7.58203C21.9909 7.58203 21.7695 7.61784 21.5547 7.68945C21.3464 7.76107 21.1413 7.86198 20.9395 7.99219C20.7376 8.11589 20.5423 8.26237 20.3535 8.43164C20.1712 8.5944 19.9922 8.76693 19.8164 8.94922C19.6667 9.09896 19.5072 9.28451 19.3379 9.50586C19.1751 9.72721 19.0124 9.97135 18.8496 10.2383C18.6934 10.4987 18.5404 10.7754 18.3906 11.0684C18.2409 11.3548 18.1107 11.6413 18 11.9277C17.8893 12.2077 17.8014 12.4811 17.7363 12.748C17.6712 13.0085 17.6387 13.2461 17.6387 13.4609C17.6387 13.526 17.6452 13.6139 17.6582 13.7246C17.6777 13.8288 17.7038 13.9329 17.7363 14.0371C17.7754 14.1348 17.8242 14.2194 17.8828 14.291C17.9479 14.3626 18.026 14.3984 18.1172 14.3984C18.4167 14.3984 18.791 14.304 19.2402 14.1152C19.8522 13.8548 20.4056 13.5 20.9004 13.0508C21.4017 12.5951 21.8281 12.071 22.1797 11.4785C22.6875 10.5605 22.9414 9.58073 22.9414 8.53906ZM42.3848 7.18164C42.3848 7.2793 42.3555 7.41927 42.2969 7.60156C42.2383 7.78385 42.1569 7.98568 42.0527 8.20703C41.9551 8.42839 41.8379 8.65951 41.7012 8.90039C41.571 9.13477 41.431 9.35286 41.2812 9.55469C40.8255 10.1732 40.3763 10.7331 39.9336 11.2344C39.4974 11.7292 39.0579 12.1816 38.6152 12.5918C38.179 13.002 37.7331 13.373 37.2773 13.7051C36.8281 14.0371 36.3659 14.3398 35.8906 14.6133C35.5586 14.8021 35.2559 14.9551 34.9824 15.0723C34.709 15.1895 34.4388 15.2806 34.1719 15.3457C33.9049 15.4043 33.6283 15.4434 33.3418 15.4629C33.0618 15.4824 32.7493 15.4922 32.4043 15.4922C32.0592 15.4922 31.7402 15.4368 31.4473 15.3262C31.1608 15.2155 30.9134 15.0462 30.7051 14.8184C30.4967 14.584 30.334 14.291 30.2168 13.9395C30.0996 13.5814 30.041 13.1582 30.041 12.6699C30.041 12.3965 30.0801 12.084 30.1582 11.7324C30.2363 11.3743 30.3438 11.0033 30.4805 10.6191C30.6172 10.2285 30.7767 9.83464 30.959 9.4375C31.1478 9.04036 31.3496 8.66276 31.5645 8.30469C31.7793 7.9401 32.0039 7.60482 32.2383 7.29883C32.4792 6.99284 32.7201 6.73893 32.9609 6.53711C33.0911 6.42643 33.2539 6.31901 33.4492 6.21484C33.6445 6.11068 33.8464 6.01953 34.0547 5.94141C34.263 5.85677 34.4681 5.79167 34.6699 5.74609C34.8783 5.69401 35.0573 5.66797 35.207 5.66797C35.4089 5.66797 35.6204 5.7168 35.8418 5.81445C36.0632 5.91211 36.265 6.03581 36.4473 6.18555C36.6361 6.32878 36.7891 6.48828 36.9062 6.66406C37.0234 6.83333 37.082 6.99609 37.082 7.15234C37.082 7.26953 37.0625 7.38997 37.0234 7.51367C36.9844 7.63737 36.9323 7.7513 36.8672 7.85547C36.8021 7.95964 36.7305 8.04753 36.6523 8.11914C36.5742 8.18424 36.4928 8.2168 36.4082 8.2168C36.2585 8.2168 36.138 8.15495 36.0469 8.03125C35.9557 7.90104 35.8646 7.76107 35.7734 7.61133C35.6888 7.45508 35.5911 7.3151 35.4805 7.19141C35.3698 7.0612 35.2168 6.99609 35.0215 6.99609C34.7285 6.99609 34.4388 7.10026 34.1523 7.30859C33.8724 7.51693 33.6022 7.79036 33.3418 8.12891C33.0814 8.46094 32.8405 8.83529 32.6191 9.25195C32.3978 9.66211 32.2057 10.0755 32.043 10.4922C31.8802 10.9023 31.7533 11.293 31.6621 11.6641C31.571 12.0286 31.5254 12.3314 31.5254 12.5723C31.5254 12.8392 31.5742 13.0671 31.6719 13.2559C31.776 13.4382 31.9062 13.5879 32.0625 13.7051C32.2253 13.8223 32.4043 13.9069 32.5996 13.959C32.8014 14.0111 33 14.0371 33.1953 14.0371C33.4167 14.0371 33.6673 14.0046 33.9473 13.9395C34.2337 13.8743 34.5202 13.7897 34.8066 13.6855C35.0931 13.5814 35.3698 13.4642 35.6367 13.334C35.9036 13.2038 36.1348 13.0703 36.3301 12.9336C36.8444 12.582 37.3587 12.1719 37.873 11.7031C38.3874 11.2279 38.8757 10.7298 39.3379 10.209C39.8066 9.68815 40.2363 9.16081 40.627 8.62695C41.0241 8.0931 41.3626 7.58529 41.6426 7.10352C41.6947 7.01888 41.75 6.96029 41.8086 6.92773C41.8672 6.88867 41.9258 6.86914 41.9844 6.86914C42.0885 6.86914 42.1797 6.90495 42.2578 6.97656C42.3424 7.04818 42.3848 7.11654 42.3848 7.18164ZM55.1484 11.1074C55.1484 11.179 55.1419 11.2637 55.1289 11.3613C55.1224 11.459 55.1029 11.5599 55.0703 11.6641C55.0443 11.7682 55.0052 11.8724 54.9531 11.9766C54.901 12.0742 54.8359 12.1621 54.7578 12.2402C54.3672 12.6113 53.9603 12.9499 53.5371 13.2559C53.1204 13.5553 52.7038 13.8125 52.2871 14.0273C51.8704 14.2357 51.4635 14.3984 51.0664 14.5156C50.6693 14.6328 50.2982 14.6914 49.9531 14.6914C49.4779 14.6914 49.0807 14.6035 48.7617 14.4277C48.4492 14.2454 48.1986 14.0111 48.0098 13.7246C47.821 13.4316 47.6875 13.0996 47.6094 12.7285C47.5312 12.3509 47.4922 11.9668 47.4922 11.5762C47.4922 11.446 47.4954 11.2962 47.502 11.127C47.515 10.9512 47.528 10.7721 47.541 10.5898C47.554 10.401 47.5638 10.2188 47.5703 10.043C47.5833 9.86719 47.5898 9.70768 47.5898 9.56445C47.5898 9.36263 47.5736 9.1901 47.541 9.04688C47.515 8.89714 47.4629 8.79297 47.3848 8.73438C47.248 8.80599 47.0788 8.94596 46.877 9.1543C46.6751 9.36263 46.4505 9.6263 46.2031 9.94531C45.9622 10.2643 45.7018 10.6322 45.4219 11.0488C45.1484 11.4655 44.8717 11.9147 44.5918 12.3965C44.416 12.696 44.2337 13.0085 44.0449 13.334C43.8561 13.6595 43.6673 13.9785 43.4785 14.291C43.2962 14.597 43.1139 14.89 42.9316 15.1699C42.7493 15.4499 42.5768 15.6973 42.4141 15.9121C42.2513 16.1204 42.1016 16.2865 41.9648 16.4102C41.8281 16.5339 41.7142 16.5957 41.623 16.5957C41.5059 16.5957 41.4082 16.5859 41.3301 16.5664C41.2585 16.5469 41.1934 16.5273 41.1348 16.5078C41.0827 16.4883 41.0339 16.4688 40.9883 16.4492C40.9492 16.4297 40.9069 16.4199 40.8613 16.4199C40.8092 16.2376 40.7702 16.0195 40.7441 15.7656C40.7181 15.5117 40.6986 15.2578 40.6855 15.0039C40.6725 14.7435 40.6628 14.5059 40.6562 14.291C40.6562 14.0697 40.6562 13.9036 40.6562 13.793C40.6562 12.9206 40.7181 12.0026 40.8418 11.0391C40.972 10.0755 41.125 9.06641 41.3008 8.01172C41.4766 6.95052 41.6589 5.84375 41.8477 4.69141C42.0365 3.53255 42.1927 2.32161 42.3164 1.05859C42.3555 0.876302 42.4141 0.726562 42.4922 0.609375C42.5703 0.492188 42.6582 0.401042 42.7559 0.335938C42.8535 0.270833 42.9512 0.228516 43.0488 0.208984C43.1465 0.182943 43.2344 0.169922 43.3125 0.169922C43.5078 0.169922 43.6641 0.270833 43.7812 0.472656C43.8984 0.674479 43.957 0.944661 43.957 1.2832C43.957 1.37435 43.944 1.51432 43.918 1.70312C43.8984 1.89193 43.8659 2.10677 43.8203 2.34766C43.7812 2.58203 43.7357 2.83594 43.6836 3.10938C43.638 3.3763 43.5859 3.64323 43.5273 3.91016C43.4753 4.17708 43.4232 4.43424 43.3711 4.68164C43.3255 4.92253 43.2832 5.13086 43.2441 5.30664C43.0879 6.00977 42.9447 6.72591 42.8145 7.45508C42.6908 8.17773 42.5801 8.85807 42.4824 9.49609C42.3913 10.1276 42.3197 10.694 42.2676 11.1953C42.2155 11.6901 42.1895 12.0612 42.1895 12.3086C42.1895 12.3737 42.1895 12.4648 42.1895 12.582C42.1895 12.6992 42.1895 12.8197 42.1895 12.9434C42.196 13.0671 42.2025 13.1842 42.209 13.2949C42.2155 13.3991 42.2253 13.4707 42.2383 13.5098C42.4792 13.3275 42.7103 13.0964 42.9316 12.8164C43.1595 12.5365 43.3906 12.2174 43.625 11.8594C43.8659 11.4948 44.123 11.1009 44.3965 10.6777C44.6699 10.248 44.9792 9.79557 45.3242 9.32031C45.5065 9.0599 45.7214 8.77995 45.9688 8.48047C46.2227 8.18099 46.4928 7.9043 46.7793 7.65039C47.0658 7.38997 47.3652 7.17513 47.6777 7.00586C47.9967 6.83659 48.3125 6.75195 48.625 6.75195C48.7682 6.75195 48.8822 6.8724 48.9668 7.11328C49.0579 7.35417 49.1035 7.66667 49.1035 8.05078C49.1035 8.15495 49.0872 8.31445 49.0547 8.5293C49.0286 8.73763 48.9993 8.97201 48.9668 9.23242C48.9342 9.48633 48.9017 9.75 48.8691 10.0234C48.8431 10.2969 48.8301 10.5508 48.8301 10.7852C48.8301 10.974 48.8398 11.2018 48.8594 11.4688C48.8854 11.7292 48.944 11.9798 49.0352 12.2207C49.1328 12.4616 49.2728 12.6667 49.4551 12.8359C49.6439 13.0052 49.9043 13.0898 50.2363 13.0898C50.7832 13.0898 51.4017 12.9596 52.0918 12.6992C52.7819 12.4388 53.5111 12.0189 54.2793 11.4395C54.3574 11.3809 54.429 11.3223 54.4941 11.2637C54.5658 11.1986 54.6276 11.14 54.6797 11.0879C54.7383 11.0358 54.7904 10.9935 54.8359 10.9609C54.8815 10.9219 54.9173 10.9023 54.9434 10.9023C54.9499 10.9023 54.9629 10.9121 54.9824 10.9316C55.0085 10.9512 55.0312 10.974 55.0508 11C55.0768 11.0195 55.0996 11.0423 55.1191 11.0684C55.1387 11.0879 55.1484 11.1009 55.1484 11.1074ZM59.4355 6.75195C59.4355 6.68034 59.4128 6.61198 59.3672 6.54688C59.3281 6.48177 59.276 6.42318 59.2109 6.37109C59.1523 6.31901 59.0872 6.27669 59.0156 6.24414C58.9505 6.21159 58.8952 6.19531 58.8496 6.19531C58.5957 6.19531 58.3125 6.30273 58 6.51758C57.694 6.72591 57.3978 7.01888 57.1113 7.39648C56.8314 7.77409 56.5807 8.22656 56.3594 8.75391C56.138 9.28125 55.9883 9.86068 55.9102 10.4922C56.0013 10.4336 56.1543 10.3197 56.3691 10.1504C56.584 9.98112 56.8151 9.79232 57.0625 9.58398C57.3164 9.37565 57.5638 9.16406 57.8047 8.94922C58.0521 8.73438 58.2507 8.54883 58.4004 8.39258C58.5827 8.20378 58.7389 8.03451 58.8691 7.88477C59.0059 7.73503 59.1133 7.59831 59.1914 7.47461C59.276 7.3444 59.3379 7.2207 59.377 7.10352C59.416 6.98633 59.4355 6.86914 59.4355 6.75195ZM66.4668 7.07422C66.4668 7.22396 66.4017 7.46484 66.2715 7.79688C66.1413 8.1224 65.9622 8.49674 65.7344 8.91992C65.5065 9.33659 65.2396 9.77604 64.9336 10.2383C64.6276 10.7005 64.2956 11.1367 63.9375 11.5469C63.5729 11.9896 63.1628 12.4193 62.707 12.8359C62.2513 13.2526 61.7598 13.6237 61.2324 13.9492C60.7116 14.2747 60.1615 14.5352 59.582 14.7305C59.0026 14.9258 58.4069 15.0234 57.7949 15.0234C57.1699 15.0234 56.6361 14.9193 56.1934 14.7109C55.7572 14.4961 55.3991 14.2161 55.1191 13.8711C54.8457 13.526 54.6439 13.1354 54.5137 12.6992C54.39 12.263 54.3281 11.8171 54.3281 11.3613C54.3281 10.9512 54.3672 10.5378 54.4453 10.1211C54.5234 9.69792 54.6341 9.28776 54.7773 8.89062C54.9271 8.48698 55.1029 8.10286 55.3047 7.73828C55.5065 7.3737 55.7311 7.03516 55.9785 6.72266C56.1348 6.52083 56.3236 6.30924 56.5449 6.08789C56.7728 5.86003 57.0267 5.65169 57.3066 5.46289C57.5931 5.27409 57.9023 5.11784 58.2344 4.99414C58.5664 4.86393 58.9147 4.79883 59.2793 4.79883C59.5397 4.79883 59.7676 4.84766 59.9629 4.94531C60.1647 5.03646 60.3307 5.16016 60.4609 5.31641C60.5977 5.46615 60.6986 5.63542 60.7637 5.82422C60.8353 6.01302 60.8711 6.20182 60.8711 6.39062C60.8711 6.77474 60.7995 7.14583 60.6562 7.50391C60.513 7.86198 60.2786 8.23307 59.9531 8.61719C59.6276 8.99479 59.2012 9.39518 58.6738 9.81836C58.153 10.235 57.5117 10.6973 56.75 11.2051C56.7044 11.2376 56.6393 11.2799 56.5547 11.332C56.4701 11.3841 56.3854 11.4427 56.3008 11.5078C56.2161 11.5664 56.1413 11.6283 56.0762 11.6934C56.0176 11.752 55.9883 11.804 55.9883 11.8496C55.9883 12.0254 56.0176 12.2174 56.0762 12.4258C56.1348 12.6276 56.2389 12.8164 56.3887 12.9922C56.5449 13.1615 56.7565 13.3047 57.0234 13.4219C57.2904 13.5391 57.6322 13.5977 58.0488 13.5977C58.3418 13.5977 58.6445 13.5618 58.957 13.4902C59.276 13.4121 59.5918 13.3079 59.9043 13.1777C60.2233 13.041 60.5358 12.8815 60.8418 12.6992C61.1478 12.5104 61.4375 12.3021 61.7109 12.0742C62.0755 11.7812 62.4434 11.4427 62.8145 11.0586C63.1855 10.668 63.5469 10.248 63.8984 9.79883C64.25 9.34961 64.5853 8.8776 64.9043 8.38281C65.2233 7.88151 65.513 7.3737 65.7734 6.85938C65.8451 6.71615 65.9232 6.61849 66.0078 6.56641C66.099 6.51432 66.1738 6.48828 66.2324 6.48828C66.3105 6.48828 66.3691 6.54036 66.4082 6.64453C66.4473 6.74219 66.4668 6.88542 66.4668 7.07422ZM73.0391 12.0645C73.0391 12.1426 73.0065 12.2565 72.9414 12.4062C72.8828 12.5495 72.8047 12.7025 72.707 12.8652C72.6159 13.0215 72.5182 13.1777 72.4141 13.334C72.3164 13.4902 72.2285 13.6204 72.1504 13.7246C71.89 14.0632 71.5872 14.3919 71.2422 14.7109C70.9036 15.0234 70.5488 15.3034 70.1777 15.5508C69.8066 15.7982 69.429 15.9967 69.0449 16.1465C68.6673 16.2962 68.306 16.3711 67.9609 16.3711C67.4336 16.3711 66.9779 16.2669 66.5938 16.0586C66.2161 15.8503 65.9036 15.5475 65.6562 15.1504C65.4154 14.7467 65.2363 14.252 65.1191 13.666C65.002 13.0736 64.9434 12.3997 64.9434 11.6445C64.9434 11.1758 64.9629 10.6647 65.002 10.1113C65.041 9.55143 65.0964 8.97526 65.168 8.38281C65.2396 7.78385 65.3242 7.18164 65.4219 6.57617C65.5195 5.9707 65.627 5.38802 65.7441 4.82812C65.8613 4.26823 65.985 3.7474 66.1152 3.26562C66.2454 2.77734 66.3789 2.35417 66.5156 1.99609C66.6589 1.63151 66.7988 1.34505 66.9355 1.13672C67.0788 0.928385 67.2155 0.824219 67.3457 0.824219C67.502 0.824219 67.6354 0.892578 67.7461 1.0293C67.8633 1.15951 67.9577 1.29948 68.0293 1.44922C67.9577 2.07422 67.821 2.83919 67.6191 3.74414C67.4238 4.64909 67.1895 5.7168 66.916 6.94727C66.8379 7.29232 66.7695 7.65039 66.7109 8.02148C66.6589 8.38607 66.6133 8.75391 66.5742 9.125C66.5417 9.49609 66.5156 9.86393 66.4961 10.2285C66.4766 10.5866 66.4668 10.9251 66.4668 11.2441C66.4668 12.3835 66.6133 13.2591 66.9062 13.8711C67.2057 14.4766 67.707 14.7793 68.4102 14.7793C68.7422 14.7793 69.071 14.7174 69.3965 14.5938C69.722 14.4635 70.0312 14.3008 70.3242 14.1055C70.6237 13.9036 70.9069 13.6855 71.1738 13.4512C71.4408 13.2103 71.6882 12.9759 71.916 12.748C71.9876 12.6764 72.0723 12.5853 72.1699 12.4746C72.2741 12.3639 72.3717 12.2598 72.4629 12.1621C72.5605 12.0579 72.6484 11.9701 72.7266 11.8984C72.8047 11.8203 72.8568 11.7812 72.8828 11.7812C72.987 11.7812 73.0391 11.8757 73.0391 12.0645Z" fill="white"/>
</svg>
