<svg width="183" height="42" viewBox="0 0 183 42" fill="none" xmlns="http://www.w3.org/2000/svg">
<path d="M39.5557 39.1455C39.5394 39.7965 39.1976 40.293 38.5303 40.6348C37.863 40.9766 37.1875 41.1475 36.5039 41.1475C35.6087 41.1475 34.7054 40.944 33.7939 40.5371C32.8988 40.1465 31.9141 39.6012 30.8398 38.9014C30.2702 38.527 29.5703 38.0387 28.7402 37.4365C27.9102 36.818 26.9336 36.0693 25.8105 35.1904C25.5339 34.9788 24.9967 34.5638 24.1992 33.9453C23.4017 33.3268 22.3438 32.4967 21.0254 31.4551C18.3887 29.388 16.8994 28.2894 16.5576 28.1592C16.0205 27.9801 15.166 27.8906 13.9941 27.8906C13.75 27.8906 13.3512 27.9069 12.7979 27.9395C12.2607 27.9557 11.5609 27.9964 10.6982 28.0615C10.096 27.6546 9.79492 26.9141 9.79492 25.8398C9.79492 24.9284 10.1123 24.3831 10.7471 24.2041C10.8285 24.1878 10.9587 24.1715 11.1377 24.1553C11.333 24.1227 11.5527 24.0983 11.7969 24.082C12.041 24.0495 12.3014 24.0251 12.5781 24.0088C12.8711 23.9762 13.1641 23.9437 13.457 23.9111C15.638 23.5693 17.5667 22.9671 19.2432 22.1045C19.8454 21.7952 20.4395 21.4697 21.0254 21.1279C21.6113 20.7699 22.2054 20.3955 22.8076 20.0049C23.9958 19.2074 25.0537 18.3203 25.9814 17.3438C26.9255 16.3835 27.3975 15.4395 27.3975 14.5117C27.4137 13.8281 27.2103 13.1771 26.7871 12.5586C26.3802 11.9238 25.8512 11.3542 25.2002 10.8496C24.5654 10.3451 23.8656 9.91374 23.1006 9.55566C22.3356 9.18132 21.6195 8.89648 20.9521 8.70117C19.7477 8.35938 18.5107 8.18848 17.2412 8.18848C16.8669 8.18848 16.4193 8.20475 15.8984 8.2373C15.3939 8.26986 14.8161 8.31868 14.165 8.38379C13.5303 8.44889 12.9281 8.514 12.3584 8.5791C11.805 8.64421 11.2923 8.71745 10.8203 8.79883C10.3483 8.88021 9.83561 8.96973 9.28223 9.06738C8.74512 9.16504 8.16732 9.27897 7.54883 9.40918C7.92318 10.0114 8.2487 10.9554 8.52539 12.2412C8.80208 13.527 8.94043 14.5768 8.94043 15.3906C8.94043 15.8789 8.92415 16.3509 8.8916 16.8066C8.87533 17.2624 8.85091 17.7018 8.81836 18.125C8.78581 18.5482 8.73698 18.9795 8.67188 19.4189C8.62305 19.8584 8.55794 20.306 8.47656 20.7617C8.33008 21.6732 8.13477 22.8206 7.89062 24.2041C7.46745 26.613 7.17448 28.501 7.01172 29.8682C6.93034 30.568 6.86523 31.2435 6.81641 31.8945C6.76758 32.5456 6.74316 33.1803 6.74316 33.7988C6.74316 34.9056 6.84082 35.8984 7.03613 36.7773C7.23145 37.64 7.60579 38.5107 8.15918 39.3896C7.93132 39.7314 7.60579 40.0244 7.18262 40.2686C6.75944 40.529 6.35254 40.6592 5.96191 40.6592C4.87142 40.6592 4.07389 40.4395 3.56934 40C3.0485 39.528 2.73112 38.9502 2.61719 38.2666C2.50326 37.5993 2.44629 36.6064 2.44629 35.2881C2.44629 34.458 2.49512 33.5872 2.59277 32.6758C2.69043 31.7643 2.80436 30.9342 2.93457 30.1855C3.06478 29.4206 3.20312 28.623 3.34961 27.793C3.43099 27.4186 3.51237 26.9629 3.59375 26.4258C3.67513 25.8724 3.77279 25.2376 3.88672 24.5215C4.11458 23.0892 4.29362 21.7139 4.42383 20.3955C4.57031 19.0771 4.64355 17.8971 4.64355 16.8555C4.64355 15.8626 4.611 14.8372 4.5459 13.7793C4.48079 12.7214 4.38314 11.6146 4.25293 10.459C2.46257 10.9798 1.46159 11.2402 1.25 11.2402C0.745443 11.2402 0.411784 11.0856 0.249023 10.7764C0.086263 10.4671 0.00488281 10.0439 0.00488281 9.50684C0.00488281 8.88835 0.582682 8.29427 1.73828 7.72461C2.32422 7.44792 2.90202 7.19564 3.47168 6.96777C4.05762 6.73991 4.63542 6.53646 5.20508 6.35742C6.52344 5.93424 8.26497 5.56803 10.4297 5.25879C12.5944 4.91699 14.401 4.74609 15.8496 4.74609C18.3236 4.74609 20.7243 5.03906 23.0518 5.625C25.3467 6.17839 27.3079 7.19564 28.9355 8.67676C30.5469 10.1416 31.3525 12.1029 31.3525 14.5605C31.3525 16.123 30.7666 17.6367 29.5947 19.1016C28.4229 20.5501 27.0394 21.8115 25.4443 22.8857C23.8656 23.96 22.1484 24.9854 20.293 25.9619C21.3672 26.6943 22.832 27.7197 24.6875 29.0381C25.6152 29.6891 26.486 30.2995 27.2998 30.8691C28.1136 31.4388 28.8704 31.9759 29.5703 32.4805C30.2865 32.9688 31.0758 33.514 31.9385 34.1162C32.8011 34.7021 33.7533 35.3451 34.7949 36.0449C35.8366 36.7448 36.748 37.3551 37.5293 37.876C38.3268 38.3805 39.0023 38.8037 39.5557 39.1455ZM79.082 23.374C79.082 23.5693 79.0576 23.8053 79.0088 24.082C78.96 24.3424 78.8867 24.611 78.7891 24.8877C78.7077 25.1644 78.61 25.4329 78.4961 25.6934C78.3984 25.9375 78.2926 26.1328 78.1787 26.2793C78.0811 26.4095 77.9346 26.5885 77.7393 26.8164C77.5602 27.028 77.3568 27.264 77.1289 27.5244C76.901 27.7848 76.6488 28.0615 76.3721 28.3545C76.1117 28.6312 75.835 28.8997 75.542 29.1602C74.5329 30.0879 73.54 30.9912 72.5635 31.8701C71.6032 32.7327 70.6104 33.4977 69.585 34.165C68.5596 34.8324 67.4854 35.3695 66.3623 35.7764C65.2555 36.167 64.0511 36.3542 62.749 36.3379C62.1468 36.3379 61.5365 36.2321 60.918 36.0205C60.3158 35.7926 59.7461 35.4753 59.209 35.0684C58.6719 34.6615 58.208 34.1732 57.8174 33.6035C57.4268 33.0339 57.1501 32.4072 56.9873 31.7236C56.5153 32.2119 56.0189 32.7246 55.498 33.2617C54.9772 33.7826 54.432 34.3115 53.8623 34.8486C53.3089 35.3857 52.7311 35.9066 52.1289 36.4111C51.5267 36.9157 50.9082 37.3796 50.2734 37.8027C49.9154 38.0306 49.484 38.2747 48.9795 38.5352C48.4912 38.7956 47.9704 39.0397 47.417 39.2676C46.8799 39.4792 46.3346 39.6582 45.7812 39.8047C45.2441 39.9349 44.7559 40 44.3164 40C43.6491 40 43.0713 39.7965 42.583 39.3896C42.111 38.9665 41.7122 38.4538 41.3867 37.8516C41.0775 37.2493 40.8415 36.6064 40.6787 35.9229C40.5322 35.2393 40.459 34.6289 40.459 34.0918C40.459 33.0176 40.6136 31.9189 40.9229 30.7959C41.2321 29.6729 41.6309 28.5824 42.1191 27.5244C42.6237 26.4502 43.1771 25.4329 43.7793 24.4727C44.3978 23.5124 45 22.6579 45.5859 21.9092C46.2044 21.1279 46.9368 20.3548 47.7832 19.5898C48.6296 18.8086 49.5085 18.1169 50.4199 17.5146C51.3314 16.8962 52.2266 16.3997 53.1055 16.0254C53.9844 15.651 54.7656 15.4639 55.4492 15.4639C55.791 15.4639 56.1491 15.4639 56.5234 15.4639C56.9141 15.4639 57.2965 15.4883 57.6709 15.5371C58.0452 15.5697 58.4115 15.6348 58.7695 15.7324C59.1276 15.8138 59.4531 15.944 59.7461 16.123C59.8926 16.2207 60.0635 16.4079 60.2588 16.6846C60.4541 16.9613 60.6331 17.2705 60.7959 17.6123C60.9749 17.9541 61.1214 18.2959 61.2354 18.6377C61.3493 18.9795 61.4062 19.248 61.4062 19.4434C61.4062 19.9805 61.2842 20.6966 61.04 21.5918C60.7796 22.7148 60.5355 23.7402 60.3076 24.668C60.096 25.5794 59.9902 26.5234 59.9902 27.5C59.9902 28.0534 60.0798 28.623 60.2588 29.209C60.4378 29.7786 60.6901 30.2995 61.0156 30.7715C61.3574 31.2435 61.7643 31.6341 62.2363 31.9434C62.7246 32.2363 63.2699 32.3828 63.8721 32.3828C64.8649 32.3828 65.8822 32.1794 66.9238 31.7725C67.9655 31.3493 69.0153 30.7796 70.0732 30.0635C71.1475 29.3311 72.2135 28.4928 73.2715 27.5488C74.3294 26.5885 75.3711 25.5713 76.3965 24.4971C76.4779 24.3994 76.6162 24.2367 76.8115 24.0088C77.0231 23.7646 77.2347 23.5286 77.4463 23.3008C77.6742 23.0566 77.8939 22.8451 78.1055 22.666C78.3171 22.4707 78.4717 22.373 78.5693 22.373C78.9111 22.373 79.082 22.7067 79.082 23.374ZM57.3535 21.3477C57.3535 21.071 57.3372 20.7292 57.3047 20.3223C57.2721 19.9154 57.1663 19.5817 56.9873 19.3213C56.8083 19.0609 56.5885 18.9388 56.3281 18.9551C56.0677 18.9551 55.8073 18.9551 55.5469 18.9551C54.9772 18.9551 54.4238 19.0446 53.8867 19.2236C53.3659 19.4027 52.8532 19.6549 52.3486 19.9805C51.8441 20.2897 51.3558 20.6559 50.8838 21.0791C50.4281 21.486 49.9805 21.9173 49.541 22.373C49.1667 22.7474 48.7679 23.2113 48.3447 23.7646C47.9378 24.318 47.5309 24.9284 47.124 25.5957C46.7334 26.2467 46.3509 26.9385 45.9766 27.6709C45.6022 28.387 45.2767 29.1032 45 29.8193C44.7233 30.5192 44.5036 31.2028 44.3408 31.8701C44.1781 32.5212 44.0967 33.1152 44.0967 33.6523C44.0967 33.8151 44.113 34.0348 44.1455 34.3115C44.1943 34.5719 44.2594 34.8324 44.3408 35.0928C44.4385 35.3369 44.5605 35.5485 44.707 35.7275C44.8698 35.9066 45.0651 35.9961 45.293 35.9961C46.0417 35.9961 46.9775 35.7601 48.1006 35.2881C49.6305 34.637 51.014 33.75 52.251 32.627C53.5042 31.4876 54.5703 30.1774 55.4492 28.6963C56.7188 26.4014 57.3535 23.9518 57.3535 21.3477ZM105.962 17.9541C105.962 18.1982 105.889 18.5482 105.742 19.0039C105.596 19.4596 105.392 19.9642 105.132 20.5176C104.888 21.071 104.595 21.6488 104.253 22.251C103.927 22.8369 103.577 23.3822 103.203 23.8867C102.064 25.4329 100.941 26.8327 99.834 28.0859C98.7435 29.3229 97.6449 30.4541 96.5381 31.4795C95.4476 32.5049 94.3327 33.4326 93.1934 34.2627C92.0703 35.0928 90.9147 35.8496 89.7266 36.5332C88.8965 37.0052 88.1396 37.3877 87.4561 37.6807C86.7725 37.9736 86.097 38.2015 85.4297 38.3643C84.7624 38.5107 84.0706 38.6084 83.3545 38.6572C82.6546 38.7061 81.8734 38.7305 81.0107 38.7305C80.1481 38.7305 79.3506 38.5921 78.6182 38.3154C77.902 38.0387 77.2835 37.6156 76.7627 37.0459C76.2419 36.46 75.835 35.7275 75.542 34.8486C75.249 33.9535 75.1025 32.8955 75.1025 31.6748C75.1025 30.9912 75.2002 30.21 75.3955 29.3311C75.5908 28.4359 75.8594 27.5081 76.2012 26.5479C76.543 25.5713 76.9417 24.5866 77.3975 23.5938C77.8695 22.6009 78.374 21.6569 78.9111 20.7617C79.4482 19.8503 80.0098 19.012 80.5957 18.2471C81.1979 17.4821 81.8001 16.8473 82.4023 16.3428C82.7279 16.0661 83.1348 15.7975 83.623 15.5371C84.1113 15.2767 84.6159 15.0488 85.1367 14.8535C85.6576 14.6419 86.1702 14.4792 86.6748 14.3652C87.1956 14.235 87.6432 14.1699 88.0176 14.1699C88.5221 14.1699 89.0511 14.292 89.6045 14.5361C90.1579 14.7803 90.6624 15.0895 91.1182 15.4639C91.5902 15.8219 91.9727 16.2207 92.2656 16.6602C92.5586 17.0833 92.7051 17.4902 92.7051 17.8809C92.7051 18.1738 92.6562 18.4749 92.5586 18.7842C92.4609 19.0934 92.3307 19.3783 92.168 19.6387C92.0052 19.8991 91.8262 20.1188 91.6309 20.2979C91.4355 20.4606 91.2321 20.542 91.0205 20.542C90.6462 20.542 90.3451 20.3874 90.1172 20.0781C89.8893 19.7526 89.6615 19.4027 89.4336 19.0283C89.222 18.6377 88.9779 18.2878 88.7012 17.9785C88.4245 17.653 88.042 17.4902 87.5537 17.4902C86.8213 17.4902 86.097 17.7507 85.3809 18.2715C84.681 18.7923 84.0055 19.4759 83.3545 20.3223C82.7035 21.1523 82.1012 22.0882 81.5479 23.1299C80.9945 24.1553 80.5143 25.1888 80.1074 26.2305C79.7005 27.2559 79.3831 28.2324 79.1553 29.1602C78.9274 30.0716 78.8135 30.8285 78.8135 31.4307C78.8135 32.098 78.9355 32.6676 79.1797 33.1396C79.4401 33.5954 79.7656 33.9697 80.1562 34.2627C80.5632 34.5557 81.0107 34.7673 81.499 34.8975C82.0036 35.0277 82.5 35.0928 82.9883 35.0928C83.5417 35.0928 84.1683 35.0114 84.8682 34.8486C85.5843 34.6859 86.3005 34.4743 87.0166 34.2139C87.7327 33.9535 88.4245 33.6605 89.0918 33.335C89.7591 33.0094 90.3369 32.6758 90.8252 32.334C92.111 31.4551 93.3968 30.4297 94.6826 29.2578C95.9684 28.0697 97.1891 26.8245 98.3447 25.5225C99.5166 24.2204 100.591 22.902 101.567 21.5674C102.56 20.2327 103.407 18.9632 104.106 17.7588C104.237 17.5472 104.375 17.4007 104.521 17.3193C104.668 17.2217 104.814 17.1729 104.961 17.1729C105.221 17.1729 105.449 17.2624 105.645 17.4414C105.856 17.6204 105.962 17.7913 105.962 17.9541ZM137.871 27.7686C137.871 27.9476 137.855 28.1592 137.822 28.4033C137.806 28.6475 137.757 28.8997 137.676 29.1602C137.611 29.4206 137.513 29.681 137.383 29.9414C137.253 30.1855 137.09 30.4053 136.895 30.6006C135.918 31.5283 134.901 32.3747 133.843 33.1396C132.801 33.8883 131.759 34.5312 130.718 35.0684C129.676 35.5892 128.659 35.9961 127.666 36.2891C126.673 36.582 125.745 36.7285 124.883 36.7285C123.695 36.7285 122.702 36.5088 121.904 36.0693C121.123 35.6136 120.496 35.0277 120.024 34.3115C119.552 33.5791 119.219 32.749 119.023 31.8213C118.828 30.8773 118.73 29.917 118.73 28.9404C118.73 28.6149 118.739 28.2406 118.755 27.8174C118.787 27.3779 118.82 26.9303 118.853 26.4746C118.885 26.0026 118.91 25.5469 118.926 25.1074C118.958 24.668 118.975 24.2692 118.975 23.9111C118.975 23.4066 118.934 22.9753 118.853 22.6172C118.787 22.2428 118.657 21.9824 118.462 21.8359C118.12 22.015 117.697 22.3649 117.192 22.8857C116.688 23.4066 116.126 24.0658 115.508 24.8633C114.906 25.6608 114.255 26.5804 113.555 27.6221C112.871 28.6637 112.179 29.7868 111.479 30.9912C111.04 31.7399 110.584 32.5212 110.112 33.335C109.64 34.1488 109.168 34.9463 108.696 35.7275C108.241 36.4925 107.785 37.2249 107.329 37.9248C106.873 38.6247 106.442 39.2432 106.035 39.7803C105.628 40.3011 105.254 40.7161 104.912 41.0254C104.57 41.3346 104.285 41.4893 104.058 41.4893C103.765 41.4893 103.521 41.4648 103.325 41.416C103.146 41.3672 102.983 41.3184 102.837 41.2695C102.707 41.2207 102.585 41.1719 102.471 41.123C102.373 41.0742 102.267 41.0498 102.153 41.0498C102.023 40.5941 101.925 40.0488 101.86 39.4141C101.795 38.7793 101.746 38.1445 101.714 37.5098C101.681 36.8587 101.657 36.2646 101.641 35.7275C101.641 35.1742 101.641 34.7591 101.641 34.4824C101.641 32.3014 101.795 30.0065 102.104 27.5977C102.43 25.1888 102.812 22.666 103.252 20.0293C103.691 17.3763 104.147 14.6094 104.619 11.7285C105.091 8.83138 105.482 5.80404 105.791 2.64648C105.889 2.19076 106.035 1.81641 106.23 1.52344C106.426 1.23047 106.646 1.0026 106.89 0.839844C107.134 0.677083 107.378 0.571289 107.622 0.522461C107.866 0.457357 108.086 0.424805 108.281 0.424805C108.77 0.424805 109.16 0.677083 109.453 1.18164C109.746 1.6862 109.893 2.36165 109.893 3.20801C109.893 3.43587 109.86 3.78581 109.795 4.25781C109.746 4.72982 109.665 5.26693 109.551 5.86914C109.453 6.45508 109.339 7.08984 109.209 7.77344C109.095 8.44076 108.965 9.10807 108.818 9.77539C108.688 10.4427 108.558 11.0856 108.428 11.7041C108.314 12.3063 108.208 12.8271 108.11 13.2666C107.72 15.0244 107.362 16.8148 107.036 18.6377C106.727 20.4443 106.45 22.1452 106.206 23.7402C105.978 25.319 105.799 26.735 105.669 27.9883C105.539 29.2253 105.474 30.153 105.474 30.7715C105.474 30.9342 105.474 31.1621 105.474 31.4551C105.474 31.748 105.474 32.0492 105.474 32.3584C105.49 32.6676 105.506 32.9606 105.522 33.2373C105.539 33.4977 105.563 33.6768 105.596 33.7744C106.198 33.3187 106.776 32.7409 107.329 32.041C107.899 31.3411 108.477 30.5436 109.062 29.6484C109.665 28.737 110.308 27.7523 110.991 26.6943C111.675 25.6201 112.448 24.4889 113.311 23.3008C113.766 22.6497 114.303 21.9499 114.922 21.2012C115.557 20.4525 116.232 19.7607 116.948 19.126C117.664 18.4749 118.413 17.9378 119.194 17.5146C119.992 17.0915 120.781 16.8799 121.562 16.8799C121.921 16.8799 122.205 17.181 122.417 17.7832C122.645 18.3854 122.759 19.1667 122.759 20.127C122.759 20.3874 122.718 20.7861 122.637 21.3232C122.572 21.8441 122.498 22.43 122.417 23.0811C122.336 23.7158 122.254 24.375 122.173 25.0586C122.108 25.7422 122.075 26.377 122.075 26.9629C122.075 27.4349 122.1 28.0046 122.148 28.6719C122.214 29.3229 122.36 29.9495 122.588 30.5518C122.832 31.154 123.182 31.6667 123.638 32.0898C124.11 32.513 124.761 32.7246 125.591 32.7246C126.958 32.7246 128.504 32.3991 130.229 31.748C131.955 31.097 133.778 30.0472 135.698 28.5986C135.894 28.4521 136.073 28.3057 136.235 28.1592C136.414 27.9964 136.569 27.8499 136.699 27.7197C136.846 27.5895 136.976 27.4837 137.09 27.4023C137.204 27.3047 137.293 27.2559 137.358 27.2559C137.375 27.2559 137.407 27.2803 137.456 27.3291C137.521 27.3779 137.578 27.4349 137.627 27.5C137.692 27.5488 137.749 27.6058 137.798 27.6709C137.847 27.7197 137.871 27.7523 137.871 27.7686ZM148.589 16.8799C148.589 16.7008 148.532 16.5299 148.418 16.3672C148.32 16.2044 148.19 16.0579 148.027 15.9277C147.881 15.7975 147.718 15.6917 147.539 15.6104C147.376 15.529 147.238 15.4883 147.124 15.4883C146.489 15.4883 145.781 15.7568 145 16.2939C144.235 16.8148 143.494 17.5472 142.778 18.4912C142.078 19.4352 141.452 20.5664 140.898 21.8848C140.345 23.2031 139.971 24.6517 139.775 26.2305C140.003 26.084 140.386 25.7992 140.923 25.376C141.46 24.9528 142.038 24.4808 142.656 23.96C143.291 23.4391 143.91 22.9102 144.512 22.373C145.13 21.8359 145.627 21.3721 146.001 20.9814C146.457 20.5094 146.847 20.0863 147.173 19.7119C147.515 19.3376 147.783 18.9958 147.979 18.6865C148.19 18.361 148.345 18.0518 148.442 17.7588C148.54 17.4658 148.589 17.1729 148.589 16.8799ZM166.167 17.6855C166.167 18.0599 166.004 18.6621 165.679 19.4922C165.353 20.306 164.906 21.2419 164.336 22.2998C163.766 23.3415 163.099 24.4401 162.334 25.5957C161.569 26.7513 160.739 27.8418 159.844 28.8672C158.932 29.974 157.907 31.0482 156.768 32.0898C155.628 33.1315 154.399 34.0592 153.081 34.873C151.779 35.6868 150.404 36.3379 148.955 36.8262C147.507 37.3145 146.017 37.5586 144.487 37.5586C142.925 37.5586 141.59 37.2982 140.483 36.7773C139.393 36.2402 138.498 35.5404 137.798 34.6777C137.114 33.8151 136.61 32.8385 136.284 31.748C135.975 30.6576 135.82 29.5426 135.82 28.4033C135.82 27.3779 135.918 26.3444 136.113 25.3027C136.309 24.2448 136.585 23.2194 136.943 22.2266C137.318 21.2174 137.757 20.2572 138.262 19.3457C138.766 18.4342 139.328 17.5879 139.946 16.8066C140.337 16.3021 140.809 15.7731 141.362 15.2197C141.932 14.6501 142.567 14.1292 143.267 13.6572C143.983 13.1852 144.756 12.7946 145.586 12.4854C146.416 12.1598 147.287 11.9971 148.198 11.9971C148.849 11.9971 149.419 12.1191 149.907 12.3633C150.412 12.5911 150.827 12.9004 151.152 13.291C151.494 13.6654 151.746 14.0885 151.909 14.5605C152.088 15.0326 152.178 15.5046 152.178 15.9766C152.178 16.9368 151.999 17.8646 151.641 18.7598C151.283 19.6549 150.697 20.5827 149.883 21.543C149.069 22.487 148.003 23.488 146.685 24.5459C145.382 25.5876 143.779 26.7432 141.875 28.0127C141.761 28.0941 141.598 28.1999 141.387 28.3301C141.175 28.4603 140.964 28.6068 140.752 28.7695C140.54 28.916 140.353 29.0706 140.19 29.2334C140.044 29.3799 139.971 29.5101 139.971 29.624C139.971 30.0635 140.044 30.5436 140.19 31.0645C140.337 31.569 140.597 32.041 140.972 32.4805C141.362 32.9036 141.891 33.2617 142.559 33.5547C143.226 33.8477 144.08 33.9941 145.122 33.9941C145.854 33.9941 146.611 33.9046 147.393 33.7256C148.19 33.5303 148.979 33.2699 149.761 32.9443C150.558 32.6025 151.34 32.2038 152.104 31.748C152.869 31.276 153.594 30.7552 154.277 30.1855C155.189 29.4531 156.108 28.6068 157.036 27.6465C157.964 26.6699 158.867 25.6201 159.746 24.4971C160.625 23.374 161.463 22.194 162.261 20.957C163.058 19.7038 163.783 18.4342 164.434 17.1484C164.613 16.7904 164.808 16.5462 165.02 16.416C165.247 16.2858 165.435 16.2207 165.581 16.2207C165.776 16.2207 165.923 16.3509 166.021 16.6113C166.118 16.8555 166.167 17.2135 166.167 17.6855ZM182.598 30.1611C182.598 30.3564 182.516 30.6413 182.354 31.0156C182.207 31.3737 182.012 31.7562 181.768 32.1631C181.54 32.5537 181.296 32.9443 181.035 33.335C180.791 33.7256 180.571 34.0511 180.376 34.3115C179.725 35.1579 178.968 35.9798 178.105 36.7773C177.259 37.5586 176.372 38.2585 175.444 38.877C174.517 39.4954 173.573 39.9919 172.612 40.3662C171.668 40.7406 170.765 40.9277 169.902 40.9277C168.584 40.9277 167.445 40.6673 166.484 40.1465C165.54 39.6257 164.759 38.8688 164.141 37.876C163.538 36.8669 163.091 35.6299 162.798 34.165C162.505 32.6839 162.358 30.9993 162.358 29.1113C162.358 27.9395 162.407 26.6618 162.505 25.2783C162.603 23.8786 162.741 22.4382 162.92 20.957C163.099 19.4596 163.311 17.9541 163.555 16.4404C163.799 14.9268 164.067 13.4701 164.36 12.0703C164.653 10.6706 164.963 9.36849 165.288 8.16406C165.614 6.94336 165.947 5.88542 166.289 4.99023C166.647 4.07878 166.997 3.36263 167.339 2.8418C167.697 2.32096 168.039 2.06055 168.364 2.06055C168.755 2.06055 169.089 2.23145 169.365 2.57324C169.658 2.89876 169.894 3.2487 170.073 3.62305C169.894 5.18555 169.552 7.09798 169.048 9.36035C168.56 11.6227 167.974 14.292 167.29 17.3682C167.095 18.2308 166.924 19.126 166.777 20.0537C166.647 20.9652 166.533 21.8848 166.436 22.8125C166.354 23.7402 166.289 24.6598 166.24 25.5713C166.191 26.4665 166.167 27.3128 166.167 28.1104C166.167 30.9587 166.533 33.1478 167.266 34.6777C168.014 36.1914 169.268 36.9482 171.025 36.9482C171.855 36.9482 172.677 36.7936 173.491 36.4844C174.305 36.1589 175.078 35.752 175.811 35.2637C176.559 34.7591 177.267 34.2139 177.935 33.6279C178.602 33.0257 179.22 32.4398 179.79 31.8701C179.969 31.6911 180.181 31.4632 180.425 31.1865C180.685 30.9098 180.929 30.6494 181.157 30.4053C181.401 30.1449 181.621 29.9251 181.816 29.7461C182.012 29.5508 182.142 29.4531 182.207 29.4531C182.467 29.4531 182.598 29.6891 182.598 30.1611Z" fill="white"/>
</svg>
