<svg width="1400" height="539" viewBox="0 0 1400 539" fill="none" xmlns="http://www.w3.org/2000/svg">
<g id="Website header" clip-path="url(#clip0_1273_61)">
<rect width="1400" height="538.335" fill="#FFFFFF" fill-opacity="0.5"/>
<path id="Helping you scale your business... with marketing." d="M468.75 246.8V260H467.15V246.8H468.75ZM459.99 246.8V260H458.39V246.8H459.99ZM467.89 252.56V254.06H459.23V252.56H467.89ZM476.802 260.2C475.855 260.2 475.008 259.993 474.262 259.58C473.528 259.167 472.955 258.573 472.542 257.8C472.128 257.013 471.922 256.08 471.922 255C471.922 253.92 472.128 252.993 472.542 252.22C472.955 251.433 473.522 250.833 474.242 250.42C474.962 250.007 475.782 249.8 476.702 249.8C477.635 249.8 478.428 250 479.082 250.4C479.748 250.8 480.255 251.347 480.602 252.04C480.948 252.72 481.122 253.487 481.122 254.34C481.122 254.567 481.115 254.773 481.102 254.96C481.088 255.147 481.068 255.313 481.042 255.46H472.962V254.04H480.342L479.522 254.2C479.522 253.24 479.255 252.5 478.722 251.98C478.202 251.46 477.515 251.2 476.662 251.2C476.008 251.2 475.442 251.353 474.962 251.66C474.495 251.953 474.128 252.387 473.862 252.96C473.608 253.52 473.482 254.2 473.482 255C473.482 255.787 473.615 256.467 473.882 257.04C474.148 257.613 474.522 258.053 475.002 258.36C475.495 258.653 476.082 258.8 476.762 258.8C477.495 258.8 478.088 258.66 478.542 258.38C479.008 258.1 479.382 257.72 479.662 257.24L480.922 257.98C480.668 258.433 480.342 258.827 479.942 259.16C479.555 259.493 479.095 259.753 478.562 259.94C478.042 260.113 477.455 260.2 476.802 260.2ZM485.685 245.4V257.46C485.685 257.967 485.778 258.32 485.965 258.52C486.151 258.707 486.451 258.8 486.865 258.8C487.131 258.8 487.351 258.78 487.525 258.74C487.698 258.7 487.931 258.627 488.225 258.52L487.965 259.92C487.751 260.013 487.518 260.08 487.265 260.12C487.011 260.173 486.751 260.2 486.485 260.2C485.671 260.2 485.065 259.98 484.665 259.54C484.278 259.1 484.085 258.427 484.085 257.52V245.4H485.685ZM490.278 264.2V250H491.678L491.818 252.44L491.598 252.16C491.771 251.693 492.031 251.287 492.378 250.94C492.725 250.58 493.145 250.3 493.638 250.1C494.131 249.9 494.665 249.8 495.238 249.8C496.051 249.8 496.798 250.007 497.478 250.42C498.171 250.833 498.725 251.427 499.138 252.2C499.551 252.973 499.758 253.907 499.758 255C499.758 256.08 499.545 257.013 499.118 257.8C498.705 258.573 498.151 259.167 497.458 259.58C496.765 259.993 496.005 260.2 495.178 260.2C494.351 260.2 493.625 260 492.998 259.6C492.385 259.187 491.945 258.667 491.678 258.04L491.878 257.74V264.2H490.278ZM495.018 258.8C496.005 258.8 496.771 258.453 497.318 257.76C497.878 257.067 498.158 256.147 498.158 255C498.158 253.853 497.885 252.933 497.338 252.24C496.805 251.547 496.051 251.2 495.078 251.2C494.438 251.2 493.878 251.36 493.398 251.68C492.918 251.987 492.545 252.427 492.278 253C492.011 253.56 491.878 254.227 491.878 255C491.878 255.76 492.005 256.427 492.258 257C492.525 257.573 492.891 258.02 493.358 258.34C493.838 258.647 494.391 258.8 495.018 258.8ZM503.617 248.08C503.257 248.08 502.964 247.973 502.737 247.76C502.524 247.533 502.417 247.24 502.417 246.88C502.417 246.52 502.524 246.233 502.737 246.02C502.964 245.793 503.257 245.68 503.617 245.68C503.977 245.68 504.264 245.793 504.477 246.02C504.704 246.233 504.817 246.52 504.817 246.88C504.817 247.24 504.704 247.533 504.477 247.76C504.264 247.973 503.977 248.08 503.617 248.08ZM504.417 250V260H502.817V250H504.417ZM508.13 260V250H509.53L509.67 252.24L509.41 252.02C509.623 251.487 509.91 251.06 510.27 250.74C510.63 250.407 511.043 250.167 511.51 250.02C511.99 249.873 512.483 249.8 512.99 249.8C513.71 249.8 514.363 249.94 514.95 250.22C515.536 250.487 516.003 250.9 516.35 251.46C516.71 252.02 516.89 252.733 516.89 253.6V260H515.29V254.16C515.29 253.053 515.05 252.287 514.57 251.86C514.103 251.42 513.523 251.2 512.83 251.2C512.35 251.2 511.87 251.313 511.39 251.54C510.91 251.767 510.51 252.133 510.19 252.64C509.883 253.147 509.73 253.827 509.73 254.68V260H508.13ZM528.932 248.16L529.292 249.58C529.279 249.58 529.259 249.58 529.232 249.58C529.206 249.58 529.179 249.58 529.152 249.58C528.499 249.58 527.992 249.713 527.632 249.98C527.286 250.233 527.112 250.647 527.112 251.22L526.132 250.72C526.132 250.2 526.252 249.747 526.492 249.36C526.732 248.973 527.059 248.68 527.472 248.48C527.886 248.267 528.339 248.16 528.832 248.16C528.846 248.16 528.859 248.16 528.872 248.16C528.899 248.16 528.919 248.16 528.932 248.16ZM525.892 258.72C526.839 258.72 527.579 258.94 528.112 259.38C528.646 259.807 528.912 260.38 528.912 261.1C528.912 261.753 528.692 262.32 528.252 262.8C527.826 263.28 527.246 263.647 526.512 263.9C525.792 264.167 524.979 264.3 524.072 264.3C522.499 264.3 521.319 264.033 520.532 263.5C519.759 262.967 519.372 262.327 519.372 261.58C519.372 261.047 519.546 260.567 519.892 260.14C520.252 259.727 520.852 259.493 521.692 259.44L521.552 259.74C521.099 259.62 520.712 259.42 520.392 259.14C520.086 258.847 519.932 258.427 519.932 257.88C519.932 257.333 520.132 256.867 520.532 256.48C520.946 256.08 521.552 255.833 522.352 255.74L523.412 256.28H523.212C522.559 256.347 522.092 256.513 521.812 256.78C521.546 257.033 521.412 257.313 521.412 257.62C521.412 257.993 521.546 258.273 521.812 258.46C522.092 258.633 522.479 258.72 522.972 258.72H525.892ZM524.052 262.96C524.826 262.96 525.459 262.88 525.952 262.72C526.459 262.56 526.832 262.353 527.072 262.1C527.312 261.847 527.432 261.573 527.432 261.28C527.432 260.92 527.286 260.633 526.992 260.42C526.712 260.207 526.199 260.1 525.452 260.1H522.372C521.946 260.1 521.586 260.207 521.292 260.42C520.999 260.647 520.852 260.953 520.852 261.34C520.852 261.833 521.132 262.227 521.692 262.52C522.266 262.813 523.052 262.96 524.052 262.96ZM523.912 249.8C524.712 249.8 525.419 249.947 526.032 250.24C526.659 250.52 527.146 250.913 527.492 251.42C527.839 251.927 528.012 252.513 528.012 253.18C528.012 253.833 527.839 254.42 527.492 254.94C527.146 255.447 526.659 255.847 526.032 256.14C525.419 256.42 524.712 256.56 523.912 256.56C522.592 256.56 521.579 256.247 520.872 255.62C520.166 254.98 519.812 254.167 519.812 253.18C519.812 252.513 519.986 251.927 520.332 251.42C520.692 250.913 521.179 250.52 521.792 250.24C522.406 249.947 523.112 249.8 523.912 249.8ZM523.912 251.1C523.219 251.1 522.639 251.293 522.172 251.68C521.706 252.053 521.472 252.553 521.472 253.18C521.472 253.793 521.706 254.293 522.172 254.68C522.639 255.067 523.219 255.26 523.912 255.26C524.606 255.26 525.186 255.067 525.652 254.68C526.119 254.293 526.352 253.793 526.352 253.18C526.352 252.553 526.119 252.053 525.652 251.68C525.186 251.293 524.606 251.1 523.912 251.1ZM545.685 250L540.985 261.68C540.732 262.333 540.452 262.847 540.145 263.22C539.852 263.607 539.519 263.88 539.145 264.04C538.785 264.213 538.365 264.3 537.885 264.3C537.432 264.3 537.012 264.233 536.625 264.1C536.252 263.98 535.919 263.813 535.625 263.6L536.065 262.2C536.332 262.44 536.612 262.613 536.905 262.72C537.212 262.84 537.512 262.9 537.805 262.9C538.152 262.9 538.479 262.793 538.785 262.58C539.092 262.367 539.372 261.933 539.625 261.28L540.145 259.98L539.145 257.6L535.965 250H537.785L540.285 256.52L540.905 258.3L541.625 256.32L543.965 250H545.685ZM551.918 249.8C552.865 249.8 553.698 250.007 554.418 250.42C555.151 250.833 555.725 251.433 556.138 252.22C556.551 252.993 556.758 253.92 556.758 255C556.758 256.08 556.551 257.013 556.138 257.8C555.725 258.573 555.151 259.167 554.418 259.58C553.698 259.993 552.865 260.2 551.918 260.2C550.985 260.2 550.151 259.993 549.418 259.58C548.685 259.167 548.111 258.573 547.698 257.8C547.285 257.013 547.078 256.08 547.078 255C547.078 253.92 547.285 252.993 547.698 252.22C548.111 251.433 548.685 250.833 549.418 250.42C550.151 250.007 550.985 249.8 551.918 249.8ZM551.918 251.18C551.238 251.18 550.658 251.333 550.178 251.64C549.698 251.947 549.325 252.387 549.058 252.96C548.805 253.52 548.678 254.2 548.678 255C548.678 255.787 548.805 256.467 549.058 257.04C549.325 257.613 549.698 258.053 550.178 258.36C550.658 258.667 551.238 258.82 551.918 258.82C552.598 258.82 553.178 258.667 553.658 258.36C554.138 258.053 554.505 257.613 554.758 257.04C555.025 256.467 555.158 255.787 555.158 255C555.158 254.2 555.025 253.52 554.758 252.96C554.505 252.387 554.138 251.947 553.658 251.64C553.178 251.333 552.598 251.18 551.918 251.18ZM563.39 260.2C562.75 260.2 562.143 260.08 561.57 259.84C561.01 259.6 560.55 259.213 560.19 258.68C559.843 258.133 559.67 257.427 559.67 256.56V250H561.27V256.14C561.27 257.153 561.49 257.853 561.93 258.24C562.37 258.613 562.99 258.8 563.79 258.8C564.163 258.8 564.53 258.74 564.89 258.62C565.25 258.487 565.57 258.287 565.85 258.02C566.143 257.74 566.37 257.387 566.53 256.96C566.703 256.533 566.79 256.027 566.79 255.44V250H568.39V260H566.99L566.89 258.48C566.543 259.08 566.07 259.52 565.47 259.8C564.883 260.067 564.19 260.2 563.39 260.2ZM582.53 260.2C581.557 260.2 580.657 259.993 579.83 259.58C579.017 259.167 578.39 258.58 577.95 257.82L579.31 256.84C579.604 257.453 580.03 257.933 580.59 258.28C581.164 258.627 581.85 258.8 582.65 258.8C583.357 258.8 583.91 258.667 584.31 258.4C584.71 258.12 584.91 257.76 584.91 257.32C584.91 257.04 584.817 256.787 584.63 256.56C584.457 256.32 584.117 256.147 583.61 256.04L581.21 255.54C580.237 255.34 579.537 255.007 579.11 254.54C578.697 254.073 578.49 253.493 578.49 252.8C578.49 252.253 578.644 251.753 578.95 251.3C579.27 250.847 579.717 250.487 580.29 250.22C580.877 249.94 581.564 249.8 582.35 249.8C583.337 249.8 584.17 249.993 584.85 250.38C585.53 250.767 586.037 251.313 586.37 252.02L585.03 252.9C584.804 252.313 584.437 251.887 583.93 251.62C583.424 251.34 582.897 251.2 582.35 251.2C581.87 251.2 581.457 251.267 581.11 251.4C580.777 251.533 580.517 251.72 580.33 251.96C580.157 252.187 580.07 252.447 580.07 252.74C580.07 253.033 580.17 253.307 580.37 253.56C580.57 253.8 580.944 253.973 581.49 254.08L583.99 254.6C584.924 254.787 585.577 255.093 585.95 255.52C586.324 255.947 586.51 256.467 586.51 257.08C586.51 257.707 586.344 258.26 586.01 258.74C585.677 259.207 585.21 259.567 584.61 259.82C584.01 260.073 583.317 260.2 582.53 260.2ZM593.617 249.8C594.311 249.8 594.917 249.907 595.437 250.12C595.971 250.333 596.431 250.64 596.817 251.04C597.204 251.44 597.517 251.913 597.757 252.46L596.237 253.18C596.024 252.54 595.697 252.053 595.257 251.72C594.831 251.373 594.271 251.2 593.577 251.2C592.911 251.2 592.337 251.353 591.857 251.66C591.377 251.953 591.011 252.387 590.757 252.96C590.504 253.52 590.377 254.2 590.377 255C590.377 255.787 590.504 256.467 590.757 257.04C591.011 257.613 591.377 258.053 591.857 258.36C592.337 258.653 592.911 258.8 593.577 258.8C594.097 258.8 594.544 258.72 594.917 258.56C595.304 258.4 595.617 258.167 595.857 257.86C596.111 257.553 596.284 257.18 596.377 256.74L597.857 257.26C597.631 257.873 597.317 258.4 596.917 258.84C596.531 259.28 596.057 259.62 595.497 259.86C594.951 260.087 594.324 260.2 593.617 260.2C592.684 260.2 591.851 259.993 591.117 259.58C590.384 259.167 589.811 258.573 589.397 257.8C588.984 257.013 588.777 256.08 588.777 255C588.777 253.92 588.984 252.993 589.397 252.22C589.811 251.433 590.384 250.833 591.117 250.42C591.851 250.007 592.684 249.8 593.617 249.8ZM606.509 253.54C606.509 252.793 606.309 252.22 605.909 251.82C605.509 251.407 604.942 251.2 604.209 251.2C603.515 251.2 602.929 251.353 602.449 251.66C601.969 251.953 601.615 252.433 601.389 253.1L600.089 252.3C600.355 251.553 600.849 250.953 601.569 250.5C602.289 250.033 603.182 249.8 604.249 249.8C604.969 249.8 605.622 249.927 606.209 250.18C606.795 250.42 607.255 250.793 607.589 251.3C607.935 251.793 608.109 252.433 608.109 253.22V258.06C608.109 258.54 608.362 258.78 608.869 258.78C609.122 258.78 609.369 258.747 609.609 258.68L609.529 259.94C609.262 260.073 608.915 260.14 608.489 260.14C608.102 260.14 607.755 260.067 607.449 259.92C607.142 259.773 606.902 259.553 606.729 259.26C606.555 258.953 606.469 258.573 606.469 258.12V257.92L606.869 257.98C606.709 258.5 606.435 258.927 606.049 259.26C605.662 259.58 605.229 259.82 604.749 259.98C604.269 260.127 603.795 260.2 603.329 260.2C602.742 260.2 602.195 260.1 601.689 259.9C601.182 259.7 600.775 259.4 600.469 259C600.175 258.587 600.029 258.08 600.029 257.48C600.029 256.733 600.275 256.12 600.769 255.64C601.275 255.147 601.975 254.813 602.869 254.64L606.829 253.86V255.18L603.609 255.84C602.955 255.973 602.469 256.16 602.149 256.4C601.829 256.64 601.669 256.973 601.669 257.4C601.669 257.813 601.829 258.153 602.149 258.42C602.482 258.673 602.949 258.8 603.549 258.8C603.935 258.8 604.302 258.753 604.649 258.66C605.009 258.553 605.329 258.4 605.609 258.2C605.889 257.987 606.109 257.727 606.269 257.42C606.429 257.1 606.509 256.727 606.509 256.3V253.54ZM613.517 245.4V257.46C613.517 257.967 613.61 258.32 613.797 258.52C613.983 258.707 614.283 258.8 614.697 258.8C614.963 258.8 615.183 258.78 615.357 258.74C615.53 258.7 615.763 258.627 616.057 258.52L615.797 259.92C615.583 260.013 615.35 260.08 615.097 260.12C614.843 260.173 614.583 260.2 614.317 260.2C613.503 260.2 612.897 259.98 612.497 259.54C612.11 259.1 611.917 258.427 611.917 257.52V245.4H613.517ZM622.29 260.2C621.343 260.2 620.497 259.993 619.75 259.58C619.017 259.167 618.443 258.573 618.03 257.8C617.617 257.013 617.41 256.08 617.41 255C617.41 253.92 617.617 252.993 618.03 252.22C618.443 251.433 619.01 250.833 619.73 250.42C620.45 250.007 621.27 249.8 622.19 249.8C623.123 249.8 623.917 250 624.57 250.4C625.237 250.8 625.743 251.347 626.09 252.04C626.437 252.72 626.61 253.487 626.61 254.34C626.61 254.567 626.603 254.773 626.59 254.96C626.577 255.147 626.557 255.313 626.53 255.46H618.45V254.04H625.83L625.01 254.2C625.01 253.24 624.743 252.5 624.21 251.98C623.69 251.46 623.003 251.2 622.15 251.2C621.497 251.2 620.93 251.353 620.45 251.66C619.983 251.953 619.617 252.387 619.35 252.96C619.097 253.52 618.97 254.2 618.97 255C618.97 255.787 619.103 256.467 619.37 257.04C619.637 257.613 620.01 258.053 620.49 258.36C620.983 258.653 621.57 258.8 622.25 258.8C622.983 258.8 623.577 258.66 624.03 258.38C624.497 258.1 624.87 257.72 625.15 257.24L626.41 257.98C626.157 258.433 625.83 258.827 625.43 259.16C625.043 259.493 624.583 259.753 624.05 259.94C623.53 260.113 622.943 260.2 622.29 260.2ZM644.182 250L639.482 261.68C639.228 262.333 638.948 262.847 638.642 263.22C638.348 263.607 638.015 263.88 637.642 264.04C637.282 264.213 636.862 264.3 636.382 264.3C635.928 264.3 635.508 264.233 635.122 264.1C634.748 263.98 634.415 263.813 634.122 263.6L634.562 262.2C634.828 262.44 635.108 262.613 635.402 262.72C635.708 262.84 636.008 262.9 636.302 262.9C636.648 262.9 636.975 262.793 637.282 262.58C637.588 262.367 637.868 261.933 638.122 261.28L638.642 259.98L637.642 257.6L634.462 250H636.282L638.782 256.52L639.402 258.3L640.122 256.32L642.462 250H644.182ZM650.414 249.8C651.361 249.8 652.194 250.007 652.914 250.42C653.647 250.833 654.221 251.433 654.634 252.22C655.047 252.993 655.254 253.92 655.254 255C655.254 256.08 655.047 257.013 654.634 257.8C654.221 258.573 653.647 259.167 652.914 259.58C652.194 259.993 651.361 260.2 650.414 260.2C649.481 260.2 648.647 259.993 647.914 259.58C647.181 259.167 646.607 258.573 646.194 257.8C645.781 257.013 645.574 256.08 645.574 255C645.574 253.92 645.781 252.993 646.194 252.22C646.607 251.433 647.181 250.833 647.914 250.42C648.647 250.007 649.481 249.8 650.414 249.8ZM650.414 251.18C649.734 251.18 649.154 251.333 648.674 251.64C648.194 251.947 647.821 252.387 647.554 252.96C647.301 253.52 647.174 254.2 647.174 255C647.174 255.787 647.301 256.467 647.554 257.04C647.821 257.613 648.194 258.053 648.674 258.36C649.154 258.667 649.734 258.82 650.414 258.82C651.094 258.82 651.674 258.667 652.154 258.36C652.634 258.053 653.001 257.613 653.254 257.04C653.521 256.467 653.654 255.787 653.654 255C653.654 254.2 653.521 253.52 653.254 252.96C653.001 252.387 652.634 251.947 652.154 251.64C651.674 251.333 651.094 251.18 650.414 251.18ZM661.886 260.2C661.246 260.2 660.64 260.08 660.066 259.84C659.506 259.6 659.046 259.213 658.686 258.68C658.34 258.133 658.166 257.427 658.166 256.56V250H659.766V256.14C659.766 257.153 659.986 257.853 660.426 258.24C660.866 258.613 661.486 258.8 662.286 258.8C662.66 258.8 663.026 258.74 663.386 258.62C663.746 258.487 664.066 258.287 664.346 258.02C664.64 257.74 664.866 257.387 665.026 256.96C665.2 256.533 665.286 256.027 665.286 255.44V250H666.886V260H665.486L665.386 258.48C665.04 259.08 664.566 259.52 663.966 259.8C663.38 260.067 662.686 260.2 661.886 260.2ZM670.61 260V250H671.91L672.13 251.64C672.41 251.027 672.817 250.567 673.35 250.26C673.897 249.953 674.557 249.8 675.33 249.8C675.503 249.8 675.69 249.813 675.89 249.84C676.103 249.867 676.283 249.92 676.43 250L676.15 251.46C676.003 251.407 675.843 251.367 675.67 251.34C675.497 251.313 675.25 251.3 674.93 251.3C674.517 251.3 674.097 251.42 673.67 251.66C673.257 251.9 672.91 252.267 672.63 252.76C672.35 253.24 672.21 253.853 672.21 254.6V260H670.61ZM690.022 260.2C689.462 260.2 688.942 260.1 688.462 259.9C687.982 259.7 687.568 259.42 687.222 259.06C686.875 258.7 686.615 258.293 686.442 257.84L686.662 257.56L686.522 260H685.122V245.4H686.722V252.26L686.522 251.96C686.788 251.333 687.235 250.82 687.862 250.42C688.502 250.007 689.228 249.8 690.042 249.8C690.868 249.8 691.628 250.007 692.322 250.42C693.015 250.833 693.568 251.427 693.982 252.2C694.395 252.973 694.602 253.907 694.602 255C694.602 256.08 694.388 257.013 693.962 257.8C693.548 258.573 692.995 259.167 692.302 259.58C691.608 259.993 690.848 260.2 690.022 260.2ZM689.862 258.8C690.848 258.8 691.615 258.453 692.162 257.76C692.722 257.067 693.002 256.147 693.002 255C693.002 253.853 692.728 252.933 692.182 252.24C691.635 251.547 690.868 251.2 689.882 251.2C689.255 251.2 688.702 251.36 688.222 251.68C687.755 252 687.388 252.447 687.122 253.02C686.855 253.593 686.722 254.267 686.722 255.04C686.722 255.8 686.848 256.467 687.102 257.04C687.368 257.6 687.735 258.033 688.202 258.34C688.682 258.647 689.235 258.8 689.862 258.8ZM701.281 260.2C700.641 260.2 700.034 260.08 699.461 259.84C698.901 259.6 698.441 259.213 698.081 258.68C697.734 258.133 697.561 257.427 697.561 256.56V250H699.161V256.14C699.161 257.153 699.381 257.853 699.821 258.24C700.261 258.613 700.881 258.8 701.681 258.8C702.054 258.8 702.421 258.74 702.781 258.62C703.141 258.487 703.461 258.287 703.741 258.02C704.034 257.74 704.261 257.387 704.421 256.96C704.594 256.533 704.681 256.027 704.681 255.44V250H706.281V260H704.881L704.781 258.48C704.434 259.08 703.961 259.52 703.361 259.8C702.774 260.067 702.081 260.2 701.281 260.2ZM713.605 260.2C712.631 260.2 711.731 259.993 710.905 259.58C710.091 259.167 709.465 258.58 709.025 257.82L710.385 256.84C710.678 257.453 711.105 257.933 711.665 258.28C712.238 258.627 712.925 258.8 713.725 258.8C714.431 258.8 714.985 258.667 715.385 258.4C715.785 258.12 715.985 257.76 715.985 257.32C715.985 257.04 715.891 256.787 715.705 256.56C715.531 256.32 715.191 256.147 714.685 256.04L712.285 255.54C711.311 255.34 710.611 255.007 710.185 254.54C709.771 254.073 709.565 253.493 709.565 252.8C709.565 252.253 709.718 251.753 710.025 251.3C710.345 250.847 710.791 250.487 711.365 250.22C711.951 249.94 712.638 249.8 713.425 249.8C714.411 249.8 715.245 249.993 715.925 250.38C716.605 250.767 717.111 251.313 717.445 252.02L716.105 252.9C715.878 252.313 715.511 251.887 715.005 251.62C714.498 251.34 713.971 251.2 713.425 251.2C712.945 251.2 712.531 251.267 712.185 251.4C711.851 251.533 711.591 251.72 711.405 251.96C711.231 252.187 711.145 252.447 711.145 252.74C711.145 253.033 711.245 253.307 711.445 253.56C711.645 253.8 712.018 253.973 712.565 254.08L715.065 254.6C715.998 254.787 716.651 255.093 717.025 255.52C717.398 255.947 717.585 256.467 717.585 257.08C717.585 257.707 717.418 258.26 717.085 258.74C716.751 259.207 716.285 259.567 715.685 259.82C715.085 260.073 714.391 260.2 713.605 260.2ZM721.351 248.08C720.991 248.08 720.698 247.973 720.471 247.76C720.258 247.533 720.151 247.24 720.151 246.88C720.151 246.52 720.258 246.233 720.471 246.02C720.698 245.793 720.991 245.68 721.351 245.68C721.711 245.68 721.998 245.793 722.211 246.02C722.438 246.233 722.551 246.52 722.551 246.88C722.551 247.24 722.438 247.533 722.211 247.76C721.998 247.973 721.711 248.08 721.351 248.08ZM722.151 250V260H720.551V250H722.151ZM725.864 260V250H727.264L727.404 252.24L727.144 252.02C727.357 251.487 727.644 251.06 728.004 250.74C728.364 250.407 728.777 250.167 729.244 250.02C729.724 249.873 730.217 249.8 730.724 249.8C731.444 249.8 732.097 249.94 732.684 250.22C733.271 250.487 733.737 250.9 734.084 251.46C734.444 252.02 734.624 252.733 734.624 253.6V260H733.024V254.16C733.024 253.053 732.784 252.287 732.304 251.86C731.837 251.42 731.257 251.2 730.564 251.2C730.084 251.2 729.604 251.313 729.124 251.54C728.644 251.767 728.244 252.133 727.924 252.64C727.617 253.147 727.464 253.827 727.464 254.68V260H725.864ZM742.427 260.2C741.48 260.2 740.633 259.993 739.887 259.58C739.153 259.167 738.58 258.573 738.167 257.8C737.753 257.013 737.547 256.08 737.547 255C737.547 253.92 737.753 252.993 738.167 252.22C738.58 251.433 739.147 250.833 739.867 250.42C740.587 250.007 741.407 249.8 742.327 249.8C743.26 249.8 744.053 250 744.707 250.4C745.373 250.8 745.88 251.347 746.227 252.04C746.573 252.72 746.747 253.487 746.747 254.34C746.747 254.567 746.74 254.773 746.727 254.96C746.713 255.147 746.693 255.313 746.667 255.46H738.587V254.04H745.967L745.147 254.2C745.147 253.24 744.88 252.5 744.347 251.98C743.827 251.46 743.14 251.2 742.287 251.2C741.633 251.2 741.067 251.353 740.587 251.66C740.12 251.953 739.753 252.387 739.487 252.96C739.233 253.52 739.107 254.2 739.107 255C739.107 255.787 739.24 256.467 739.507 257.04C739.773 257.613 740.147 258.053 740.627 258.36C741.12 258.653 741.707 258.8 742.387 258.8C743.12 258.8 743.713 258.66 744.167 258.38C744.633 258.1 745.007 257.72 745.287 257.24L746.547 257.98C746.293 258.433 745.967 258.827 745.567 259.16C745.18 259.493 744.72 259.753 744.187 259.94C743.667 260.113 743.08 260.2 742.427 260.2ZM753.39 260.2C752.416 260.2 751.516 259.993 750.69 259.58C749.876 259.167 749.25 258.58 748.81 257.82L750.17 256.84C750.463 257.453 750.89 257.933 751.45 258.28C752.023 258.627 752.71 258.8 753.51 258.8C754.216 258.8 754.77 258.667 755.17 258.4C755.57 258.12 755.77 257.76 755.77 257.32C755.77 257.04 755.676 256.787 755.49 256.56C755.316 256.32 754.976 256.147 754.47 256.04L752.07 255.54C751.096 255.34 750.396 255.007 749.97 254.54C749.556 254.073 749.35 253.493 749.35 252.8C749.35 252.253 749.503 251.753 749.81 251.3C750.13 250.847 750.576 250.487 751.15 250.22C751.736 249.94 752.423 249.8 753.21 249.8C754.196 249.8 755.03 249.993 755.71 250.38C756.39 250.767 756.896 251.313 757.23 252.02L755.89 252.9C755.663 252.313 755.296 251.887 754.79 251.62C754.283 251.34 753.756 251.2 753.21 251.2C752.73 251.2 752.316 251.267 751.97 251.4C751.636 251.533 751.376 251.72 751.19 251.96C751.016 252.187 750.93 252.447 750.93 252.74C750.93 253.033 751.03 253.307 751.23 253.56C751.43 253.8 751.803 253.973 752.35 254.08L754.85 254.6C755.783 254.787 756.436 255.093 756.81 255.52C757.183 255.947 757.37 256.467 757.37 257.08C757.37 257.707 757.203 258.26 756.87 258.74C756.536 259.207 756.07 259.567 755.47 259.82C754.87 260.073 754.176 260.2 753.39 260.2ZM763.937 260.2C762.963 260.2 762.063 259.993 761.237 259.58C760.423 259.167 759.797 258.58 759.357 257.82L760.717 256.84C761.01 257.453 761.437 257.933 761.997 258.28C762.57 258.627 763.257 258.8 764.057 258.8C764.763 258.8 765.317 258.667 765.717 258.4C766.117 258.12 766.317 257.76 766.317 257.32C766.317 257.04 766.223 256.787 766.037 256.56C765.863 256.32 765.523 256.147 765.017 256.04L762.617 255.54C761.643 255.34 760.943 255.007 760.517 254.54C760.103 254.073 759.897 253.493 759.897 252.8C759.897 252.253 760.05 251.753 760.357 251.3C760.677 250.847 761.123 250.487 761.697 250.22C762.283 249.94 762.97 249.8 763.757 249.8C764.743 249.8 765.577 249.993 766.257 250.38C766.937 250.767 767.443 251.313 767.777 252.02L766.437 252.9C766.21 252.313 765.843 251.887 765.337 251.62C764.83 251.34 764.303 251.2 763.757 251.2C763.277 251.2 762.863 251.267 762.517 251.4C762.183 251.533 761.923 251.72 761.737 251.96C761.563 252.187 761.477 252.447 761.477 252.74C761.477 253.033 761.577 253.307 761.777 253.56C761.977 253.8 762.35 253.973 762.897 254.08L765.397 254.6C766.33 254.787 766.983 255.093 767.357 255.52C767.73 255.947 767.917 256.467 767.917 257.08C767.917 257.707 767.75 258.26 767.417 258.74C767.083 259.207 766.617 259.567 766.017 259.82C765.417 260.073 764.723 260.2 763.937 260.2ZM771.683 257.6C772.07 257.6 772.383 257.72 772.623 257.96C772.863 258.2 772.983 258.513 772.983 258.9C772.983 259.287 772.863 259.6 772.623 259.84C772.383 260.08 772.07 260.2 771.683 260.2C771.297 260.2 770.983 260.08 770.743 259.84C770.503 259.6 770.383 259.287 770.383 258.9C770.383 258.513 770.503 258.2 770.743 257.96C770.983 257.72 771.297 257.6 771.683 257.6ZM776.996 257.6C777.383 257.6 777.696 257.72 777.936 257.96C778.176 258.2 778.296 258.513 778.296 258.9C778.296 259.287 778.176 259.6 777.936 259.84C777.696 260.08 777.383 260.2 776.996 260.2C776.609 260.2 776.296 260.08 776.056 259.84C775.816 259.6 775.696 259.287 775.696 258.9C775.696 258.513 775.816 258.2 776.056 257.96C776.296 257.72 776.609 257.6 776.996 257.6ZM782.308 257.6C782.695 257.6 783.008 257.72 783.248 257.96C783.488 258.2 783.608 258.513 783.608 258.9C783.608 259.287 783.488 259.6 783.248 259.84C783.008 260.08 782.695 260.2 782.308 260.2C781.922 260.2 781.608 260.08 781.368 259.84C781.128 259.6 781.008 259.287 781.008 258.9C781.008 258.513 781.128 258.2 781.368 257.96C781.608 257.72 781.922 257.6 782.308 257.6ZM805.728 250H807.508L804.028 260H802.428L799.608 252.04L796.948 260H795.348L791.868 250H793.648L796.168 258.14L798.888 250H800.488L803.208 258.14L805.728 250ZM810.707 248.08C810.347 248.08 810.054 247.973 809.827 247.76C809.614 247.533 809.507 247.24 809.507 246.88C809.507 246.52 809.614 246.233 809.827 246.02C810.054 245.793 810.347 245.68 810.707 245.68C811.067 245.68 811.354 245.793 811.567 246.02C811.794 246.233 811.907 246.52 811.907 246.88C811.907 247.24 811.794 247.533 811.567 247.76C811.354 247.973 811.067 248.08 810.707 248.08ZM811.507 250V260H809.907V250H811.507ZM817.579 247.16V257.24C817.579 257.733 817.719 258.1 817.999 258.34C818.279 258.58 818.639 258.7 819.079 258.7C819.466 258.7 819.799 258.633 820.079 258.5C820.359 258.367 820.613 258.187 820.839 257.96L821.399 259.3C821.093 259.58 820.726 259.8 820.299 259.96C819.886 260.12 819.406 260.2 818.859 260.2C818.353 260.2 817.879 260.113 817.439 259.94C816.999 259.753 816.646 259.467 816.379 259.08C816.126 258.68 815.993 258.16 815.979 257.52V247.6L817.579 247.16ZM821.219 250V251.38H813.979V250H821.219ZM823.598 260V245.4H825.198V251.5C825.545 250.9 826.005 250.467 826.578 250.2C827.152 249.933 827.778 249.8 828.458 249.8C829.178 249.8 829.832 249.94 830.418 250.22C831.005 250.487 831.472 250.9 831.818 251.46C832.178 252.02 832.358 252.733 832.358 253.6V260H830.758V254.16C830.758 253.053 830.518 252.287 830.038 251.86C829.572 251.42 828.992 251.2 828.298 251.2C827.818 251.2 827.338 251.313 826.858 251.54C826.378 251.767 825.978 252.14 825.658 252.66C825.352 253.167 825.198 253.847 825.198 254.7V260H823.598ZM842.798 260V250H844.198L844.298 251.56C844.658 250.947 845.124 250.5 845.698 250.22C846.284 249.94 846.884 249.8 847.498 249.8C848.204 249.8 848.871 249.96 849.498 250.28C850.124 250.6 850.604 251.093 850.938 251.76C851.151 251.307 851.451 250.94 851.838 250.66C852.224 250.367 852.644 250.153 853.098 250.02C853.564 249.873 854.004 249.8 854.418 249.8C855.058 249.8 855.664 249.933 856.238 250.2C856.824 250.467 857.304 250.88 857.678 251.44C858.051 252 858.238 252.72 858.238 253.6V260H856.638V253.76C856.638 252.853 856.411 252.2 855.958 251.8C855.504 251.4 854.944 251.2 854.278 251.2C853.758 251.2 853.271 251.327 852.818 251.58C852.364 251.833 851.998 252.207 851.718 252.7C851.451 253.193 851.318 253.8 851.318 254.52V260H849.718V253.76C849.718 252.853 849.491 252.2 849.038 251.8C848.584 251.4 848.024 251.2 847.358 251.2C846.918 251.2 846.464 251.32 845.998 251.56C845.544 251.787 845.164 252.153 844.858 252.66C844.551 253.167 844.398 253.833 844.398 254.66V260H842.798ZM867.7 253.54C867.7 252.793 867.5 252.22 867.1 251.82C866.7 251.407 866.133 251.2 865.4 251.2C864.707 251.2 864.12 251.353 863.64 251.66C863.16 251.953 862.807 252.433 862.58 253.1L861.28 252.3C861.547 251.553 862.04 250.953 862.76 250.5C863.48 250.033 864.373 249.8 865.44 249.8C866.16 249.8 866.813 249.927 867.4 250.18C867.987 250.42 868.447 250.793 868.78 251.3C869.127 251.793 869.3 252.433 869.3 253.22V258.06C869.3 258.54 869.553 258.78 870.06 258.78C870.313 258.78 870.56 258.747 870.8 258.68L870.72 259.94C870.453 260.073 870.107 260.14 869.68 260.14C869.293 260.14 868.947 260.067 868.64 259.92C868.333 259.773 868.093 259.553 867.92 259.26C867.747 258.953 867.66 258.573 867.66 258.12V257.92L868.06 257.98C867.9 258.5 867.627 258.927 867.24 259.26C866.853 259.58 866.42 259.82 865.94 259.98C865.46 260.127 864.987 260.2 864.52 260.2C863.933 260.2 863.387 260.1 862.88 259.9C862.373 259.7 861.967 259.4 861.66 259C861.367 258.587 861.22 258.08 861.22 257.48C861.22 256.733 861.467 256.12 861.96 255.64C862.467 255.147 863.167 254.813 864.06 254.64L868.02 253.86V255.18L864.8 255.84C864.147 255.973 863.66 256.16 863.34 256.4C863.02 256.64 862.86 256.973 862.86 257.4C862.86 257.813 863.02 258.153 863.34 258.42C863.673 258.673 864.14 258.8 864.74 258.8C865.127 258.8 865.493 258.753 865.84 258.66C866.2 258.553 866.52 258.4 866.8 258.2C867.08 257.987 867.3 257.727 867.46 257.42C867.62 257.1 867.7 256.727 867.7 256.3V253.54ZM873.188 260V250H874.488L874.708 251.64C874.988 251.027 875.395 250.567 875.928 250.26C876.475 249.953 877.135 249.8 877.908 249.8C878.081 249.8 878.268 249.813 878.468 249.84C878.681 249.867 878.861 249.92 879.008 250L878.728 251.46C878.581 251.407 878.421 251.367 878.248 251.34C878.075 251.313 877.828 251.3 877.508 251.3C877.095 251.3 876.675 251.42 876.248 251.66C875.835 251.9 875.488 252.267 875.208 252.76C874.928 253.24 874.788 253.853 874.788 254.6V260H873.188ZM890.132 250L885.812 254.32L885.432 254.7L882.152 257.98V255.98L888.112 250H890.132ZM882.952 245.4V260H881.352V245.4H882.952ZM885.952 253.5L890.372 260H888.432L884.612 254.4L885.952 253.5ZM896.528 260.2C895.582 260.2 894.735 259.993 893.988 259.58C893.255 259.167 892.682 258.573 892.268 257.8C891.855 257.013 891.648 256.08 891.648 255C891.648 253.92 891.855 252.993 892.268 252.22C892.682 251.433 893.248 250.833 893.968 250.42C894.688 250.007 895.508 249.8 896.428 249.8C897.362 249.8 898.155 250 898.808 250.4C899.475 250.8 899.982 251.347 900.328 252.04C900.675 252.72 900.848 253.487 900.848 254.34C900.848 254.567 900.842 254.773 900.828 254.96C900.815 255.147 900.795 255.313 900.768 255.46H892.688V254.04H900.068L899.248 254.2C899.248 253.24 898.982 252.5 898.448 251.98C897.928 251.46 897.242 251.2 896.388 251.2C895.735 251.2 895.168 251.353 894.688 251.66C894.222 251.953 893.855 252.387 893.588 252.96C893.335 253.52 893.208 254.2 893.208 255C893.208 255.787 893.342 256.467 893.608 257.04C893.875 257.613 894.248 258.053 894.728 258.36C895.222 258.653 895.808 258.8 896.488 258.8C897.222 258.8 897.815 258.66 898.268 258.38C898.735 258.1 899.108 257.72 899.388 257.24L900.648 257.98C900.395 258.433 900.068 258.827 899.668 259.16C899.282 259.493 898.822 259.753 898.288 259.94C897.768 260.113 897.182 260.2 896.528 260.2ZM905.958 247.16V257.24C905.958 257.733 906.098 258.1 906.378 258.34C906.658 258.58 907.018 258.7 907.458 258.7C907.845 258.7 908.178 258.633 908.458 258.5C908.738 258.367 908.992 258.187 909.218 257.96L909.778 259.3C909.472 259.58 909.105 259.8 908.678 259.96C908.265 260.12 907.785 260.2 907.238 260.2C906.732 260.2 906.258 260.113 905.818 259.94C905.378 259.753 905.025 259.467 904.758 259.08C904.505 258.68 904.372 258.16 904.358 257.52V247.6L905.958 247.16ZM909.598 250V251.38H902.358V250H909.598ZM912.777 248.08C912.417 248.08 912.124 247.973 911.897 247.76C911.684 247.533 911.577 247.24 911.577 246.88C911.577 246.52 911.684 246.233 911.897 246.02C912.124 245.793 912.417 245.68 912.777 245.68C913.137 245.68 913.424 245.793 913.637 246.02C913.864 246.233 913.977 246.52 913.977 246.88C913.977 247.24 913.864 247.533 913.637 247.76C913.424 247.973 913.137 248.08 912.777 248.08ZM913.577 250V260H911.977V250H913.577ZM917.29 260V250H918.69L918.83 252.24L918.57 252.02C918.783 251.487 919.07 251.06 919.43 250.74C919.79 250.407 920.203 250.167 920.67 250.02C921.15 249.873 921.643 249.8 922.15 249.8C922.87 249.8 923.523 249.94 924.11 250.22C924.696 250.487 925.163 250.9 925.51 251.46C925.87 252.02 926.05 252.733 926.05 253.6V260H924.45V254.16C924.45 253.053 924.21 252.287 923.73 251.86C923.263 251.42 922.683 251.2 921.99 251.2C921.51 251.2 921.03 251.313 920.55 251.54C920.07 251.767 919.67 252.133 919.35 252.64C919.043 253.147 918.89 253.827 918.89 254.68V260H917.29ZM938.092 248.16L938.453 249.58C938.439 249.58 938.419 249.58 938.393 249.58C938.366 249.58 938.339 249.58 938.313 249.58C937.659 249.58 937.153 249.713 936.793 249.98C936.446 250.233 936.273 250.647 936.273 251.22L935.293 250.72C935.293 250.2 935.413 249.747 935.653 249.36C935.893 248.973 936.219 248.68 936.633 248.48C937.046 248.267 937.499 248.16 937.993 248.16C938.006 248.16 938.019 248.16 938.033 248.16C938.059 248.16 938.079 248.16 938.092 248.16ZM935.053 258.72C935.999 258.72 936.739 258.94 937.273 259.38C937.806 259.807 938.073 260.38 938.073 261.1C938.073 261.753 937.853 262.32 937.413 262.8C936.986 263.28 936.406 263.647 935.673 263.9C934.953 264.167 934.139 264.3 933.233 264.3C931.659 264.3 930.479 264.033 929.693 263.5C928.919 262.967 928.533 262.327 928.533 261.58C928.533 261.047 928.706 260.567 929.053 260.14C929.413 259.727 930.013 259.493 930.853 259.44L930.713 259.74C930.259 259.62 929.873 259.42 929.553 259.14C929.246 258.847 929.093 258.427 929.093 257.88C929.093 257.333 929.293 256.867 929.693 256.48C930.106 256.08 930.713 255.833 931.513 255.74L932.573 256.28H932.373C931.719 256.347 931.253 256.513 930.973 256.78C930.706 257.033 930.573 257.313 930.573 257.62C930.573 257.993 930.706 258.273 930.973 258.46C931.253 258.633 931.639 258.72 932.133 258.72H935.053ZM933.213 262.96C933.986 262.96 934.619 262.88 935.113 262.72C935.619 262.56 935.993 262.353 936.233 262.1C936.473 261.847 936.593 261.573 936.593 261.28C936.593 260.92 936.446 260.633 936.153 260.42C935.873 260.207 935.359 260.1 934.613 260.1H931.533C931.106 260.1 930.746 260.207 930.452 260.42C930.159 260.647 930.013 260.953 930.013 261.34C930.013 261.833 930.293 262.227 930.853 262.52C931.426 262.813 932.213 262.96 933.213 262.96ZM933.073 249.8C933.873 249.8 934.579 249.947 935.193 250.24C935.819 250.52 936.306 250.913 936.653 251.42C936.999 251.927 937.173 252.513 937.173 253.18C937.173 253.833 936.999 254.42 936.653 254.94C936.306 255.447 935.819 255.847 935.193 256.14C934.579 256.42 933.873 256.56 933.073 256.56C931.753 256.56 930.739 256.247 930.033 255.62C929.326 254.98 928.973 254.167 928.973 253.18C928.973 252.513 929.146 251.927 929.493 251.42C929.853 250.913 930.339 250.52 930.953 250.24C931.566 249.947 932.273 249.8 933.073 249.8ZM933.073 251.1C932.379 251.1 931.799 251.293 931.333 251.68C930.866 252.053 930.633 252.553 930.633 253.18C930.633 253.793 930.866 254.293 931.333 254.68C931.799 255.067 932.379 255.26 933.073 255.26C933.766 255.26 934.346 255.067 934.813 254.68C935.279 254.293 935.513 253.793 935.513 253.18C935.513 252.553 935.279 252.053 934.813 251.68C934.346 251.293 933.766 251.1 933.073 251.1ZM941.117 257.6C941.504 257.6 941.817 257.72 942.057 257.96C942.297 258.2 942.417 258.513 942.417 258.9C942.417 259.287 942.297 259.6 942.057 259.84C941.817 260.08 941.504 260.2 941.117 260.2C940.73 260.2 940.417 260.08 940.177 259.84C939.937 259.6 939.817 259.287 939.817 258.9C939.817 258.513 939.937 258.2 940.177 257.96C940.417 257.72 940.73 257.6 941.117 257.6Z" fill="#2E2E2E"/>
<path id="Sparking growth with creativity" d="M382.92 210.56L382.32 201.6H383.8C384.173 204.027 385.173 205.933 386.8 207.32C388.453 208.68 390.48 209.36 392.88 209.36C394.853 209.36 396.413 208.893 397.56 207.96C398.707 207 399.28 205.733 399.28 204.16C399.28 203.253 399.067 202.453 398.64 201.76C398.24 201.04 397.533 200.347 396.52 199.68C395.507 199.013 394.093 198.293 392.28 197.52C390.067 196.533 388.32 195.6 387.04 194.72C385.787 193.84 384.893 192.893 384.36 191.88C383.853 190.84 383.6 189.64 383.6 188.28C383.6 186.627 383.973 185.16 384.72 183.88C385.493 182.6 386.547 181.6 387.88 180.88C389.24 180.16 390.8 179.8 392.56 179.8C394.8 179.8 396.92 180.587 398.92 182.16L399.96 180.36H400.88L401.32 188.32H399.84C399.2 186.133 398.267 184.507 397.04 183.44C395.84 182.373 394.387 181.84 392.68 181.84C391.053 181.84 389.76 182.253 388.8 183.08C387.84 183.88 387.36 184.947 387.36 186.28C387.36 187.533 387.813 188.613 388.72 189.52C389.627 190.4 391.213 191.347 393.48 192.36C396.12 193.533 398.173 194.613 399.64 195.6C401.133 196.587 402.173 197.6 402.76 198.64C403.347 199.68 403.64 200.907 403.64 202.32C403.64 204.107 403.173 205.68 402.24 207.04C401.333 208.4 400.067 209.467 398.44 210.24C396.813 211.013 394.92 211.4 392.76 211.4C391.24 211.4 389.867 211.187 388.64 210.76C387.44 210.307 386.213 209.587 384.96 208.6L383.84 210.56H382.92ZM406.386 221V219.6C407.453 219.547 408.253 219.4 408.786 219.16C409.346 218.92 409.719 218.467 409.906 217.8C410.119 217.133 410.226 216.16 410.226 214.88V199.92C410.226 198.373 410.199 197.107 410.146 196.12C410.119 195.107 410.053 194.427 409.946 194.08C409.839 193.44 409.533 193.013 409.026 192.8C408.546 192.56 407.639 192.44 406.306 192.44V191.08L413.986 189.56V192.68H414.146C414.999 191.667 415.919 190.867 416.906 190.28C417.893 189.693 419.039 189.4 420.346 189.4C422.373 189.4 424.159 189.88 425.706 190.84C427.279 191.773 428.519 193.08 429.426 194.76C430.333 196.413 430.786 198.307 430.786 200.44C430.786 202.6 430.319 204.507 429.386 206.16C428.479 207.813 427.239 209.107 425.666 210.04C424.093 210.947 422.306 211.4 420.306 211.4C419.079 211.4 417.959 211.2 416.946 210.8C415.959 210.373 415.079 209.693 414.306 208.76H414.146V214.6C414.146 216.013 414.253 217.067 414.466 217.76C414.679 218.453 415.106 218.92 415.746 219.16C416.413 219.4 417.399 219.547 418.706 219.6V221H406.386ZM420.106 209.44C421.919 209.44 423.399 208.667 424.546 207.12C425.693 205.547 426.266 203.373 426.266 200.6C426.266 198.76 425.999 197.147 425.466 195.76C424.933 194.347 424.186 193.253 423.226 192.48C422.266 191.707 421.146 191.32 419.866 191.32C418.906 191.32 418.013 191.547 417.186 192C416.386 192.427 415.719 193.04 415.186 193.84C414.839 194.373 414.573 195.013 414.386 195.76C414.226 196.48 414.146 197.427 414.146 198.6V201.72C414.146 203.16 414.213 204.227 414.346 204.92C414.506 205.613 414.799 206.227 415.226 206.76C415.839 207.587 416.573 208.24 417.426 208.72C418.306 209.2 419.199 209.44 420.106 209.44ZM440.934 199.96L446.694 197.44V195.8C446.694 194.12 446.348 192.893 445.654 192.12C444.988 191.32 443.921 190.92 442.454 190.92C441.601 190.92 440.974 191.093 440.574 191.44C440.201 191.787 439.841 192.48 439.494 193.52C439.201 194.267 438.908 194.773 438.614 195.04C438.348 195.307 437.948 195.44 437.414 195.44C436.081 195.44 435.414 194.773 435.414 193.44C435.414 192.16 436.094 191.173 437.454 190.48C438.814 189.76 440.748 189.4 443.254 189.4C445.948 189.4 447.841 189.867 448.934 190.8C450.054 191.733 450.614 193.347 450.614 195.64V204.6C450.614 206.253 450.774 207.427 451.094 208.12C451.414 208.813 451.921 209.16 452.614 209.16C452.881 209.16 453.188 209.107 453.534 209C453.908 208.867 454.188 208.627 454.374 208.28L454.934 209.24C454.614 209.853 454.028 210.373 453.174 210.8C452.321 211.2 451.428 211.4 450.494 211.4C449.348 211.4 448.481 211.027 447.894 210.28C447.308 209.533 447.014 208.48 447.014 207.12H446.814C446.094 208.427 445.121 209.467 443.894 210.24C442.668 210.987 441.308 211.36 439.814 211.36C438.188 211.36 436.881 210.933 435.894 210.08C434.934 209.2 434.454 208.04 434.454 206.6C434.454 205.347 434.921 204.2 435.854 203.16C436.788 202.093 438.481 201.027 440.934 199.96ZM446.694 202.32V199.16C443.628 200.307 441.494 201.44 440.294 202.56C439.094 203.653 438.494 204.773 438.494 205.92C438.494 206.827 438.788 207.56 439.374 208.12C439.961 208.68 440.708 208.96 441.614 208.96C442.574 208.96 443.441 208.667 444.214 208.08C444.988 207.467 445.588 206.653 446.014 205.64C446.468 204.627 446.694 203.52 446.694 202.32ZM463.763 203.28V204.64C463.763 206.107 463.816 207.187 463.923 207.88C464.056 208.547 464.349 208.987 464.803 209.2C465.283 209.387 466.029 209.52 467.043 209.6V211H456.403V209.6C457.443 209.547 458.203 209.413 458.683 209.2C459.163 208.987 459.469 208.56 459.603 207.92C459.763 207.253 459.843 206.253 459.843 204.92V200.24C459.843 198.427 459.816 197.013 459.763 196C459.709 194.96 459.576 194.213 459.363 193.76C459.149 193.307 458.803 193.027 458.323 192.92C457.843 192.813 457.176 192.76 456.323 192.76V191.36L463.323 189.84L463.883 194.8H464.043C464.763 193.2 465.763 191.907 467.043 190.92C468.323 189.907 469.643 189.4 471.003 189.4C471.856 189.4 472.523 189.613 473.003 190.04C473.509 190.44 473.763 190.987 473.763 191.68C473.763 193.04 472.989 193.72 471.443 193.72C470.883 193.72 470.429 193.64 470.083 193.48C469.736 193.293 469.429 193.12 469.163 192.96C468.896 192.8 468.603 192.72 468.283 192.72C467.563 192.72 466.843 193.187 466.123 194.12C465.403 195.027 464.843 196.187 464.443 197.6C463.989 199.173 463.763 201.067 463.763 203.28ZM474.625 211V209.6C475.692 209.547 476.492 209.4 477.025 209.16C477.585 208.92 477.959 208.467 478.145 207.8C478.359 207.133 478.465 206.173 478.465 204.92V188.16C478.465 186.133 478.439 184.6 478.385 183.56C478.359 182.493 478.225 181.787 477.985 181.44C477.745 181.067 477.345 180.853 476.785 180.8C476.225 180.72 475.479 180.68 474.545 180.68V179.32L482.265 177.8V199.76L485.985 196.12C487.185 194.947 488.079 194.067 488.665 193.48C489.252 192.867 489.545 192.427 489.545 192.16C489.545 191.867 489.265 191.64 488.705 191.48C488.145 191.293 487.345 191.2 486.305 191.2V189.8H496.705V191.2C496.039 191.2 495.479 191.267 495.025 191.4C494.572 191.507 494.119 191.707 493.665 192C493.212 192.293 492.652 192.733 491.985 193.32L486.225 198.44L494.145 207.4C494.652 207.987 495.092 208.44 495.465 208.76C495.865 209.08 496.279 209.307 496.705 209.44C497.159 209.547 497.719 209.6 498.385 209.6V211H487.865V209.6C488.745 209.6 489.345 209.56 489.665 209.48C490.012 209.4 490.185 209.293 490.185 209.16C490.159 208.947 489.945 208.56 489.545 208C489.145 207.44 488.625 206.773 487.985 206L483.745 200.88L482.265 202.28V204.64C482.265 206 482.345 207.04 482.505 207.76C482.692 208.453 483.052 208.92 483.585 209.16C484.119 209.4 484.919 209.547 485.985 209.6V211H474.625ZM503.114 181.28C503.114 180.587 503.354 180 503.834 179.52C504.314 179.04 504.9 178.8 505.594 178.8C506.287 178.8 506.874 179.04 507.354 179.52C507.834 180 508.074 180.587 508.074 181.28C508.074 181.973 507.834 182.56 507.354 183.04C506.874 183.52 506.287 183.76 505.594 183.76C504.9 183.76 504.314 183.52 503.834 183.04C503.354 182.56 503.114 181.973 503.114 181.28ZM507.714 189.4V204.64C507.714 206 507.807 207.04 507.994 207.76C508.18 208.453 508.54 208.92 509.074 209.16C509.607 209.4 510.394 209.547 511.434 209.6V211H499.954V209.6C501.047 209.547 501.86 209.4 502.394 209.16C502.954 208.893 503.327 208.44 503.514 207.8C503.7 207.133 503.794 206.173 503.794 204.92V199.8C503.794 198.253 503.767 196.973 503.714 195.96C503.687 194.947 503.62 194.267 503.514 193.92C503.407 193.307 503.1 192.893 502.594 192.68C502.114 192.44 501.207 192.32 499.874 192.32V190.92L507.714 189.4ZM520.867 199.36V204.72C520.867 206.16 520.92 207.213 521.027 207.88C521.16 208.547 521.467 208.987 521.947 209.2C522.427 209.413 523.173 209.56 524.187 209.64V211H513.707V209.64C514.693 209.56 515.427 209.427 515.907 209.24C516.387 209.027 516.693 208.6 516.827 207.96C516.987 207.32 517.067 206.333 517.067 205V199.68C517.067 196.48 516.987 194.547 516.827 193.88C516.667 193.16 516.387 192.707 515.987 192.52C515.587 192.307 514.8 192.2 513.627 192.2V190.92L520.027 189.4L520.507 193.36H520.667C521.68 192.107 522.867 191.133 524.227 190.44C525.613 189.747 527.093 189.4 528.667 189.4C529.893 189.4 531.013 189.6 532.027 190C533.04 190.4 533.813 190.947 534.347 191.64C534.8 192.253 535.12 193.053 535.307 194.04C535.493 195 535.587 196.333 535.587 198.04V204.72C535.587 206.16 535.653 207.213 535.787 207.88C535.92 208.547 536.213 208.987 536.667 209.2C537.147 209.413 537.867 209.56 538.827 209.64V211H528.467V209.64C529.48 209.587 530.213 209.453 530.667 209.24C531.147 209.027 531.453 208.6 531.587 207.96C531.72 207.293 531.787 206.307 531.787 205V199.72C531.787 196.707 531.44 194.6 530.747 193.4C530.053 192.173 528.88 191.56 527.227 191.56C526.053 191.56 524.96 191.88 523.947 192.52C522.933 193.133 522.147 193.987 521.587 195.08C521.4 195.427 521.253 195.773 521.147 196.12C521.04 196.44 520.96 196.853 520.907 197.36C520.88 197.84 520.867 198.507 520.867 199.36ZM551.325 221.4C548.205 221.4 545.711 220.88 543.845 219.84C542.005 218.8 541.085 217.427 541.085 215.72C541.085 214.627 541.431 213.693 542.125 212.92C542.845 212.173 543.711 211.8 544.725 211.8C545.578 211.8 546.365 212.08 547.085 212.64C546.365 212.8 545.778 213.187 545.325 213.8C544.871 214.44 544.645 215.147 544.645 215.92C544.645 217.12 545.231 218.04 546.405 218.68C547.605 219.32 549.271 219.64 551.405 219.64C555.911 219.64 558.165 218.253 558.165 215.48C558.165 214.387 557.831 213.48 557.165 212.76C556.525 212.067 555.645 211.653 554.525 211.52L547.365 210.64C545.925 210.453 544.805 210.053 544.005 209.44C543.205 208.8 542.805 207.96 542.805 206.92C542.805 205.907 543.178 205.04 543.925 204.32C544.671 203.6 545.658 203.147 546.885 202.96V202.8C545.711 202.32 544.725 201.493 543.925 200.32C543.151 199.12 542.765 197.8 542.765 196.36C542.765 195.027 543.098 193.84 543.765 192.8C544.458 191.76 545.405 190.933 546.605 190.32C547.805 189.707 549.165 189.4 550.685 189.4C551.831 189.4 552.925 189.587 553.965 189.96C555.005 190.307 555.898 190.827 556.645 191.52C557.498 190.747 558.271 190.2 558.965 189.88C559.685 189.56 560.378 189.4 561.045 189.4C561.951 189.4 562.698 189.627 563.285 190.08C563.871 190.507 564.165 191.067 564.165 191.76C564.165 192.24 564.018 192.627 563.725 192.92C563.431 193.187 563.031 193.32 562.525 193.32C562.045 193.32 561.671 193.213 561.405 193C561.138 192.787 560.871 192.587 560.605 192.4C560.338 192.187 559.978 192.08 559.525 192.08C558.911 192.08 558.271 192.307 557.605 192.76C558.245 193.747 558.565 194.973 558.565 196.44C558.565 197.987 558.298 199.24 557.765 200.2C557.231 201.16 556.538 201.907 555.685 202.44C554.831 202.947 553.911 203.32 552.925 203.56C551.938 203.8 550.991 203.973 550.085 204.08C549.258 204.16 548.511 204.24 547.845 204.32C547.205 204.4 546.685 204.533 546.285 204.72C545.911 204.907 545.725 205.24 545.725 205.72C545.725 206.2 545.938 206.533 546.365 206.72C546.818 206.907 547.511 207.053 548.445 207.16L555.205 207.92C557.125 208.133 558.658 208.84 559.805 210.04C560.951 211.24 561.525 212.747 561.525 214.56C561.525 216.72 560.645 218.4 558.885 219.6C557.125 220.8 554.605 221.4 551.325 221.4ZM550.765 202.4C551.885 202.4 552.751 201.893 553.365 200.88C554.005 199.84 554.325 198.413 554.325 196.6C554.325 194.787 554.005 193.387 553.365 192.4C552.751 191.387 551.871 190.88 550.725 190.88C549.578 190.88 548.658 191.4 547.965 192.44C547.298 193.453 546.965 194.827 546.965 196.56C546.965 198.32 547.311 199.733 548.005 200.8C548.698 201.867 549.618 202.4 550.765 202.4ZM586.325 221.4C583.205 221.4 580.711 220.88 578.845 219.84C577.005 218.8 576.085 217.427 576.085 215.72C576.085 214.627 576.431 213.693 577.125 212.92C577.845 212.173 578.711 211.8 579.725 211.8C580.578 211.8 581.365 212.08 582.085 212.64C581.365 212.8 580.778 213.187 580.325 213.8C579.871 214.44 579.645 215.147 579.645 215.92C579.645 217.12 580.231 218.04 581.405 218.68C582.605 219.32 584.271 219.64 586.405 219.64C590.911 219.64 593.165 218.253 593.165 215.48C593.165 214.387 592.831 213.48 592.165 212.76C591.525 212.067 590.645 211.653 589.525 211.52L582.365 210.64C580.925 210.453 579.805 210.053 579.005 209.44C578.205 208.8 577.805 207.96 577.805 206.92C577.805 205.907 578.178 205.04 578.925 204.32C579.671 203.6 580.658 203.147 581.885 202.96V202.8C580.711 202.32 579.725 201.493 578.925 200.32C578.151 199.12 577.765 197.8 577.765 196.36C577.765 195.027 578.098 193.84 578.765 192.8C579.458 191.76 580.405 190.933 581.605 190.32C582.805 189.707 584.165 189.4 585.685 189.4C586.831 189.4 587.925 189.587 588.965 189.96C590.005 190.307 590.898 190.827 591.645 191.52C592.498 190.747 593.271 190.2 593.965 189.88C594.685 189.56 595.378 189.4 596.045 189.4C596.951 189.4 597.698 189.627 598.285 190.08C598.871 190.507 599.165 191.067 599.165 191.76C599.165 192.24 599.018 192.627 598.725 192.92C598.431 193.187 598.031 193.32 597.525 193.32C597.045 193.32 596.671 193.213 596.405 193C596.138 192.787 595.871 192.587 595.605 192.4C595.338 192.187 594.978 192.08 594.525 192.08C593.911 192.08 593.271 192.307 592.605 192.76C593.245 193.747 593.565 194.973 593.565 196.44C593.565 197.987 593.298 199.24 592.765 200.2C592.231 201.16 591.538 201.907 590.685 202.44C589.831 202.947 588.911 203.32 587.925 203.56C586.938 203.8 585.991 203.973 585.085 204.08C584.258 204.16 583.511 204.24 582.845 204.32C582.205 204.4 581.685 204.533 581.285 204.72C580.911 204.907 580.725 205.24 580.725 205.72C580.725 206.2 580.938 206.533 581.365 206.72C581.818 206.907 582.511 207.053 583.445 207.16L590.205 207.92C592.125 208.133 593.658 208.84 594.805 210.04C595.951 211.24 596.525 212.747 596.525 214.56C596.525 216.72 595.645 218.4 593.885 219.6C592.125 220.8 589.605 221.4 586.325 221.4ZM585.765 202.4C586.885 202.4 587.751 201.893 588.365 200.88C589.005 199.84 589.325 198.413 589.325 196.6C589.325 194.787 589.005 193.387 588.365 192.4C587.751 191.387 586.871 190.88 585.725 190.88C584.578 190.88 583.658 191.4 582.965 192.44C582.298 193.453 581.965 194.827 581.965 196.56C581.965 198.32 582.311 199.733 583.005 200.8C583.698 201.867 584.618 202.4 585.765 202.4ZM607.63 203.28V204.64C607.63 206.107 607.683 207.187 607.79 207.88C607.923 208.547 608.217 208.987 608.67 209.2C609.15 209.387 609.897 209.52 610.91 209.6V211H600.27V209.6C601.31 209.547 602.07 209.413 602.55 209.2C603.03 208.987 603.337 208.56 603.47 207.92C603.63 207.253 603.71 206.253 603.71 204.92V200.24C603.71 198.427 603.683 197.013 603.63 196C603.577 194.96 603.443 194.213 603.23 193.76C603.017 193.307 602.67 193.027 602.19 192.92C601.71 192.813 601.043 192.76 600.19 192.76V191.36L607.19 189.84L607.75 194.8H607.91C608.63 193.2 609.63 191.907 610.91 190.92C612.19 189.907 613.51 189.4 614.87 189.4C615.723 189.4 616.39 189.613 616.87 190.04C617.377 190.44 617.63 190.987 617.63 191.68C617.63 193.04 616.857 193.72 615.31 193.72C614.75 193.72 614.297 193.64 613.95 193.48C613.603 193.293 613.297 193.12 613.03 192.96C612.763 192.8 612.47 192.72 612.15 192.72C611.43 192.72 610.71 193.187 609.99 194.12C609.27 195.027 608.71 196.187 608.31 197.6C607.857 199.173 607.63 201.067 607.63 203.28ZM630.383 189.4C632.409 189.4 634.276 189.867 635.983 190.8C637.689 191.733 639.049 193.013 640.063 194.64C641.103 196.267 641.623 198.133 641.623 200.24C641.623 201.867 641.316 203.36 640.703 204.72C640.116 206.08 639.303 207.267 638.263 208.28C637.249 209.267 636.063 210.04 634.703 210.6C633.343 211.133 631.903 211.4 630.383 211.4C628.383 211.4 626.543 210.92 624.863 209.96C623.183 209 621.836 207.68 620.823 206C619.809 204.32 619.303 202.4 619.303 200.24C619.303 198.133 619.809 196.267 620.823 194.64C621.836 193.013 623.183 191.733 624.863 190.8C626.543 189.867 628.383 189.4 630.383 189.4ZM630.383 191.32C629.076 191.32 627.929 191.693 626.943 192.44C625.956 193.187 625.183 194.24 624.623 195.6C624.089 196.933 623.823 198.493 623.823 200.28C623.823 203.027 624.409 205.227 625.583 206.88C626.783 208.533 628.383 209.36 630.383 209.36C632.436 209.36 634.063 208.533 635.263 206.88C636.489 205.227 637.103 203.027 637.103 200.28C637.103 198.493 636.823 196.933 636.263 195.6C635.703 194.267 634.916 193.227 633.903 192.48C632.916 191.707 631.743 191.32 630.383 191.32ZM653.893 211.4H652.413L647.213 194.76C646.92 193.773 646.613 193.027 646.293 192.52C645.973 192.013 645.573 191.667 645.093 191.48C644.64 191.293 644.027 191.2 643.253 191.2V189.8H653.853V191.2C652.813 191.2 652.08 191.32 651.653 191.56C651.227 191.8 651.013 192.213 651.013 192.8C651.013 193.067 651.053 193.387 651.133 193.76C651.213 194.107 651.32 194.547 651.453 195.08L654.173 204.64H654.333L660.213 189.8H661.453L666.773 204.64H666.933L669.333 198.16C669.787 196.96 670.12 196.013 670.333 195.32C670.573 194.627 670.733 194.08 670.813 193.68C670.92 193.28 670.973 192.933 670.973 192.64C670.973 192.053 670.8 191.667 670.453 191.48C670.107 191.293 669.387 191.2 668.293 191.2V189.8H676.293V191.2C675.787 191.2 675.347 191.32 674.973 191.56C674.627 191.8 674.267 192.267 673.893 192.96C673.52 193.653 673.053 194.693 672.493 196.08L666.293 211.4H664.813L659.933 196.64H659.773L653.893 211.4ZM680.836 192.32H678.436V190.84C679.849 189.987 680.956 189.16 681.756 188.36C682.556 187.533 683.169 186.547 683.596 185.4H684.756V190.44H690.116V192.32H684.756V204.48C684.756 206.347 684.943 207.64 685.316 208.36C685.716 209.08 686.449 209.44 687.516 209.44C688.183 209.44 688.756 209.307 689.236 209.04C689.716 208.747 690.169 208.267 690.596 207.6L691.596 208.36C690.823 210.387 689.036 211.4 686.236 211.4C684.476 211.4 683.129 210.973 682.196 210.12C681.289 209.267 680.836 208.067 680.836 206.52V192.32ZM700.273 199.52V204.64C700.273 206.107 700.326 207.187 700.433 207.88C700.566 208.547 700.86 208.987 701.313 209.2C701.793 209.387 702.54 209.52 703.553 209.6V211H692.913V209.6C693.953 209.52 694.713 209.387 695.193 209.2C695.673 208.987 695.98 208.56 696.113 207.92C696.273 207.253 696.353 206.253 696.353 204.92V188.16C696.353 185.147 696.26 183.187 696.073 182.28C695.94 181.613 695.66 181.187 695.233 181C694.833 180.787 694.033 180.68 692.833 180.68V179.32L700.193 177.8V193.04H700.353C701.206 191.947 702.366 191.067 703.833 190.4C705.3 189.733 706.793 189.4 708.313 189.4C709.486 189.4 710.566 189.613 711.553 190.04C712.566 190.44 713.366 191.027 713.953 191.8C714.433 192.413 714.766 193.213 714.953 194.2C715.166 195.187 715.273 196.533 715.273 198.24V204.64C715.273 206.08 715.326 207.147 715.433 207.84C715.566 208.507 715.86 208.947 716.313 209.16C716.793 209.373 717.54 209.52 718.553 209.6V211H707.953V209.6C708.966 209.547 709.713 209.413 710.193 209.2C710.673 208.987 710.98 208.56 711.113 207.92C711.246 207.253 711.313 206.253 711.313 204.92V199.88C711.313 196.893 710.966 194.773 710.273 193.52C709.606 192.24 708.46 191.6 706.833 191.6C705.58 191.6 704.42 191.933 703.353 192.6C702.286 193.24 701.486 194.093 700.953 195.16C700.633 195.8 700.433 196.453 700.353 197.12C700.3 197.787 700.273 198.587 700.273 199.52ZM740.964 211.4H739.484L734.284 194.76C733.99 193.773 733.684 193.027 733.364 192.52C733.044 192.013 732.644 191.667 732.164 191.48C731.71 191.293 731.097 191.2 730.324 191.2V189.8H740.924V191.2C739.884 191.2 739.15 191.32 738.724 191.56C738.297 191.8 738.084 192.213 738.084 192.8C738.084 193.067 738.124 193.387 738.204 193.76C738.284 194.107 738.39 194.547 738.524 195.08L741.244 204.64H741.404L747.284 189.8H748.524L753.844 204.64H754.004L756.404 198.16C756.857 196.96 757.19 196.013 757.404 195.32C757.644 194.627 757.804 194.08 757.884 193.68C757.99 193.28 758.044 192.933 758.044 192.64C758.044 192.053 757.87 191.667 757.524 191.48C757.177 191.293 756.457 191.2 755.364 191.2V189.8H763.364V191.2C762.857 191.2 762.417 191.32 762.044 191.56C761.697 191.8 761.337 192.267 760.964 192.96C760.59 193.653 760.124 194.693 759.564 196.08L753.364 211.4H751.884L747.004 196.64H746.844L740.964 211.4ZM768.426 181.28C768.426 180.587 768.666 180 769.146 179.52C769.626 179.04 770.213 178.8 770.906 178.8C771.6 178.8 772.186 179.04 772.666 179.52C773.146 180 773.386 180.587 773.386 181.28C773.386 181.973 773.146 182.56 772.666 183.04C772.186 183.52 771.6 183.76 770.906 183.76C770.213 183.76 769.626 183.52 769.146 183.04C768.666 182.56 768.426 181.973 768.426 181.28ZM773.026 189.4V204.64C773.026 206 773.12 207.04 773.306 207.76C773.493 208.453 773.853 208.92 774.386 209.16C774.92 209.4 775.706 209.547 776.746 209.6V211H765.266V209.6C766.36 209.547 767.173 209.4 767.706 209.16C768.266 208.893 768.64 208.44 768.826 207.8C769.013 207.133 769.106 206.173 769.106 204.92V199.8C769.106 198.253 769.08 196.973 769.026 195.96C769 194.947 768.933 194.267 768.826 193.92C768.72 193.307 768.413 192.893 767.906 192.68C767.426 192.44 766.52 192.32 765.186 192.32V190.92L773.026 189.4ZM781.539 192.32H779.139V190.84C780.552 189.987 781.659 189.16 782.459 188.36C783.259 187.533 783.872 186.547 784.299 185.4H785.459V190.44H790.819V192.32H785.459V204.48C785.459 206.347 785.646 207.64 786.019 208.36C786.419 209.08 787.152 209.44 788.219 209.44C788.886 209.44 789.459 209.307 789.939 209.04C790.419 208.747 790.872 208.267 791.299 207.6L792.299 208.36C791.526 210.387 789.739 211.4 786.939 211.4C785.179 211.4 783.832 210.973 782.899 210.12C781.992 209.267 781.539 208.067 781.539 206.52V192.32ZM800.976 199.52V204.64C800.976 206.107 801.03 207.187 801.136 207.88C801.27 208.547 801.563 208.987 802.016 209.2C802.496 209.387 803.243 209.52 804.256 209.6V211H793.616V209.6C794.656 209.52 795.416 209.387 795.896 209.2C796.376 208.987 796.683 208.56 796.816 207.92C796.976 207.253 797.056 206.253 797.056 204.92V188.16C797.056 185.147 796.963 183.187 796.776 182.28C796.643 181.613 796.363 181.187 795.936 181C795.536 180.787 794.736 180.68 793.536 180.68V179.32L800.896 177.8V193.04H801.056C801.91 191.947 803.07 191.067 804.536 190.4C806.003 189.733 807.496 189.4 809.016 189.4C810.19 189.4 811.27 189.613 812.256 190.04C813.27 190.44 814.07 191.027 814.656 191.8C815.136 192.413 815.47 193.213 815.656 194.2C815.87 195.187 815.976 196.533 815.976 198.24V204.64C815.976 206.08 816.03 207.147 816.136 207.84C816.27 208.507 816.563 208.947 817.016 209.16C817.496 209.373 818.243 209.52 819.256 209.6V211H808.656V209.6C809.67 209.547 810.416 209.413 810.896 209.2C811.376 208.987 811.683 208.56 811.816 207.92C811.95 207.253 812.016 206.253 812.016 204.92V199.88C812.016 196.893 811.67 194.773 810.976 193.52C810.31 192.24 809.163 191.6 807.536 191.6C806.283 191.6 805.123 191.933 804.056 192.6C802.99 193.24 802.19 194.093 801.656 195.16C801.336 195.8 801.136 196.453 801.056 197.12C801.003 197.787 800.976 198.587 800.976 199.52ZM850.72 206.52L851.92 207.68C850.96 208.827 849.72 209.733 848.2 210.4C846.68 211.067 845.04 211.4 843.28 211.4C841.386 211.4 839.706 210.947 838.24 210.04C836.8 209.133 835.666 207.867 834.84 206.24C834.04 204.613 833.64 202.72 833.64 200.56C833.64 198.293 834.106 196.333 835.04 194.68C835.973 193 837.266 191.707 838.92 190.8C840.6 189.867 842.546 189.4 844.76 189.4C846.813 189.4 848.493 189.733 849.8 190.4C851.133 191.04 851.8 191.88 851.8 192.92C851.8 193.427 851.626 193.84 851.28 194.16C850.933 194.453 850.453 194.6 849.84 194.6C849.36 194.6 848.96 194.493 848.64 194.28C848.32 194.067 847.906 193.627 847.4 192.96C846.893 192.347 846.386 191.92 845.88 191.68C845.373 191.413 844.733 191.28 843.96 191.28C842.093 191.28 840.666 192.013 839.68 193.48C838.693 194.947 838.2 197.107 838.2 199.96C838.2 203 838.746 205.32 839.84 206.92C840.933 208.52 842.506 209.32 844.56 209.32C845.653 209.32 846.706 209.107 847.72 208.68C848.733 208.227 849.733 207.507 850.72 206.52ZM862.005 203.28V204.64C862.005 206.107 862.058 207.187 862.165 207.88C862.298 208.547 862.592 208.987 863.045 209.2C863.525 209.387 864.272 209.52 865.285 209.6V211H854.645V209.6C855.685 209.547 856.445 209.413 856.925 209.2C857.405 208.987 857.712 208.56 857.845 207.92C858.005 207.253 858.085 206.253 858.085 204.92V200.24C858.085 198.427 858.058 197.013 858.005 196C857.952 194.96 857.818 194.213 857.605 193.76C857.392 193.307 857.045 193.027 856.565 192.92C856.085 192.813 855.418 192.76 854.565 192.76V191.36L861.565 189.84L862.125 194.8H862.285C863.005 193.2 864.005 191.907 865.285 190.92C866.565 189.907 867.885 189.4 869.245 189.4C870.098 189.4 870.765 189.613 871.245 190.04C871.752 190.44 872.005 190.987 872.005 191.68C872.005 193.04 871.232 193.72 869.685 193.72C869.125 193.72 868.672 193.64 868.325 193.48C867.978 193.293 867.672 193.12 867.405 192.96C867.138 192.8 866.845 192.72 866.525 192.72C865.805 192.72 865.085 193.187 864.365 194.12C863.645 195.027 863.085 196.187 862.685 197.6C862.232 199.173 862.005 201.067 862.005 203.28ZM891.398 206.16L892.638 207.28C890.371 210.027 887.558 211.4 884.198 211.4C882.118 211.4 880.291 210.947 878.718 210.04C877.144 209.133 875.918 207.88 875.038 206.28C874.158 204.653 873.718 202.773 873.718 200.64C873.718 198.453 874.184 196.52 875.118 194.84C876.051 193.133 877.331 191.8 878.958 190.84C880.611 189.88 882.518 189.4 884.678 189.4C887.238 189.4 889.224 190.107 890.638 191.52C892.078 192.907 892.798 194.907 892.798 197.52C892.798 197.867 892.718 198.093 892.558 198.2C892.424 198.28 892.091 198.32 891.558 198.32H878.398C878.344 198.533 878.304 198.8 878.278 199.12C878.251 199.413 878.238 199.747 878.238 200.12C878.238 201.96 878.531 203.573 879.118 204.96C879.704 206.347 880.531 207.427 881.598 208.2C882.664 208.947 883.904 209.32 885.318 209.32C886.411 209.32 887.451 209.067 888.438 208.56C889.424 208.053 890.411 207.253 891.398 206.16ZM878.678 196.48H886.038C887.131 196.48 887.798 196.413 888.038 196.28C888.304 196.147 888.438 195.84 888.438 195.36C888.438 194.133 888.038 193.16 887.238 192.44C886.438 191.693 885.371 191.32 884.038 191.32C881.158 191.32 879.371 193.04 878.678 196.48ZM902.888 199.96L908.648 197.44V195.8C908.648 194.12 908.301 192.893 907.608 192.12C906.941 191.32 905.874 190.92 904.408 190.92C903.554 190.92 902.928 191.093 902.528 191.44C902.154 191.787 901.794 192.48 901.448 193.52C901.154 194.267 900.861 194.773 900.567 195.04C900.301 195.307 899.901 195.44 899.368 195.44C898.034 195.44 897.368 194.773 897.368 193.44C897.368 192.16 898.048 191.173 899.408 190.48C900.768 189.76 902.701 189.4 905.208 189.4C907.901 189.4 909.794 189.867 910.888 190.8C912.008 191.733 912.568 193.347 912.568 195.64V204.6C912.568 206.253 912.728 207.427 913.048 208.12C913.368 208.813 913.874 209.16 914.568 209.16C914.834 209.16 915.141 209.107 915.488 209C915.861 208.867 916.141 208.627 916.328 208.28L916.888 209.24C916.568 209.853 915.981 210.373 915.128 210.8C914.274 211.2 913.381 211.4 912.448 211.4C911.301 211.4 910.434 211.027 909.848 210.28C909.261 209.533 908.968 208.48 908.968 207.12H908.768C908.048 208.427 907.074 209.467 905.848 210.24C904.621 210.987 903.261 211.36 901.768 211.36C900.141 211.36 898.834 210.933 897.848 210.08C896.888 209.2 896.408 208.04 896.408 206.6C896.408 205.347 896.874 204.2 897.808 203.16C898.741 202.093 900.434 201.027 902.888 199.96ZM908.648 202.32V199.16C905.581 200.307 903.448 201.44 902.248 202.56C901.048 203.653 900.448 204.773 900.448 205.92C900.448 206.827 900.741 207.56 901.328 208.12C901.914 208.68 902.661 208.96 903.568 208.96C904.528 208.96 905.394 208.667 906.168 208.08C906.941 207.467 907.541 206.653 907.968 205.64C908.421 204.627 908.648 203.52 908.648 202.32ZM920.836 192.32H918.436V190.84C919.849 189.987 920.956 189.16 921.756 188.36C922.556 187.533 923.169 186.547 923.596 185.4H924.756V190.44H930.116V192.32H924.756V204.48C924.756 206.347 924.943 207.64 925.316 208.36C925.716 209.08 926.449 209.44 927.516 209.44C928.183 209.44 928.756 209.307 929.236 209.04C929.716 208.747 930.169 208.267 930.596 207.6L931.596 208.36C930.823 210.387 929.036 211.4 926.236 211.4C924.476 211.4 923.129 210.973 922.196 210.12C921.289 209.267 920.836 208.067 920.836 206.52V192.32ZM936.473 181.28C936.473 180.587 936.713 180 937.193 179.52C937.673 179.04 938.26 178.8 938.953 178.8C939.646 178.8 940.233 179.04 940.713 179.52C941.193 180 941.433 180.587 941.433 181.28C941.433 181.973 941.193 182.56 940.713 183.04C940.233 183.52 939.646 183.76 938.953 183.76C938.26 183.76 937.673 183.52 937.193 183.04C936.713 182.56 936.473 181.973 936.473 181.28ZM941.073 189.4V204.64C941.073 206 941.166 207.04 941.353 207.76C941.54 208.453 941.9 208.92 942.433 209.16C942.966 209.4 943.753 209.547 944.793 209.6V211H933.313V209.6C934.406 209.547 935.22 209.4 935.753 209.16C936.313 208.893 936.686 208.44 936.873 207.8C937.06 207.133 937.153 206.173 937.153 204.92V199.8C937.153 198.253 937.126 196.973 937.073 195.96C937.046 194.947 936.98 194.267 936.873 193.92C936.766 193.307 936.46 192.893 935.953 192.68C935.473 192.44 934.566 192.32 933.233 192.32V190.92L941.073 189.4ZM956.311 211.44L949.551 194.76C949.124 193.667 948.737 192.88 948.391 192.4C948.071 191.92 947.697 191.613 947.271 191.48C946.844 191.32 946.284 191.227 945.591 191.2V189.8H956.191V191.2C955.124 191.227 954.404 191.307 954.031 191.44C953.684 191.573 953.511 191.96 953.511 192.6C953.511 193.027 953.564 193.453 953.671 193.88C953.804 194.28 953.937 194.68 954.071 195.08L958.311 206.68H958.471L962.111 198.08C962.671 196.747 963.071 195.68 963.311 194.88C963.551 194.053 963.671 193.347 963.671 192.76C963.671 192.147 963.511 191.733 963.191 191.52C962.871 191.307 962.177 191.2 961.111 191.2V189.8H969.071V191.2C968.644 191.2 968.257 191.307 967.911 191.52C967.564 191.733 967.257 192 966.991 192.32C966.724 192.693 966.431 193.24 966.111 193.96C965.791 194.68 965.497 195.4 965.231 196.12C964.964 196.84 964.724 197.427 964.511 197.88L958.631 211.44H956.311ZM974.325 181.28C974.325 180.587 974.565 180 975.045 179.52C975.525 179.04 976.111 178.8 976.805 178.8C977.498 178.8 978.085 179.04 978.565 179.52C979.045 180 979.285 180.587 979.285 181.28C979.285 181.973 979.045 182.56 978.565 183.04C978.085 183.52 977.498 183.76 976.805 183.76C976.111 183.76 975.525 183.52 975.045 183.04C974.565 182.56 974.325 181.973 974.325 181.28ZM978.925 189.4V204.64C978.925 206 979.018 207.04 979.205 207.76C979.391 208.453 979.751 208.92 980.285 209.16C980.818 209.4 981.605 209.547 982.645 209.6V211H971.165V209.6C972.258 209.547 973.071 209.4 973.605 209.16C974.165 208.893 974.538 208.44 974.725 207.8C974.911 207.133 975.005 206.173 975.005 204.92V199.8C975.005 198.253 974.978 196.973 974.925 195.96C974.898 194.947 974.831 194.267 974.725 193.92C974.618 193.307 974.311 192.893 973.805 192.68C973.325 192.44 972.418 192.32 971.085 192.32V190.92L978.925 189.4ZM987.438 192.32H985.038V190.84C986.451 189.987 987.558 189.16 988.358 188.36C989.158 187.533 989.771 186.547 990.198 185.4H991.358V190.44H996.718V192.32H991.358V204.48C991.358 206.347 991.544 207.64 991.918 208.36C992.318 209.08 993.051 209.44 994.118 209.44C994.784 209.44 995.358 209.307 995.838 209.04C996.318 208.747 996.771 208.267 997.198 207.6L998.198 208.36C997.424 210.387 995.638 211.4 992.838 211.4C991.078 211.4 989.731 210.973 988.798 210.12C987.891 209.267 987.438 208.067 987.438 206.52V192.32ZM1018.51 197.88L1009.79 217.28C1008.57 220.027 1006.66 221.4 1004.07 221.4C1002.39 221.4 1001.55 220.773 1001.55 219.52C1001.55 218.853 1001.78 218.36 1002.23 218.04C1002.71 217.72 1003.58 217.467 1004.83 217.28C1005.93 217.093 1006.75 216.787 1007.31 216.36C1007.9 215.933 1008.45 215.227 1008.95 214.24L1010.35 211.44L1002.67 194.76C1002.22 193.773 1001.82 193.04 1001.47 192.56C1001.15 192.053 1000.79 191.72 1000.39 191.56C999.995 191.373 999.435 191.253 998.715 191.2V189.8H1009.31V191.2C1007.53 191.2 1006.63 191.64 1006.63 192.52C1006.63 192.867 1006.74 193.413 1006.95 194.16C1007.17 194.907 1007.43 195.667 1007.75 196.44L1012.15 207.08H1012.35L1015.99 198.08C1016.47 196.907 1016.83 196.013 1017.07 195.4C1017.31 194.76 1017.47 194.267 1017.55 193.92C1017.63 193.573 1017.67 193.253 1017.67 192.96C1017.67 192.267 1017.47 191.8 1017.07 191.56C1016.7 191.32 1015.97 191.2 1014.87 191.2V189.8H1023.67V191.2C1023.17 191.2 1022.73 191.28 1022.35 191.44C1022.01 191.573 1021.66 191.867 1021.31 192.32C1020.97 192.747 1020.57 193.413 1020.11 194.32C1019.69 195.2 1019.15 196.387 1018.51 197.88Z" fill="#2E2E2E"/>
<path id="Rectangle 151" d="M602 302C602 299.791 603.791 298 606 298H793.2C795.409 298 797.2 299.791 797.2 302V345.2C797.2 347.409 795.409 349.2 793.2 349.2H606C603.791 349.2 602 347.409 602 345.2V302Z" fill="#E76F51"/>
<g id="Find out more">
<path id="Vector" d="M770.577 330.15C769.489 331.469 768.138 332.128 766.526 332.128C765.77 332.128 765.086 332.006 764.471 331.763C763.857 331.507 763.326 331.155 762.878 330.707C762.442 330.246 762.103 329.702 761.86 329.075C761.617 328.435 761.495 327.731 761.495 326.963C761.495 326.182 761.623 325.459 761.879 324.793C762.135 324.128 762.494 323.558 762.954 323.085C763.428 322.611 763.985 322.24 764.625 321.971C765.278 321.702 765.988 321.568 766.756 321.568C767.998 321.568 768.958 321.907 769.636 322.585C770.314 323.251 770.654 324.211 770.654 325.465C770.654 325.645 770.615 325.753 770.538 325.792C770.474 325.83 770.314 325.849 770.058 325.849H763.742C763.716 325.952 763.697 326.08 763.684 326.233C763.671 326.374 763.665 326.534 763.665 326.713C763.665 327.379 763.742 327.987 763.895 328.537C764.062 329.075 764.292 329.536 764.586 329.92C764.894 330.304 765.252 330.605 765.662 330.822C766.084 331.027 766.551 331.129 767.063 331.129C767.601 331.129 768.1 331.014 768.561 330.784C769.022 330.541 769.495 330.15 769.982 329.613L770.577 330.15ZM767.409 324.966C767.665 324.966 767.87 324.96 768.023 324.947C768.177 324.934 768.292 324.909 768.369 324.87C768.446 324.832 768.497 324.781 768.522 324.717C768.548 324.64 768.561 324.544 768.561 324.429C768.561 323.84 768.369 323.373 767.985 323.027C767.614 322.669 767.102 322.489 766.449 322.489C765.066 322.489 764.209 323.315 763.876 324.966H767.409Z" fill="#FFFFFF"/>
<path id="Vector_2" d="M755.873 328.883C755.873 329.408 755.886 329.824 755.911 330.131C755.937 330.438 756.001 330.675 756.103 330.841C756.219 330.995 756.379 331.097 756.583 331.149C756.788 331.2 757.076 331.238 757.447 331.264V331.936H752.34V331.264C752.711 331.251 753.006 331.219 753.223 331.168C753.441 331.104 753.607 330.995 753.723 330.841C753.838 330.688 753.908 330.47 753.934 330.189C753.972 329.894 753.991 329.504 753.991 329.017V326.771C753.991 325.901 753.979 325.222 753.953 324.736C753.94 324.249 753.876 323.891 753.761 323.661C753.659 323.43 753.492 323.296 753.262 323.257C753.031 323.206 752.711 323.181 752.302 323.181V322.509L755.662 321.779L755.931 324.16H756.007C756.174 323.776 756.379 323.424 756.622 323.104C756.878 322.784 757.153 322.515 757.447 322.297C757.742 322.067 758.049 321.888 758.369 321.76C758.689 321.632 759.015 321.568 759.348 321.568C759.758 321.568 760.078 321.67 760.308 321.875C760.551 322.067 760.673 322.329 760.673 322.662C760.673 322.969 760.577 323.213 760.385 323.392C760.193 323.558 759.918 323.641 759.559 323.641C759.355 323.641 759.182 323.616 759.041 323.565C758.9 323.513 758.772 323.462 758.657 323.411C758.555 323.347 758.452 323.289 758.35 323.238C758.26 323.187 758.158 323.161 758.043 323.161C757.697 323.161 757.351 323.385 757.006 323.833C756.66 324.269 756.391 324.825 756.199 325.504C756.097 325.875 756.014 326.297 755.95 326.771C755.899 327.232 755.873 327.718 755.873 328.23V328.883Z" fill="#FFFFFF"/>
<path id="Vector_3" d="M745.288 321.568C746.018 321.568 746.709 321.702 747.362 321.971C748.015 322.227 748.584 322.585 749.071 323.046C749.57 323.507 749.96 324.057 750.242 324.697C750.536 325.325 750.683 326.016 750.683 326.771C750.683 327.552 750.536 328.269 750.242 328.921C749.96 329.574 749.57 330.137 749.071 330.611C748.584 331.085 748.015 331.456 747.362 331.725C746.709 331.993 746.018 332.128 745.288 332.128C744.571 332.128 743.887 332 743.234 331.744C742.594 331.475 742.031 331.104 741.544 330.63C741.058 330.157 740.674 329.593 740.392 328.941C740.111 328.275 739.97 327.552 739.97 326.771C739.97 326.016 740.111 325.318 740.392 324.678C740.674 324.038 741.058 323.488 741.544 323.027C742.031 322.566 742.594 322.208 743.234 321.952C743.887 321.696 744.571 321.568 745.288 321.568ZM745.288 322.489C744.815 322.489 744.379 322.592 743.983 322.797C743.599 323.001 743.266 323.296 742.984 323.68C742.715 324.051 742.504 324.505 742.351 325.043C742.21 325.568 742.139 326.15 742.139 326.79C742.139 327.456 742.21 328.057 742.351 328.595C742.504 329.133 742.715 329.593 742.984 329.977C743.266 330.349 743.599 330.637 743.983 330.841C744.367 331.046 744.802 331.149 745.288 331.149C745.775 331.149 746.216 331.046 746.613 330.841C747.01 330.637 747.349 330.342 747.631 329.958C747.912 329.574 748.13 329.113 748.283 328.576C748.437 328.038 748.514 327.443 748.514 326.79C748.514 326.15 748.437 325.568 748.283 325.043C748.13 324.518 747.912 324.07 747.631 323.699C747.349 323.315 747.01 323.021 746.613 322.816C746.216 322.598 745.775 322.489 745.288 322.489Z" fill="#FFFFFF"/>
<path id="Vector_4" d="M722.685 328.864C722.685 329.401 722.698 329.824 722.724 330.131C722.749 330.438 722.813 330.675 722.916 330.841C723.031 330.995 723.191 331.097 723.396 331.149C723.601 331.2 723.889 331.238 724.26 331.264V331.936H719.153V331.264C719.524 331.238 719.818 331.2 720.036 331.149C720.253 331.097 720.42 330.995 720.535 330.841C720.65 330.688 720.721 330.47 720.746 330.189C720.785 329.894 720.804 329.504 720.804 329.017V326.56C720.804 325.83 720.791 325.222 720.765 324.736C720.753 324.249 720.721 323.917 720.669 323.737C720.631 323.571 720.586 323.443 720.535 323.353C720.484 323.251 720.401 323.174 720.285 323.123C720.17 323.059 720.017 323.021 719.825 323.008C719.645 322.982 719.409 322.969 719.114 322.969V322.297L722.244 321.568L722.493 323.488H722.589C723.165 322.835 723.767 322.355 724.394 322.048C725.034 321.728 725.738 321.568 726.506 321.568C727.313 321.568 727.991 321.734 728.541 322.067C729.092 322.387 729.476 322.854 729.693 323.469H729.77C730.244 322.867 730.82 322.4 731.498 322.067C732.177 321.734 732.9 321.568 733.668 321.568C734.269 321.568 734.813 321.67 735.3 321.875C735.799 322.067 736.177 322.336 736.433 322.681C736.663 322.976 736.823 323.366 736.913 323.853C737.015 324.326 737.066 324.979 737.066 325.811V328.864C737.066 329.389 737.079 329.805 737.105 330.112C737.143 330.419 737.213 330.656 737.316 330.822C737.418 330.989 737.572 331.097 737.777 331.149C737.994 331.2 738.289 331.238 738.66 331.264V331.936H733.553V331.264C733.911 331.251 734.199 331.219 734.417 331.168C734.634 331.104 734.801 330.995 734.916 330.841C735.031 330.675 735.101 330.451 735.127 330.169C735.165 329.888 735.185 329.504 735.185 329.017V326.598C735.185 325.869 735.146 325.254 735.069 324.755C734.993 324.243 734.865 323.833 734.685 323.526C734.506 323.206 734.269 322.976 733.975 322.835C733.693 322.694 733.348 322.624 732.938 322.624C732.375 322.624 731.844 322.784 731.345 323.104C730.858 323.411 730.474 323.827 730.193 324.352C730.129 324.48 730.071 324.608 730.02 324.736C729.981 324.851 729.949 324.985 729.924 325.139C729.898 325.28 729.879 325.453 729.866 325.657C729.866 325.862 729.866 326.118 729.866 326.425V328.864C729.866 329.389 729.879 329.805 729.905 330.112C729.93 330.419 729.994 330.656 730.097 330.822C730.212 330.989 730.378 331.097 730.596 331.149C730.813 331.2 731.108 331.238 731.479 331.264V331.936H726.372V331.264C726.73 331.238 727.018 331.2 727.236 331.149C727.453 331.097 727.613 330.995 727.716 330.841C727.831 330.688 727.901 330.47 727.927 330.189C727.965 329.894 727.985 329.504 727.985 329.017V326.598C727.985 325.856 727.946 325.235 727.869 324.736C727.793 324.224 727.665 323.814 727.485 323.507C727.319 323.187 727.095 322.963 726.813 322.835C726.532 322.694 726.186 322.624 725.777 322.624C725.201 322.624 724.657 322.784 724.145 323.104C723.645 323.411 723.268 323.827 723.012 324.352C722.948 324.48 722.89 324.608 722.839 324.736C722.801 324.851 722.769 324.985 722.743 325.139C722.717 325.28 722.698 325.453 722.685 325.657C722.685 325.862 722.685 326.118 722.685 326.425V328.864Z" fill="#FFFFFF"/>
<path id="Vector_5" d="M706.441 322.97V322.259C707.12 321.862 707.651 321.466 708.035 321.069C708.419 320.672 708.713 320.198 708.918 319.648H709.475V322.067H712.048V322.97H709.475V328.806C709.475 329.254 709.494 329.632 709.533 329.939C709.584 330.246 709.661 330.496 709.763 330.688C709.865 330.867 710 330.995 710.166 331.072C710.333 331.149 710.544 331.187 710.8 331.187C711.12 331.187 711.389 331.123 711.606 330.995C711.837 330.854 712.061 330.624 712.278 330.304L712.758 330.669C712.579 331.142 712.265 331.507 711.817 331.763C711.382 332.006 710.838 332.128 710.185 332.128C709.341 332.128 708.694 331.93 708.246 331.533C707.811 331.123 707.593 330.541 707.593 329.786V322.97H706.441Z" fill="#FFFFFF"/>
<path id="Vector_6" d="M701.7 324.832C701.7 324.307 701.687 323.898 701.662 323.603C701.636 323.296 701.566 323.066 701.451 322.912C701.348 322.746 701.188 322.637 700.971 322.586C700.766 322.522 700.478 322.471 700.107 322.432V321.76H703.582V327.655C703.582 328.384 703.588 328.979 703.601 329.44C703.627 329.901 703.659 330.247 703.697 330.477C703.723 330.643 703.761 330.778 703.812 330.88C703.876 330.97 703.966 331.047 704.081 331.111C704.196 331.162 704.343 331.2 704.523 331.226C704.715 331.239 704.958 331.245 705.252 331.245V331.917L702.084 332.147L701.873 329.843H701.796C701.31 330.637 700.747 331.219 700.107 331.591C699.479 331.949 698.82 332.128 698.129 332.128C697.591 332.128 697.067 332.026 696.555 331.821C696.055 331.616 695.678 331.341 695.422 330.995C695.204 330.714 695.044 330.323 694.942 329.824C694.852 329.325 694.807 328.679 694.807 327.885V324.832C694.807 324.307 694.795 323.898 694.769 323.603C694.743 323.296 694.673 323.066 694.558 322.912C694.455 322.746 694.295 322.637 694.078 322.586C693.873 322.522 693.585 322.471 693.214 322.432V321.76H696.689V327.002C696.689 328.397 696.849 329.408 697.169 330.035C697.502 330.663 698.027 330.976 698.743 330.976C699.87 330.976 700.747 330.24 701.374 328.768C701.438 328.615 701.489 328.474 701.527 328.346C701.566 328.218 701.598 328.077 701.623 327.923C701.649 327.77 701.668 327.597 701.681 327.405C701.694 327.213 701.7 326.983 701.7 326.714V324.832Z" fill="#FFFFFF"/>
<path id="Vector_7" d="M686.488 321.568C687.218 321.568 687.909 321.702 688.562 321.971C689.215 322.227 689.784 322.585 690.271 323.046C690.77 323.507 691.16 324.057 691.442 324.697C691.736 325.325 691.884 326.016 691.884 326.771C691.884 327.552 691.736 328.269 691.442 328.921C691.16 329.574 690.77 330.137 690.271 330.611C689.784 331.085 689.215 331.456 688.562 331.725C687.909 331.993 687.218 332.128 686.488 332.128C685.772 332.128 685.087 332 684.434 331.744C683.794 331.475 683.231 331.104 682.744 330.63C682.258 330.157 681.874 329.593 681.592 328.941C681.311 328.275 681.17 327.552 681.17 326.771C681.17 326.016 681.311 325.318 681.592 324.678C681.874 324.038 682.258 323.488 682.744 323.027C683.231 322.566 683.794 322.208 684.434 321.952C685.087 321.696 685.772 321.568 686.488 321.568ZM686.488 322.489C686.015 322.489 685.58 322.592 685.183 322.797C684.799 323.001 684.466 323.296 684.184 323.68C683.916 324.051 683.704 324.505 683.551 325.043C683.41 325.568 683.34 326.15 683.34 326.79C683.34 327.456 683.41 328.057 683.551 328.595C683.704 329.133 683.916 329.593 684.184 329.977C684.466 330.349 684.799 330.637 685.183 330.841C685.567 331.046 686.002 331.149 686.488 331.149C686.975 331.149 687.416 331.046 687.813 330.841C688.21 330.637 688.549 330.342 688.831 329.958C689.112 329.574 689.33 329.113 689.484 328.576C689.637 328.038 689.714 327.443 689.714 326.79C689.714 326.15 689.637 325.568 689.484 325.043C689.33 324.518 689.112 324.07 688.831 323.699C688.549 323.315 688.21 323.021 687.813 322.816C687.416 322.598 686.975 322.489 686.488 322.489Z" fill="#FFFFFF"/>
<path id="Vector_8" d="M671.072 330.323H670.996C670.535 330.976 670.042 331.443 669.517 331.725C669.005 331.994 668.397 332.128 667.693 332.128C666.964 332.128 666.292 332 665.677 331.744C665.076 331.475 664.551 331.11 664.103 330.65C663.668 330.176 663.322 329.613 663.066 328.96C662.823 328.307 662.701 327.597 662.701 326.829C662.701 326.074 662.823 325.376 663.066 324.736C663.322 324.083 663.668 323.526 664.103 323.066C664.551 322.592 665.082 322.227 665.696 321.971C666.311 321.702 666.976 321.568 667.693 321.568C668.308 321.568 668.852 321.67 669.325 321.875C669.812 322.08 670.279 322.406 670.727 322.854V320.896C670.727 320.166 670.714 319.558 670.688 319.072C670.676 318.586 670.65 318.253 670.612 318.074C670.548 317.792 670.368 317.594 670.074 317.478C669.78 317.363 669.3 317.306 668.634 317.306V316.73L672.57 316V327.078C672.57 327.962 672.576 328.691 672.589 329.267C672.602 329.83 672.64 330.234 672.704 330.477C672.743 330.63 672.788 330.758 672.839 330.861C672.903 330.963 672.986 331.046 673.088 331.11C673.204 331.162 673.351 331.2 673.53 331.226C673.722 331.251 673.965 331.264 674.26 331.264V331.917L671.072 332.128V330.323ZM670.688 326.08C670.688 325.414 670.65 324.909 670.573 324.563C670.509 324.218 670.375 323.917 670.17 323.661C669.876 323.277 669.498 322.989 669.037 322.797C668.589 322.592 668.141 322.49 667.693 322.49C666.772 322.49 666.068 322.874 665.581 323.642C665.108 324.397 664.871 325.427 664.871 326.733C664.871 327.411 664.928 328.026 665.044 328.576C665.172 329.126 665.351 329.6 665.581 329.997C665.824 330.381 666.119 330.682 666.464 330.899C666.823 331.104 667.232 331.206 667.693 331.206C667.924 331.206 668.154 331.181 668.384 331.13C668.628 331.078 668.858 331.002 669.076 330.899C669.306 330.784 669.517 330.656 669.709 330.515C669.901 330.362 670.061 330.189 670.189 329.997C670.368 329.715 670.496 329.376 670.573 328.979C670.65 328.582 670.688 328.038 670.688 327.347V326.08Z" fill="#FFFFFF"/>
<path id="Vector_9" d="M652.689 328.921C652.689 329.446 652.702 329.862 652.727 330.169C652.753 330.464 652.817 330.694 652.919 330.861C653.035 331.014 653.195 331.117 653.399 331.168C653.617 331.219 653.911 331.257 654.283 331.283V331.936H649.252V331.283C649.611 331.257 649.892 331.219 650.097 331.168C650.315 331.117 650.481 331.014 650.596 330.861C650.711 330.707 650.782 330.489 650.807 330.208C650.846 329.926 650.865 329.542 650.865 329.056V326.502C650.865 324.979 650.827 324.051 650.75 323.718C650.711 323.552 650.66 323.417 650.596 323.315C650.545 323.2 650.462 323.117 650.347 323.065C650.231 323.001 650.084 322.963 649.905 322.95C649.726 322.925 649.495 322.912 649.214 322.912V322.297L652.286 321.568L652.516 323.469H652.593C653.079 322.867 653.649 322.4 654.302 322.067C654.955 321.734 655.665 321.568 656.433 321.568C657.022 321.568 657.559 321.664 658.046 321.856C658.532 322.048 658.903 322.31 659.159 322.643C659.377 322.937 659.531 323.321 659.62 323.795C659.71 324.256 659.755 324.896 659.755 325.715V328.921C659.755 329.446 659.767 329.862 659.793 330.169C659.831 330.464 659.902 330.694 660.004 330.861C660.107 331.014 660.26 331.117 660.465 331.168C660.683 331.219 660.964 331.257 661.31 331.283V331.936H656.337V331.283C656.695 331.27 656.977 331.238 657.182 331.187C657.399 331.123 657.559 331.014 657.662 330.861C657.777 330.707 657.847 330.489 657.873 330.208C657.911 329.913 657.931 329.529 657.931 329.056V326.521C657.931 325.792 657.892 325.177 657.815 324.678C657.739 324.179 657.611 323.776 657.431 323.469C657.265 323.161 657.041 322.944 656.759 322.816C656.478 322.675 656.139 322.605 655.742 322.605C655.166 322.605 654.635 322.758 654.148 323.065C653.675 323.36 653.303 323.769 653.035 324.294C652.971 324.422 652.913 324.544 652.862 324.659C652.823 324.774 652.791 324.909 652.766 325.062C652.74 325.216 652.721 325.395 652.708 325.6C652.695 325.792 652.689 326.041 652.689 326.349V328.921Z" fill="#FFFFFF"/>
<path id="Vector_10" d="M646.376 328.883C646.376 329.382 646.395 329.786 646.433 330.093C646.484 330.387 646.574 330.624 646.702 330.803C646.83 330.97 647.009 331.085 647.24 331.149C647.47 331.213 647.777 331.251 648.161 331.264V331.936H642.651V331.264C643.035 331.251 643.348 331.213 643.592 331.149C643.835 331.072 644.02 330.957 644.148 330.803C644.289 330.637 644.379 330.413 644.417 330.131C644.468 329.837 644.494 329.466 644.494 329.018V326.56C644.494 325.818 644.481 325.21 644.456 324.736C644.443 324.25 644.411 323.917 644.36 323.738C644.296 323.443 644.148 323.245 643.918 323.142C643.688 323.027 643.252 322.97 642.612 322.97V322.298L646.376 321.568V328.883ZM644.168 317.67C644.168 317.338 644.283 317.056 644.513 316.826C644.744 316.595 645.025 316.48 645.358 316.48C645.691 316.48 645.972 316.595 646.203 316.826C646.433 317.056 646.548 317.338 646.548 317.67C646.548 318.003 646.433 318.285 646.203 318.515C645.972 318.746 645.691 318.861 645.358 318.861C645.025 318.861 644.744 318.746 644.513 318.515C644.283 318.285 644.168 318.003 644.168 317.67Z" fill="#FFFFFF"/>
<path id="Vector_11" d="M634.128 328.883C634.128 329.369 634.154 329.766 634.205 330.073C634.269 330.368 634.397 330.598 634.589 330.765C634.781 330.918 635.05 331.027 635.395 331.091C635.754 331.155 636.221 331.193 636.797 331.206V331.936H630V331.206C630.448 331.193 630.806 331.155 631.075 331.091C631.357 331.027 631.574 330.918 631.728 330.765C631.882 330.611 631.984 330.393 632.035 330.112C632.086 329.83 632.112 329.465 632.112 329.017V320.07C632.112 319.622 632.086 319.264 632.035 318.995C631.997 318.713 631.907 318.496 631.766 318.342C631.638 318.176 631.446 318.067 631.19 318.016C630.934 317.952 630.602 317.907 630.192 317.881V317.152H641.29L641.501 320.819H640.829C640.752 320.269 640.63 319.821 640.464 319.475C640.298 319.117 640.061 318.835 639.754 318.63C639.459 318.425 639.082 318.285 638.621 318.208C638.16 318.118 637.584 318.073 636.893 318.073H634.454C634.237 318.073 634.128 318.182 634.128 318.4V324.198C634.742 324.198 635.267 324.166 635.702 324.102C636.15 324.025 636.515 323.897 636.797 323.718C637.091 323.539 637.315 323.296 637.469 322.989C637.622 322.681 637.718 322.285 637.757 321.798H638.429V327.424H637.757C637.693 326.937 637.59 326.534 637.45 326.214C637.309 325.894 637.098 325.645 636.816 325.465C636.547 325.286 636.195 325.158 635.76 325.081C635.325 325.005 634.781 324.966 634.128 324.966V328.883Z" fill="#FFFFFF"/>
</g>
<path id="Vector (Stroke)" class="doodle" d="M216.899 256.749C235.94 254.786 243.328 265.635 237.709 290.476C234.974 302.824 228.975 318.721 224.253 333.149C219.515 347.623 216.054 360.637 218.254 367.467C220.434 374.272 228.236 375.009 237.854 373.843C242.661 373.259 247.906 372.204 253.115 371.203C258.318 370.203 263.484 369.258 268.106 368.907C286.592 367.502 296.387 375.654 301.137 379.798L306.021 383.861C306.146 383.965 305.951 384.376 305.586 384.779C305.22 385.182 304.822 385.424 304.697 385.32L299.813 381.257L299.812 381.256C295.065 377.115 285.324 369.018 266.969 370.413C262.381 370.761 257.246 371.7 252.041 372.7C246.842 373.699 241.572 374.76 236.74 375.346C227.078 376.518 219.102 375.801 216.87 368.833C214.623 361.858 218.164 348.623 222.903 334.144C227.658 319.619 233.61 303.859 236.329 291.583L236.329 291.581C241.885 267.016 234.587 256.314 215.776 258.254C206.348 259.226 194.025 263.352 182.401 266.647C170.806 269.935 159.921 272.39 153.535 269.923L153.536 269.922C147.095 267.508 145.195 260.134 144.814 251.146C144.624 246.65 144.813 241.742 145.009 236.84C145.205 231.934 145.408 227.034 145.248 222.537L145.247 222.535C144.708 204.444 138.392 192.588 129.88 183.179L129.879 183.178C121.468 173.659 110.731 166.686 86.6536 174.508L86.6527 174.508C80.62 176.458 73.7294 179.347 66.6423 182.442C59.565 185.532 52.2805 188.832 45.509 191.576C31.9786 197.059 20.3266 200.397 16.2229 195.406C12.141 190.437 15.5736 177.244 20.1353 162.899C24.7178 148.49 30.4394 132.913 31.1744 122.8C32.6407 102.626 13.9427 104.402 4.63566 105.229L-4.79446 106.135C-5.02352 106.157 -4.95664 105.837 -4.64548 105.422C-4.33435 105.006 -3.89655 104.652 -3.66748 104.629L5.7623 103.724L5.76367 103.724C15.0461 102.899 34.064 101.056 32.5723 121.58C31.8283 131.817 26.0368 147.59 21.4883 161.893C16.9191 176.26 13.6031 189.142 17.5701 193.971C21.5497 198.811 32.897 195.608 46.4065 190.133C53.155 187.399 60.4009 184.116 67.5045 181.014C74.5982 177.916 81.5391 175.004 87.6292 173.036C111.974 165.127 122.793 172.198 131.223 181.738C139.754 191.168 146.104 203.071 146.647 221.26C146.808 225.779 146.604 230.699 146.408 235.601C146.212 240.506 146.023 245.394 146.213 249.867C146.592 258.814 148.483 266.063 154.806 268.432L154.807 268.433C161.085 270.859 171.82 268.452 183.41 265.166C194.972 261.888 207.401 257.729 216.899 256.749Z" fill="#2E2E2E" fill-opacity="0.4"/>
<path id="Vector_12" class="doodle" d="M985.965 476.846H975.406V466.287C975.406 463.36 973.045 461 970.118 461C967.191 461 964.831 463.36 964.831 466.287V476.846H954.287C951.36 476.846 949 479.191 949 482.118C949 485.045 951.36 487.406 954.287 487.406H964.846V497.98C964.846 500.907 967.207 503.268 970.134 503.268C973.061 503.268 975.421 500.907 975.421 497.98V487.406H985.98C988.907 487.406 991.252 485.045 991.252 482.118C991.252 479.191 988.892 476.846 985.965 476.846Z" fill="#E76F51" fill-opacity="0.4"/>
<path id="Vector_13" class="doodle" d="M1176.5 468C1164.62 468 1155 458.596 1155 446.997C1155 435.399 1164.62 426 1176.5 426C1188.38 426 1198 435.399 1198 446.997C1198 458.595 1188.38 468 1176.5 468Z" fill="#264653" fill-opacity="0.4"/>
<path id="Vector_14" class="doodle" d="M478.42 81H455.58C453.603 81 452 82.6028 452 84.58V87.42C452 89.3972 453.603 91 455.58 91H478.42C480.397 91 482 89.3972 482 87.42V84.58C482 82.6028 480.397 81 478.42 81Z" fill="#264653" fill-opacity="0.4"/>
<path id="Vector_15" class="doodle" d="M1241.05 236.554H1211.23L1232.31 215.468L1224.58 207.734L1203.49 228.82V199H1192.55V228.82L1171.47 207.734L1163.73 215.468L1184.82 236.554H1155V247.492H1184.82L1163.73 268.578L1171.47 276.313L1192.55 255.227V285.047H1203.49V255.227L1224.58 276.313L1232.31 268.578L1211.23 247.492H1241.05V236.554Z" fill="#264653" fill-opacity="0.4"/>
<path id="Vector_16" class="doodle" d="M423 447H405V465H423V447Z" fill="#E76F51" fill-opacity="0.4"/>
<path id="Vector (Stroke)_2" class="doodle" d="M1002.14 49.5033C1017.77 38.4441 1029.53 44.2687 1036.83 68.6686C1040.51 80.768 1043.09 97.5629 1046.06 112.451C1049.04 127.386 1052.41 140.423 1057.68 145.293C1062.92 150.151 1070.08 146.963 1077.89 141.224C1081.79 138.356 1085.84 134.862 1089.88 131.432C1093.93 128.006 1097.96 124.647 1101.82 122.072C1117.23 111.772 1129.77 114.065 1135.94 115.343L1142.19 116.484C1142.35 116.513 1142.38 116.967 1142.26 117.498C1142.14 118.028 1141.91 118.435 1141.75 118.406L1135.5 117.264L1135.5 117.264C1129.33 115.987 1116.87 113.715 1101.57 123.942C1097.74 126.498 1093.73 129.837 1089.68 133.263C1085.65 136.686 1081.58 140.198 1077.65 143.081C1069.81 148.846 1062.51 152.137 1057.15 147.162C1051.76 142.189 1048.35 128.921 1045.37 113.98C1042.38 98.9917 1039.83 82.3396 1036.17 70.3103L1036.17 70.3085C1028.95 46.1799 1017.34 40.4396 1001.9 51.3655C994.166 56.8416 985.456 66.4857 976.948 75.0636C968.46 83.6201 960.183 91.1039 953.409 92.0894L953.408 92.0886C946.612 93.1476 941.337 87.656 936.592 80.0126C934.219 76.19 931.974 71.8212 929.737 67.454C927.5 63.0836 925.271 58.7153 922.923 54.8762L922.923 54.8752C913.57 39.3792 902.247 32.1515 890.212 28.1338L890.211 28.1336C878.21 23.9699 865.432 23.1663 848.297 41.8022L848.296 41.8029C843.998 46.463 839.414 52.3636 834.759 58.5392C830.111 64.7062 825.385 71.1573 820.833 76.8724C811.737 88.2919 803.225 96.9204 797.2 94.5876C791.204 92.2625 787.717 79.0835 784.648 64.3471C781.566 49.5439 778.903 33.1646 774.578 23.9936C765.951 5.69859 750.533 16.4255 742.831 21.7156L735.06 27.1347C734.872 27.2664 734.773 26.9553 734.84 26.4405C734.907 25.9257 735.115 25.4017 735.303 25.2701L743.074 19.8517L743.075 19.8512C750.757 14.5752 766.42 3.6323 775.197 22.2446C779.574 31.5277 782.273 48.1126 785.333 62.8061C788.406 77.5662 791.842 90.4162 797.669 92.6758C803.512 94.938 811.825 86.5765 820.906 75.1747C825.443 69.479 830.143 63.0615 834.809 56.8716C839.468 50.6903 844.085 44.7457 848.424 40.0412C865.75 21.1987 878.647 22.0463 890.674 26.2188C902.736 30.2457 914.112 37.4976 923.515 53.0775C925.874 56.9348 928.112 61.3214 930.348 65.688C932.586 70.0579 934.821 74.4085 937.182 78.2121C941.906 85.8205 947.112 91.2071 953.783 90.1668L953.784 90.1671C960.445 89.1981 968.615 81.8307 977.099 73.2774C985.562 64.7454 994.348 55.0199 1002.14 49.5033Z" fill="#2E2E2E" fill-opacity="0.4"/>
</g>
<defs>
<clipPath id="clip0_1273_61">
<rect width="1400" height="538.335" fill="white"/>
</clipPath>
</defs>
</svg>
