<svg width="952" height="413" viewBox="0 0 952 413" fill="none" xmlns="http://www.w3.org/2000/svg">
<rect y="3" width="300" height="178" rx="50" fill="#E5E3DC"/>
<rect x="326" width="300" height="178" rx="50" fill="#E5E3DC"/>
<rect x="163" y="235" width="300" height="178" rx="50" fill="#E5E3DC"/>
<rect x="489" y="232" width="300" height="178" rx="50" fill="#E5E3DC"/>
<rect x="652" y="3" width="300" height="178" rx="50" fill="#E5E3DC"/>
<ellipse cx="55.5" cy="55.8528" rx="26.5" ry="25.8528" fill="#495A58"/>
<path d="M104.875 54V53C105.425 52.9833 105.867 52.9417 106.2 52.875C106.55 52.7917 106.817 52.65 107 52.45C107.2 52.2333 107.333 51.95 107.4 51.6C107.467 51.2333 107.5 50.75 107.5 50.15V38.6C107.5 38.0167 107.475 37.55 107.425 37.2C107.375 36.8333 107.267 36.55 107.1 36.35C106.933 36.1333 106.7 35.9917 106.4 35.925C106.117 35.8417 105.742 35.7833 105.275 35.75V34.75H114.775C116.375 34.75 117.85 35 119.2 35.5C120.55 36 121.717 36.6917 122.7 37.575C123.683 38.4583 124.45 39.5083 125 40.725C125.55 41.9417 125.825 43.2667 125.825 44.7C125.825 46.0667 125.567 47.325 125.05 48.475C124.533 49.6083 123.808 50.5833 122.875 51.4C121.958 52.2167 120.85 52.8583 119.55 53.325C118.267 53.775 116.85 54 115.3 54H104.875ZM111.6 36.275C111.317 36.275 111.175 36.4167 111.175 36.7V49.625C111.175 50.5917 111.475 51.3083 112.075 51.775C112.675 52.2417 113.6 52.475 114.85 52.475C117.033 52.475 118.708 51.8167 119.875 50.5C121.058 49.1833 121.65 47.2667 121.65 44.75C121.65 43.4167 121.492 42.225 121.175 41.175C120.858 40.125 120.4 39.2417 119.8 38.525C119.2 37.7917 118.467 37.2333 117.6 36.85C116.75 36.4667 115.792 36.275 114.725 36.275H111.6ZM133.399 49.9C133.399 50.5667 133.424 51.1 133.474 51.5C133.524 51.9 133.624 52.2083 133.774 52.425C133.924 52.6417 134.14 52.7917 134.424 52.875C134.707 52.9417 135.09 52.9833 135.574 53V54H127.699V53C128.165 52.9833 128.54 52.9333 128.824 52.85C129.124 52.75 129.349 52.6 129.499 52.4C129.665 52.1833 129.774 51.8917 129.824 51.525C129.89 51.1417 129.924 50.6583 129.924 50.075V47C129.924 46.0333 129.907 45.2417 129.874 44.625C129.84 43.9917 129.799 43.5583 129.749 43.325C129.665 42.9083 129.474 42.6333 129.174 42.5C128.89 42.3667 128.365 42.3 127.599 42.3V41.45L133.399 40.5V49.9ZM129.724 35.2C129.724 34.65 129.907 34.1917 130.274 33.825C130.657 33.4417 131.115 33.25 131.649 33.25C132.199 33.25 132.657 33.4417 133.024 33.825C133.407 34.1917 133.599 34.65 133.599 35.2C133.599 35.7333 133.407 36.1917 133.024 36.575C132.657 36.9417 132.199 37.125 131.649 37.125C131.115 37.125 130.657 36.9417 130.274 36.575C129.907 36.1917 129.724 35.7333 129.724 35.2ZM138.132 54H137.357V49.45H138.407C138.69 50.65 139.099 51.525 139.632 52.075C140.165 52.625 140.857 52.9 141.707 52.9C142.324 52.9 142.799 52.775 143.132 52.525C143.482 52.2583 143.657 51.9 143.657 51.45C143.657 50.9833 143.449 50.5333 143.032 50.1C142.615 49.65 141.94 49.175 141.007 48.675C139.74 47.9917 138.832 47.3167 138.282 46.65C137.732 45.9667 137.457 45.2 137.457 44.35C137.457 43.8 137.557 43.2917 137.757 42.825C137.974 42.3417 138.257 41.925 138.607 41.575C138.974 41.225 139.407 40.9583 139.907 40.775C140.407 40.575 140.949 40.475 141.532 40.475C142.049 40.475 142.557 40.55 143.057 40.7C143.574 40.85 144.024 41.0583 144.407 41.325L144.857 40.725H145.507V44.5H144.532C144.149 43.55 143.749 42.8667 143.332 42.45C142.932 42.0333 142.44 41.825 141.857 41.825C141.39 41.825 141.015 41.95 140.732 42.2C140.465 42.45 140.332 42.7833 140.332 43.2C140.332 43.6667 140.532 44.1083 140.932 44.525C141.349 44.9417 142.032 45.4 142.982 45.9C143.649 46.2667 144.224 46.625 144.707 46.975C145.19 47.325 145.582 47.6833 145.882 48.05C146.182 48.4 146.399 48.775 146.532 49.175C146.682 49.5583 146.757 49.975 146.757 50.425C146.757 51.0083 146.649 51.5333 146.432 52C146.215 52.4667 145.907 52.8667 145.507 53.2C145.107 53.5333 144.624 53.7917 144.057 53.975C143.507 54.1583 142.89 54.25 142.207 54.25C141.49 54.25 140.824 54.1583 140.207 53.975C139.59 53.775 139.082 53.4917 138.682 53.125L138.132 54ZM160.852 51.925C160.219 52.625 159.427 53.1667 158.477 53.55C157.544 53.9333 156.527 54.125 155.427 54.125C154.411 54.125 153.486 53.9667 152.652 53.65C151.819 53.3167 151.102 52.8583 150.502 52.275C149.902 51.6917 149.436 50.9917 149.102 50.175C148.786 49.3417 148.627 48.425 148.627 47.425C148.627 46.3917 148.802 45.45 149.152 44.6C149.502 43.75 149.994 43.025 150.627 42.425C151.261 41.8083 152.019 41.3333 152.902 41C153.786 40.6667 154.761 40.5 155.827 40.5C156.577 40.5 157.269 40.575 157.902 40.725C158.552 40.875 159.102 41.0833 159.552 41.35C160.019 41.6167 160.386 41.9333 160.652 42.3C160.919 42.65 161.052 43.0333 161.052 43.45C161.052 43.9333 160.911 44.3167 160.627 44.6C160.361 44.8833 159.994 45.025 159.527 45.025C159.144 45.025 158.802 44.925 158.502 44.725C158.219 44.525 157.936 44.2 157.652 43.75C157.402 43.35 157.186 43.0333 157.002 42.8C156.836 42.5667 156.677 42.3917 156.527 42.275C156.377 42.1417 156.227 42.0583 156.077 42.025C155.927 41.975 155.744 41.95 155.527 41.95C154.561 41.95 153.811 42.4 153.277 43.3C152.744 44.2 152.477 45.4583 152.477 47.075C152.477 48.8083 152.794 50.1417 153.427 51.075C154.077 52.0083 155.002 52.475 156.202 52.475C156.886 52.475 157.569 52.35 158.252 52.1C158.936 51.8333 159.586 51.4583 160.202 50.975L160.852 51.925ZM169.964 40.5C170.964 40.5 171.905 40.675 172.789 41.025C173.689 41.3583 174.472 41.825 175.139 42.425C175.822 43.025 176.355 43.7417 176.739 44.575C177.139 45.3917 177.339 46.2917 177.339 47.275C177.339 48.2917 177.139 49.225 176.739 50.075C176.355 50.925 175.822 51.6583 175.139 52.275C174.472 52.8917 173.689 53.375 172.789 53.725C171.905 54.075 170.964 54.25 169.964 54.25C168.98 54.25 168.047 54.0833 167.164 53.75C166.28 53.4 165.505 52.9167 164.839 52.3C164.172 51.6833 163.647 50.95 163.264 50.1C162.88 49.2333 162.689 48.2917 162.689 47.275C162.689 46.2917 162.88 45.3833 163.264 44.55C163.647 43.7167 164.172 43 164.839 42.4C165.505 41.8 166.28 41.3333 167.164 41C168.047 40.6667 168.98 40.5 169.964 40.5ZM169.964 41.95C169.464 41.95 169.005 42.0833 168.589 42.35C168.172 42.6 167.814 42.9583 167.514 43.425C167.23 43.8917 167.005 44.4583 166.839 45.125C166.689 45.775 166.614 46.5 166.614 47.3C166.614 48.1333 166.689 48.8833 166.839 49.55C167.005 50.2167 167.23 50.7833 167.514 51.25C167.814 51.7167 168.164 52.0833 168.564 52.35C168.98 52.6 169.447 52.725 169.964 52.725C170.48 52.725 170.947 52.6 171.364 52.35C171.797 52.0833 172.164 51.7167 172.464 51.25C172.764 50.7667 172.997 50.1917 173.164 49.525C173.33 48.8583 173.414 48.1167 173.414 47.3C173.414 46.5 173.33 45.775 173.164 45.125C172.997 44.475 172.764 43.9167 172.464 43.45C172.164 42.9667 171.797 42.6 171.364 42.35C170.947 42.0833 170.48 41.95 169.964 41.95ZM180.158 43.975C179.974 43.4917 179.799 43.1083 179.633 42.825C179.466 42.525 179.291 42.3 179.108 42.15C178.941 41.9833 178.749 41.875 178.533 41.825C178.333 41.775 178.091 41.75 177.808 41.75V40.75H185.283V41.75C184.866 41.75 184.533 41.7667 184.283 41.8C184.049 41.8333 183.866 41.8833 183.733 41.95C183.616 42.0167 183.541 42.1083 183.508 42.225C183.474 42.325 183.458 42.4417 183.458 42.575C183.458 42.7917 183.499 43.0417 183.583 43.325C183.666 43.6083 183.766 43.8917 183.883 44.175L186.258 50.725H186.358L189.033 44.2C189.149 43.9167 189.241 43.6667 189.308 43.45C189.374 43.2167 189.408 43.0083 189.408 42.825C189.408 42.4583 189.283 42.1917 189.033 42.025C188.783 41.8583 188.341 41.7667 187.708 41.75V40.75H193.233V41.75C192.783 41.75 192.391 41.8667 192.058 42.1C191.741 42.3333 191.408 42.85 191.058 43.65L186.383 54.25H184.108L180.158 43.975ZM206.196 51.675C204.68 53.3917 202.788 54.25 200.521 54.25C199.488 54.25 198.546 54.0917 197.696 53.775C196.863 53.4417 196.146 52.9833 195.546 52.4C194.946 51.8 194.48 51.0917 194.146 50.275C193.813 49.4583 193.646 48.55 193.646 47.55C193.646 46.5167 193.821 45.575 194.171 44.725C194.521 43.8583 195.013 43.1167 195.646 42.5C196.296 41.8667 197.055 41.375 197.921 41.025C198.805 40.675 199.771 40.5 200.821 40.5C202.588 40.5 203.963 40.975 204.946 41.925C205.93 42.875 206.421 44.2083 206.421 45.925C206.421 46.1917 206.38 46.3583 206.296 46.425C206.213 46.475 205.98 46.5 205.596 46.5H197.546C197.48 46.65 197.446 46.925 197.446 47.325C197.446 48.9583 197.796 50.25 198.496 51.2C199.213 52.15 200.18 52.625 201.396 52.625C202.096 52.625 202.788 52.4667 203.471 52.15C204.171 51.8333 204.846 51.3833 205.496 50.8L206.196 51.675ZM201.346 45.1C202.013 45.1 202.438 45.0667 202.621 45C202.821 44.9167 202.921 44.7333 202.921 44.45C202.921 43.7167 202.713 43.1167 202.296 42.65C201.88 42.1833 201.355 41.95 200.721 41.95C200.005 41.95 199.363 42.25 198.796 42.85C198.246 43.4333 197.888 44.1833 197.721 45.1H201.346ZM213.77 50.125C213.77 50.775 213.795 51.2917 213.845 51.675C213.912 52.0417 214.037 52.325 214.22 52.525C214.404 52.725 214.67 52.8583 215.02 52.925C215.37 52.975 215.837 53 216.42 53V54H208.07V53C208.57 52.9667 208.97 52.9167 209.27 52.85C209.57 52.7833 209.795 52.65 209.945 52.45C210.095 52.25 210.187 51.9667 210.22 51.6C210.27 51.2167 210.295 50.7083 210.295 50.075V47.025C210.295 45.9917 210.27 45.1667 210.22 44.55C210.17 43.9333 210.062 43.4583 209.895 43.125C209.729 42.7917 209.487 42.575 209.17 42.475C208.87 42.3583 208.47 42.3 207.97 42.3V41.425L212.97 40.5L213.37 43.375H213.47C213.92 42.4917 214.512 41.7917 215.245 41.275C215.979 40.7583 216.754 40.5 217.57 40.5C218.204 40.5 218.72 40.6583 219.12 40.975C219.52 41.2917 219.72 41.6917 219.72 42.175C219.72 42.7083 219.562 43.1583 219.245 43.525C218.945 43.8917 218.529 44.075 217.995 44.075C217.745 44.075 217.52 44.025 217.32 43.925C217.12 43.825 216.937 43.7167 216.77 43.6C216.62 43.4667 216.462 43.35 216.295 43.25C216.145 43.1333 215.987 43.075 215.82 43.075C215.504 43.075 215.204 43.2833 214.92 43.7C214.637 44.1167 214.404 44.675 214.22 45.375C214.087 45.875 213.979 46.4417 213.895 47.075C213.812 47.6917 213.77 48.3083 213.77 48.925V50.125ZM226.946 57.925C226.763 58.2917 226.53 58.6333 226.246 58.95C225.98 59.2667 225.671 59.5333 225.321 59.75C224.988 59.9833 224.638 60.1667 224.271 60.3C223.905 60.4333 223.538 60.5 223.171 60.5C222.621 60.5 222.18 60.3667 221.846 60.1C221.513 59.8333 221.346 59.475 221.346 59.025C221.346 58.6083 221.488 58.2833 221.771 58.05C222.071 57.8167 222.546 57.675 223.196 57.625C224.68 57.5083 225.638 57.0417 226.071 56.225L226.746 54.925L222.321 43.975C222.121 43.4917 221.946 43.1083 221.796 42.825C221.663 42.5417 221.513 42.325 221.346 42.175C221.18 42.0083 220.988 41.9 220.771 41.85C220.555 41.8 220.288 41.7667 219.971 41.75V40.75H227.546V41.75C226.896 41.75 226.438 41.8167 226.171 41.95C225.921 42.0667 225.796 42.2917 225.796 42.625C225.796 42.7583 225.813 42.9167 225.846 43.1C225.896 43.2667 225.955 43.4417 226.021 43.625L228.571 50.925H228.671L230.821 46.05C231.038 45.5333 231.221 45.1083 231.371 44.775C231.521 44.425 231.63 44.1333 231.696 43.9C231.78 43.65 231.838 43.45 231.871 43.3C231.905 43.15 231.921 43 231.921 42.85C231.921 42.4167 231.796 42.125 231.546 41.975C231.313 41.825 230.83 41.75 230.096 41.75V40.75H236.121V41.75C235.788 41.75 235.505 41.8 235.271 41.9C235.038 41.9833 234.796 42.1667 234.546 42.45C234.313 42.7333 234.046 43.1583 233.746 43.725C233.463 44.275 233.105 45.0083 232.671 45.925L226.946 57.925Z" fill="black"/>
<path d="M107.304 84L104.42 74.76H105.148L107.752 83.356L110.16 74.76H110.972L113.394 83.37L115.998 74.76H116.698L113.814 84H112.946L111.084 77.518L110.566 75.516H110.552L110.034 77.518L108.172 84H107.304ZM120.735 84.14C120.091 84.14 119.517 83.9953 119.013 83.706C118.509 83.4167 118.112 83.0013 117.823 82.46C117.543 81.9093 117.403 81.256 117.403 80.5C117.403 79.744 117.543 79.0953 117.823 78.554C118.112 78.0033 118.499 77.5833 118.985 77.294C119.47 77.0047 120.025 76.86 120.651 76.86C121.285 76.86 121.827 77 122.275 77.28C122.723 77.56 123.068 77.952 123.311 78.456C123.553 78.9507 123.675 79.5247 123.675 80.178C123.675 80.262 123.67 80.346 123.661 80.43C123.661 80.5047 123.656 80.5747 123.647 80.64H117.837V80.01H123.339L122.989 80.108C122.979 79.3053 122.765 78.666 122.345 78.19C121.934 77.714 121.365 77.476 120.637 77.476C120.133 77.476 119.689 77.5973 119.307 77.84C118.924 78.0733 118.625 78.4187 118.411 78.876C118.196 79.324 118.089 79.8653 118.089 80.5C118.089 81.1253 118.196 81.6667 118.411 82.124C118.635 82.5813 118.943 82.9313 119.335 83.174C119.736 83.4073 120.198 83.524 120.721 83.524C121.262 83.524 121.724 83.4073 122.107 83.174C122.499 82.9407 122.802 82.6187 123.017 82.208L123.577 82.53C123.409 82.866 123.185 83.1553 122.905 83.398C122.625 83.6313 122.303 83.8133 121.939 83.944C121.575 84.0747 121.173 84.14 120.735 84.14ZM135.856 75.712L136.024 76.328C136.015 76.328 136.006 76.328 135.996 76.328C135.987 76.328 135.973 76.328 135.954 76.328C135.497 76.328 135.142 76.4493 134.89 76.692C134.648 76.9253 134.526 77.2567 134.526 77.686L134.078 77.462C134.078 77.1073 134.153 76.7993 134.302 76.538C134.452 76.2767 134.657 76.076 134.918 75.936C135.18 75.7867 135.474 75.712 135.8 75.712C135.819 75.712 135.828 75.712 135.828 75.712C135.838 75.712 135.847 75.712 135.856 75.712ZM133.644 83.286C134.335 83.286 134.876 83.4307 135.268 83.72C135.66 84.0093 135.856 84.3967 135.856 84.882C135.856 85.3113 135.712 85.6847 135.422 86.002C135.142 86.3193 134.755 86.5667 134.26 86.744C133.766 86.9213 133.201 87.01 132.566 87.01C131.512 87.01 130.704 86.828 130.144 86.464C129.584 86.1093 129.304 85.6613 129.304 85.12C129.304 84.728 129.444 84.3873 129.724 84.098C130.014 83.8087 130.434 83.636 130.984 83.58L130.928 83.706C130.63 83.622 130.364 83.482 130.13 83.286C129.906 83.09 129.794 82.81 129.794 82.446C129.794 82.054 129.939 81.7367 130.228 81.494C130.527 81.242 130.919 81.0973 131.404 81.06L132.146 81.312H131.852C131.423 81.34 131.078 81.4473 130.816 81.634C130.564 81.8113 130.438 82.0447 130.438 82.334C130.438 82.6513 130.56 82.8893 130.802 83.048C131.054 83.2067 131.372 83.286 131.754 83.286H133.644ZM132.566 86.422C133.117 86.422 133.588 86.3567 133.98 86.226C134.372 86.0953 134.671 85.918 134.876 85.694C135.091 85.4793 135.198 85.2367 135.198 84.966C135.198 84.6393 135.054 84.378 134.764 84.182C134.484 83.986 134.055 83.888 133.476 83.888H131.488C131.05 83.888 130.686 83.9907 130.396 84.196C130.107 84.4013 129.962 84.6767 129.962 85.022C129.962 85.442 130.191 85.778 130.648 86.03C131.115 86.2913 131.754 86.422 132.566 86.422ZM132.468 76.86C133.019 76.86 133.504 76.958 133.924 77.154C134.354 77.3407 134.685 77.6067 134.918 77.952C135.152 78.288 135.268 78.6847 135.268 79.142C135.268 79.59 135.152 79.9913 134.918 80.346C134.685 80.6913 134.354 80.962 133.924 81.158C133.504 81.3447 133.019 81.438 132.468 81.438C131.582 81.438 130.886 81.228 130.382 80.808C129.888 80.3787 129.64 79.8233 129.64 79.142C129.64 78.6847 129.757 78.288 129.99 77.952C130.233 77.6067 130.564 77.3407 130.984 77.154C131.414 76.958 131.908 76.86 132.468 76.86ZM132.468 77.434C131.852 77.434 131.348 77.5927 130.956 77.91C130.564 78.218 130.368 78.6287 130.368 79.142C130.368 79.6553 130.564 80.0707 130.956 80.388C131.348 80.7053 131.852 80.864 132.468 80.864C133.084 80.864 133.584 80.7053 133.966 80.388C134.358 80.0707 134.554 79.6553 134.554 79.142C134.554 78.6287 134.358 78.218 133.966 77.91C133.584 77.5927 133.084 77.434 132.468 77.434ZM140.122 84.14C139.478 84.14 138.904 83.9953 138.4 83.706C137.896 83.4167 137.499 83.0013 137.21 82.46C136.93 81.9093 136.79 81.256 136.79 80.5C136.79 79.744 136.93 79.0953 137.21 78.554C137.499 78.0033 137.886 77.5833 138.372 77.294C138.857 77.0047 139.412 76.86 140.038 76.86C140.672 76.86 141.214 77 141.662 77.28C142.11 77.56 142.455 77.952 142.698 78.456C142.94 78.9507 143.062 79.5247 143.062 80.178C143.062 80.262 143.057 80.346 143.048 80.43C143.048 80.5047 143.043 80.5747 143.034 80.64H137.224V80.01H142.726L142.376 80.108C142.366 79.3053 142.152 78.666 141.732 78.19C141.321 77.714 140.752 77.476 140.024 77.476C139.52 77.476 139.076 77.5973 138.694 77.84C138.311 78.0733 138.012 78.4187 137.798 78.876C137.583 79.324 137.476 79.8653 137.476 80.5C137.476 81.1253 137.583 81.6667 137.798 82.124C138.022 82.5813 138.33 82.9313 138.722 83.174C139.123 83.4073 139.585 83.524 140.108 83.524C140.649 83.524 141.111 83.4073 141.494 83.174C141.886 82.9407 142.189 82.6187 142.404 82.208L142.964 82.53C142.796 82.866 142.572 83.1553 142.292 83.398C142.012 83.6313 141.69 83.8133 141.326 83.944C140.962 84.0747 140.56 84.14 140.122 84.14ZM146.07 75.054V82.152C146.07 82.5907 146.173 82.9267 146.378 83.16C146.593 83.384 146.901 83.496 147.302 83.496C147.563 83.496 147.792 83.454 147.988 83.37C148.193 83.2767 148.375 83.146 148.534 82.978L148.8 83.552C148.623 83.7293 148.399 83.874 148.128 83.986C147.857 84.0887 147.554 84.14 147.218 84.14C146.854 84.14 146.532 84.0747 146.252 83.944C145.972 83.804 145.753 83.594 145.594 83.314C145.445 83.034 145.37 82.6793 145.37 82.25V75.25L146.07 75.054ZM148.688 77V77.602H143.97V77H148.688ZM155.394 75.054V82.152C155.394 82.5907 155.497 82.9267 155.702 83.16C155.917 83.384 156.225 83.496 156.626 83.496C156.888 83.496 157.116 83.454 157.312 83.37C157.518 83.2767 157.7 83.146 157.858 82.978L158.124 83.552C157.947 83.7293 157.723 83.874 157.452 83.986C157.182 84.0887 156.878 84.14 156.542 84.14C156.178 84.14 155.856 84.0747 155.576 83.944C155.296 83.804 155.077 83.594 154.918 83.314C154.769 83.034 154.694 82.6793 154.694 82.25V75.25L155.394 75.054ZM158.012 77V77.602H153.294V77H158.012ZM162.366 76.86C163.019 76.86 163.593 77.0047 164.088 77.294C164.592 77.5833 164.984 78.0033 165.264 78.554C165.553 79.0953 165.698 79.744 165.698 80.5C165.698 81.256 165.553 81.9093 165.264 82.46C164.984 83.0013 164.592 83.4167 164.088 83.706C163.593 83.9953 163.019 84.14 162.366 84.14C161.712 84.14 161.134 83.9953 160.63 83.706C160.135 83.4167 159.743 83.0013 159.454 82.46C159.174 81.9093 159.034 81.256 159.034 80.5C159.034 79.744 159.174 79.0953 159.454 78.554C159.743 78.0033 160.135 77.5833 160.63 77.294C161.134 77.0047 161.712 76.86 162.366 76.86ZM162.366 77.462C161.834 77.462 161.372 77.5833 160.98 77.826C160.588 78.0687 160.28 78.4187 160.056 78.876C159.841 79.324 159.734 79.8653 159.734 80.5C159.734 81.1253 159.841 81.6667 160.056 82.124C160.28 82.5813 160.588 82.9313 160.98 83.174C161.372 83.4167 161.834 83.538 162.366 83.538C162.898 83.538 163.36 83.4167 163.752 83.174C164.144 82.9313 164.447 82.5813 164.662 82.124C164.886 81.6667 164.998 81.1253 164.998 80.5C164.998 79.8653 164.886 79.324 164.662 78.876C164.447 78.4187 164.144 78.0687 163.752 77.826C163.36 77.5833 162.898 77.462 162.366 77.462ZM177.856 77L174.776 79.968L174.608 80.136L172.438 82.236V81.34L176.946 77H177.856ZM172.788 73.78V84H172.088V73.78H172.788ZM174.818 79.604L177.968 84H177.114L174.244 80.01L174.818 79.604ZM179.471 84V77H180.101L180.157 78.75L180.045 78.652C180.175 78.2693 180.371 77.9473 180.633 77.686C180.894 77.4153 181.207 77.21 181.571 77.07C181.935 76.93 182.327 76.86 182.747 76.86C183.269 76.86 183.731 76.958 184.133 77.154C184.534 77.35 184.847 77.6393 185.071 78.022C185.304 78.4047 185.421 78.8853 185.421 79.464V84H184.721V79.688C184.721 78.9227 184.529 78.3627 184.147 78.008C183.773 77.6533 183.283 77.476 182.677 77.476C182.238 77.476 181.827 77.5787 181.445 77.784C181.071 77.98 180.763 78.2693 180.521 78.652C180.287 79.0347 180.171 79.5013 180.171 80.052V84H179.471ZM190.694 76.86C191.347 76.86 191.921 77.0047 192.416 77.294C192.92 77.5833 193.312 78.0033 193.592 78.554C193.881 79.0953 194.026 79.744 194.026 80.5C194.026 81.256 193.881 81.9093 193.592 82.46C193.312 83.0013 192.92 83.4167 192.416 83.706C191.921 83.9953 191.347 84.14 190.694 84.14C190.04 84.14 189.462 83.9953 188.958 83.706C188.463 83.4167 188.071 83.0013 187.782 82.46C187.502 81.9093 187.362 81.256 187.362 80.5C187.362 79.744 187.502 79.0953 187.782 78.554C188.071 78.0033 188.463 77.5833 188.958 77.294C189.462 77.0047 190.04 76.86 190.694 76.86ZM190.694 77.462C190.162 77.462 189.7 77.5833 189.308 77.826C188.916 78.0687 188.608 78.4187 188.384 78.876C188.169 79.324 188.062 79.8653 188.062 80.5C188.062 81.1253 188.169 81.6667 188.384 82.124C188.608 82.5813 188.916 82.9313 189.308 83.174C189.7 83.4167 190.162 83.538 190.694 83.538C191.226 83.538 191.688 83.4167 192.08 83.174C192.472 82.9313 192.775 82.5813 192.99 82.124C193.214 81.6667 193.326 81.1253 193.326 80.5C193.326 79.8653 193.214 79.324 192.99 78.876C192.775 78.4187 192.472 78.0687 192.08 77.826C191.688 77.5833 191.226 77.462 190.694 77.462ZM204.768 77H205.538L203.158 84H202.458L200.246 77.91L198.076 84H197.376L194.996 77H195.766L197.74 83.16L199.91 77H200.624L202.808 83.16L204.768 77ZM216.405 77L213.017 85.288C212.849 85.7173 212.667 86.058 212.471 86.31C212.275 86.562 212.055 86.7393 211.813 86.842C211.57 86.954 211.29 87.01 210.973 87.01C210.693 87.01 210.436 86.968 210.203 86.884C209.969 86.8 209.778 86.6833 209.629 86.534L209.853 85.932C209.993 86.1 210.161 86.2167 210.357 86.282C210.553 86.3567 210.753 86.394 210.959 86.394C211.257 86.394 211.523 86.3053 211.757 86.128C211.99 85.96 212.209 85.624 212.415 85.12L212.877 84L212.135 82.264L209.923 77H210.721L212.863 82.306L213.213 83.244L213.591 82.236L215.649 77H216.405ZM220.649 76.86C221.302 76.86 221.876 77.0047 222.371 77.294C222.875 77.5833 223.267 78.0033 223.547 78.554C223.836 79.0953 223.981 79.744 223.981 80.5C223.981 81.256 223.836 81.9093 223.547 82.46C223.267 83.0013 222.875 83.4167 222.371 83.706C221.876 83.9953 221.302 84.14 220.649 84.14C219.996 84.14 219.417 83.9953 218.913 83.706C218.418 83.4167 218.026 83.0013 217.737 82.46C217.457 81.9093 217.317 81.256 217.317 80.5C217.317 79.744 217.457 79.0953 217.737 78.554C218.026 78.0033 218.418 77.5833 218.913 77.294C219.417 77.0047 219.996 76.86 220.649 76.86ZM220.649 77.462C220.117 77.462 219.655 77.5833 219.263 77.826C218.871 78.0687 218.563 78.4187 218.339 78.876C218.124 79.324 218.017 79.8653 218.017 80.5C218.017 81.1253 218.124 81.6667 218.339 82.124C218.563 82.5813 218.871 82.9313 219.263 83.174C219.655 83.4167 220.117 83.538 220.649 83.538C221.181 83.538 221.643 83.4167 222.035 83.174C222.427 82.9313 222.73 82.5813 222.945 82.124C223.169 81.6667 223.281 81.1253 223.281 80.5C223.281 79.8653 223.169 79.324 222.945 78.876C222.73 78.4187 222.427 78.0687 222.035 77.826C221.643 77.5833 221.181 77.462 220.649 77.462ZM228.446 84.14C227.961 84.14 227.527 84.0513 227.144 83.874C226.762 83.6967 226.458 83.4213 226.234 83.048C226.02 82.6653 225.912 82.1893 225.912 81.62V77H226.612V81.452C226.612 82.18 226.785 82.7073 227.13 83.034C227.485 83.3607 227.98 83.524 228.614 83.524C228.988 83.524 229.324 83.4587 229.622 83.328C229.93 83.1973 230.192 83.0153 230.406 82.782C230.621 82.5487 230.784 82.2827 230.896 81.984C231.018 81.6853 231.078 81.3633 231.078 81.018V77H231.778V84H231.148L231.12 82.558C230.915 83.0527 230.579 83.44 230.112 83.72C229.646 84 229.09 84.14 228.446 84.14ZM234.267 84V77H234.855L234.939 78.47C235.117 77.9753 235.401 77.5833 235.793 77.294C236.185 77.0047 236.657 76.86 237.207 76.86C237.394 76.86 237.562 76.8787 237.711 76.916C237.861 76.9533 237.982 77.014 238.075 77.098L237.921 77.714C237.819 77.6487 237.707 77.5973 237.585 77.56C237.464 77.5227 237.282 77.504 237.039 77.504C236.685 77.504 236.349 77.616 236.031 77.84C235.714 78.0547 235.457 78.358 235.261 78.75C235.065 79.1327 234.967 79.576 234.967 80.08V84H234.267ZM108.536 100.14C108.107 100.14 107.705 100.061 107.332 99.902C106.968 99.7433 106.655 99.5147 106.394 99.216C106.142 98.9173 105.955 98.5673 105.834 98.166L105.932 98.054L105.876 100H105.246V89.78H105.946V94.876L105.862 94.75C106.049 94.1713 106.38 93.714 106.856 93.378C107.341 93.0327 107.901 92.86 108.536 92.86C109.152 92.86 109.698 93.0047 110.174 93.294C110.65 93.5833 111.028 93.9987 111.308 94.54C111.588 95.0813 111.728 95.7347 111.728 96.5C111.728 97.256 111.588 97.9093 111.308 98.46C111.028 99.0013 110.645 99.4167 110.16 99.706C109.684 99.9953 109.143 100.14 108.536 100.14ZM108.452 99.524C109.245 99.524 109.871 99.2533 110.328 98.712C110.795 98.1707 111.028 97.4333 111.028 96.5C111.028 95.5667 110.799 94.8293 110.342 94.288C109.885 93.7467 109.259 93.476 108.466 93.476C107.981 93.476 107.547 93.602 107.164 93.854C106.781 94.0967 106.483 94.4467 106.268 94.904C106.053 95.3613 105.946 95.898 105.946 96.514C105.946 97.13 106.053 97.6667 106.268 98.124C106.483 98.572 106.777 98.9173 107.15 99.16C107.533 99.4027 107.967 99.524 108.452 99.524ZM116.214 100.14C115.729 100.14 115.295 100.051 114.912 99.874C114.529 99.6967 114.226 99.4213 114.002 99.048C113.787 98.6653 113.68 98.1893 113.68 97.62V93H114.38V97.452C114.38 98.18 114.553 98.7073 114.898 99.034C115.253 99.3607 115.747 99.524 116.382 99.524C116.755 99.524 117.091 99.4587 117.39 99.328C117.698 99.1973 117.959 99.0153 118.174 98.782C118.389 98.5487 118.552 98.2827 118.664 97.984C118.785 97.6853 118.846 97.3633 118.846 97.018V93H119.546V100H118.916L118.888 98.558C118.683 99.0527 118.347 99.44 117.88 99.72C117.413 100 116.858 100.14 116.214 100.14ZM124.401 100.14C123.692 100.14 123.062 99.9953 122.511 99.706C121.97 99.4167 121.587 99.0013 121.363 98.46L121.965 98.054C122.133 98.5207 122.432 98.8847 122.861 99.146C123.3 99.398 123.832 99.524 124.457 99.524C125.073 99.524 125.554 99.4027 125.899 99.16C126.254 98.9173 126.431 98.5953 126.431 98.194C126.431 97.9233 126.342 97.69 126.165 97.494C125.997 97.2887 125.675 97.1347 125.199 97.032L123.561 96.682C122.889 96.542 122.408 96.318 122.119 96.01C121.839 95.6927 121.699 95.31 121.699 94.862C121.699 94.4887 121.811 94.1527 122.035 93.854C122.259 93.5553 122.567 93.3173 122.959 93.14C123.36 92.9533 123.827 92.86 124.359 92.86C125.059 92.86 125.638 93 126.095 93.28C126.552 93.5507 126.874 93.9613 127.061 94.512L126.473 94.89C126.333 94.3953 126.072 94.036 125.689 93.812C125.316 93.588 124.872 93.476 124.359 93.476C123.967 93.476 123.622 93.5367 123.323 93.658C123.034 93.77 122.805 93.9287 122.637 94.134C122.478 94.33 122.399 94.5587 122.399 94.82C122.399 95.0907 122.492 95.338 122.679 95.562C122.866 95.7767 123.197 95.9353 123.673 96.038L125.353 96.402C126.016 96.542 126.478 96.7567 126.739 97.046C127 97.326 127.131 97.676 127.131 98.096C127.131 98.516 127.019 98.88 126.795 99.188C126.571 99.496 126.254 99.734 125.843 99.902C125.432 100.061 124.952 100.14 124.401 100.14ZM129.44 91.642C129.262 91.642 129.118 91.5907 129.006 91.488C128.903 91.376 128.852 91.2313 128.852 91.054C128.852 90.8767 128.903 90.7367 129.006 90.634C129.118 90.522 129.262 90.466 129.44 90.466C129.617 90.466 129.757 90.522 129.86 90.634C129.972 90.7367 130.028 90.8767 130.028 91.054C130.028 91.2313 129.972 91.376 129.86 91.488C129.757 91.5907 129.617 91.642 129.44 91.642ZM129.79 93V100H129.09V93H129.79ZM132.275 100V93H132.905L132.961 94.75L132.849 94.652C132.98 94.2693 133.176 93.9473 133.437 93.686C133.699 93.4153 134.011 93.21 134.375 93.07C134.739 92.93 135.131 92.86 135.551 92.86C136.074 92.86 136.536 92.958 136.937 93.154C137.339 93.35 137.651 93.6393 137.875 94.022C138.109 94.4047 138.225 94.8853 138.225 95.464V100H137.525V95.688C137.525 94.9227 137.334 94.3627 136.951 94.008C136.578 93.6533 136.088 93.476 135.481 93.476C135.043 93.476 134.632 93.5787 134.249 93.784C133.876 93.98 133.568 94.2693 133.325 94.652C133.092 95.0347 132.975 95.5013 132.975 96.052V100H132.275ZM143.498 100.14C142.854 100.14 142.28 99.9953 141.776 99.706C141.272 99.4167 140.876 99.0013 140.586 98.46C140.306 97.9093 140.166 97.256 140.166 96.5C140.166 95.744 140.306 95.0953 140.586 94.554C140.876 94.0033 141.263 93.5833 141.748 93.294C142.234 93.0047 142.789 92.86 143.414 92.86C144.049 92.86 144.59 93 145.038 93.28C145.486 93.56 145.832 93.952 146.074 94.456C146.317 94.9507 146.438 95.5247 146.438 96.178C146.438 96.262 146.434 96.346 146.424 96.43C146.424 96.5047 146.42 96.5747 146.41 96.64H140.6V96.01H146.102L145.752 96.108C145.743 95.3053 145.528 94.666 145.108 94.19C144.698 93.714 144.128 93.476 143.4 93.476C142.896 93.476 142.453 93.5973 142.07 93.84C141.688 94.0733 141.389 94.4187 141.174 94.876C140.96 95.324 140.852 95.8653 140.852 96.5C140.852 97.1253 140.96 97.6667 141.174 98.124C141.398 98.5813 141.706 98.9313 142.098 99.174C142.5 99.4073 142.962 99.524 143.484 99.524C144.026 99.524 144.488 99.4073 144.87 99.174C145.262 98.9407 145.566 98.6187 145.78 98.208L146.34 98.53C146.172 98.866 145.948 99.1553 145.668 99.398C145.388 99.6313 145.066 99.8133 144.702 99.944C144.338 100.075 143.937 100.14 143.498 100.14ZM150.801 100.14C150.092 100.14 149.462 99.9953 148.911 99.706C148.37 99.4167 147.987 99.0013 147.763 98.46L148.365 98.054C148.533 98.5207 148.832 98.8847 149.261 99.146C149.7 99.398 150.232 99.524 150.857 99.524C151.473 99.524 151.954 99.4027 152.299 99.16C152.654 98.9173 152.831 98.5953 152.831 98.194C152.831 97.9233 152.743 97.69 152.565 97.494C152.397 97.2887 152.075 97.1347 151.599 97.032L149.961 96.682C149.289 96.542 148.809 96.318 148.519 96.01C148.239 95.6927 148.099 95.31 148.099 94.862C148.099 94.4887 148.211 94.1527 148.435 93.854C148.659 93.5553 148.967 93.3173 149.359 93.14C149.761 92.9533 150.227 92.86 150.759 92.86C151.459 92.86 152.038 93 152.495 93.28C152.953 93.5507 153.275 93.9613 153.461 94.512L152.873 94.89C152.733 94.3953 152.472 94.036 152.089 93.812C151.716 93.588 151.273 93.476 150.759 93.476C150.367 93.476 150.022 93.5367 149.723 93.658C149.434 93.77 149.205 93.9287 149.037 94.134C148.879 94.33 148.799 94.5587 148.799 94.82C148.799 95.0907 148.893 95.338 149.079 95.562C149.266 95.7767 149.597 95.9353 150.073 96.038L151.753 96.402C152.416 96.542 152.878 96.7567 153.139 97.046C153.401 97.326 153.531 97.676 153.531 98.096C153.531 98.516 153.419 98.88 153.195 99.188C152.971 99.496 152.654 99.734 152.243 99.902C151.833 100.061 151.352 100.14 150.801 100.14ZM157.856 100.14C157.147 100.14 156.517 99.9953 155.966 99.706C155.425 99.4167 155.042 99.0013 154.818 98.46L155.42 98.054C155.588 98.5207 155.887 98.8847 156.316 99.146C156.755 99.398 157.287 99.524 157.912 99.524C158.528 99.524 159.009 99.4027 159.354 99.16C159.709 98.9173 159.886 98.5953 159.886 98.194C159.886 97.9233 159.797 97.69 159.62 97.494C159.452 97.2887 159.13 97.1347 158.654 97.032L157.016 96.682C156.344 96.542 155.863 96.318 155.574 96.01C155.294 95.6927 155.154 95.31 155.154 94.862C155.154 94.4887 155.266 94.1527 155.49 93.854C155.714 93.5553 156.022 93.3173 156.414 93.14C156.815 92.9533 157.282 92.86 157.814 92.86C158.514 92.86 159.093 93 159.55 93.28C160.007 93.5507 160.329 93.9613 160.516 94.512L159.928 94.89C159.788 94.3953 159.527 94.036 159.144 93.812C158.771 93.588 158.327 93.476 157.814 93.476C157.422 93.476 157.077 93.5367 156.778 93.658C156.489 93.77 156.26 93.9287 156.092 94.134C155.933 94.33 155.854 94.5587 155.854 94.82C155.854 95.0907 155.947 95.338 156.134 95.562C156.321 95.7767 156.652 95.9353 157.128 96.038L158.808 96.402C159.471 96.542 159.933 96.7567 160.194 97.046C160.455 97.326 160.586 97.676 160.586 98.096C160.586 98.516 160.474 98.88 160.25 99.188C160.026 99.496 159.709 99.734 159.298 99.902C158.887 100.061 158.407 100.14 157.856 100.14ZM162.839 98.852C163.007 98.852 163.147 98.8987 163.259 98.992C163.38 99.076 163.469 99.1927 163.525 99.342C163.59 99.4913 163.623 99.6687 163.623 99.874C163.623 100.117 163.576 100.359 163.483 100.602C163.399 100.845 163.268 101.069 163.091 101.274C162.923 101.479 162.699 101.652 162.419 101.792L162.027 101.442C162.251 101.358 162.447 101.232 162.615 101.064C162.783 100.905 162.909 100.728 162.993 100.532C163.086 100.345 163.128 100.163 163.119 99.986L163.077 99.972C163.049 100.019 163.011 100.051 162.965 100.07C162.918 100.098 162.848 100.112 162.755 100.112C162.671 100.112 162.587 100.084 162.503 100.028C162.419 99.9813 162.349 99.916 162.293 99.832C162.237 99.7387 162.209 99.6267 162.209 99.496C162.209 99.384 162.237 99.2767 162.293 99.174C162.358 99.0713 162.437 98.992 162.531 98.936C162.624 98.88 162.727 98.852 162.839 98.852ZM174.294 95.394C174.294 94.7873 174.13 94.316 173.804 93.98C173.477 93.644 173.01 93.476 172.404 93.476C171.872 93.476 171.414 93.5927 171.032 93.826C170.649 94.05 170.364 94.428 170.178 94.96L169.604 94.596C169.809 94.0453 170.15 93.6207 170.626 93.322C171.111 93.014 171.708 92.86 172.418 92.86C172.931 92.86 173.379 92.9533 173.762 93.14C174.154 93.3173 174.457 93.5833 174.672 93.938C174.886 94.2927 174.994 94.736 174.994 95.268V98.768C174.994 99.2627 175.218 99.51 175.666 99.51C175.862 99.51 176.03 99.4773 176.17 99.412L176.128 99.972C175.969 100.056 175.764 100.098 175.512 100.098C175.297 100.098 175.096 100.056 174.91 99.972C174.723 99.888 174.569 99.748 174.448 99.552C174.336 99.356 174.28 99.09 174.28 98.754V98.376L174.476 98.362C174.392 98.7633 174.205 99.0993 173.916 99.37C173.636 99.6313 173.309 99.8273 172.936 99.958C172.562 100.079 172.189 100.14 171.816 100.14C171.377 100.14 170.985 100.07 170.64 99.93C170.294 99.79 170.024 99.5893 169.828 99.328C169.632 99.0573 169.534 98.726 169.534 98.334C169.534 97.8113 169.706 97.3913 170.052 97.074C170.406 96.7473 170.901 96.5233 171.536 96.402L174.434 95.828V96.416L171.886 96.92C171.335 97.032 170.924 97.1953 170.654 97.41C170.383 97.6247 170.248 97.9187 170.248 98.292C170.248 98.6747 170.392 98.978 170.682 99.202C170.971 99.4167 171.382 99.524 171.914 99.524C172.184 99.524 172.46 99.4867 172.74 99.412C173.02 99.3373 173.276 99.2207 173.51 99.062C173.752 98.894 173.944 98.6887 174.084 98.446C174.224 98.194 174.294 97.8907 174.294 97.536V95.394ZM180.075 100.14C179.59 100.14 179.156 100.051 178.773 99.874C178.391 99.6967 178.087 99.4213 177.863 99.048C177.649 98.6653 177.541 98.1893 177.541 97.62V93H178.241V97.452C178.241 98.18 178.414 98.7073 178.759 99.034C179.114 99.3607 179.609 99.524 180.243 99.524C180.617 99.524 180.953 99.4587 181.251 99.328C181.559 99.1973 181.821 99.0153 182.035 98.782C182.25 98.5487 182.413 98.2827 182.525 97.984C182.647 97.6853 182.707 97.3633 182.707 97.018V93H183.407V100H182.777L182.749 98.558C182.544 99.0527 182.208 99.44 181.741 99.72C181.275 100 180.719 100.14 180.075 100.14ZM188.626 100.14C188.02 100.14 187.474 99.9953 186.988 99.706C186.503 99.4167 186.12 99.0013 185.84 98.46C185.57 97.9093 185.434 97.256 185.434 96.5C185.434 95.7253 185.579 95.0673 185.868 94.526C186.158 93.9847 186.55 93.574 187.044 93.294C187.539 93.0047 188.085 92.86 188.682 92.86C189.336 92.86 189.891 93.0327 190.348 93.378C190.815 93.7233 191.128 94.204 191.286 94.82L191.202 94.876V89.78H191.902V100H191.272L191.23 98.054L191.314 98.026C191.23 98.474 191.058 98.8567 190.796 99.174C190.544 99.4913 190.227 99.734 189.844 99.902C189.471 100.061 189.065 100.14 188.626 100.14ZM188.71 99.524C189.205 99.524 189.639 99.4027 190.012 99.16C190.386 98.908 190.675 98.5487 190.88 98.082C191.095 97.6153 191.202 97.0693 191.202 96.444C191.202 95.828 191.095 95.3007 190.88 94.862C190.675 94.414 190.386 94.0733 190.012 93.84C189.648 93.5973 189.224 93.476 188.738 93.476C187.936 93.476 187.301 93.7467 186.834 94.288C186.368 94.8293 186.134 95.5667 186.134 96.5C186.134 97.4333 186.363 98.1707 186.82 98.712C187.287 99.2533 187.917 99.524 188.71 99.524ZM194.75 91.642C194.573 91.642 194.428 91.5907 194.316 91.488C194.214 91.376 194.162 91.2313 194.162 91.054C194.162 90.8767 194.214 90.7367 194.316 90.634C194.428 90.522 194.573 90.466 194.75 90.466C194.928 90.466 195.068 90.522 195.17 90.634C195.282 90.7367 195.338 90.8767 195.338 91.054C195.338 91.2313 195.282 91.376 195.17 91.488C195.068 91.5907 194.928 91.642 194.75 91.642ZM195.1 93V100H194.4V93H195.1ZM200.442 100.14C199.798 100.14 199.224 99.9953 198.72 99.706C198.216 99.4167 197.819 99.0013 197.53 98.46C197.25 97.9093 197.11 97.256 197.11 96.5C197.11 95.744 197.25 95.0953 197.53 94.554C197.819 94.0033 198.207 93.5833 198.692 93.294C199.177 93.0047 199.733 92.86 200.358 92.86C200.993 92.86 201.534 93 201.982 93.28C202.43 93.56 202.775 93.952 203.018 94.456C203.261 94.9507 203.382 95.5247 203.382 96.178C203.382 96.262 203.377 96.346 203.368 96.43C203.368 96.5047 203.363 96.5747 203.354 96.64H197.544V96.01H203.046L202.696 96.108C202.687 95.3053 202.472 94.666 202.052 94.19C201.641 93.714 201.072 93.476 200.344 93.476C199.84 93.476 199.397 93.5973 199.014 93.84C198.631 94.0733 198.333 94.4187 198.118 94.876C197.903 95.324 197.796 95.8653 197.796 96.5C197.796 97.1253 197.903 97.6667 198.118 98.124C198.342 98.5813 198.65 98.9313 199.042 99.174C199.443 99.4073 199.905 99.524 200.428 99.524C200.969 99.524 201.431 99.4073 201.814 99.174C202.206 98.9407 202.509 98.6187 202.724 98.208L203.284 98.53C203.116 98.866 202.892 99.1553 202.612 99.398C202.332 99.6313 202.01 99.8133 201.646 99.944C201.282 100.075 200.881 100.14 200.442 100.14ZM205.379 100V93H206.009L206.065 94.75L205.953 94.652C206.083 94.2693 206.279 93.9473 206.541 93.686C206.802 93.4153 207.115 93.21 207.479 93.07C207.843 92.93 208.235 92.86 208.655 92.86C209.177 92.86 209.639 92.958 210.041 93.154C210.442 93.35 210.755 93.6393 210.979 94.022C211.212 94.4047 211.329 94.8853 211.329 95.464V100H210.629V95.688C210.629 94.9227 210.437 94.3627 210.055 94.008C209.681 93.6533 209.191 93.476 208.585 93.476C208.146 93.476 207.735 93.5787 207.353 93.784C206.979 93.98 206.671 94.2693 206.429 94.652C206.195 95.0347 206.079 95.5013 206.079 96.052V100H205.379ZM216.574 92.86C217.05 92.86 217.475 92.9347 217.848 93.084C218.221 93.2333 218.539 93.448 218.8 93.728C219.061 94.008 219.262 94.3487 219.402 94.75L218.744 95.058C218.595 94.554 218.333 94.1667 217.96 93.896C217.596 93.616 217.129 93.476 216.56 93.476C216.047 93.476 215.594 93.5973 215.202 93.84C214.81 94.0733 214.507 94.4187 214.292 94.876C214.077 95.324 213.97 95.8653 213.97 96.5C213.97 97.1253 214.077 97.6667 214.292 98.124C214.507 98.5813 214.805 98.9313 215.188 99.174C215.571 99.4073 216.023 99.524 216.546 99.524C216.938 99.524 217.293 99.4587 217.61 99.328C217.937 99.1973 218.203 99.006 218.408 98.754C218.623 98.502 218.763 98.2033 218.828 97.858L219.472 98.082C219.351 98.5113 219.15 98.88 218.87 99.188C218.599 99.496 218.268 99.734 217.876 99.902C217.484 100.061 217.045 100.14 216.56 100.14C215.925 100.14 215.356 99.9953 214.852 99.706C214.357 99.4167 213.97 99.0013 213.69 98.46C213.41 97.9093 213.27 97.256 213.27 96.5C213.27 95.744 213.41 95.0953 213.69 94.554C213.979 94.0033 214.371 93.5833 214.866 93.294C215.37 93.0047 215.939 92.86 216.574 92.86ZM224.204 100.14C223.56 100.14 222.986 99.9953 222.482 99.706C221.978 99.4167 221.581 99.0013 221.292 98.46C221.012 97.9093 220.872 97.256 220.872 96.5C220.872 95.744 221.012 95.0953 221.292 94.554C221.581 94.0033 221.968 93.5833 222.454 93.294C222.939 93.0047 223.494 92.86 224.12 92.86C224.754 92.86 225.296 93 225.744 93.28C226.192 93.56 226.537 93.952 226.78 94.456C227.022 94.9507 227.144 95.5247 227.144 96.178C227.144 96.262 227.139 96.346 227.13 96.43C227.13 96.5047 227.125 96.5747 227.116 96.64H221.306V96.01H226.808L226.458 96.108C226.448 95.3053 226.234 94.666 225.814 94.19C225.403 93.714 224.834 93.476 224.106 93.476C223.602 93.476 223.158 93.5973 222.776 93.84C222.393 94.0733 222.094 94.4187 221.88 94.876C221.665 95.324 221.558 95.8653 221.558 96.5C221.558 97.1253 221.665 97.6667 221.88 98.124C222.104 98.5813 222.412 98.9313 222.804 99.174C223.205 99.4073 223.667 99.524 224.19 99.524C224.731 99.524 225.193 99.4073 225.576 99.174C225.968 98.9407 226.271 98.6187 226.486 98.208L227.046 98.53C226.878 98.866 226.654 99.1553 226.374 99.398C226.094 99.6313 225.772 99.8133 225.408 99.944C225.044 100.075 224.642 100.14 224.204 100.14ZM229.366 98.852C229.534 98.852 229.674 98.8987 229.786 98.992C229.908 99.076 229.996 99.1927 230.052 99.342C230.118 99.4913 230.15 99.6687 230.15 99.874C230.15 100.117 230.104 100.359 230.01 100.602C229.926 100.845 229.796 101.069 229.618 101.274C229.45 101.479 229.226 101.652 228.946 101.792L228.554 101.442C228.778 101.358 228.974 101.232 229.142 101.064C229.31 100.905 229.436 100.728 229.52 100.532C229.614 100.345 229.656 100.163 229.646 99.986L229.604 99.972C229.576 100.019 229.539 100.051 229.492 100.07C229.446 100.098 229.376 100.112 229.282 100.112C229.198 100.112 229.114 100.084 229.03 100.028C228.946 99.9813 228.876 99.916 228.82 99.832C228.764 99.7387 228.736 99.6267 228.736 99.496C228.736 99.384 228.764 99.2767 228.82 99.174C228.886 99.0713 228.965 98.992 229.058 98.936C229.152 98.88 229.254 98.852 229.366 98.852ZM240.821 95.394C240.821 94.7873 240.658 94.316 240.331 93.98C240.004 93.644 239.538 93.476 238.931 93.476C238.399 93.476 237.942 93.5927 237.559 93.826C237.176 94.05 236.892 94.428 236.705 94.96L236.131 94.596C236.336 94.0453 236.677 93.6207 237.153 93.322C237.638 93.014 238.236 92.86 238.945 92.86C239.458 92.86 239.906 92.9533 240.289 93.14C240.681 93.3173 240.984 93.5833 241.199 93.938C241.414 94.2927 241.521 94.736 241.521 95.268V98.768C241.521 99.2627 241.745 99.51 242.193 99.51C242.389 99.51 242.557 99.4773 242.697 99.412L242.655 99.972C242.496 100.056 242.291 100.098 242.039 100.098C241.824 100.098 241.624 100.056 241.437 99.972C241.25 99.888 241.096 99.748 240.975 99.552C240.863 99.356 240.807 99.09 240.807 98.754V98.376L241.003 98.362C240.919 98.7633 240.732 99.0993 240.443 99.37C240.163 99.6313 239.836 99.8273 239.463 99.958C239.09 100.079 238.716 100.14 238.343 100.14C237.904 100.14 237.512 100.07 237.167 99.93C236.822 99.79 236.551 99.5893 236.355 99.328C236.159 99.0573 236.061 98.726 236.061 98.334C236.061 97.8113 236.234 97.3913 236.579 97.074C236.934 96.7473 237.428 96.5233 238.063 96.402L240.961 95.828V96.416L238.413 96.92C237.862 97.032 237.452 97.1953 237.181 97.41C236.91 97.6247 236.775 97.9187 236.775 98.292C236.775 98.6747 236.92 98.978 237.209 99.202C237.498 99.4167 237.909 99.524 238.441 99.524C238.712 99.524 238.987 99.4867 239.267 99.412C239.547 99.3373 239.804 99.2207 240.037 99.062C240.28 98.894 240.471 98.6887 240.611 98.446C240.751 98.194 240.821 97.8907 240.821 97.536V95.394ZM244.139 100V93H244.769L244.825 94.75L244.713 94.652C244.843 94.2693 245.039 93.9473 245.301 93.686C245.562 93.4153 245.875 93.21 246.239 93.07C246.603 92.93 246.995 92.86 247.415 92.86C247.937 92.86 248.399 92.958 248.801 93.154C249.202 93.35 249.515 93.6393 249.739 94.022C249.972 94.4047 250.089 94.8853 250.089 95.464V100H249.389V95.688C249.389 94.9227 249.197 94.3627 248.815 94.008C248.441 93.6533 247.951 93.476 247.345 93.476C246.906 93.476 246.495 93.5787 246.113 93.784C245.739 93.98 245.431 94.2693 245.189 94.652C244.955 95.0347 244.839 95.5013 244.839 96.052V100H244.139ZM255.236 100.14C254.629 100.14 254.083 99.9953 253.598 99.706C253.112 99.4167 252.73 99.0013 252.45 98.46C252.179 97.9093 252.044 97.256 252.044 96.5C252.044 95.7253 252.188 95.0673 252.478 94.526C252.767 93.9847 253.159 93.574 253.654 93.294C254.148 93.0047 254.694 92.86 255.292 92.86C255.945 92.86 256.5 93.0327 256.958 93.378C257.424 93.7233 257.737 94.204 257.896 94.82L257.812 94.876V89.78H258.512V100H257.882L257.84 98.054L257.924 98.026C257.84 98.474 257.667 98.8567 257.406 99.174C257.154 99.4913 256.836 99.734 256.454 99.902C256.08 100.061 255.674 100.14 255.236 100.14ZM255.32 99.524C255.814 99.524 256.248 99.4027 256.622 99.16C256.995 98.908 257.284 98.5487 257.49 98.082C257.704 97.6153 257.812 97.0693 257.812 96.444C257.812 95.828 257.704 95.3007 257.49 94.862C257.284 94.414 256.995 94.0733 256.622 93.84C256.258 93.5973 255.833 93.476 255.348 93.476C254.545 93.476 253.91 93.7467 253.444 94.288C252.977 94.8293 252.744 95.5667 252.744 96.5C252.744 97.4333 252.972 98.1707 253.43 98.712C253.896 99.2533 254.526 99.524 255.32 99.524ZM111.042 107.712L111.21 108.328C111.201 108.328 111.191 108.328 111.182 108.328C111.173 108.328 111.159 108.328 111.14 108.328C110.683 108.328 110.328 108.449 110.076 108.692C109.833 108.925 109.712 109.257 109.712 109.686L109.264 109.462C109.264 109.107 109.339 108.799 109.488 108.538C109.637 108.277 109.843 108.076 110.104 107.936C110.365 107.787 110.659 107.712 110.986 107.712C111.005 107.712 111.014 107.712 111.014 107.712C111.023 107.712 111.033 107.712 111.042 107.712ZM108.83 115.286C109.521 115.286 110.062 115.431 110.454 115.72C110.846 116.009 111.042 116.397 111.042 116.882C111.042 117.311 110.897 117.685 110.608 118.002C110.328 118.319 109.941 118.567 109.446 118.744C108.951 118.921 108.387 119.01 107.752 119.01C106.697 119.01 105.89 118.828 105.33 118.464C104.77 118.109 104.49 117.661 104.49 117.12C104.49 116.728 104.63 116.387 104.91 116.098C105.199 115.809 105.619 115.636 106.17 115.58L106.114 115.706C105.815 115.622 105.549 115.482 105.316 115.286C105.092 115.09 104.98 114.81 104.98 114.446C104.98 114.054 105.125 113.737 105.414 113.494C105.713 113.242 106.105 113.097 106.59 113.06L107.332 113.312H107.038C106.609 113.34 106.263 113.447 106.002 113.634C105.75 113.811 105.624 114.045 105.624 114.334C105.624 114.651 105.745 114.889 105.988 115.048C106.24 115.207 106.557 115.286 106.94 115.286H108.83ZM107.752 118.422C108.303 118.422 108.774 118.357 109.166 118.226C109.558 118.095 109.857 117.918 110.062 117.694C110.277 117.479 110.384 117.237 110.384 116.966C110.384 116.639 110.239 116.378 109.95 116.182C109.67 115.986 109.241 115.888 108.662 115.888H106.674C106.235 115.888 105.871 115.991 105.582 116.196C105.293 116.401 105.148 116.677 105.148 117.022C105.148 117.442 105.377 117.778 105.834 118.03C106.301 118.291 106.94 118.422 107.752 118.422ZM107.654 108.86C108.205 108.86 108.69 108.958 109.11 109.154C109.539 109.341 109.871 109.607 110.104 109.952C110.337 110.288 110.454 110.685 110.454 111.142C110.454 111.59 110.337 111.991 110.104 112.346C109.871 112.691 109.539 112.962 109.11 113.158C108.69 113.345 108.205 113.438 107.654 113.438C106.767 113.438 106.072 113.228 105.568 112.808C105.073 112.379 104.826 111.823 104.826 111.142C104.826 110.685 104.943 110.288 105.176 109.952C105.419 109.607 105.75 109.341 106.17 109.154C106.599 108.958 107.094 108.86 107.654 108.86ZM107.654 109.434C107.038 109.434 106.534 109.593 106.142 109.91C105.75 110.218 105.554 110.629 105.554 111.142C105.554 111.655 105.75 112.071 106.142 112.388C106.534 112.705 107.038 112.864 107.654 112.864C108.27 112.864 108.769 112.705 109.152 112.388C109.544 112.071 109.74 111.655 109.74 111.142C109.74 110.629 109.544 110.218 109.152 109.91C108.769 109.593 108.27 109.434 107.654 109.434ZM115.307 108.86C115.96 108.86 116.534 109.005 117.029 109.294C117.533 109.583 117.925 110.003 118.205 110.554C118.494 111.095 118.639 111.744 118.639 112.5C118.639 113.256 118.494 113.909 118.205 114.46C117.925 115.001 117.533 115.417 117.029 115.706C116.534 115.995 115.96 116.14 115.307 116.14C114.654 116.14 114.075 115.995 113.571 115.706C113.076 115.417 112.684 115.001 112.395 114.46C112.115 113.909 111.975 113.256 111.975 112.5C111.975 111.744 112.115 111.095 112.395 110.554C112.684 110.003 113.076 109.583 113.571 109.294C114.075 109.005 114.654 108.86 115.307 108.86ZM115.307 109.462C114.775 109.462 114.313 109.583 113.921 109.826C113.529 110.069 113.221 110.419 112.997 110.876C112.782 111.324 112.675 111.865 112.675 112.5C112.675 113.125 112.782 113.667 112.997 114.124C113.221 114.581 113.529 114.931 113.921 115.174C114.313 115.417 114.775 115.538 115.307 115.538C115.839 115.538 116.301 115.417 116.693 115.174C117.085 114.931 117.388 114.581 117.603 114.124C117.827 113.667 117.939 113.125 117.939 112.5C117.939 111.865 117.827 111.324 117.603 110.876C117.388 110.419 117.085 110.069 116.693 109.826C116.301 109.583 115.839 109.462 115.307 109.462ZM124.925 111.394C124.925 110.787 124.761 110.316 124.435 109.98C124.108 109.644 123.641 109.476 123.035 109.476C122.503 109.476 122.045 109.593 121.663 109.826C121.28 110.05 120.995 110.428 120.809 110.96L120.235 110.596C120.44 110.045 120.781 109.621 121.257 109.322C121.742 109.014 122.339 108.86 123.049 108.86C123.562 108.86 124.01 108.953 124.393 109.14C124.785 109.317 125.088 109.583 125.303 109.938C125.517 110.293 125.625 110.736 125.625 111.268V114.768C125.625 115.263 125.849 115.51 126.297 115.51C126.493 115.51 126.661 115.477 126.801 115.412L126.759 115.972C126.6 116.056 126.395 116.098 126.143 116.098C125.928 116.098 125.727 116.056 125.541 115.972C125.354 115.888 125.2 115.748 125.079 115.552C124.967 115.356 124.911 115.09 124.911 114.754V114.376L125.107 114.362C125.023 114.763 124.836 115.099 124.547 115.37C124.267 115.631 123.94 115.827 123.567 115.958C123.193 116.079 122.82 116.14 122.447 116.14C122.008 116.14 121.616 116.07 121.271 115.93C120.925 115.79 120.655 115.589 120.459 115.328C120.263 115.057 120.165 114.726 120.165 114.334C120.165 113.811 120.337 113.391 120.683 113.074C121.037 112.747 121.532 112.523 122.167 112.402L125.065 111.828V112.416L122.517 112.92C121.966 113.032 121.555 113.195 121.285 113.41C121.014 113.625 120.879 113.919 120.879 114.292C120.879 114.675 121.023 114.978 121.313 115.202C121.602 115.417 122.013 115.524 122.545 115.524C122.815 115.524 123.091 115.487 123.371 115.412C123.651 115.337 123.907 115.221 124.141 115.062C124.383 114.894 124.575 114.689 124.715 114.446C124.855 114.194 124.925 113.891 124.925 113.536V111.394ZM128.886 105.78V114.348C128.886 114.777 128.961 115.081 129.11 115.258C129.259 115.435 129.493 115.524 129.81 115.524C130.006 115.524 130.16 115.51 130.272 115.482C130.393 115.454 130.533 115.407 130.692 115.342L130.594 115.958C130.473 116.014 130.333 116.056 130.174 116.084C130.025 116.121 129.857 116.14 129.67 116.14C129.175 116.14 128.802 116 128.55 115.72C128.307 115.431 128.186 114.983 128.186 114.376V105.78H128.886ZM134.45 116.14C133.741 116.14 133.111 115.995 132.56 115.706C132.019 115.417 131.636 115.001 131.412 114.46L132.014 114.054C132.182 114.521 132.481 114.885 132.91 115.146C133.349 115.398 133.881 115.524 134.506 115.524C135.122 115.524 135.603 115.403 135.948 115.16C136.303 114.917 136.48 114.595 136.48 114.194C136.48 113.923 136.391 113.69 136.214 113.494C136.046 113.289 135.724 113.135 135.248 113.032L133.61 112.682C132.938 112.542 132.457 112.318 132.168 112.01C131.888 111.693 131.748 111.31 131.748 110.862C131.748 110.489 131.86 110.153 132.084 109.854C132.308 109.555 132.616 109.317 133.008 109.14C133.409 108.953 133.876 108.86 134.408 108.86C135.108 108.86 135.687 109 136.144 109.28C136.601 109.551 136.923 109.961 137.11 110.512L136.522 110.89C136.382 110.395 136.121 110.036 135.738 109.812C135.365 109.588 134.921 109.476 134.408 109.476C134.016 109.476 133.671 109.537 133.372 109.658C133.083 109.77 132.854 109.929 132.686 110.134C132.527 110.33 132.448 110.559 132.448 110.82C132.448 111.091 132.541 111.338 132.728 111.562C132.915 111.777 133.246 111.935 133.722 112.038L135.402 112.402C136.065 112.542 136.527 112.757 136.788 113.046C137.049 113.326 137.18 113.676 137.18 114.096C137.18 114.516 137.068 114.88 136.844 115.188C136.62 115.496 136.303 115.734 135.892 115.902C135.481 116.061 135.001 116.14 134.45 116.14ZM154.923 111.954V112.612H143.331V111.954H154.923ZM162.259 105.78V114.348C162.259 114.777 162.334 115.081 162.483 115.258C162.632 115.435 162.866 115.524 163.183 115.524C163.379 115.524 163.533 115.51 163.645 115.482C163.766 115.454 163.906 115.407 164.065 115.342L163.967 115.958C163.846 116.014 163.706 116.056 163.547 116.084C163.398 116.121 163.23 116.14 163.043 116.14C162.548 116.14 162.175 116 161.923 115.72C161.68 115.431 161.559 114.983 161.559 114.376V105.78H162.259ZM169.741 111.394C169.741 110.787 169.578 110.316 169.251 109.98C168.924 109.644 168.458 109.476 167.851 109.476C167.319 109.476 166.862 109.593 166.479 109.826C166.096 110.05 165.812 110.428 165.625 110.96L165.051 110.596C165.256 110.045 165.597 109.621 166.073 109.322C166.558 109.014 167.156 108.86 167.865 108.86C168.378 108.86 168.826 108.953 169.209 109.14C169.601 109.317 169.904 109.583 170.119 109.938C170.334 110.293 170.441 110.736 170.441 111.268V114.768C170.441 115.263 170.665 115.51 171.113 115.51C171.309 115.51 171.477 115.477 171.617 115.412L171.575 115.972C171.416 116.056 171.211 116.098 170.959 116.098C170.744 116.098 170.544 116.056 170.357 115.972C170.17 115.888 170.016 115.748 169.895 115.552C169.783 115.356 169.727 115.09 169.727 114.754V114.376L169.923 114.362C169.839 114.763 169.652 115.099 169.363 115.37C169.083 115.631 168.756 115.827 168.383 115.958C168.01 116.079 167.636 116.14 167.263 116.14C166.824 116.14 166.432 116.07 166.087 115.93C165.742 115.79 165.471 115.589 165.275 115.328C165.079 115.057 164.981 114.726 164.981 114.334C164.981 113.811 165.154 113.391 165.499 113.074C165.854 112.747 166.348 112.523 166.983 112.402L169.881 111.828V112.416L167.333 112.92C166.782 113.032 166.372 113.195 166.101 113.41C165.83 113.625 165.695 113.919 165.695 114.292C165.695 114.675 165.84 114.978 166.129 115.202C166.418 115.417 166.829 115.524 167.361 115.524C167.632 115.524 167.907 115.487 168.187 115.412C168.467 115.337 168.724 115.221 168.957 115.062C169.2 114.894 169.391 114.689 169.531 114.446C169.671 114.194 169.741 113.891 169.741 113.536V111.394ZM178.246 109L174.858 117.288C174.69 117.717 174.508 118.058 174.312 118.31C174.116 118.562 173.897 118.739 173.654 118.842C173.412 118.954 173.132 119.01 172.814 119.01C172.534 119.01 172.278 118.968 172.044 118.884C171.811 118.8 171.62 118.683 171.47 118.534L171.694 117.932C171.834 118.1 172.002 118.217 172.198 118.282C172.394 118.357 172.595 118.394 172.8 118.394C173.099 118.394 173.365 118.305 173.598 118.128C173.832 117.96 174.051 117.624 174.256 117.12L174.718 116L173.976 114.264L171.764 109H172.562L174.704 114.306L175.054 115.244L175.432 114.236L177.49 109H178.246ZM180.08 107.642C179.903 107.642 179.758 107.591 179.646 107.488C179.544 107.376 179.492 107.231 179.492 107.054C179.492 106.877 179.544 106.737 179.646 106.634C179.758 106.522 179.903 106.466 180.08 106.466C180.258 106.466 180.398 106.522 180.5 106.634C180.612 106.737 180.668 106.877 180.668 107.054C180.668 107.231 180.612 107.376 180.5 107.488C180.398 107.591 180.258 107.642 180.08 107.642ZM180.43 109V116H179.73V109H180.43ZM182.916 116V109H183.546L183.602 110.75L183.49 110.652C183.621 110.269 183.817 109.947 184.078 109.686C184.339 109.415 184.652 109.21 185.016 109.07C185.38 108.93 185.772 108.86 186.192 108.86C186.715 108.86 187.177 108.958 187.578 109.154C187.979 109.35 188.292 109.639 188.516 110.022C188.749 110.405 188.866 110.885 188.866 111.464V116H188.166V111.688C188.166 110.923 187.975 110.363 187.592 110.008C187.219 109.653 186.729 109.476 186.122 109.476C185.683 109.476 185.273 109.579 184.89 109.784C184.517 109.98 184.209 110.269 183.966 110.652C183.733 111.035 183.616 111.501 183.616 112.052V116H182.916ZM197.079 107.712L197.247 108.328C197.238 108.328 197.228 108.328 197.219 108.328C197.21 108.328 197.196 108.328 197.177 108.328C196.72 108.328 196.365 108.449 196.113 108.692C195.87 108.925 195.749 109.257 195.749 109.686L195.301 109.462C195.301 109.107 195.376 108.799 195.525 108.538C195.674 108.277 195.88 108.076 196.141 107.936C196.402 107.787 196.696 107.712 197.023 107.712C197.042 107.712 197.051 107.712 197.051 107.712C197.06 107.712 197.07 107.712 197.079 107.712ZM194.867 115.286C195.558 115.286 196.099 115.431 196.491 115.72C196.883 116.009 197.079 116.397 197.079 116.882C197.079 117.311 196.934 117.685 196.645 118.002C196.365 118.319 195.978 118.567 195.483 118.744C194.988 118.921 194.424 119.01 193.789 119.01C192.734 119.01 191.927 118.828 191.367 118.464C190.807 118.109 190.527 117.661 190.527 117.12C190.527 116.728 190.667 116.387 190.947 116.098C191.236 115.809 191.656 115.636 192.207 115.58L192.151 115.706C191.852 115.622 191.586 115.482 191.353 115.286C191.129 115.09 191.017 114.81 191.017 114.446C191.017 114.054 191.162 113.737 191.451 113.494C191.75 113.242 192.142 113.097 192.627 113.06L193.369 113.312H193.075C192.646 113.34 192.3 113.447 192.039 113.634C191.787 113.811 191.661 114.045 191.661 114.334C191.661 114.651 191.782 114.889 192.025 115.048C192.277 115.207 192.594 115.286 192.977 115.286H194.867ZM193.789 118.422C194.34 118.422 194.811 118.357 195.203 118.226C195.595 118.095 195.894 117.918 196.099 117.694C196.314 117.479 196.421 117.237 196.421 116.966C196.421 116.639 196.276 116.378 195.987 116.182C195.707 115.986 195.278 115.888 194.699 115.888H192.711C192.272 115.888 191.908 115.991 191.619 116.196C191.33 116.401 191.185 116.677 191.185 117.022C191.185 117.442 191.414 117.778 191.871 118.03C192.338 118.291 192.977 118.422 193.789 118.422ZM193.691 108.86C194.242 108.86 194.727 108.958 195.147 109.154C195.576 109.341 195.908 109.607 196.141 109.952C196.374 110.288 196.491 110.685 196.491 111.142C196.491 111.59 196.374 111.991 196.141 112.346C195.908 112.691 195.576 112.962 195.147 113.158C194.727 113.345 194.242 113.438 193.691 113.438C192.804 113.438 192.109 113.228 191.605 112.808C191.11 112.379 190.863 111.823 190.863 111.142C190.863 110.685 190.98 110.288 191.213 109.952C191.456 109.607 191.787 109.341 192.207 109.154C192.636 108.958 193.131 108.86 193.691 108.86ZM193.691 109.434C193.075 109.434 192.571 109.593 192.179 109.91C191.787 110.218 191.591 110.629 191.591 111.142C191.591 111.655 191.787 112.071 192.179 112.388C192.571 112.705 193.075 112.864 193.691 112.864C194.307 112.864 194.806 112.705 195.189 112.388C195.581 112.071 195.777 111.655 195.777 111.142C195.777 110.629 195.581 110.218 195.189 109.91C194.806 109.593 194.307 109.434 193.691 109.434ZM203.765 107.054V114.152C203.765 114.591 203.868 114.927 204.073 115.16C204.288 115.384 204.596 115.496 204.997 115.496C205.259 115.496 205.487 115.454 205.683 115.37C205.889 115.277 206.071 115.146 206.229 114.978L206.495 115.552C206.318 115.729 206.094 115.874 205.823 115.986C205.553 116.089 205.249 116.14 204.913 116.14C204.549 116.14 204.227 116.075 203.947 115.944C203.667 115.804 203.448 115.594 203.289 115.314C203.14 115.034 203.065 114.679 203.065 114.25V107.25L203.765 107.054ZM206.383 109V109.602H201.665V109H206.383ZM207.881 116V105.78H208.581V110.428C208.786 109.933 209.117 109.551 209.575 109.28C210.032 109 210.559 108.86 211.157 108.86C211.679 108.86 212.141 108.958 212.543 109.154C212.944 109.341 213.257 109.63 213.481 110.022C213.714 110.405 213.831 110.881 213.831 111.45V116H213.131V111.674C213.131 110.918 212.939 110.363 212.557 110.008C212.183 109.644 211.693 109.462 211.087 109.462C210.648 109.462 210.237 109.565 209.855 109.77C209.481 109.975 209.173 110.269 208.931 110.652C208.697 111.035 208.581 111.501 208.581 112.052V116H207.881ZM219.104 116.14C218.46 116.14 217.886 115.995 217.382 115.706C216.878 115.417 216.481 115.001 216.192 114.46C215.912 113.909 215.772 113.256 215.772 112.5C215.772 111.744 215.912 111.095 216.192 110.554C216.481 110.003 216.869 109.583 217.354 109.294C217.839 109.005 218.395 108.86 219.02 108.86C219.655 108.86 220.196 109 220.644 109.28C221.092 109.56 221.437 109.952 221.68 110.456C221.923 110.951 222.044 111.525 222.044 112.178C222.044 112.262 222.039 112.346 222.03 112.43C222.03 112.505 222.025 112.575 222.016 112.64H216.206V112.01H221.708L221.358 112.108C221.349 111.305 221.134 110.666 220.714 110.19C220.303 109.714 219.734 109.476 219.006 109.476C218.502 109.476 218.059 109.597 217.676 109.84C217.293 110.073 216.995 110.419 216.78 110.876C216.565 111.324 216.458 111.865 216.458 112.5C216.458 113.125 216.565 113.667 216.78 114.124C217.004 114.581 217.312 114.931 217.704 115.174C218.105 115.407 218.567 115.524 219.09 115.524C219.631 115.524 220.093 115.407 220.476 115.174C220.868 114.941 221.171 114.619 221.386 114.208L221.946 114.53C221.778 114.866 221.554 115.155 221.274 115.398C220.994 115.631 220.672 115.813 220.308 115.944C219.944 116.075 219.543 116.14 219.104 116.14ZM111.042 123.712L111.21 124.328C111.201 124.328 111.191 124.328 111.182 124.328C111.173 124.328 111.159 124.328 111.14 124.328C110.683 124.328 110.328 124.449 110.076 124.692C109.833 124.925 109.712 125.257 109.712 125.686L109.264 125.462C109.264 125.107 109.339 124.799 109.488 124.538C109.637 124.277 109.843 124.076 110.104 123.936C110.365 123.787 110.659 123.712 110.986 123.712C111.005 123.712 111.014 123.712 111.014 123.712C111.023 123.712 111.033 123.712 111.042 123.712ZM108.83 131.286C109.521 131.286 110.062 131.431 110.454 131.72C110.846 132.009 111.042 132.397 111.042 132.882C111.042 133.311 110.897 133.685 110.608 134.002C110.328 134.319 109.941 134.567 109.446 134.744C108.951 134.921 108.387 135.01 107.752 135.01C106.697 135.01 105.89 134.828 105.33 134.464C104.77 134.109 104.49 133.661 104.49 133.12C104.49 132.728 104.63 132.387 104.91 132.098C105.199 131.809 105.619 131.636 106.17 131.58L106.114 131.706C105.815 131.622 105.549 131.482 105.316 131.286C105.092 131.09 104.98 130.81 104.98 130.446C104.98 130.054 105.125 129.737 105.414 129.494C105.713 129.242 106.105 129.097 106.59 129.06L107.332 129.312H107.038C106.609 129.34 106.263 129.447 106.002 129.634C105.75 129.811 105.624 130.045 105.624 130.334C105.624 130.651 105.745 130.889 105.988 131.048C106.24 131.207 106.557 131.286 106.94 131.286H108.83ZM107.752 134.422C108.303 134.422 108.774 134.357 109.166 134.226C109.558 134.095 109.857 133.918 110.062 133.694C110.277 133.479 110.384 133.237 110.384 132.966C110.384 132.639 110.239 132.378 109.95 132.182C109.67 131.986 109.241 131.888 108.662 131.888H106.674C106.235 131.888 105.871 131.991 105.582 132.196C105.293 132.401 105.148 132.677 105.148 133.022C105.148 133.442 105.377 133.778 105.834 134.03C106.301 134.291 106.94 134.422 107.752 134.422ZM107.654 124.86C108.205 124.86 108.69 124.958 109.11 125.154C109.539 125.341 109.871 125.607 110.104 125.952C110.337 126.288 110.454 126.685 110.454 127.142C110.454 127.59 110.337 127.991 110.104 128.346C109.871 128.691 109.539 128.962 109.11 129.158C108.69 129.345 108.205 129.438 107.654 129.438C106.767 129.438 106.072 129.228 105.568 128.808C105.073 128.379 104.826 127.823 104.826 127.142C104.826 126.685 104.943 126.288 105.176 125.952C105.419 125.607 105.75 125.341 106.17 125.154C106.599 124.958 107.094 124.86 107.654 124.86ZM107.654 125.434C107.038 125.434 106.534 125.593 106.142 125.91C105.75 126.218 105.554 126.629 105.554 127.142C105.554 127.655 105.75 128.071 106.142 128.388C106.534 128.705 107.038 128.864 107.654 128.864C108.27 128.864 108.769 128.705 109.152 128.388C109.544 128.071 109.74 127.655 109.74 127.142C109.74 126.629 109.544 126.218 109.152 125.91C108.769 125.593 108.27 125.434 107.654 125.434ZM112.451 132V125H113.039L113.123 126.47C113.3 125.975 113.585 125.583 113.977 125.294C114.369 125.005 114.84 124.86 115.391 124.86C115.578 124.86 115.746 124.879 115.895 124.916C116.044 124.953 116.166 125.014 116.259 125.098L116.105 125.714C116.002 125.649 115.89 125.597 115.769 125.56C115.648 125.523 115.466 125.504 115.223 125.504C114.868 125.504 114.532 125.616 114.215 125.84C113.898 126.055 113.641 126.358 113.445 126.75C113.249 127.133 113.151 127.576 113.151 128.08V132H112.451ZM120.27 124.86C120.923 124.86 121.497 125.005 121.992 125.294C122.496 125.583 122.888 126.003 123.168 126.554C123.457 127.095 123.602 127.744 123.602 128.5C123.602 129.256 123.457 129.909 123.168 130.46C122.888 131.001 122.496 131.417 121.992 131.706C121.497 131.995 120.923 132.14 120.27 132.14C119.617 132.14 119.038 131.995 118.534 131.706C118.039 131.417 117.647 131.001 117.358 130.46C117.078 129.909 116.938 129.256 116.938 128.5C116.938 127.744 117.078 127.095 117.358 126.554C117.647 126.003 118.039 125.583 118.534 125.294C119.038 125.005 119.617 124.86 120.27 124.86ZM120.27 125.462C119.738 125.462 119.276 125.583 118.884 125.826C118.492 126.069 118.184 126.419 117.96 126.876C117.745 127.324 117.638 127.865 117.638 128.5C117.638 129.125 117.745 129.667 117.96 130.124C118.184 130.581 118.492 130.931 118.884 131.174C119.276 131.417 119.738 131.538 120.27 131.538C120.802 131.538 121.264 131.417 121.656 131.174C122.048 130.931 122.351 130.581 122.566 130.124C122.79 129.667 122.902 129.125 122.902 128.5C122.902 127.865 122.79 127.324 122.566 126.876C122.351 126.419 122.048 126.069 121.656 125.826C121.264 125.583 120.802 125.462 120.27 125.462ZM128.067 132.14C127.582 132.14 127.148 132.051 126.765 131.874C126.383 131.697 126.079 131.421 125.855 131.048C125.641 130.665 125.533 130.189 125.533 129.62V125H126.233V129.452C126.233 130.18 126.406 130.707 126.751 131.034C127.106 131.361 127.601 131.524 128.235 131.524C128.609 131.524 128.945 131.459 129.243 131.328C129.551 131.197 129.813 131.015 130.027 130.782C130.242 130.549 130.405 130.283 130.517 129.984C130.639 129.685 130.699 129.363 130.699 129.018V125H131.399V132H130.769L130.741 130.558C130.536 131.053 130.2 131.44 129.733 131.72C129.267 132 128.711 132.14 128.067 132.14ZM133.889 132V125H134.519L134.575 126.75L134.463 126.652C134.593 126.269 134.789 125.947 135.051 125.686C135.312 125.415 135.625 125.21 135.989 125.07C136.353 124.93 136.745 124.86 137.165 124.86C137.687 124.86 138.149 124.958 138.551 125.154C138.952 125.35 139.265 125.639 139.489 126.022C139.722 126.405 139.839 126.885 139.839 127.464V132H139.139V127.688C139.139 126.923 138.947 126.363 138.565 126.008C138.191 125.653 137.701 125.476 137.095 125.476C136.656 125.476 136.245 125.579 135.863 125.784C135.489 125.98 135.181 126.269 134.939 126.652C134.705 127.035 134.589 127.501 134.589 128.052V132H133.889ZM144.986 132.14C144.379 132.14 143.833 131.995 143.348 131.706C142.862 131.417 142.48 131.001 142.2 130.46C141.929 129.909 141.794 129.256 141.794 128.5C141.794 127.725 141.938 127.067 142.228 126.526C142.517 125.985 142.909 125.574 143.404 125.294C143.898 125.005 144.444 124.86 145.042 124.86C145.695 124.86 146.25 125.033 146.708 125.378C147.174 125.723 147.487 126.204 147.646 126.82L147.562 126.876V121.78H148.262V132H147.632L147.59 130.054L147.674 130.026C147.59 130.474 147.417 130.857 147.156 131.174C146.904 131.491 146.586 131.734 146.204 131.902C145.83 132.061 145.424 132.14 144.986 132.14ZM145.07 131.524C145.564 131.524 145.998 131.403 146.372 131.16C146.745 130.908 147.034 130.549 147.24 130.082C147.454 129.615 147.562 129.069 147.562 128.444C147.562 127.828 147.454 127.301 147.24 126.862C147.034 126.414 146.745 126.073 146.372 125.84C146.008 125.597 145.583 125.476 145.098 125.476C144.295 125.476 143.66 125.747 143.194 126.288C142.727 126.829 142.494 127.567 142.494 128.5C142.494 129.433 142.722 130.171 143.18 130.712C143.646 131.253 144.276 131.524 145.07 131.524ZM159.678 125H160.448L158.068 132H157.368L155.156 125.91L152.986 132H152.286L149.906 125H150.676L152.65 131.16L154.82 125H155.534L157.718 131.16L159.678 125ZM164.758 124.86C165.412 124.86 165.986 125.005 166.48 125.294C166.984 125.583 167.376 126.003 167.656 126.554C167.946 127.095 168.09 127.744 168.09 128.5C168.09 129.256 167.946 129.909 167.656 130.46C167.376 131.001 166.984 131.417 166.48 131.706C165.986 131.995 165.412 132.14 164.758 132.14C164.105 132.14 163.526 131.995 163.022 131.706C162.528 131.417 162.136 131.001 161.846 130.46C161.566 129.909 161.426 129.256 161.426 128.5C161.426 127.744 161.566 127.095 161.846 126.554C162.136 126.003 162.528 125.583 163.022 125.294C163.526 125.005 164.105 124.86 164.758 124.86ZM164.758 125.462C164.226 125.462 163.764 125.583 163.372 125.826C162.98 126.069 162.672 126.419 162.448 126.876C162.234 127.324 162.126 127.865 162.126 128.5C162.126 129.125 162.234 129.667 162.448 130.124C162.672 130.581 162.98 130.931 163.372 131.174C163.764 131.417 164.226 131.538 164.758 131.538C165.29 131.538 165.752 131.417 166.144 131.174C166.536 130.931 166.84 130.581 167.054 130.124C167.278 129.667 167.39 129.125 167.39 128.5C167.39 127.865 167.278 127.324 167.054 126.876C166.84 126.419 166.536 126.069 166.144 125.826C165.752 125.583 165.29 125.462 164.758 125.462ZM170.092 132V125H170.68L170.764 126.47C170.941 125.975 171.226 125.583 171.618 125.294C172.01 125.005 172.481 124.86 173.032 124.86C173.218 124.86 173.386 124.879 173.536 124.916C173.685 124.953 173.806 125.014 173.9 125.098L173.746 125.714C173.643 125.649 173.531 125.597 173.41 125.56C173.288 125.523 173.106 125.504 172.864 125.504C172.509 125.504 172.173 125.616 171.856 125.84C171.538 126.055 171.282 126.358 171.086 126.75C170.89 127.133 170.792 127.576 170.792 128.08V132H170.092ZM181.151 125L178.071 127.968L177.903 128.136L175.733 130.236V129.34L180.241 125H181.151ZM176.083 121.78V132H175.383V121.78H176.083ZM178.113 127.604L181.263 132H180.409L177.539 128.01L178.113 127.604ZM189.197 121.71C189.449 121.71 189.673 121.743 189.869 121.808C190.065 121.873 190.219 121.967 190.331 122.088L190.135 122.648C190.013 122.536 189.883 122.457 189.743 122.41C189.603 122.363 189.439 122.34 189.253 122.34C188.795 122.34 188.441 122.471 188.189 122.732C187.937 122.993 187.811 123.381 187.811 123.894V125V125.252V132H187.111V123.824C187.111 123.507 187.153 123.217 187.237 122.956C187.33 122.695 187.465 122.475 187.643 122.298C187.82 122.111 188.039 121.967 188.301 121.864C188.562 121.761 188.861 121.71 189.197 121.71ZM190.275 125V125.602H185.711V125H190.275ZM194.221 124.86C194.874 124.86 195.448 125.005 195.943 125.294C196.447 125.583 196.839 126.003 197.119 126.554C197.408 127.095 197.553 127.744 197.553 128.5C197.553 129.256 197.408 129.909 197.119 130.46C196.839 131.001 196.447 131.417 195.943 131.706C195.448 131.995 194.874 132.14 194.221 132.14C193.568 132.14 192.989 131.995 192.485 131.706C191.99 131.417 191.598 131.001 191.309 130.46C191.029 129.909 190.889 129.256 190.889 128.5C190.889 127.744 191.029 127.095 191.309 126.554C191.598 126.003 191.99 125.583 192.485 125.294C192.989 125.005 193.568 124.86 194.221 124.86ZM194.221 125.462C193.689 125.462 193.227 125.583 192.835 125.826C192.443 126.069 192.135 126.419 191.911 126.876C191.696 127.324 191.589 127.865 191.589 128.5C191.589 129.125 191.696 129.667 191.911 130.124C192.135 130.581 192.443 130.931 192.835 131.174C193.227 131.417 193.689 131.538 194.221 131.538C194.753 131.538 195.215 131.417 195.607 131.174C195.999 130.931 196.302 130.581 196.517 130.124C196.741 129.667 196.853 129.125 196.853 128.5C196.853 127.865 196.741 127.324 196.517 126.876C196.302 126.419 195.999 126.069 195.607 125.826C195.215 125.583 194.753 125.462 194.221 125.462ZM199.555 132V125H200.143L200.227 126.47C200.404 125.975 200.689 125.583 201.081 125.294C201.473 125.005 201.944 124.86 202.495 124.86C202.681 124.86 202.849 124.879 202.999 124.916C203.148 124.953 203.269 125.014 203.363 125.098L203.209 125.714C203.106 125.649 202.994 125.597 202.873 125.56C202.751 125.523 202.569 125.504 202.327 125.504C201.972 125.504 201.636 125.616 201.319 125.84C201.001 126.055 200.745 126.358 200.549 126.75C200.353 127.133 200.255 127.576 200.255 128.08V132H199.555ZM211.195 121.71C211.447 121.71 211.671 121.743 211.867 121.808C212.063 121.873 212.217 121.967 212.329 122.088L212.133 122.648C212.011 122.536 211.881 122.457 211.741 122.41C211.601 122.363 211.437 122.34 211.251 122.34C210.793 122.34 210.439 122.471 210.187 122.732C209.935 122.993 209.809 123.381 209.809 123.894V125V125.252V132H209.109V123.824C209.109 123.507 209.151 123.217 209.235 122.956C209.328 122.695 209.463 122.475 209.641 122.298C209.818 122.111 210.037 121.967 210.299 121.864C210.56 121.761 210.859 121.71 211.195 121.71ZM212.273 125V125.602H207.709V125H212.273ZM216.219 124.86C216.873 124.86 217.447 125.005 217.941 125.294C218.445 125.583 218.837 126.003 219.117 126.554C219.407 127.095 219.551 127.744 219.551 128.5C219.551 129.256 219.407 129.909 219.117 130.46C218.837 131.001 218.445 131.417 217.941 131.706C217.447 131.995 216.873 132.14 216.219 132.14C215.566 132.14 214.987 131.995 214.483 131.706C213.989 131.417 213.597 131.001 213.307 130.46C213.027 129.909 212.887 129.256 212.887 128.5C212.887 127.744 213.027 127.095 213.307 126.554C213.597 126.003 213.989 125.583 214.483 125.294C214.987 125.005 215.566 124.86 216.219 124.86ZM216.219 125.462C215.687 125.462 215.225 125.583 214.833 125.826C214.441 126.069 214.133 126.419 213.909 126.876C213.695 127.324 213.587 127.865 213.587 128.5C213.587 129.125 213.695 129.667 213.909 130.124C214.133 130.581 214.441 130.931 214.833 131.174C215.225 131.417 215.687 131.538 216.219 131.538C216.751 131.538 217.213 131.417 217.605 131.174C217.997 130.931 218.301 130.581 218.515 130.124C218.739 129.667 218.851 129.125 218.851 128.5C218.851 127.865 218.739 127.324 218.515 126.876C218.301 126.419 217.997 126.069 217.605 125.826C217.213 125.583 216.751 125.462 216.219 125.462ZM224.381 124.86C224.857 124.86 225.281 124.935 225.655 125.084C226.028 125.233 226.345 125.448 226.607 125.728C226.868 126.008 227.069 126.349 227.209 126.75L226.551 127.058C226.401 126.554 226.14 126.167 225.767 125.896C225.403 125.616 224.936 125.476 224.367 125.476C223.853 125.476 223.401 125.597 223.009 125.84C222.617 126.073 222.313 126.419 222.099 126.876C221.884 127.324 221.777 127.865 221.777 128.5C221.777 129.125 221.884 129.667 222.099 130.124C222.313 130.581 222.612 130.931 222.995 131.174C223.377 131.407 223.83 131.524 224.353 131.524C224.745 131.524 225.099 131.459 225.417 131.328C225.743 131.197 226.009 131.006 226.215 130.754C226.429 130.502 226.569 130.203 226.635 129.858L227.279 130.082C227.157 130.511 226.957 130.88 226.677 131.188C226.406 131.496 226.075 131.734 225.683 131.902C225.291 132.061 224.852 132.14 224.367 132.14C223.732 132.14 223.163 131.995 222.659 131.706C222.164 131.417 221.777 131.001 221.497 130.46C221.217 129.909 221.077 129.256 221.077 128.5C221.077 127.744 221.217 127.095 221.497 126.554C221.786 126.003 222.178 125.583 222.673 125.294C223.177 125.005 223.746 124.86 224.381 124.86ZM231.618 132.14C231.133 132.14 230.699 132.051 230.316 131.874C229.934 131.697 229.63 131.421 229.406 131.048C229.192 130.665 229.084 130.189 229.084 129.62V125H229.784V129.452C229.784 130.18 229.957 130.707 230.302 131.034C230.657 131.361 231.152 131.524 231.786 131.524C232.16 131.524 232.496 131.459 232.794 131.328C233.102 131.197 233.364 131.015 233.578 130.782C233.793 130.549 233.956 130.283 234.068 129.984C234.19 129.685 234.25 129.363 234.25 129.018V125H234.95V132H234.32L234.292 130.558C234.087 131.053 233.751 131.44 233.284 131.72C232.818 132 232.262 132.14 231.618 132.14ZM239.805 132.14C239.096 132.14 238.466 131.995 237.915 131.706C237.374 131.417 236.991 131.001 236.767 130.46L237.369 130.054C237.537 130.521 237.836 130.885 238.265 131.146C238.704 131.398 239.236 131.524 239.861 131.524C240.477 131.524 240.958 131.403 241.303 131.16C241.658 130.917 241.835 130.595 241.835 130.194C241.835 129.923 241.747 129.69 241.569 129.494C241.401 129.289 241.079 129.135 240.603 129.032L238.965 128.682C238.293 128.542 237.813 128.318 237.523 128.01C237.243 127.693 237.103 127.31 237.103 126.862C237.103 126.489 237.215 126.153 237.439 125.854C237.663 125.555 237.971 125.317 238.363 125.14C238.765 124.953 239.231 124.86 239.763 124.86C240.463 124.86 241.042 125 241.499 125.28C241.957 125.551 242.279 125.961 242.465 126.512L241.877 126.89C241.737 126.395 241.476 126.036 241.093 125.812C240.72 125.588 240.277 125.476 239.763 125.476C239.371 125.476 239.026 125.537 238.727 125.658C238.438 125.77 238.209 125.929 238.041 126.134C237.883 126.33 237.803 126.559 237.803 126.82C237.803 127.091 237.897 127.338 238.083 127.562C238.27 127.777 238.601 127.935 239.077 128.038L240.757 128.402C241.42 128.542 241.882 128.757 242.143 129.046C242.405 129.326 242.535 129.676 242.535 130.096C242.535 130.516 242.423 130.88 242.199 131.188C241.975 131.496 241.658 131.734 241.247 131.902C240.837 132.061 240.356 132.14 239.805 132.14ZM247.35 132.14C246.706 132.14 246.132 131.995 245.628 131.706C245.124 131.417 244.727 131.001 244.438 130.46C244.158 129.909 244.018 129.256 244.018 128.5C244.018 127.744 244.158 127.095 244.438 126.554C244.727 126.003 245.115 125.583 245.6 125.294C246.085 125.005 246.641 124.86 247.266 124.86C247.901 124.86 248.442 125 248.89 125.28C249.338 125.56 249.683 125.952 249.926 126.456C250.169 126.951 250.29 127.525 250.29 128.178C250.29 128.262 250.285 128.346 250.276 128.43C250.276 128.505 250.271 128.575 250.262 128.64H244.452V128.01H249.954L249.604 128.108C249.595 127.305 249.38 126.666 248.96 126.19C248.549 125.714 247.98 125.476 247.252 125.476C246.748 125.476 246.305 125.597 245.922 125.84C245.539 126.073 245.241 126.419 245.026 126.876C244.811 127.324 244.704 127.865 244.704 128.5C244.704 129.125 244.811 129.667 245.026 130.124C245.25 130.581 245.558 130.931 245.95 131.174C246.351 131.407 246.813 131.524 247.336 131.524C247.877 131.524 248.339 131.407 248.722 131.174C249.114 130.941 249.417 130.619 249.632 130.208L250.192 130.53C250.024 130.866 249.8 131.155 249.52 131.398C249.24 131.631 248.918 131.813 248.554 131.944C248.19 132.075 247.789 132.14 247.35 132.14ZM255.017 132.14C254.41 132.14 253.864 131.995 253.379 131.706C252.894 131.417 252.511 131.001 252.231 130.46C251.96 129.909 251.825 129.256 251.825 128.5C251.825 127.725 251.97 127.067 252.259 126.526C252.548 125.985 252.94 125.574 253.435 125.294C253.93 125.005 254.476 124.86 255.073 124.86C255.726 124.86 256.282 125.033 256.739 125.378C257.206 125.723 257.518 126.204 257.677 126.82L257.593 126.876V121.78H258.293V132H257.663L257.621 130.054L257.705 130.026C257.621 130.474 257.448 130.857 257.187 131.174C256.935 131.491 256.618 131.734 256.235 131.902C255.862 132.061 255.456 132.14 255.017 132.14ZM255.101 131.524C255.596 131.524 256.03 131.403 256.403 131.16C256.776 130.908 257.066 130.549 257.271 130.082C257.486 129.615 257.593 129.069 257.593 128.444C257.593 127.828 257.486 127.301 257.271 126.862C257.066 126.414 256.776 126.073 256.403 125.84C256.039 125.597 255.614 125.476 255.129 125.476C254.326 125.476 253.692 125.747 253.225 126.288C252.758 126.829 252.525 127.567 252.525 128.5C252.525 129.433 252.754 130.171 253.211 130.712C253.678 131.253 254.308 131.524 255.101 131.524ZM261.085 130.852C261.253 130.852 261.393 130.899 261.505 130.992C261.626 131.076 261.715 131.193 261.771 131.342C261.836 131.491 261.869 131.669 261.869 131.874C261.869 132.117 261.822 132.359 261.729 132.602C261.645 132.845 261.514 133.069 261.337 133.274C261.169 133.479 260.945 133.652 260.665 133.792L260.273 133.442C260.497 133.358 260.693 133.232 260.861 133.064C261.029 132.905 261.155 132.728 261.239 132.532C261.332 132.345 261.374 132.163 261.365 131.986L261.323 131.972C261.295 132.019 261.258 132.051 261.211 132.07C261.164 132.098 261.094 132.112 261.001 132.112C260.917 132.112 260.833 132.084 260.749 132.028C260.665 131.981 260.595 131.916 260.539 131.832C260.483 131.739 260.455 131.627 260.455 131.496C260.455 131.384 260.483 131.277 260.539 131.174C260.604 131.071 260.684 130.992 260.777 130.936C260.87 130.88 260.973 130.852 261.085 130.852ZM108.102 148.14C107.458 148.14 106.884 147.995 106.38 147.706C105.876 147.417 105.479 147.001 105.19 146.46C104.91 145.909 104.77 145.256 104.77 144.5C104.77 143.744 104.91 143.095 105.19 142.554C105.479 142.003 105.867 141.583 106.352 141.294C106.837 141.005 107.393 140.86 108.018 140.86C108.653 140.86 109.194 141 109.642 141.28C110.09 141.56 110.435 141.952 110.678 142.456C110.921 142.951 111.042 143.525 111.042 144.178C111.042 144.262 111.037 144.346 111.028 144.43C111.028 144.505 111.023 144.575 111.014 144.64H105.204V144.01H110.706L110.356 144.108C110.347 143.305 110.132 142.666 109.712 142.19C109.301 141.714 108.732 141.476 108.004 141.476C107.5 141.476 107.057 141.597 106.674 141.84C106.291 142.073 105.993 142.419 105.778 142.876C105.563 143.324 105.456 143.865 105.456 144.5C105.456 145.125 105.563 145.667 105.778 146.124C106.002 146.581 106.31 146.931 106.702 147.174C107.103 147.407 107.565 147.524 108.088 147.524C108.629 147.524 109.091 147.407 109.474 147.174C109.866 146.941 110.169 146.619 110.384 146.208L110.944 146.53C110.776 146.866 110.552 147.155 110.272 147.398C109.992 147.631 109.67 147.813 109.306 147.944C108.942 148.075 108.541 148.14 108.102 148.14ZM115.533 137.71C115.785 137.71 116.009 137.743 116.205 137.808C116.401 137.873 116.555 137.967 116.667 138.088L116.471 138.648C116.349 138.536 116.219 138.457 116.079 138.41C115.939 138.363 115.775 138.34 115.589 138.34C115.131 138.34 114.777 138.471 114.525 138.732C114.273 138.993 114.147 139.381 114.147 139.894V141V141.252V148H113.447V139.824C113.447 139.507 113.489 139.217 113.573 138.956C113.666 138.695 113.801 138.475 113.979 138.298C114.156 138.111 114.375 137.967 114.637 137.864C114.898 137.761 115.197 137.71 115.533 137.71ZM116.611 141V141.602H112.047V141H116.611ZM120.363 137.71C120.615 137.71 120.839 137.743 121.035 137.808C121.231 137.873 121.385 137.967 121.497 138.088L121.301 138.648C121.179 138.536 121.049 138.457 120.909 138.41C120.769 138.363 120.605 138.34 120.419 138.34C119.961 138.34 119.607 138.471 119.355 138.732C119.103 138.993 118.977 139.381 118.977 139.894V141V141.252V148H118.277V139.824C118.277 139.507 118.319 139.217 118.403 138.956C118.496 138.695 118.631 138.475 118.809 138.298C118.986 138.111 119.205 137.967 119.467 137.864C119.728 137.761 120.027 137.71 120.363 137.71ZM121.441 141V141.602H116.877V141H121.441ZM125.37 148.14C124.726 148.14 124.152 147.995 123.648 147.706C123.144 147.417 122.747 147.001 122.458 146.46C122.178 145.909 122.038 145.256 122.038 144.5C122.038 143.744 122.178 143.095 122.458 142.554C122.747 142.003 123.134 141.583 123.62 141.294C124.105 141.005 124.66 140.86 125.286 140.86C125.92 140.86 126.462 141 126.91 141.28C127.358 141.56 127.703 141.952 127.946 142.456C128.188 142.951 128.31 143.525 128.31 144.178C128.31 144.262 128.305 144.346 128.296 144.43C128.296 144.505 128.291 144.575 128.282 144.64H122.472V144.01H127.974L127.624 144.108C127.614 143.305 127.4 142.666 126.98 142.19C126.569 141.714 126 141.476 125.272 141.476C124.768 141.476 124.324 141.597 123.942 141.84C123.559 142.073 123.26 142.419 123.046 142.876C122.831 143.324 122.724 143.865 122.724 144.5C122.724 145.125 122.831 145.667 123.046 146.124C123.27 146.581 123.578 146.931 123.97 147.174C124.371 147.407 124.833 147.524 125.356 147.524C125.897 147.524 126.359 147.407 126.742 147.174C127.134 146.941 127.437 146.619 127.652 146.208L128.212 146.53C128.044 146.866 127.82 147.155 127.54 147.398C127.26 147.631 126.938 147.813 126.574 147.944C126.21 148.075 125.808 148.14 125.37 148.14ZM133.135 140.86C133.611 140.86 134.035 140.935 134.409 141.084C134.782 141.233 135.099 141.448 135.361 141.728C135.622 142.008 135.823 142.349 135.963 142.75L135.305 143.058C135.155 142.554 134.894 142.167 134.521 141.896C134.157 141.616 133.69 141.476 133.121 141.476C132.607 141.476 132.155 141.597 131.763 141.84C131.371 142.073 131.067 142.419 130.853 142.876C130.638 143.324 130.531 143.865 130.531 144.5C130.531 145.125 130.638 145.667 130.853 146.124C131.067 146.581 131.366 146.931 131.749 147.174C132.131 147.407 132.584 147.524 133.107 147.524C133.499 147.524 133.853 147.459 134.171 147.328C134.497 147.197 134.763 147.006 134.969 146.754C135.183 146.502 135.323 146.203 135.389 145.858L136.033 146.082C135.911 146.511 135.711 146.88 135.431 147.188C135.16 147.496 134.829 147.734 134.437 147.902C134.045 148.061 133.606 148.14 133.121 148.14C132.486 148.14 131.917 147.995 131.413 147.706C130.918 147.417 130.531 147.001 130.251 146.46C129.971 145.909 129.831 145.256 129.831 144.5C129.831 143.744 129.971 143.095 130.251 142.554C130.54 142.003 130.932 141.583 131.427 141.294C131.931 141.005 132.5 140.86 133.135 140.86ZM139.07 139.054V146.152C139.07 146.591 139.173 146.927 139.378 147.16C139.593 147.384 139.901 147.496 140.302 147.496C140.563 147.496 140.792 147.454 140.988 147.37C141.193 147.277 141.375 147.146 141.534 146.978L141.8 147.552C141.623 147.729 141.399 147.874 141.128 147.986C140.857 148.089 140.554 148.14 140.218 148.14C139.854 148.14 139.532 148.075 139.252 147.944C138.972 147.804 138.753 147.594 138.594 147.314C138.445 147.034 138.37 146.679 138.37 146.25V139.25L139.07 139.054ZM141.688 141V141.602H136.97V141H141.688ZM143.535 139.642C143.358 139.642 143.213 139.591 143.101 139.488C142.999 139.376 142.947 139.231 142.947 139.054C142.947 138.877 142.999 138.737 143.101 138.634C143.213 138.522 143.358 138.466 143.535 138.466C143.713 138.466 143.853 138.522 143.955 138.634C144.067 138.737 144.123 138.877 144.123 139.054C144.123 139.231 144.067 139.376 143.955 139.488C143.853 139.591 143.713 139.642 143.535 139.642ZM143.885 141V148H143.185V141H143.885ZM151.173 141H151.915L148.989 148H148.289L145.363 141H146.147L148.653 147.272L151.173 141ZM156.159 148.14C155.515 148.14 154.941 147.995 154.437 147.706C153.933 147.417 153.536 147.001 153.247 146.46C152.967 145.909 152.827 145.256 152.827 144.5C152.827 143.744 152.967 143.095 153.247 142.554C153.536 142.003 153.923 141.583 154.409 141.294C154.894 141.005 155.449 140.86 156.075 140.86C156.709 140.86 157.251 141 157.699 141.28C158.147 141.56 158.492 141.952 158.735 142.456C158.977 142.951 159.099 143.525 159.099 144.178C159.099 144.262 159.094 144.346 159.085 144.43C159.085 144.505 159.08 144.575 159.071 144.64H153.261V144.01H158.763L158.413 144.108C158.403 143.305 158.189 142.666 157.769 142.19C157.358 141.714 156.789 141.476 156.061 141.476C155.557 141.476 155.113 141.597 154.731 141.84C154.348 142.073 154.049 142.419 153.835 142.876C153.62 143.324 153.513 143.865 153.513 144.5C153.513 145.125 153.62 145.667 153.835 146.124C154.059 146.581 154.367 146.931 154.759 147.174C155.16 147.407 155.622 147.524 156.145 147.524C156.686 147.524 157.148 147.407 157.531 147.174C157.923 146.941 158.226 146.619 158.441 146.208L159.001 146.53C158.833 146.866 158.609 147.155 158.329 147.398C158.049 147.631 157.727 147.813 157.363 147.944C156.999 148.075 156.597 148.14 156.159 148.14ZM165.484 148V141H166.114L166.156 142.456C166.362 141.952 166.693 141.56 167.15 141.28C167.617 141 168.135 140.86 168.704 140.86C169.311 140.86 169.834 141.005 170.272 141.294C170.72 141.583 171.028 142.008 171.196 142.568C171.318 142.213 171.514 141.91 171.784 141.658C172.055 141.397 172.372 141.196 172.736 141.056C173.1 140.916 173.478 140.846 173.87 140.846C174.356 140.846 174.794 140.944 175.186 141.14C175.588 141.327 175.905 141.616 176.138 142.008C176.381 142.391 176.502 142.871 176.502 143.45V147.986H175.802V143.52C175.802 142.829 175.616 142.316 175.242 141.98C174.878 141.635 174.393 141.462 173.786 141.462C173.348 141.462 172.942 141.569 172.568 141.784C172.195 141.989 171.896 142.283 171.672 142.666C171.458 143.039 171.35 143.473 171.35 143.968V148H170.65V143.534C170.65 142.843 170.464 142.33 170.09 141.994C169.717 141.649 169.232 141.476 168.634 141.476C168.214 141.476 167.818 141.579 167.444 141.784C167.071 141.989 166.768 142.283 166.534 142.666C166.301 143.049 166.184 143.506 166.184 144.038V148H165.484ZM183.208 143.394C183.208 142.787 183.044 142.316 182.718 141.98C182.391 141.644 181.924 141.476 181.318 141.476C180.786 141.476 180.328 141.593 179.946 141.826C179.563 142.05 179.278 142.428 179.092 142.96L178.518 142.596C178.723 142.045 179.064 141.621 179.54 141.322C180.025 141.014 180.622 140.86 181.332 140.86C181.845 140.86 182.293 140.953 182.676 141.14C183.068 141.317 183.371 141.583 183.586 141.938C183.8 142.293 183.908 142.736 183.908 143.268V146.768C183.908 147.263 184.132 147.51 184.58 147.51C184.776 147.51 184.944 147.477 185.084 147.412L185.042 147.972C184.883 148.056 184.678 148.098 184.426 148.098C184.211 148.098 184.01 148.056 183.824 147.972C183.637 147.888 183.483 147.748 183.362 147.552C183.25 147.356 183.194 147.09 183.194 146.754V146.376L183.39 146.362C183.306 146.763 183.119 147.099 182.83 147.37C182.55 147.631 182.223 147.827 181.85 147.958C181.476 148.079 181.103 148.14 180.73 148.14C180.291 148.14 179.899 148.07 179.554 147.93C179.208 147.79 178.938 147.589 178.742 147.328C178.546 147.057 178.448 146.726 178.448 146.334C178.448 145.811 178.62 145.391 178.966 145.074C179.32 144.747 179.815 144.523 180.45 144.402L183.348 143.828V144.416L180.8 144.92C180.249 145.032 179.838 145.195 179.568 145.41C179.297 145.625 179.162 145.919 179.162 146.292C179.162 146.675 179.306 146.978 179.596 147.202C179.885 147.417 180.296 147.524 180.828 147.524C181.098 147.524 181.374 147.487 181.654 147.412C181.934 147.337 182.19 147.221 182.424 147.062C182.666 146.894 182.858 146.689 182.998 146.446C183.138 146.194 183.208 145.891 183.208 145.536V143.394ZM186.525 148V141H187.113L187.197 142.47C187.375 141.975 187.659 141.583 188.051 141.294C188.443 141.005 188.915 140.86 189.465 140.86C189.652 140.86 189.82 140.879 189.969 140.916C190.119 140.953 190.24 141.014 190.333 141.098L190.179 141.714C190.077 141.649 189.965 141.597 189.843 141.56C189.722 141.523 189.54 141.504 189.297 141.504C188.943 141.504 188.607 141.616 188.289 141.84C187.972 142.055 187.715 142.358 187.519 142.75C187.323 143.133 187.225 143.576 187.225 144.08V148H186.525ZM197.584 141L194.504 143.968L194.336 144.136L192.166 146.236V145.34L196.674 141H197.584ZM192.516 137.78V148H191.816V137.78H192.516ZM194.546 143.604L197.696 148H196.842L193.972 144.01L194.546 143.604ZM201.809 148.14C201.165 148.14 200.591 147.995 200.087 147.706C199.583 147.417 199.186 147.001 198.897 146.46C198.617 145.909 198.477 145.256 198.477 144.5C198.477 143.744 198.617 143.095 198.897 142.554C199.186 142.003 199.574 141.583 200.059 141.294C200.544 141.005 201.1 140.86 201.725 140.86C202.36 140.86 202.901 141 203.349 141.28C203.797 141.56 204.142 141.952 204.385 142.456C204.628 142.951 204.749 143.525 204.749 144.178C204.749 144.262 204.744 144.346 204.735 144.43C204.735 144.505 204.73 144.575 204.721 144.64H198.911V144.01H204.413L204.063 144.108C204.054 143.305 203.839 142.666 203.419 142.19C203.008 141.714 202.439 141.476 201.711 141.476C201.207 141.476 200.764 141.597 200.381 141.84C199.998 142.073 199.7 142.419 199.485 142.876C199.27 143.324 199.163 143.865 199.163 144.5C199.163 145.125 199.27 145.667 199.485 146.124C199.709 146.581 200.017 146.931 200.409 147.174C200.81 147.407 201.272 147.524 201.795 147.524C202.336 147.524 202.798 147.407 203.181 147.174C203.573 146.941 203.876 146.619 204.091 146.208L204.651 146.53C204.483 146.866 204.259 147.155 203.979 147.398C203.699 147.631 203.377 147.813 203.013 147.944C202.649 148.075 202.248 148.14 201.809 148.14ZM207.758 139.054V146.152C207.758 146.591 207.86 146.927 208.066 147.16C208.28 147.384 208.588 147.496 208.99 147.496C209.251 147.496 209.48 147.454 209.676 147.37C209.881 147.277 210.063 147.146 210.222 146.978L210.488 147.552C210.31 147.729 210.086 147.874 209.816 147.986C209.545 148.089 209.242 148.14 208.906 148.14C208.542 148.14 208.22 148.075 207.94 147.944C207.66 147.804 207.44 147.594 207.282 147.314C207.132 147.034 207.058 146.679 207.058 146.25V139.25L207.758 139.054ZM210.376 141V141.602H205.658V141H210.376ZM212.223 139.642C212.046 139.642 211.901 139.591 211.789 139.488C211.686 139.376 211.635 139.231 211.635 139.054C211.635 138.877 211.686 138.737 211.789 138.634C211.901 138.522 212.046 138.466 212.223 138.466C212.4 138.466 212.54 138.522 212.643 138.634C212.755 138.737 212.811 138.877 212.811 139.054C212.811 139.231 212.755 139.376 212.643 139.488C212.54 139.591 212.4 139.642 212.223 139.642ZM212.573 141V148H211.873V141H212.573ZM215.059 148V141H215.689L215.745 142.75L215.633 142.652C215.763 142.269 215.959 141.947 216.221 141.686C216.482 141.415 216.795 141.21 217.159 141.07C217.523 140.93 217.915 140.86 218.335 140.86C218.857 140.86 219.319 140.958 219.721 141.154C220.122 141.35 220.435 141.639 220.659 142.022C220.892 142.405 221.008 142.885 221.008 143.464V148H220.309V143.688C220.309 142.923 220.117 142.363 219.735 142.008C219.361 141.653 218.871 141.476 218.265 141.476C217.826 141.476 217.415 141.579 217.033 141.784C216.659 141.98 216.351 142.269 216.109 142.652C215.875 143.035 215.759 143.501 215.759 144.052V148H215.059ZM229.222 139.712L229.39 140.328C229.38 140.328 229.371 140.328 229.362 140.328C229.352 140.328 229.338 140.328 229.32 140.328C228.862 140.328 228.508 140.449 228.256 140.692C228.013 140.925 227.892 141.257 227.892 141.686L227.444 141.462C227.444 141.107 227.518 140.799 227.668 140.538C227.817 140.277 228.022 140.076 228.284 139.936C228.545 139.787 228.839 139.712 229.166 139.712C229.184 139.712 229.194 139.712 229.194 139.712C229.203 139.712 229.212 139.712 229.222 139.712ZM227.01 147.286C227.7 147.286 228.242 147.431 228.634 147.72C229.026 148.009 229.222 148.397 229.222 148.882C229.222 149.311 229.077 149.685 228.788 150.002C228.508 150.319 228.12 150.567 227.626 150.744C227.131 150.921 226.566 151.01 225.932 151.01C224.877 151.01 224.07 150.828 223.51 150.464C222.95 150.109 222.67 149.661 222.67 149.12C222.67 148.728 222.81 148.387 223.09 148.098C223.379 147.809 223.799 147.636 224.35 147.58L224.294 147.706C223.995 147.622 223.729 147.482 223.496 147.286C223.272 147.09 223.16 146.81 223.16 146.446C223.16 146.054 223.304 145.737 223.594 145.494C223.892 145.242 224.284 145.097 224.77 145.06L225.512 145.312H225.218C224.788 145.34 224.443 145.447 224.182 145.634C223.93 145.811 223.804 146.045 223.804 146.334C223.804 146.651 223.925 146.889 224.168 147.048C224.42 147.207 224.737 147.286 225.12 147.286H227.01ZM225.932 150.422C226.482 150.422 226.954 150.357 227.346 150.226C227.738 150.095 228.036 149.918 228.242 149.694C228.456 149.479 228.564 149.237 228.564 148.966C228.564 148.639 228.419 148.378 228.13 148.182C227.85 147.986 227.42 147.888 226.842 147.888H224.854C224.415 147.888 224.051 147.991 223.762 148.196C223.472 148.401 223.328 148.677 223.328 149.022C223.328 149.442 223.556 149.778 224.014 150.03C224.48 150.291 225.12 150.422 225.932 150.422ZM225.834 140.86C226.384 140.86 226.87 140.958 227.29 141.154C227.719 141.341 228.05 141.607 228.284 141.952C228.517 142.288 228.634 142.685 228.634 143.142C228.634 143.59 228.517 143.991 228.284 144.346C228.05 144.691 227.719 144.962 227.29 145.158C226.87 145.345 226.384 145.438 225.834 145.438C224.947 145.438 224.252 145.228 223.748 144.808C223.253 144.379 223.006 143.823 223.006 143.142C223.006 142.685 223.122 142.288 223.356 141.952C223.598 141.607 223.93 141.341 224.35 141.154C224.779 140.958 225.274 140.86 225.834 140.86ZM225.834 141.434C225.218 141.434 224.714 141.593 224.322 141.91C223.93 142.218 223.734 142.629 223.734 143.142C223.734 143.655 223.93 144.071 224.322 144.388C224.714 144.705 225.218 144.864 225.834 144.864C226.45 144.864 226.949 144.705 227.332 144.388C227.724 144.071 227.92 143.655 227.92 143.142C227.92 142.629 227.724 142.218 227.332 141.91C226.949 141.593 226.45 141.434 225.834 141.434ZM230.925 146.852C231.111 146.852 231.261 146.913 231.373 147.034C231.494 147.146 231.555 147.295 231.555 147.482C231.555 147.669 231.494 147.823 231.373 147.944C231.261 148.056 231.111 148.112 230.925 148.112C230.738 148.112 230.584 148.056 230.463 147.944C230.351 147.823 230.295 147.669 230.295 147.482C230.295 147.295 230.351 147.146 230.463 147.034C230.584 146.913 230.738 146.852 230.925 146.852Z" fill="black"/>
</svg>
