<svg width="2446" height="796" viewBox="0 0 2446 796" fill="none" xmlns="http://www.w3.org/2000/svg">
<g id="Group 134">
<rect id="Rectangle 76" x="846" width="754" height="352" rx="50" fill="#E7D9CB" fill-opacity="0.27"/>
<text id="Deep-dive" fill="black" xml:space="preserve" style="white-space: pre" font-family="Libre Baskerville" font-size="40" font-weight="bold" letter-spacing="0em"><tspan x="1043" y="118">Deep-dive&#10;</tspan></text>
<text id="I do an audit of your current marketing to identify any opportunities or gaps." fill="black" xml:space="preserve" style="white-space: pre" font-family="Work Sans" font-size="34" font-weight="500" letter-spacing="0em"><tspan x="931" y="207.679">I do an audit of your current </tspan><tspan x="931" y="247.679">marketing to identify any </tspan><tspan x="931" y="287.679">opportunities or gaps.</tspan></text>
<path id="Rectangle 77" d="M931 78C931 72.4772 935.477 68 941 68H996C1001.52 68 1006 72.4772 1006 78V127C1006 132.523 1001.52 137 996 137H941C935.477 137 931 132.523 931 127V78Z" fill="#C16200"/>
<text id="02" fill="white" xml:space="preserve" style="white-space: pre" font-family="Libre Baskerville" font-size="32" letter-spacing="0em"><tspan x="946.219" y="118.2">02</tspan></text>
<rect id="Rectangle 78" x="415" y="444" width="755" height="352" rx="50" fill="#E7D9CB" fill-opacity="0.27"/>
<text id="Execution" fill="black" xml:space="preserve" style="white-space: pre" font-family="Libre Baskerville" font-size="40" font-weight="bold" letter-spacing="0em"><tspan x="608" y="562">Execution&#10;</tspan></text>
<text id="I handle end-to-end delivery of your strategy across the most effective channels." fill="black" xml:space="preserve" style="white-space: pre" font-family="Work Sans" font-size="32" font-weight="500" letter-spacing="0em"><tspan x="500" y="643.992">I handle end-to-end delivery of </tspan><tspan x="500" y="681.992">your strategy across the most </tspan><tspan x="500" y="719.992">effective channels.</tspan></text>
<path id="Rectangle 79" d="M500 522C500 516.477 504.477 512 510 512H564C569.523 512 574 516.477 574 522V571C574 576.523 569.523 581 564 581H510C504.477 581 500 576.523 500 571V522Z" fill="#C16200"/>
<text id="04" fill="white" xml:space="preserve" style="white-space: pre" font-family="Libre Baskerville" font-size="32" letter-spacing="0em"><tspan x="516.219" y="559.2">04</tspan></text>
<rect id="Rectangle 70" x="1264" y="444" width="754" height="352" rx="50" fill="#E7D9CB" fill-opacity="0.27"/>
<path id="Rectangle 71" d="M1349 522C1349 516.477 1353.48 512 1359 512H1414C1419.52 512 1424 516.477 1424 522V571C1424 576.523 1419.52 581 1414 581H1359C1353.48 581 1349 576.523 1349 571V522Z" fill="#C16200"/>
<rect id="Rectangle 72" x="1691" width="755" height="352" rx="50" fill="#E7D9CB" fill-opacity="0.27"/>
<text id="Analysis" fill="black" xml:space="preserve" style="white-space: pre" font-family="Libre Baskerville" font-size="40" font-weight="bold" letter-spacing="0em"><tspan x="1460" y="562">Analysis&#10;</tspan></text>
<text id="Strategy" fill="black" xml:space="preserve" style="white-space: pre" font-family="Libre Baskerville" font-size="40" font-weight="bold" letter-spacing="0em"><tspan x="1885" y="118">Strategy&#10;</tspan></text>
<text id="I develop an actionable strategy rooted in market insights and aligned with your goals." fill="black" xml:space="preserve" style="white-space: pre" font-family="Work Sans" font-size="32" font-weight="500" letter-spacing="0em"><tspan x="1776" y="199.992">I develop an actionable strategy </tspan><tspan x="1776" y="237.992">rooted in market insights and </tspan><tspan x="1776" y="275.992">aligned with your goals.</tspan></text>
<text id="I monitor and review performance so your strategy and campaigns can be optimised." fill="black" xml:space="preserve" style="white-space: pre" font-family="Work Sans" font-size="32" font-weight="500" letter-spacing="0em"><tspan x="1349" y="643.992">I monitor and review performance </tspan><tspan x="1349" y="681.992">so your strategy and campaigns </tspan><tspan x="1349" y="719.992">can be optimised.</tspan></text>
<rect id="Rectangle 73" width="755" height="352" rx="50" fill="#E7D9CB" fill-opacity="0.27"/>
<text id="Discovery" fill="black" xml:space="preserve" style="white-space: pre" font-family="Libre Baskerville" font-size="40" font-weight="bold" letter-spacing="0em"><tspan x="193" y="118">Discovery&#10;</tspan></text>
<text id="I have a 20 minute call with you to understand your business, goals and challenges you&#226;&#128;&#153;re facing." fill="black" xml:space="preserve" style="white-space: pre" font-family="Work Sans" font-size="34" font-weight="500" letter-spacing="0em"><tspan x="85" y="201.679">I have a 20 minute call with you to </tspan><tspan x="85" y="241.679">understand your business, goals </tspan><tspan x="85" y="281.679">and challenges you&#x2019;re facing.</tspan></text>
<path id="Rectangle 74" d="M85 79C85 73.4772 89.4772 69 95 69H149C154.523 69 159 73.4772 159 79V128C159 133.523 154.523 138 149 138H95C89.4772 138 85 133.523 85 128V79Z" fill="#C16200"/>
<path id="Rectangle 75" d="M1776 78C1776 72.4772 1780.48 68 1786 68H1840C1845.52 68 1850 72.4772 1850 78V127C1850 132.523 1845.52 137 1840 137H1786C1780.48 137 1776 132.523 1776 127V78Z" fill="#C16200"/>
<text id="01" fill="white" xml:space="preserve" style="white-space: pre" font-family="Libre Baskerville" font-size="32" letter-spacing="0em"><tspan x="103.438" y="116.2">01</tspan></text>
<text id="03" fill="white" xml:space="preserve" style="white-space: pre" font-family="Libre Baskerville" font-size="32" letter-spacing="0em"><tspan x="1791.72" y="115.2">03</tspan></text>
<text id="05" fill="white" xml:space="preserve" style="white-space: pre" font-family="Libre Baskerville" font-size="32" letter-spacing="0em"><tspan x="1365.98" y="559.2">05</tspan></text>
</g>
</svg>
