<svg width="143" height="58" viewBox="0 0 143 58" fill="none" xmlns="http://www.w3.org/2000/svg">
<path d="M2.444 1.42V10H1.404V1.42H2.444ZM12.0213 10.13C11.484 10.13 10.99 9.99567 10.5393 9.727C10.0887 9.45833 9.72901 9.07267 9.46034 8.57C9.19168 8.05867 9.05734 7.452 9.05734 6.75C9.05734 6.03067 9.20034 5.41967 9.48634 4.917C9.77234 4.41433 10.1493 4.033 10.6173 3.773C11.0853 3.50433 11.588 3.37 12.1253 3.37C12.6627 3.37 13.1263 3.50867 13.5163 3.786C13.915 4.06333 14.1793 4.43167 14.3093 4.891L14.1793 4.982V0.51H15.2193V10H14.3093L14.2183 8.427L14.3613 8.349C14.3007 8.73033 14.1533 9.05533 13.9193 9.324C13.694 9.584 13.4123 9.78333 13.0743 9.922C12.745 10.0607 12.394 10.13 12.0213 10.13ZM12.1253 9.22C12.5413 9.22 12.901 9.116 13.2043 8.908C13.5163 8.7 13.7547 8.40533 13.9193 8.024C14.0927 7.634 14.1793 7.179 14.1793 6.659C14.1793 6.165 14.0927 5.74033 13.9193 5.385C13.7547 5.02967 13.5207 4.75667 13.2173 4.566C12.9227 4.37533 12.576 4.28 12.1773 4.28C11.5187 4.28 11.0073 4.50533 10.6433 4.956C10.2793 5.40667 10.0973 6.00467 10.0973 6.75C10.0973 7.49533 10.275 8.09333 10.6303 8.544C10.9857 8.99467 11.484 9.22 12.1253 9.22ZM20.3277 3.37C20.9431 3.37 21.4847 3.50433 21.9527 3.773C22.4294 4.04167 22.8021 4.43167 23.0707 4.943C23.3394 5.44567 23.4737 6.048 23.4737 6.75C23.4737 7.452 23.3394 8.05867 23.0707 8.57C22.8021 9.07267 22.4294 9.45833 21.9527 9.727C21.4847 9.99567 20.9431 10.13 20.3277 10.13C19.7211 10.13 19.1794 9.99567 18.7027 9.727C18.2261 9.45833 17.8534 9.07267 17.5847 8.57C17.3161 8.05867 17.1817 7.452 17.1817 6.75C17.1817 6.048 17.3161 5.44567 17.5847 4.943C17.8534 4.43167 18.2261 4.04167 18.7027 3.773C19.1794 3.50433 19.7211 3.37 20.3277 3.37ZM20.3277 4.267C19.8857 4.267 19.5087 4.36667 19.1967 4.566C18.8847 4.76533 18.6421 5.05133 18.4687 5.424C18.3041 5.788 18.2217 6.23 18.2217 6.75C18.2217 7.26133 18.3041 7.70333 18.4687 8.076C18.6421 8.44867 18.8847 8.73467 19.1967 8.934C19.5087 9.13333 19.8857 9.233 20.3277 9.233C20.7697 9.233 21.1467 9.13333 21.4587 8.934C21.7707 8.73467 22.0091 8.44867 22.1737 8.076C22.3471 7.70333 22.4337 7.26133 22.4337 6.75C22.4337 6.23 22.3471 5.788 22.1737 5.424C22.0091 5.05133 21.7707 4.76533 21.4587 4.566C21.1467 4.36667 20.7697 4.267 20.3277 4.267ZM33.6583 5.801C33.6583 5.31567 33.5283 4.943 33.2683 4.683C33.0083 4.41433 32.64 4.28 32.1633 4.28C31.7127 4.28 31.3313 4.37967 31.0193 4.579C30.7073 4.76967 30.4777 5.08167 30.3303 5.515L29.4853 4.995C29.6587 4.50967 29.9793 4.11967 30.4473 3.825C30.9153 3.52167 31.496 3.37 32.1893 3.37C32.6573 3.37 33.082 3.45233 33.4633 3.617C33.8447 3.773 34.1437 4.01567 34.3603 4.345C34.5857 4.66567 34.6983 5.08167 34.6983 5.593V8.739C34.6983 9.051 34.863 9.207 35.1923 9.207C35.357 9.207 35.5173 9.18533 35.6733 9.142L35.6213 9.961C35.448 10.0477 35.2227 10.091 34.9453 10.091C34.694 10.091 34.4687 10.0433 34.2693 9.948C34.07 9.85267 33.914 9.70967 33.8013 9.519C33.6887 9.31967 33.6323 9.07267 33.6323 8.778V8.648L33.8923 8.687C33.7883 9.025 33.6107 9.30233 33.3593 9.519C33.108 9.727 32.8263 9.883 32.5143 9.987C32.2023 10.0823 31.8947 10.13 31.5913 10.13C31.21 10.13 30.8547 10.065 30.5253 9.935C30.196 9.805 29.9317 9.61 29.7323 9.35C29.5417 9.08133 29.4463 8.752 29.4463 8.362C29.4463 7.87667 29.6067 7.478 29.9273 7.166C30.2567 6.84533 30.7117 6.62867 31.2923 6.516L33.8663 6.009V6.867L31.7733 7.296C31.3487 7.38267 31.0323 7.504 30.8243 7.66C30.6163 7.816 30.5123 8.03267 30.5123 8.31C30.5123 8.57867 30.6163 8.79967 30.8243 8.973C31.041 9.13767 31.3443 9.22 31.7343 9.22C31.9857 9.22 32.224 9.18967 32.4493 9.129C32.6833 9.05967 32.8913 8.96 33.0733 8.83C33.2553 8.69133 33.3983 8.52233 33.5023 8.323C33.6063 8.115 33.6583 7.87233 33.6583 7.595V5.801ZM37.2256 10V3.5H38.1356L38.2266 4.956L38.0576 4.813C38.1963 4.46633 38.3826 4.189 38.6166 3.981C38.8506 3.76433 39.1193 3.60833 39.4226 3.513C39.7346 3.41767 40.0553 3.37 40.3846 3.37C40.8526 3.37 41.2773 3.461 41.6586 3.643C42.0399 3.81633 42.3433 4.085 42.5686 4.449C42.8026 4.813 42.9196 5.27667 42.9196 5.84V10H41.8796V6.204C41.8796 5.48467 41.7236 4.98633 41.4116 4.709C41.1083 4.423 40.7313 4.28 40.2806 4.28C39.9686 4.28 39.6566 4.35367 39.3446 4.501C39.0326 4.64833 38.7726 4.88667 38.5646 5.216C38.3653 5.54533 38.2656 5.98733 38.2656 6.542V10H37.2256ZM53.5011 5.801C53.5011 5.31567 53.3711 4.943 53.1111 4.683C52.8511 4.41433 52.4828 4.28 52.0061 4.28C51.5554 4.28 51.1741 4.37967 50.8621 4.579C50.5501 4.76967 50.3204 5.08167 50.1731 5.515L49.3281 4.995C49.5014 4.50967 49.8221 4.11967 50.2901 3.825C50.7581 3.52167 51.3388 3.37 52.0321 3.37C52.5001 3.37 52.9248 3.45233 53.3061 3.617C53.6874 3.773 53.9864 4.01567 54.2031 4.345C54.4284 4.66567 54.5411 5.08167 54.5411 5.593V8.739C54.5411 9.051 54.7058 9.207 55.0351 9.207C55.1998 9.207 55.3601 9.18533 55.5161 9.142L55.4641 9.961C55.2908 10.0477 55.0654 10.091 54.7881 10.091C54.5368 10.091 54.3114 10.0433 54.1121 9.948C53.9128 9.85267 53.7568 9.70967 53.6441 9.519C53.5314 9.31967 53.4751 9.07267 53.4751 8.778V8.648L53.7351 8.687C53.6311 9.025 53.4534 9.30233 53.2021 9.519C52.9508 9.727 52.6691 9.883 52.3571 9.987C52.0451 10.0823 51.7374 10.13 51.4341 10.13C51.0528 10.13 50.6974 10.065 50.3681 9.935C50.0388 9.805 49.7744 9.61 49.5751 9.35C49.3844 9.08133 49.2891 8.752 49.2891 8.362C49.2891 7.87667 49.4494 7.478 49.7701 7.166C50.0994 6.84533 50.5544 6.62867 51.1351 6.516L53.7091 6.009V6.867L51.6161 7.296C51.1914 7.38267 50.8751 7.504 50.6671 7.66C50.4591 7.816 50.3551 8.03267 50.3551 8.31C50.3551 8.57867 50.4591 8.79967 50.6671 8.973C50.8838 9.13767 51.1871 9.22 51.5771 9.22C51.8284 9.22 52.0668 9.18967 52.2921 9.129C52.5261 9.05967 52.7341 8.96 52.9161 8.83C53.0981 8.69133 53.2411 8.52233 53.3451 8.323C53.4491 8.115 53.5011 7.87233 53.5011 7.595V5.801ZM59.4214 10.13C59.0054 10.13 58.611 10.052 58.2384 9.896C57.8744 9.74 57.5754 9.48867 57.3414 9.142C57.116 8.78667 57.0034 8.32733 57.0034 7.764V3.5H58.0434V7.491C58.0434 8.14967 58.1864 8.60467 58.4724 8.856C58.7584 9.09867 59.1614 9.22 59.6814 9.22C59.924 9.22 60.1624 9.181 60.3964 9.103C60.6304 9.01633 60.8384 8.88633 61.0204 8.713C61.211 8.531 61.3584 8.30133 61.4624 8.024C61.575 7.74667 61.6314 7.41733 61.6314 7.036V3.5H62.6714V10H61.7614L61.6964 9.012C61.471 9.402 61.1634 9.688 60.7734 9.87C60.392 10.0433 59.9414 10.13 59.4214 10.13ZM67.6268 10.13C67.0895 10.13 66.5955 9.99567 66.1448 9.727C65.6941 9.45833 65.3345 9.07267 65.0658 8.57C64.7971 8.05867 64.6628 7.452 64.6628 6.75C64.6628 6.03067 64.8058 5.41967 65.0918 4.917C65.3778 4.41433 65.7548 4.033 66.2228 3.773C66.6908 3.50433 67.1935 3.37 67.7308 3.37C68.2681 3.37 68.7318 3.50867 69.1218 3.786C69.5205 4.06333 69.7848 4.43167 69.9148 4.891L69.7848 4.982V0.51H70.8248V10H69.9148L69.8238 8.427L69.9668 8.349C69.9061 8.73033 69.7588 9.05533 69.5248 9.324C69.2995 9.584 69.0178 9.78333 68.6798 9.922C68.3505 10.0607 67.9995 10.13 67.6268 10.13ZM67.7308 9.22C68.1468 9.22 68.5065 9.116 68.8098 8.908C69.1218 8.7 69.3601 8.40533 69.5248 8.024C69.6981 7.634 69.7848 7.179 69.7848 6.659C69.7848 6.165 69.6981 5.74033 69.5248 5.385C69.3601 5.02967 69.1261 4.75667 68.8228 4.566C68.5281 4.37533 68.1815 4.28 67.7828 4.28C67.1241 4.28 66.6128 4.50533 66.2488 4.956C65.8848 5.40667 65.7028 6.00467 65.7028 6.75C65.7028 7.49533 65.8805 8.09333 66.2358 8.544C66.5911 8.99467 67.0895 9.22 67.7308 9.22ZM73.7622 2.252C73.5282 2.252 73.3375 2.18267 73.1902 2.044C73.0515 1.89667 72.9822 1.706 72.9822 1.472C72.9822 1.238 73.0515 1.05167 73.1902 0.912999C73.3375 0.765666 73.5282 0.692 73.7622 0.692C73.9962 0.692 74.1825 0.765666 74.3212 0.912999C74.4685 1.05167 74.5422 1.238 74.5422 1.472C74.5422 1.706 74.4685 1.89667 74.3212 2.044C74.1825 2.18267 73.9962 2.252 73.7622 2.252ZM74.2822 3.5V10H73.2422V3.5H74.2822ZM78.2293 1.654V8.206C78.2293 8.52667 78.3203 8.765 78.5023 8.921C78.6843 9.077 78.9183 9.155 79.2043 9.155C79.4557 9.155 79.6723 9.11167 79.8543 9.025C80.0363 8.93833 80.201 8.82133 80.3483 8.674L80.7123 9.545C80.513 9.727 80.2747 9.87 79.9973 9.974C79.7287 10.078 79.4167 10.13 79.0613 10.13C78.732 10.13 78.4243 10.0737 78.1383 9.961C77.8523 9.83967 77.6227 9.65333 77.4493 9.402C77.2847 9.142 77.198 8.804 77.1893 8.388V1.94L78.2293 1.654ZM80.5953 3.5V4.397H75.8893V3.5H80.5953ZM89.2633 3.37C89.8786 3.37 90.4203 3.50433 90.8883 3.773C91.3649 4.04167 91.7376 4.43167 92.0063 4.943C92.2749 5.44567 92.4093 6.048 92.4093 6.75C92.4093 7.452 92.2749 8.05867 92.0063 8.57C91.7376 9.07267 91.3649 9.45833 90.8883 9.727C90.4203 9.99567 89.8786 10.13 89.2633 10.13C88.6566 10.13 88.1149 9.99567 87.6383 9.727C87.1616 9.45833 86.7889 9.07267 86.5203 8.57C86.2516 8.05867 86.1173 7.452 86.1173 6.75C86.1173 6.048 86.2516 5.44567 86.5203 4.943C86.7889 4.43167 87.1616 4.04167 87.6383 3.773C88.1149 3.50433 88.6566 3.37 89.2633 3.37ZM89.2633 4.267C88.8213 4.267 88.4443 4.36667 88.1323 4.566C87.8203 4.76533 87.5776 5.05133 87.4043 5.424C87.2396 5.788 87.1573 6.23 87.1573 6.75C87.1573 7.26133 87.2396 7.70333 87.4043 8.076C87.5776 8.44867 87.8203 8.73467 88.1323 8.934C88.4443 9.13333 88.8213 9.233 89.2633 9.233C89.7053 9.233 90.0823 9.13333 90.3943 8.934C90.7063 8.73467 90.9446 8.44867 91.1093 8.076C91.2826 7.70333 91.3693 7.26133 91.3693 6.75C91.3693 6.23 91.2826 5.788 91.1093 5.424C90.9446 5.05133 90.7063 4.76533 90.3943 4.566C90.0823 4.36667 89.7053 4.267 89.2633 4.267ZM96.8919 0.445C97.1173 0.445 97.3296 0.471 97.5289 0.523C97.7283 0.574999 97.8843 0.648666 97.9969 0.744L97.7239 1.589C97.6199 1.51967 97.5073 1.472 97.3859 1.446C97.2646 1.41133 97.1303 1.394 96.9829 1.394C96.6103 1.394 96.3199 1.485 96.1119 1.667C95.9039 1.84033 95.7999 2.122 95.7999 2.512V3.5V3.838V10H94.7599V2.408C94.7599 2.122 94.8033 1.85767 94.8899 1.615C94.9766 1.37233 95.1066 1.16433 95.2799 0.991C95.4619 0.817666 95.6873 0.683333 95.9559 0.588C96.2246 0.492666 96.5366 0.445 96.8919 0.445ZM97.9709 3.5V4.397H93.4599V3.5H97.9709ZM108.28 3.5L105.225 11.092C105.06 11.5167 104.878 11.8503 104.679 12.093C104.488 12.3443 104.271 12.522 104.029 12.626C103.795 12.7387 103.522 12.795 103.21 12.795C102.915 12.795 102.642 12.7517 102.391 12.665C102.148 12.587 101.931 12.4787 101.741 12.34L102.027 11.43C102.2 11.586 102.382 11.6987 102.573 11.768C102.772 11.846 102.967 11.885 103.158 11.885C103.383 11.885 103.595 11.8157 103.795 11.677C103.994 11.5383 104.176 11.2567 104.341 10.832L104.679 9.987L104.029 8.44L101.962 3.5H103.145L104.77 7.738L105.173 8.895L105.641 7.608L107.162 3.5H108.28ZM112.331 3.37C112.946 3.37 113.488 3.50433 113.956 3.773C114.432 4.04167 114.805 4.43167 115.074 4.943C115.342 5.44567 115.477 6.048 115.477 6.75C115.477 7.452 115.342 8.05867 115.074 8.57C114.805 9.07267 114.432 9.45833 113.956 9.727C113.488 9.99567 112.946 10.13 112.331 10.13C111.724 10.13 111.182 9.99567 110.706 9.727C110.229 9.45833 109.856 9.07267 109.588 8.57C109.319 8.05867 109.185 7.452 109.185 6.75C109.185 6.048 109.319 5.44567 109.588 4.943C109.856 4.43167 110.229 4.04167 110.706 3.773C111.182 3.50433 111.724 3.37 112.331 3.37ZM112.331 4.267C111.889 4.267 111.512 4.36667 111.2 4.566C110.888 4.76533 110.645 5.05133 110.472 5.424C110.307 5.788 110.225 6.23 110.225 6.75C110.225 7.26133 110.307 7.70333 110.472 8.076C110.645 8.44867 110.888 8.73467 111.2 8.934C111.512 9.13333 111.889 9.233 112.331 9.233C112.773 9.233 113.15 9.13333 113.462 8.934C113.774 8.73467 114.012 8.44867 114.177 8.076C114.35 7.70333 114.437 7.26133 114.437 6.75C114.437 6.23 114.35 5.788 114.177 5.424C114.012 5.05133 113.774 4.76533 113.462 4.566C113.15 4.36667 112.773 4.267 112.331 4.267ZM119.788 10.13C119.372 10.13 118.977 10.052 118.605 9.896C118.241 9.74 117.942 9.48867 117.708 9.142C117.482 8.78667 117.37 8.32733 117.37 7.764V3.5H118.41V7.491C118.41 8.14967 118.553 8.60467 118.839 8.856C119.125 9.09867 119.528 9.22 120.048 9.22C120.29 9.22 120.529 9.181 120.763 9.103C120.997 9.01633 121.205 8.88633 121.387 8.713C121.577 8.531 121.725 8.30133 121.829 8.024C121.941 7.74667 121.998 7.41733 121.998 7.036V3.5H123.038V10H122.128L122.063 9.012C121.837 9.402 121.53 9.688 121.14 9.87C120.758 10.0433 120.308 10.13 119.788 10.13ZM125.458 10V3.5H126.303L126.446 4.566C126.628 4.16733 126.892 3.86833 127.239 3.669C127.594 3.46967 128.023 3.37 128.526 3.37C128.639 3.37 128.76 3.37867 128.89 3.396C129.029 3.41333 129.146 3.448 129.241 3.5L129.059 4.449C128.964 4.41433 128.86 4.38833 128.747 4.371C128.634 4.35367 128.474 4.345 128.266 4.345C127.997 4.345 127.724 4.423 127.447 4.579C127.178 4.735 126.953 4.97333 126.771 5.294C126.589 5.606 126.498 6.00467 126.498 6.49V10H125.458ZM3.9 18.37C4.35067 18.37 4.745 18.4393 5.083 18.578C5.42967 18.7167 5.72867 18.916 5.98 19.176C6.23133 19.436 6.435 19.7437 6.591 20.099L5.603 20.567C5.46433 20.151 5.252 19.8347 4.966 19.618C4.68867 19.3927 4.32467 19.28 3.874 19.28C3.44067 19.28 3.068 19.3797 2.756 19.579C2.444 19.7697 2.20567 20.0513 2.041 20.424C1.87633 20.788 1.794 21.23 1.794 21.75C1.794 22.2613 1.87633 22.7033 2.041 23.076C2.20567 23.4487 2.444 23.7347 2.756 23.934C3.068 24.1247 3.44067 24.22 3.874 24.22C4.212 24.22 4.50233 24.168 4.745 24.064C4.99633 23.96 5.2 23.8083 5.356 23.609C5.52067 23.4097 5.63333 23.167 5.694 22.881L6.656 23.219C6.50867 23.6177 6.305 23.96 6.045 24.246C5.79367 24.532 5.486 24.753 5.122 24.909C4.76667 25.0563 4.35933 25.13 3.9 25.13C3.29333 25.13 2.75167 24.9957 2.275 24.727C1.79833 24.4583 1.42567 24.0727 1.157 23.57C0.888333 23.0587 0.754 22.452 0.754 21.75C0.754 21.048 0.888333 20.4457 1.157 19.943C1.42567 19.4317 1.79833 19.0417 2.275 18.773C2.75167 18.5043 3.29333 18.37 3.9 18.37ZM10.8364 25.13C10.4204 25.13 10.0261 25.052 9.65341 24.896C9.28941 24.74 8.99041 24.4887 8.75641 24.142C8.53108 23.7867 8.41841 23.3273 8.41841 22.764V18.5H9.45841V22.491C9.45841 23.1497 9.60141 23.6047 9.88741 23.856C10.1734 24.0987 10.5764 24.22 11.0964 24.22C11.3391 24.22 11.5774 24.181 11.8114 24.103C12.0454 24.0163 12.2534 23.8863 12.4354 23.713C12.6261 23.531 12.7734 23.3013 12.8774 23.024C12.9901 22.7467 13.0464 22.4173 13.0464 22.036V18.5H14.0864V25H13.1764L13.1114 24.012C12.8861 24.402 12.5784 24.688 12.1884 24.87C11.8071 25.0433 11.3564 25.13 10.8364 25.13ZM16.5069 25V18.5H17.3519L17.4949 19.566C17.6769 19.1673 17.9412 18.8683 18.2879 18.669C18.6432 18.4697 19.0722 18.37 19.5749 18.37C19.6875 18.37 19.8089 18.3787 19.9389 18.396C20.0775 18.4133 20.1945 18.448 20.2899 18.5L20.1079 19.449C20.0125 19.4143 19.9085 19.3883 19.7959 19.371C19.6832 19.3537 19.5229 19.345 19.3149 19.345C19.0462 19.345 18.7732 19.423 18.4959 19.579C18.2272 19.735 18.0019 19.9733 17.8199 20.294C17.6379 20.606 17.5469 21.0047 17.5469 21.49V25H16.5069ZM21.8135 25V18.5H22.6585L22.8015 19.566C22.9835 19.1673 23.2478 18.8683 23.5945 18.669C23.9498 18.4697 24.3788 18.37 24.8815 18.37C24.9942 18.37 25.1155 18.3787 25.2455 18.396C25.3842 18.4133 25.5012 18.448 25.5965 18.5L25.4145 19.449C25.3192 19.4143 25.2152 19.3883 25.1025 19.371C24.9898 19.3537 24.8295 19.345 24.6215 19.345C24.3528 19.345 24.0798 19.423 23.8025 19.579C23.5338 19.735 23.3085 19.9733 23.1265 20.294C22.9445 20.606 22.8535 21.0047 22.8535 21.49V25H21.8135ZM29.634 25.13C29.0187 25.13 28.4683 24.9957 27.983 24.727C27.5063 24.4583 27.1337 24.0727 26.865 23.57C26.5963 23.0587 26.462 22.452 26.462 21.75C26.462 21.048 26.5963 20.4457 26.865 19.943C27.1337 19.4317 27.502 19.0417 27.97 18.773C28.438 18.5043 28.971 18.37 29.569 18.37C30.1757 18.37 30.6913 18.5 31.116 18.76C31.5493 19.02 31.8787 19.3753 32.104 19.826C32.3293 20.268 32.442 20.7663 32.442 21.321C32.442 21.4683 32.4377 21.6027 32.429 21.724C32.4203 21.8453 32.4073 21.9537 32.39 22.049H27.138V21.126H31.935L31.402 21.23C31.402 20.606 31.2287 20.125 30.882 19.787C30.544 19.449 30.0977 19.28 29.543 19.28C29.1183 19.28 28.75 19.3797 28.438 19.579C28.1347 19.7697 27.8963 20.0513 27.723 20.424C27.5583 20.788 27.476 21.23 27.476 21.75C27.476 22.2613 27.5627 22.7033 27.736 23.076C27.9093 23.4487 28.152 23.7347 28.464 23.934C28.7847 24.1247 29.166 24.22 29.608 24.22C30.0847 24.22 30.4703 24.129 30.765 23.947C31.0683 23.765 31.311 23.518 31.493 23.206L32.312 23.687C32.1473 23.9817 31.935 24.2373 31.675 24.454C31.4237 24.6707 31.1247 24.8397 30.778 24.961C30.44 25.0737 30.0587 25.13 29.634 25.13ZM34.4199 25V18.5H35.3299L35.4209 19.956L35.2519 19.813C35.3906 19.4663 35.5769 19.189 35.8109 18.981C36.0449 18.7643 36.3136 18.6083 36.6169 18.513C36.9289 18.4177 37.2496 18.37 37.5789 18.37C38.0469 18.37 38.4716 18.461 38.8529 18.643C39.2343 18.8163 39.5376 19.085 39.7629 19.449C39.9969 19.813 40.1139 20.2767 40.1139 20.84V25H39.0739V21.204C39.0739 20.4847 38.9179 19.9863 38.6059 19.709C38.3026 19.423 37.9256 19.28 37.4749 19.28C37.1629 19.28 36.8509 19.3537 36.5389 19.501C36.2269 19.6483 35.9669 19.8867 35.7589 20.216C35.5596 20.5453 35.4599 20.9873 35.4599 21.542V25H34.4199ZM43.9139 16.654V23.206C43.9139 23.5267 44.0049 23.765 44.1869 23.921C44.3689 24.077 44.6029 24.155 44.8889 24.155C45.1402 24.155 45.3569 24.1117 45.5389 24.025C45.7209 23.9383 45.8856 23.8213 46.0329 23.674L46.3969 24.545C46.1976 24.727 45.9592 24.87 45.6819 24.974C45.4132 25.078 45.1012 25.13 44.7459 25.13C44.4166 25.13 44.1089 25.0737 43.8229 24.961C43.5369 24.8397 43.3072 24.6533 43.1339 24.402C42.9692 24.142 42.8826 23.804 42.8739 23.388V16.94L43.9139 16.654ZM46.2799 18.5V19.397H41.5739V18.5H46.2799ZM52.2569 25V18.5H53.1669L53.2319 19.514C53.4659 19.1153 53.7692 18.825 54.1419 18.643C54.5232 18.461 54.9132 18.37 55.3119 18.37C55.7712 18.37 56.2045 18.474 56.6119 18.682C57.0192 18.89 57.3312 19.2107 57.5479 19.644C57.6865 19.3493 57.8815 19.111 58.1329 18.929C58.3842 18.7383 58.6572 18.5997 58.9519 18.513C59.2552 18.4177 59.5412 18.37 59.8099 18.37C60.2259 18.37 60.6202 18.4567 60.9929 18.63C61.3742 18.8033 61.6862 19.072 61.9289 19.436C62.1715 19.8 62.2929 20.268 62.2929 20.84V25H61.2529V20.944C61.2529 20.3547 61.1055 19.93 60.8109 19.67C60.5162 19.41 60.1522 19.28 59.7189 19.28C59.3809 19.28 59.0645 19.3623 58.7699 19.527C58.4752 19.6917 58.2369 19.9343 58.0549 20.255C57.8815 20.5757 57.7949 20.97 57.7949 21.438V25H56.7549V20.944C56.7549 20.3547 56.6075 19.93 56.3129 19.67C56.0182 19.41 55.6542 19.28 55.2209 19.28C54.9349 19.28 54.6402 19.358 54.3369 19.514C54.0422 19.6613 53.7952 19.8997 53.5959 20.229C53.3965 20.5583 53.2969 20.9917 53.2969 21.529V25H52.2569ZM68.4435 20.801C68.4435 20.3157 68.3135 19.943 68.0535 19.683C67.7935 19.4143 67.4251 19.28 66.9485 19.28C66.4978 19.28 66.1165 19.3797 65.8045 19.579C65.4925 19.7697 65.2628 20.0817 65.1155 20.515L64.2705 19.995C64.4438 19.5097 64.7645 19.1197 65.2325 18.825C65.7005 18.5217 66.2811 18.37 66.9745 18.37C67.4425 18.37 67.8671 18.4523 68.2485 18.617C68.6298 18.773 68.9288 19.0157 69.1455 19.345C69.3708 19.6657 69.4835 20.0817 69.4835 20.593V23.739C69.4835 24.051 69.6481 24.207 69.9775 24.207C70.1421 24.207 70.3025 24.1853 70.4585 24.142L70.4065 24.961C70.2331 25.0477 70.0078 25.091 69.7305 25.091C69.4791 25.091 69.2538 25.0433 69.0545 24.948C68.8551 24.8527 68.6991 24.7097 68.5865 24.519C68.4738 24.3197 68.4175 24.0727 68.4175 23.778V23.648L68.6775 23.687C68.5735 24.025 68.3958 24.3023 68.1445 24.519C67.8931 24.727 67.6115 24.883 67.2995 24.987C66.9875 25.0823 66.6798 25.13 66.3765 25.13C65.9951 25.13 65.6398 25.065 65.3105 24.935C64.9811 24.805 64.7168 24.61 64.5175 24.35C64.3268 24.0813 64.2315 23.752 64.2315 23.362C64.2315 22.8767 64.3918 22.478 64.7125 22.166C65.0418 21.8453 65.4968 21.6287 66.0775 21.516L68.6515 21.009V21.867L66.5585 22.296C66.1338 22.3827 65.8175 22.504 65.6095 22.66C65.4015 22.816 65.2975 23.0327 65.2975 23.31C65.2975 23.5787 65.4015 23.7997 65.6095 23.973C65.8261 24.1377 66.1295 24.22 66.5195 24.22C66.7708 24.22 67.0091 24.1897 67.2345 24.129C67.4685 24.0597 67.6765 23.96 67.8585 23.83C68.0405 23.6913 68.1835 23.5223 68.2875 23.323C68.3915 23.115 68.4435 22.8723 68.4435 22.595V20.801ZM72.0108 25V18.5H72.8558L72.9988 19.566C73.1808 19.1673 73.4451 18.8683 73.7918 18.669C74.1471 18.4697 74.5761 18.37 75.0788 18.37C75.1914 18.37 75.3128 18.3787 75.4428 18.396C75.5814 18.4133 75.6984 18.448 75.7938 18.5L75.6118 19.449C75.5164 19.4143 75.4124 19.3883 75.2998 19.371C75.1871 19.3537 75.0268 19.345 74.8188 19.345C74.5501 19.345 74.2771 19.423 73.9998 19.579C73.7311 19.735 73.5058 19.9733 73.3238 20.294C73.1418 20.606 73.0508 21.0047 73.0508 21.49V25H72.0108ZM83.0244 18.5L80.2164 21.308L79.9694 21.555L77.8374 23.687V22.387L81.7114 18.5H83.0244ZM78.3574 15.51V25H77.3174V15.51H78.3574ZM80.3074 20.775L83.1804 25H81.9194L79.4364 21.36L80.3074 20.775ZM87.1819 25.13C86.5665 25.13 86.0162 24.9957 85.5309 24.727C85.0542 24.4583 84.6815 24.0727 84.4129 23.57C84.1442 23.0587 84.0099 22.452 84.0099 21.75C84.0099 21.048 84.1442 20.4457 84.4129 19.943C84.6815 19.4317 85.0499 19.0417 85.5179 18.773C85.9859 18.5043 86.5189 18.37 87.1169 18.37C87.7235 18.37 88.2392 18.5 88.6639 18.76C89.0972 19.02 89.4265 19.3753 89.6519 19.826C89.8772 20.268 89.9899 20.7663 89.9899 21.321C89.9899 21.4683 89.9855 21.6027 89.9769 21.724C89.9682 21.8453 89.9552 21.9537 89.9379 22.049H84.6859V21.126H89.4829L88.9499 21.23C88.9499 20.606 88.7765 20.125 88.4299 19.787C88.0919 19.449 87.6455 19.28 87.0909 19.28C86.6662 19.28 86.2979 19.3797 85.9859 19.579C85.6825 19.7697 85.4442 20.0513 85.2709 20.424C85.1062 20.788 85.0239 21.23 85.0239 21.75C85.0239 22.2613 85.1105 22.7033 85.2839 23.076C85.4572 23.4487 85.6999 23.7347 86.0119 23.934C86.3325 24.1247 86.7139 24.22 87.1559 24.22C87.6325 24.22 88.0182 24.129 88.3129 23.947C88.6162 23.765 88.8589 23.518 89.0409 23.206L89.8599 23.687C89.6952 23.9817 89.4829 24.2373 89.2229 24.454C88.9715 24.6707 88.6725 24.8397 88.3259 24.961C87.9879 25.0737 87.6065 25.13 87.1819 25.13ZM93.3114 16.654V23.206C93.3114 23.5267 93.4024 23.765 93.5844 23.921C93.7664 24.077 94.0004 24.155 94.2864 24.155C94.5377 24.155 94.7544 24.1117 94.9364 24.025C95.1184 23.9383 95.283 23.8213 95.4304 23.674L95.7944 24.545C95.595 24.727 95.3567 24.87 95.0794 24.974C94.8107 25.078 94.4987 25.13 94.1434 25.13C93.814 25.13 93.5064 25.0737 93.2204 24.961C92.9344 24.8397 92.7047 24.6533 92.5314 24.402C92.3667 24.142 92.28 23.804 92.2714 23.388V16.94L93.3114 16.654ZM95.6774 18.5V19.397H90.9714V18.5H95.6774ZM97.7436 17.252C97.5096 17.252 97.319 17.1827 97.1716 17.044C97.033 16.8967 96.9636 16.706 96.9636 16.472C96.9636 16.238 97.033 16.0517 97.1716 15.913C97.319 15.7657 97.5096 15.692 97.7436 15.692C97.9776 15.692 98.164 15.7657 98.3026 15.913C98.45 16.0517 98.5236 16.238 98.5236 16.472C98.5236 16.706 98.45 16.8967 98.3026 17.044C98.164 17.1827 97.9776 17.252 97.7436 17.252ZM98.2636 18.5V25H97.2236V18.5H98.2636ZM100.677 25V18.5H101.587L101.678 19.956L101.509 19.813C101.647 19.4663 101.834 19.189 102.068 18.981C102.302 18.7643 102.57 18.6083 102.874 18.513C103.186 18.4177 103.506 18.37 103.836 18.37C104.304 18.37 104.728 18.461 105.11 18.643C105.491 18.8163 105.794 19.085 106.02 19.449C106.254 19.813 106.371 20.2767 106.371 20.84V25H105.331V21.204C105.331 20.4847 105.175 19.9863 104.863 19.709C104.559 19.423 104.182 19.28 103.732 19.28C103.42 19.28 103.108 19.3537 102.796 19.501C102.484 19.6483 102.224 19.8867 102.016 20.216C101.816 20.5453 101.717 20.9873 101.717 21.542V25H100.677ZM114.199 17.304L114.433 18.227C114.424 18.227 114.411 18.227 114.394 18.227C114.376 18.227 114.359 18.227 114.342 18.227C113.917 18.227 113.588 18.3137 113.354 18.487C113.128 18.6517 113.016 18.9203 113.016 19.293L112.379 18.968C112.379 18.63 112.457 18.3353 112.613 18.084C112.769 17.8327 112.981 17.642 113.25 17.512C113.518 17.3733 113.813 17.304 114.134 17.304C114.142 17.304 114.151 17.304 114.16 17.304C114.177 17.304 114.19 17.304 114.199 17.304ZM112.223 24.168C112.838 24.168 113.319 24.311 113.666 24.597C114.012 24.8743 114.186 25.247 114.186 25.715C114.186 26.1397 114.043 26.508 113.757 26.82C113.479 27.132 113.102 27.3703 112.626 27.535C112.158 27.7083 111.629 27.795 111.04 27.795C110.017 27.795 109.25 27.6217 108.739 27.275C108.236 26.9283 107.985 26.5123 107.985 26.027C107.985 25.6803 108.097 25.3683 108.323 25.091C108.557 24.8223 108.947 24.6707 109.493 24.636L109.402 24.831C109.107 24.753 108.856 24.623 108.648 24.441C108.448 24.2503 108.349 23.9773 108.349 23.622C108.349 23.2667 108.479 22.9633 108.739 22.712C109.007 22.452 109.402 22.2917 109.922 22.231L110.611 22.582H110.481C110.056 22.6253 109.753 22.7337 109.571 22.907C109.397 23.0717 109.311 23.2537 109.311 23.453C109.311 23.6957 109.397 23.8777 109.571 23.999C109.753 24.1117 110.004 24.168 110.325 24.168H112.223ZM111.027 26.924C111.529 26.924 111.941 26.872 112.262 26.768C112.591 26.664 112.834 26.5297 112.99 26.365C113.146 26.2003 113.224 26.0227 113.224 25.832C113.224 25.598 113.128 25.4117 112.938 25.273C112.756 25.1343 112.422 25.065 111.937 25.065H109.935C109.657 25.065 109.423 25.1343 109.233 25.273C109.042 25.4203 108.947 25.6197 108.947 25.871C108.947 26.1917 109.129 26.4473 109.493 26.638C109.865 26.8287 110.377 26.924 111.027 26.924ZM110.936 18.37C111.456 18.37 111.915 18.4653 112.314 18.656C112.721 18.838 113.037 19.0937 113.263 19.423C113.488 19.7523 113.601 20.1337 113.601 20.567C113.601 20.9917 113.488 21.373 113.263 21.711C113.037 22.0403 112.721 22.3003 112.314 22.491C111.915 22.673 111.456 22.764 110.936 22.764C110.078 22.764 109.419 22.5603 108.96 22.153C108.5 21.737 108.271 21.2083 108.271 20.567C108.271 20.1337 108.383 19.7523 108.609 19.423C108.843 19.0937 109.159 18.838 109.558 18.656C109.956 18.4653 110.416 18.37 110.936 18.37ZM110.936 19.215C110.485 19.215 110.108 19.3407 109.805 19.592C109.501 19.8347 109.35 20.1597 109.35 20.567C109.35 20.9657 109.501 21.2907 109.805 21.542C110.108 21.7933 110.485 21.919 110.936 21.919C111.386 21.919 111.763 21.7933 112.067 21.542C112.37 21.2907 112.522 20.9657 112.522 20.567C112.522 20.1597 112.37 19.8347 112.067 19.592C111.763 19.3407 111.386 19.215 110.936 19.215ZM121.355 16.654V23.206C121.355 23.5267 121.446 23.765 121.628 23.921C121.81 24.077 122.044 24.155 122.33 24.155C122.582 24.155 122.798 24.1117 122.98 24.025C123.162 23.9383 123.327 23.8213 123.474 23.674L123.838 24.545C123.639 24.727 123.401 24.87 123.123 24.974C122.855 25.078 122.543 25.13 122.187 25.13C121.858 25.13 121.55 25.0737 121.264 24.961C120.978 24.8397 120.749 24.6533 120.575 24.402C120.411 24.142 120.324 23.804 120.315 23.388V16.94L121.355 16.654ZM123.721 18.5V19.397H119.015V18.5H123.721ZM127.959 18.37C128.574 18.37 129.116 18.5043 129.584 18.773C130.06 19.0417 130.433 19.4317 130.702 19.943C130.97 20.4457 131.105 21.048 131.105 21.75C131.105 22.452 130.97 23.0587 130.702 23.57C130.433 24.0727 130.06 24.4583 129.584 24.727C129.116 24.9957 128.574 25.13 127.959 25.13C127.352 25.13 126.81 24.9957 126.334 24.727C125.857 24.4583 125.484 24.0727 125.216 23.57C124.947 23.0587 124.813 22.452 124.813 21.75C124.813 21.048 124.947 20.4457 125.216 19.943C125.484 19.4317 125.857 19.0417 126.334 18.773C126.81 18.5043 127.352 18.37 127.959 18.37ZM127.959 19.267C127.517 19.267 127.14 19.3667 126.828 19.566C126.516 19.7653 126.273 20.0513 126.1 20.424C125.935 20.788 125.853 21.23 125.853 21.75C125.853 22.2613 125.935 22.7033 126.1 23.076C126.273 23.4487 126.516 23.7347 126.828 23.934C127.14 24.1333 127.517 24.233 127.959 24.233C128.401 24.233 128.778 24.1333 129.09 23.934C129.402 23.7347 129.64 23.4487 129.805 23.076C129.978 22.7033 130.065 22.2613 130.065 21.75C130.065 21.23 129.978 20.788 129.805 20.424C129.64 20.0513 129.402 19.7653 129.09 19.566C128.778 19.3667 128.401 19.267 127.959 19.267ZM3.549 40.13C2.91633 40.13 2.33133 39.9957 1.794 39.727C1.26533 39.4583 0.858 39.077 0.572 38.583L1.456 37.946C1.64667 38.3447 1.924 38.6567 2.288 38.882C2.66067 39.1073 3.107 39.22 3.627 39.22C4.08633 39.22 4.446 39.1333 4.706 38.96C4.966 38.778 5.096 38.544 5.096 38.258C5.096 38.076 5.03533 37.9113 4.914 37.764C4.80133 37.608 4.58033 37.4953 4.251 37.426L2.691 37.101C2.05833 36.971 1.60333 36.7543 1.326 36.451C1.05733 36.1477 0.923 35.7707 0.923 35.32C0.923 34.9647 1.02267 34.6397 1.222 34.345C1.43 34.0503 1.72033 33.8163 2.093 33.643C2.47433 33.461 2.92067 33.37 3.432 33.37C4.07333 33.37 4.615 33.4957 5.057 33.747C5.499 33.9983 5.82833 34.3537 6.045 34.813L5.174 35.385C5.02667 35.0037 4.78833 34.7263 4.459 34.553C4.12967 34.371 3.78733 34.28 3.432 34.28C3.12 34.28 2.85133 34.3233 2.626 34.41C2.40933 34.4967 2.24033 34.618 2.119 34.774C2.00633 34.9213 1.95 35.0903 1.95 35.281C1.95 35.4717 2.015 35.6493 2.145 35.814C2.275 35.97 2.51767 36.0827 2.873 36.152L4.498 36.49C5.10467 36.6113 5.52933 36.8107 5.772 37.088C6.01467 37.3653 6.136 37.7033 6.136 38.102C6.136 38.5093 6.02767 38.869 5.811 39.181C5.59433 39.4843 5.291 39.7183 4.901 39.883C4.511 40.0477 4.06033 40.13 3.549 40.13ZM8.06447 42.73V33.5H8.97447L9.06547 35.086L8.92247 34.904C9.03514 34.6007 9.20414 34.3363 9.42947 34.111C9.6548 33.877 9.9278 33.695 10.2485 33.565C10.5691 33.435 10.9158 33.37 11.2885 33.37C11.8171 33.37 12.3025 33.5043 12.7445 33.773C13.1951 34.0417 13.5548 34.4273 13.8235 34.93C14.0921 35.4327 14.2265 36.0393 14.2265 36.75C14.2265 37.452 14.0878 38.0587 13.8105 38.57C13.5418 39.0727 13.1821 39.4583 12.7315 39.727C12.2808 39.9957 11.7868 40.13 11.2495 40.13C10.7121 40.13 10.2398 40 9.83247 39.74C9.4338 39.4713 9.1478 39.1333 8.97447 38.726L9.10447 38.531V42.73H8.06447ZM11.1455 39.22C11.7868 39.22 12.2851 38.9947 12.6405 38.544C13.0045 38.0933 13.1865 37.4953 13.1865 36.75C13.1865 36.0047 13.0088 35.4067 12.6535 34.956C12.3068 34.5053 11.8171 34.28 11.1845 34.28C10.7685 34.28 10.4045 34.384 10.0925 34.592C9.78047 34.7913 9.5378 35.0773 9.36447 35.45C9.19114 35.814 9.10447 36.2473 9.10447 36.75C9.10447 37.244 9.1868 37.6773 9.35147 38.05C9.5248 38.4227 9.76314 38.713 10.0665 38.921C10.3785 39.1203 10.7381 39.22 11.1455 39.22ZM18.9059 33.37C19.5212 33.37 20.0629 33.5043 20.5309 33.773C21.0075 34.0417 21.3802 34.4317 21.6489 34.943C21.9175 35.4457 22.0519 36.048 22.0519 36.75C22.0519 37.452 21.9175 38.0587 21.6489 38.57C21.3802 39.0727 21.0075 39.4583 20.5309 39.727C20.0629 39.9957 19.5212 40.13 18.9059 40.13C18.2992 40.13 17.7575 39.9957 17.2809 39.727C16.8042 39.4583 16.4315 39.0727 16.1629 38.57C15.8942 38.0587 15.7599 37.452 15.7599 36.75C15.7599 36.048 15.8942 35.4457 16.1629 34.943C16.4315 34.4317 16.8042 34.0417 17.2809 33.773C17.7575 33.5043 18.2992 33.37 18.9059 33.37ZM18.9059 34.267C18.4639 34.267 18.0869 34.3667 17.7749 34.566C17.4629 34.7653 17.2202 35.0513 17.0469 35.424C16.8822 35.788 16.7999 36.23 16.7999 36.75C16.7999 37.2613 16.8822 37.7033 17.0469 38.076C17.2202 38.4487 17.4629 38.7347 17.7749 38.934C18.0869 39.1333 18.4639 39.233 18.9059 39.233C19.3479 39.233 19.7249 39.1333 20.0369 38.934C20.3489 38.7347 20.5872 38.4487 20.7519 38.076C20.9252 37.7033 21.0119 37.2613 21.0119 36.75C21.0119 36.23 20.9252 35.788 20.7519 35.424C20.5872 35.0513 20.3489 34.7653 20.0369 34.566C19.7249 34.3667 19.3479 34.267 18.9059 34.267ZM25.4295 31.654V38.206C25.4295 38.5267 25.5205 38.765 25.7025 38.921C25.8845 39.077 26.1185 39.155 26.4045 39.155C26.6559 39.155 26.8725 39.1117 27.0545 39.025C27.2365 38.9383 27.4012 38.8213 27.5485 38.674L27.9125 39.545C27.7132 39.727 27.4749 39.87 27.1975 39.974C26.9289 40.078 26.6169 40.13 26.2615 40.13C25.9322 40.13 25.6245 40.0737 25.3385 39.961C25.0525 39.8397 24.8229 39.6533 24.6495 39.402C24.4849 39.142 24.3982 38.804 24.3895 38.388V31.94L25.4295 31.654ZM27.7955 33.5V34.397H23.0895V33.5H27.7955ZM37.5685 35.801C37.5685 35.3157 37.4385 34.943 37.1785 34.683C36.9185 34.4143 36.5501 34.28 36.0735 34.28C35.6228 34.28 35.2415 34.3797 34.9295 34.579C34.6175 34.7697 34.3878 35.0817 34.2405 35.515L33.3955 34.995C33.5688 34.5097 33.8895 34.1197 34.3575 33.825C34.8255 33.5217 35.4061 33.37 36.0995 33.37C36.5675 33.37 36.9921 33.4523 37.3735 33.617C37.7548 33.773 38.0538 34.0157 38.2705 34.345C38.4958 34.6657 38.6085 35.0817 38.6085 35.593V38.739C38.6085 39.051 38.7731 39.207 39.1025 39.207C39.2671 39.207 39.4275 39.1853 39.5835 39.142L39.5315 39.961C39.3581 40.0477 39.1328 40.091 38.8555 40.091C38.6041 40.091 38.3788 40.0433 38.1795 39.948C37.9801 39.8527 37.8241 39.7097 37.7115 39.519C37.5988 39.3197 37.5425 39.0727 37.5425 38.778V38.648L37.8025 38.687C37.6985 39.025 37.5208 39.3023 37.2695 39.519C37.0181 39.727 36.7365 39.883 36.4245 39.987C36.1125 40.0823 35.8048 40.13 35.5015 40.13C35.1201 40.13 34.7648 40.065 34.4355 39.935C34.1061 39.805 33.8418 39.61 33.6425 39.35C33.4518 39.0813 33.3565 38.752 33.3565 38.362C33.3565 37.8767 33.5168 37.478 33.8375 37.166C34.1668 36.8453 34.6218 36.6287 35.2025 36.516L37.7765 36.009V36.867L35.6835 37.296C35.2588 37.3827 34.9425 37.504 34.7345 37.66C34.5265 37.816 34.4225 38.0327 34.4225 38.31C34.4225 38.5787 34.5265 38.7997 34.7345 38.973C34.9511 39.1377 35.2545 39.22 35.6445 39.22C35.8958 39.22 36.1341 39.1897 36.3595 39.129C36.5935 39.0597 36.8015 38.96 36.9835 38.83C37.1655 38.6913 37.3085 38.5223 37.4125 38.323C37.5165 38.115 37.5685 37.8723 37.5685 37.595V35.801ZM41.1358 40V33.5H42.0458L42.1368 34.956L41.9678 34.813C42.1064 34.4663 42.2928 34.189 42.5268 33.981C42.7608 33.7643 43.0294 33.6083 43.3328 33.513C43.6448 33.4177 43.9654 33.37 44.2948 33.37C44.7628 33.37 45.1874 33.461 45.5688 33.643C45.9501 33.8163 46.2534 34.085 46.4788 34.449C46.7128 34.813 46.8298 35.2767 46.8298 35.84V40H45.7898V36.204C45.7898 35.4847 45.6338 34.9863 45.3218 34.709C45.0184 34.423 44.6414 34.28 44.1908 34.28C43.8788 34.28 43.5668 34.3537 43.2548 34.501C42.9428 34.6483 42.6828 34.8867 42.4748 35.216C42.2754 35.5453 42.1758 35.9873 42.1758 36.542V40H41.1358ZM54.3499 33.5L51.2949 41.092C51.1302 41.5167 50.9482 41.8503 50.7489 42.093C50.5582 42.3443 50.3415 42.522 50.0989 42.626C49.8649 42.7387 49.5919 42.795 49.2799 42.795C48.9852 42.795 48.7122 42.7517 48.4609 42.665C48.2182 42.587 48.0015 42.4787 47.8109 42.34L48.0969 41.43C48.2702 41.586 48.4522 41.6987 48.6429 41.768C48.8422 41.846 49.0372 41.885 49.2279 41.885C49.4532 41.885 49.6655 41.8157 49.8649 41.677C50.0642 41.5383 50.2462 41.2567 50.4109 40.832L50.7489 39.987L50.0989 38.44L48.0319 33.5H49.2149L50.8399 37.738L51.2429 38.895L51.7109 37.608L53.2319 33.5H54.3499ZM62.5016 33.37C63.1169 33.37 63.6586 33.5043 64.1266 33.773C64.6032 34.0417 64.9759 34.4317 65.2446 34.943C65.5132 35.4457 65.6476 36.048 65.6476 36.75C65.6476 37.452 65.5132 38.0587 65.2446 38.57C64.9759 39.0727 64.6032 39.4583 64.1266 39.727C63.6586 39.9957 63.1169 40.13 62.5016 40.13C61.8949 40.13 61.3532 39.9957 60.8766 39.727C60.3999 39.4583 60.0272 39.0727 59.7586 38.57C59.4899 38.0587 59.3556 37.452 59.3556 36.75C59.3556 36.048 59.4899 35.4457 59.7586 34.943C60.0272 34.4317 60.3999 34.0417 60.8766 33.773C61.3532 33.5043 61.8949 33.37 62.5016 33.37ZM62.5016 34.267C62.0596 34.267 61.6826 34.3667 61.3706 34.566C61.0586 34.7653 60.8159 35.0513 60.6426 35.424C60.4779 35.788 60.3956 36.23 60.3956 36.75C60.3956 37.2613 60.4779 37.7033 60.6426 38.076C60.8159 38.4487 61.0586 38.7347 61.3706 38.934C61.6826 39.1333 62.0596 39.233 62.5016 39.233C62.9436 39.233 63.3206 39.1333 63.6326 38.934C63.9446 38.7347 64.1829 38.4487 64.3476 38.076C64.5209 37.7033 64.6076 37.2613 64.6076 36.75C64.6076 36.23 64.5209 35.788 64.3476 35.424C64.1829 35.0513 63.9446 34.7653 63.6326 34.566C63.3206 34.3667 62.9436 34.267 62.5016 34.267ZM67.6055 42.73V33.5H68.5155L68.6065 35.086L68.4635 34.904C68.5762 34.6007 68.7452 34.3363 68.9705 34.111C69.1958 33.877 69.4688 33.695 69.7895 33.565C70.1102 33.435 70.4568 33.37 70.8295 33.37C71.3582 33.37 71.8435 33.5043 72.2855 33.773C72.7362 34.0417 73.0958 34.4273 73.3645 34.93C73.6332 35.4327 73.7675 36.0393 73.7675 36.75C73.7675 37.452 73.6288 38.0587 73.3515 38.57C73.0828 39.0727 72.7232 39.4583 72.2725 39.727C71.8218 39.9957 71.3278 40.13 70.7905 40.13C70.2532 40.13 69.7808 40 69.3735 39.74C68.9748 39.4713 68.6888 39.1333 68.5155 38.726L68.6455 38.531V42.73H67.6055ZM70.6865 39.22C71.3278 39.22 71.8262 38.9947 72.1815 38.544C72.5455 38.0933 72.7275 37.4953 72.7275 36.75C72.7275 36.0047 72.5498 35.4067 72.1945 34.956C71.8478 34.5053 71.3582 34.28 70.7255 34.28C70.3095 34.28 69.9455 34.384 69.6335 34.592C69.3215 34.7913 69.0788 35.0773 68.9055 35.45C68.7322 35.814 68.6455 36.2473 68.6455 36.75C68.6455 37.244 68.7278 37.6773 68.8925 38.05C69.0658 38.4227 69.3042 38.713 69.6075 38.921C69.9195 39.1203 70.2792 39.22 70.6865 39.22ZM75.7559 42.73V33.5H76.6659L76.7569 35.086L76.6139 34.904C76.7265 34.6007 76.8955 34.3363 77.1209 34.111C77.3462 33.877 77.6192 33.695 77.9399 33.565C78.2605 33.435 78.6072 33.37 78.9799 33.37C79.5085 33.37 79.9939 33.5043 80.4359 33.773C80.8865 34.0417 81.2462 34.4273 81.5149 34.93C81.7835 35.4327 81.9179 36.0393 81.9179 36.75C81.9179 37.452 81.7792 38.0587 81.5019 38.57C81.2332 39.0727 80.8735 39.4583 80.4229 39.727C79.9722 39.9957 79.4782 40.13 78.9409 40.13C78.4035 40.13 77.9312 40 77.5239 39.74C77.1252 39.4713 76.8392 39.1333 76.6659 38.726L76.7959 38.531V42.73H75.7559ZM78.8369 39.22C79.4782 39.22 79.9765 38.9947 80.3319 38.544C80.6959 38.0933 80.8779 37.4953 80.8779 36.75C80.8779 36.0047 80.7002 35.4067 80.3449 34.956C79.9982 34.5053 79.5085 34.28 78.8759 34.28C78.4599 34.28 78.0959 34.384 77.7839 34.592C77.4719 34.7913 77.2292 35.0773 77.0559 35.45C76.8825 35.814 76.7959 36.2473 76.7959 36.75C76.7959 37.244 76.8782 37.6773 77.0429 38.05C77.2162 38.4227 77.4545 38.713 77.7579 38.921C78.0699 39.1203 78.4295 39.22 78.8369 39.22ZM86.5973 33.37C87.2126 33.37 87.7543 33.5043 88.2223 33.773C88.6989 34.0417 89.0716 34.4317 89.3403 34.943C89.6089 35.4457 89.7433 36.048 89.7433 36.75C89.7433 37.452 89.6089 38.0587 89.3403 38.57C89.0716 39.0727 88.6989 39.4583 88.2223 39.727C87.7543 39.9957 87.2126 40.13 86.5973 40.13C85.9906 40.13 85.4489 39.9957 84.9723 39.727C84.4956 39.4583 84.1229 39.0727 83.8543 38.57C83.5856 38.0587 83.4513 37.452 83.4513 36.75C83.4513 36.048 83.5856 35.4457 83.8543 34.943C84.1229 34.4317 84.4956 34.0417 84.9723 33.773C85.4489 33.5043 85.9906 33.37 86.5973 33.37ZM86.5973 34.267C86.1553 34.267 85.7783 34.3667 85.4663 34.566C85.1543 34.7653 84.9116 35.0513 84.7383 35.424C84.5736 35.788 84.4913 36.23 84.4913 36.75C84.4913 37.2613 84.5736 37.7033 84.7383 38.076C84.9116 38.4487 85.1543 38.7347 85.4663 38.934C85.7783 39.1333 86.1553 39.233 86.5973 39.233C87.0393 39.233 87.4163 39.1333 87.7283 38.934C88.0403 38.7347 88.2786 38.4487 88.4433 38.076C88.6166 37.7033 88.7033 37.2613 88.7033 36.75C88.7033 36.23 88.6166 35.788 88.4433 35.424C88.2786 35.0513 88.0403 34.7653 87.7283 34.566C87.4163 34.3667 87.0393 34.267 86.5973 34.267ZM91.7012 40V33.5H92.5462L92.6892 34.566C92.8712 34.1673 93.1355 33.8683 93.4822 33.669C93.8375 33.4697 94.2665 33.37 94.7692 33.37C94.8819 33.37 95.0032 33.3787 95.1332 33.396C95.2719 33.4133 95.3889 33.448 95.4842 33.5L95.3022 34.449C95.2069 34.4143 95.1029 34.3883 94.9902 34.371C94.8775 34.3537 94.7172 34.345 94.5092 34.345C94.2405 34.345 93.9675 34.423 93.6902 34.579C93.4215 34.735 93.1962 34.9733 93.0142 35.294C92.8322 35.606 92.7412 36.0047 92.7412 36.49V40H91.7012ZM98.1483 31.654V38.206C98.1483 38.5267 98.2393 38.765 98.4213 38.921C98.6033 39.077 98.8373 39.155 99.1233 39.155C99.3746 39.155 99.5913 39.1117 99.7733 39.025C99.9553 38.9383 100.12 38.8213 100.267 38.674L100.631 39.545C100.432 39.727 100.194 39.87 99.9163 39.974C99.6476 40.078 99.3356 40.13 98.9803 40.13C98.6509 40.13 98.3433 40.0737 98.0573 39.961C97.7713 39.8397 97.5416 39.6533 97.3683 39.402C97.2036 39.142 97.1169 38.804 97.1083 38.388V31.94L98.1483 31.654ZM100.514 33.5V34.397H95.8083V33.5H100.514ZM104.414 40.13C103.998 40.13 103.603 40.052 103.231 39.896C102.867 39.74 102.568 39.4887 102.334 39.142C102.108 38.7867 101.996 38.3273 101.996 37.764V33.5H103.036V37.491C103.036 38.1497 103.179 38.6047 103.465 38.856C103.751 39.0987 104.154 39.22 104.674 39.22C104.916 39.22 105.155 39.181 105.389 39.103C105.623 39.0163 105.831 38.8863 106.013 38.713C106.203 38.531 106.351 38.3013 106.455 38.024C106.567 37.7467 106.624 37.4173 106.624 37.036V33.5H107.664V40H106.754L106.689 39.012C106.463 39.402 106.156 39.688 105.766 39.87C105.384 40.0433 104.934 40.13 104.414 40.13ZM110.084 40V33.5H110.994L111.085 34.956L110.916 34.813C111.055 34.4663 111.241 34.189 111.475 33.981C111.709 33.7643 111.978 33.6083 112.281 33.513C112.593 33.4177 112.914 33.37 113.243 33.37C113.711 33.37 114.136 33.461 114.517 33.643C114.898 33.8163 115.202 34.085 115.427 34.449C115.661 34.813 115.778 35.2767 115.778 35.84V40H114.738V36.204C114.738 35.4847 114.582 34.9863 114.27 34.709C113.967 34.423 113.59 34.28 113.139 34.28C112.827 34.28 112.515 34.3537 112.203 34.501C111.891 34.6483 111.631 34.8867 111.423 35.216C111.224 35.5453 111.124 35.9873 111.124 36.542V40H110.084ZM118.653 32.252C118.419 32.252 118.228 32.1827 118.081 32.044C117.942 31.8967 117.873 31.706 117.873 31.472C117.873 31.238 117.942 31.0517 118.081 30.913C118.228 30.7657 118.419 30.692 118.653 30.692C118.887 30.692 119.073 30.7657 119.212 30.913C119.359 31.0517 119.433 31.238 119.433 31.472C119.433 31.706 119.359 31.8967 119.212 32.044C119.073 32.1827 118.887 32.252 118.653 32.252ZM119.173 33.5V40H118.133V33.5H119.173ZM123.12 31.654V38.206C123.12 38.5267 123.211 38.765 123.393 38.921C123.575 39.077 123.809 39.155 124.095 39.155C124.346 39.155 124.563 39.1117 124.745 39.025C124.927 38.9383 125.092 38.8213 125.239 38.674L125.603 39.545C125.404 39.727 125.165 39.87 124.888 39.974C124.619 40.078 124.307 40.13 123.952 40.13C123.623 40.13 123.315 40.0737 123.029 39.961C122.743 39.8397 122.513 39.6533 122.34 39.402C122.175 39.142 122.089 38.804 122.08 38.388V31.94L123.12 31.654ZM125.486 33.5V34.397H120.78V33.5H125.486ZM127.552 32.252C127.318 32.252 127.128 32.1827 126.98 32.044C126.842 31.8967 126.772 31.706 126.772 31.472C126.772 31.238 126.842 31.0517 126.98 30.913C127.128 30.7657 127.318 30.692 127.552 30.692C127.786 30.692 127.973 30.7657 128.111 30.913C128.259 31.0517 128.332 31.238 128.332 31.472C128.332 31.706 128.259 31.8967 128.111 32.044C127.973 32.1827 127.786 32.252 127.552 32.252ZM128.072 33.5V40H127.032V33.5H128.072ZM133.202 40.13C132.587 40.13 132.037 39.9957 131.551 39.727C131.075 39.4583 130.702 39.0727 130.433 38.57C130.165 38.0587 130.03 37.452 130.03 36.75C130.03 36.048 130.165 35.4457 130.433 34.943C130.702 34.4317 131.07 34.0417 131.538 33.773C132.006 33.5043 132.539 33.37 133.137 33.37C133.744 33.37 134.26 33.5 134.684 33.76C135.118 34.02 135.447 34.3753 135.672 34.826C135.898 35.268 136.01 35.7663 136.01 36.321C136.01 36.4683 136.006 36.6027 135.997 36.724C135.989 36.8453 135.976 36.9537 135.958 37.049H130.706V36.126H135.503L134.97 36.23C134.97 35.606 134.797 35.125 134.45 34.787C134.112 34.449 133.666 34.28 133.111 34.28C132.687 34.28 132.318 34.3797 132.006 34.579C131.703 34.7697 131.465 35.0513 131.291 35.424C131.127 35.788 131.044 36.23 131.044 36.75C131.044 37.2613 131.131 37.7033 131.304 38.076C131.478 38.4487 131.72 38.7347 132.032 38.934C132.353 39.1247 132.734 39.22 133.176 39.22C133.653 39.22 134.039 39.129 134.333 38.947C134.637 38.765 134.879 38.518 135.061 38.206L135.88 38.687C135.716 38.9817 135.503 39.2373 135.243 39.454C134.992 39.6707 134.693 39.8397 134.346 39.961C134.008 40.0737 133.627 40.13 133.202 40.13ZM140.328 40.13C139.696 40.13 139.111 39.9957 138.573 39.727C138.045 39.4583 137.637 39.077 137.351 38.583L138.235 37.946C138.426 38.3447 138.703 38.6567 139.067 38.882C139.44 39.1073 139.886 39.22 140.406 39.22C140.866 39.22 141.225 39.1333 141.485 38.96C141.745 38.778 141.875 38.544 141.875 38.258C141.875 38.076 141.815 37.9113 141.693 37.764C141.581 37.608 141.36 37.4953 141.03 37.426L139.47 37.101C138.838 36.971 138.383 36.7543 138.105 36.451C137.837 36.1477 137.702 35.7707 137.702 35.32C137.702 34.9647 137.802 34.6397 138.001 34.345C138.209 34.0503 138.5 33.8163 138.872 33.643C139.254 33.461 139.7 33.37 140.211 33.37C140.853 33.37 141.394 33.4957 141.836 33.747C142.278 33.9983 142.608 34.3537 142.824 34.813L141.953 35.385C141.806 35.0037 141.568 34.7263 141.238 34.553C140.909 34.371 140.567 34.28 140.211 34.28C139.899 34.28 139.631 34.3233 139.405 34.41C139.189 34.4967 139.02 34.618 138.898 34.774C138.786 34.9213 138.729 35.0903 138.729 35.281C138.729 35.4717 138.794 35.6493 138.924 35.814C139.054 35.97 139.297 36.0827 139.652 36.152L141.277 36.49C141.884 36.6113 142.309 36.8107 142.551 37.088C142.794 37.3653 142.915 37.7033 142.915 38.102C142.915 38.5093 142.807 38.869 142.59 39.181C142.374 39.4843 142.07 39.7183 141.68 39.883C141.29 40.0477 140.84 40.13 140.328 40.13ZM3.9 48.37C4.51533 48.37 5.057 48.5043 5.525 48.773C6.00167 49.0417 6.37433 49.4317 6.643 49.943C6.91167 50.4457 7.046 51.048 7.046 51.75C7.046 52.452 6.91167 53.0587 6.643 53.57C6.37433 54.0727 6.00167 54.4583 5.525 54.727C5.057 54.9957 4.51533 55.13 3.9 55.13C3.29333 55.13 2.75167 54.9957 2.275 54.727C1.79833 54.4583 1.42567 54.0727 1.157 53.57C0.888333 53.0587 0.754 52.452 0.754 51.75C0.754 51.048 0.888333 50.4457 1.157 49.943C1.42567 49.4317 1.79833 49.0417 2.275 48.773C2.75167 48.5043 3.29333 48.37 3.9 48.37ZM3.9 49.267C3.458 49.267 3.081 49.3667 2.769 49.566C2.457 49.7653 2.21433 50.0513 2.041 50.424C1.87633 50.788 1.794 51.23 1.794 51.75C1.794 52.2613 1.87633 52.7033 2.041 53.076C2.21433 53.4487 2.457 53.7347 2.769 53.934C3.081 54.1333 3.458 54.233 3.9 54.233C4.342 54.233 4.719 54.1333 5.031 53.934C5.343 53.7347 5.58133 53.4487 5.746 53.076C5.91933 52.7033 6.006 52.2613 6.006 51.75C6.006 51.23 5.91933 50.788 5.746 50.424C5.58133 50.0513 5.343 49.7653 5.031 49.566C4.719 49.3667 4.342 49.267 3.9 49.267ZM9.00392 55V48.5H9.84892L9.99192 49.566C10.1739 49.1673 10.4383 48.8683 10.7849 48.669C11.1403 48.4697 11.5693 48.37 12.0719 48.37C12.1846 48.37 12.3059 48.3787 12.4359 48.396C12.5746 48.4133 12.6916 48.448 12.7869 48.5L12.6049 49.449C12.5096 49.4143 12.4056 49.3883 12.2929 49.371C12.1803 49.3537 12.0199 49.345 11.8119 49.345C11.5433 49.345 11.2703 49.423 10.9929 49.579C10.7243 49.735 10.4989 49.9733 10.3169 50.294C10.1349 50.606 10.0439 51.0047 10.0439 51.49V55H9.00392ZM23.9095 47.304L24.1435 48.227C24.1349 48.227 24.1219 48.227 24.1045 48.227C24.0872 48.227 24.0699 48.227 24.0525 48.227C23.6279 48.227 23.2985 48.3137 23.0645 48.487C22.8392 48.6517 22.7265 48.9203 22.7265 49.293L22.0895 48.968C22.0895 48.63 22.1675 48.3353 22.3235 48.084C22.4795 47.8327 22.6919 47.642 22.9605 47.512C23.2292 47.3733 23.5239 47.304 23.8445 47.304C23.8532 47.304 23.8619 47.304 23.8705 47.304C23.8879 47.304 23.9009 47.304 23.9095 47.304ZM21.9335 54.168C22.5489 54.168 23.0299 54.311 23.3765 54.597C23.7232 54.8743 23.8965 55.247 23.8965 55.715C23.8965 56.1397 23.7535 56.508 23.4675 56.82C23.1902 57.132 22.8132 57.3703 22.3365 57.535C21.8685 57.7083 21.3399 57.795 20.7505 57.795C19.7279 57.795 18.9609 57.6217 18.4495 57.275C17.9469 56.9283 17.6955 56.5123 17.6955 56.027C17.6955 55.6803 17.8082 55.3683 18.0335 55.091C18.2675 54.8223 18.6575 54.6707 19.2035 54.636L19.1125 54.831C18.8179 54.753 18.5665 54.623 18.3585 54.441C18.1592 54.2503 18.0595 53.9773 18.0595 53.622C18.0595 53.2667 18.1895 52.9633 18.4495 52.712C18.7182 52.452 19.1125 52.2917 19.6325 52.231L20.3215 52.582H20.1915C19.7669 52.6253 19.4635 52.7337 19.2815 52.907C19.1082 53.0717 19.0215 53.2537 19.0215 53.453C19.0215 53.6957 19.1082 53.8777 19.2815 53.999C19.4635 54.1117 19.7149 54.168 20.0355 54.168H21.9335ZM20.7375 56.924C21.2402 56.924 21.6519 56.872 21.9725 56.768C22.3019 56.664 22.5445 56.5297 22.7005 56.365C22.8565 56.2003 22.9345 56.0227 22.9345 55.832C22.9345 55.598 22.8392 55.4117 22.6485 55.273C22.4665 55.1343 22.1329 55.065 21.6475 55.065H19.6455C19.3682 55.065 19.1342 55.1343 18.9435 55.273C18.7529 55.4203 18.6575 55.6197 18.6575 55.871C18.6575 56.1917 18.8395 56.4473 19.2035 56.638C19.5762 56.8287 20.0875 56.924 20.7375 56.924ZM20.6465 48.37C21.1665 48.37 21.6259 48.4653 22.0245 48.656C22.4319 48.838 22.7482 49.0937 22.9735 49.423C23.1989 49.7523 23.3115 50.1337 23.3115 50.567C23.3115 50.9917 23.1989 51.373 22.9735 51.711C22.7482 52.0403 22.4319 52.3003 22.0245 52.491C21.6259 52.673 21.1665 52.764 20.6465 52.764C19.7885 52.764 19.1299 52.5603 18.6705 52.153C18.2112 51.737 17.9815 51.2083 17.9815 50.567C17.9815 50.1337 18.0942 49.7523 18.3195 49.423C18.5535 49.0937 18.8699 48.838 19.2685 48.656C19.6672 48.4653 20.1265 48.37 20.6465 48.37ZM20.6465 49.215C20.1959 49.215 19.8189 49.3407 19.5155 49.592C19.2122 49.8347 19.0605 50.1597 19.0605 50.567C19.0605 50.9657 19.2122 51.2907 19.5155 51.542C19.8189 51.7933 20.1959 51.919 20.6465 51.919C21.0972 51.919 21.4742 51.7933 21.7775 51.542C22.0809 51.2907 22.2325 50.9657 22.2325 50.567C22.2325 50.1597 22.0809 49.8347 21.7775 49.592C21.4742 49.3407 21.0972 49.215 20.6465 49.215ZM29.1515 50.801C29.1515 50.3157 29.0215 49.943 28.7615 49.683C28.5015 49.4143 28.1332 49.28 27.6565 49.28C27.2058 49.28 26.8245 49.3797 26.5125 49.579C26.2005 49.7697 25.9708 50.0817 25.8235 50.515L24.9785 49.995C25.1518 49.5097 25.4725 49.1197 25.9405 48.825C26.4085 48.5217 26.9892 48.37 27.6825 48.37C28.1505 48.37 28.5752 48.4523 28.9565 48.617C29.3378 48.773 29.6368 49.0157 29.8535 49.345C30.0788 49.6657 30.1915 50.0817 30.1915 50.593V53.739C30.1915 54.051 30.3562 54.207 30.6855 54.207C30.8502 54.207 31.0105 54.1853 31.1665 54.142L31.1145 54.961C30.9412 55.0477 30.7158 55.091 30.4385 55.091C30.1872 55.091 29.9618 55.0433 29.7625 54.948C29.5632 54.8527 29.4072 54.7097 29.2945 54.519C29.1818 54.3197 29.1255 54.0727 29.1255 53.778V53.648L29.3855 53.687C29.2815 54.025 29.1038 54.3023 28.8525 54.519C28.6012 54.727 28.3195 54.883 28.0075 54.987C27.6955 55.0823 27.3878 55.13 27.0845 55.13C26.7032 55.13 26.3478 55.065 26.0185 54.935C25.6892 54.805 25.4248 54.61 25.2255 54.35C25.0348 54.0813 24.9395 53.752 24.9395 53.362C24.9395 52.8767 25.0998 52.478 25.4205 52.166C25.7498 51.8453 26.2048 51.6287 26.7855 51.516L29.3595 51.009V51.867L27.2665 52.296C26.8418 52.3827 26.5255 52.504 26.3175 52.66C26.1095 52.816 26.0055 53.0327 26.0055 53.31C26.0055 53.5787 26.1095 53.7997 26.3175 53.973C26.5342 54.1377 26.8375 54.22 27.2275 54.22C27.4788 54.22 27.7172 54.1897 27.9425 54.129C28.1765 54.0597 28.3845 53.96 28.5665 53.83C28.7485 53.6913 28.8915 53.5223 28.9955 53.323C29.0995 53.115 29.1515 52.8723 29.1515 52.595V50.801ZM32.7188 57.73V48.5H33.6288L33.7198 50.086L33.5768 49.904C33.6894 49.6007 33.8584 49.3363 34.0838 49.111C34.3091 48.877 34.5821 48.695 34.9028 48.565C35.2234 48.435 35.5701 48.37 35.9428 48.37C36.4714 48.37 36.9568 48.5043 37.3988 48.773C37.8494 49.0417 38.2091 49.4273 38.4778 49.93C38.7464 50.4327 38.8808 51.0393 38.8808 51.75C38.8808 52.452 38.7421 53.0587 38.4648 53.57C38.1961 54.0727 37.8364 54.4583 37.3858 54.727C36.9351 54.9957 36.4411 55.13 35.9038 55.13C35.3664 55.13 34.8941 55 34.4868 54.74C34.0881 54.4713 33.8021 54.1333 33.6288 53.726L33.7588 53.531V57.73H32.7188ZM35.7998 54.22C36.4411 54.22 36.9394 53.9947 37.2948 53.544C37.6588 53.0933 37.8408 52.4953 37.8408 51.75C37.8408 51.0047 37.6631 50.4067 37.3078 49.956C36.9611 49.5053 36.4714 49.28 35.8388 49.28C35.4228 49.28 35.0588 49.384 34.7468 49.592C34.4348 49.7913 34.1921 50.0773 34.0188 50.45C33.8454 50.814 33.7588 51.2473 33.7588 51.75C33.7588 52.244 33.8411 52.6773 34.0058 53.05C34.1791 53.4227 34.4174 53.713 34.7208 53.921C35.0328 54.1203 35.3924 54.22 35.7998 54.22ZM43.2092 55.13C42.5765 55.13 41.9915 54.9957 41.4542 54.727C40.9255 54.4583 40.5182 54.077 40.2322 53.583L41.1162 52.946C41.3068 53.3447 41.5842 53.6567 41.9482 53.882C42.3208 54.1073 42.7672 54.22 43.2872 54.22C43.7465 54.22 44.1062 54.1333 44.3662 53.96C44.6262 53.778 44.7562 53.544 44.7562 53.258C44.7562 53.076 44.6955 52.9113 44.5742 52.764C44.4615 52.608 44.2405 52.4953 43.9112 52.426L42.3512 52.101C41.7185 51.971 41.2635 51.7543 40.9862 51.451C40.7175 51.1477 40.5832 50.7707 40.5832 50.32C40.5832 49.9647 40.6828 49.6397 40.8822 49.345C41.0902 49.0503 41.3805 48.8163 41.7532 48.643C42.1345 48.461 42.5808 48.37 43.0922 48.37C43.7335 48.37 44.2752 48.4957 44.7172 48.747C45.1592 48.9983 45.4885 49.3537 45.7052 49.813L44.8342 50.385C44.6868 50.0037 44.4485 49.7263 44.1192 49.553C43.7898 49.371 43.4475 49.28 43.0922 49.28C42.7802 49.28 42.5115 49.3233 42.2862 49.41C42.0695 49.4967 41.9005 49.618 41.7792 49.774C41.6665 49.9213 41.6102 50.0903 41.6102 50.281C41.6102 50.4717 41.6752 50.6493 41.8052 50.814C41.9352 50.97 42.1778 51.0827 42.5332 51.152L44.1582 51.49C44.7648 51.6113 45.1895 51.8107 45.4322 52.088C45.6748 52.3653 45.7962 52.7033 45.7962 53.102C45.7962 53.5093 45.6878 53.869 45.4712 54.181C45.2545 54.4843 44.9512 54.7183 44.5612 54.883C44.1712 55.0477 43.7205 55.13 43.2092 55.13ZM48.2446 53.44C48.496 53.44 48.6996 53.518 48.8556 53.674C49.0116 53.83 49.0896 54.0337 49.0896 54.285C49.0896 54.5363 49.0116 54.74 48.8556 54.896C48.6996 55.052 48.496 55.13 48.2446 55.13C47.9933 55.13 47.7896 55.052 47.6336 54.896C47.4776 54.74 47.3996 54.5363 47.3996 54.285C47.3996 54.0337 47.4776 53.83 47.6336 53.674C47.7896 53.518 47.9933 53.44 48.2446 53.44Z" fill="black"/>
</svg>
