<svg width="2569" height="877" viewBox="0 0 2569 877" fill="none" xmlns="http://www.w3.org/2000/svg">
<g id="Group 127">
<rect id="Rectangle 31" x="1902" y="36" width="639" height="307" rx="50" fill="#E7D9CB" fill-opacity="0.27"/>
<path id="Rectangle 37" d="M2396 90C2396 84.4772 2400.48 80 2406 80H2449C2454.52 80 2459 84.4772 2459 90V130C2459 135.523 2454.52 140 2449 140H2406C2400.48 140 2396 135.523 2396 130V90Z" fill="black"/>
<rect id="Rectangle 27" x="957" y="14" width="639" height="307" rx="50" fill="#E7D9CB" fill-opacity="0.27"/>
<rect id="Rectangle 30" x="1399" y="570" width="639" height="307" rx="50" fill="#E7D9CB" fill-opacity="0.27"/>
<path id="Vector" d="M4 432.378L51.1425 427.667C97.9408 423.055 192.226 413.632 286.167 424.359C380.107 435.085 474.392 465.76 567.645 466.963C661.242 468.166 754.15 439.696 847.747 424.86C940.999 410.024 1035.28 408.62 1129.23 409.522C1223.17 410.324 1317.45 413.332 1411.39 422.053C1505.33 430.674 1599.62 445.11 1693.56 441.701C1787.5 438.393 1881.78 417.342 1975.72 407.818C2069.67 398.295 2163.95 400.3 2257.2 415.036C2350.8 429.672 2482.51 438.13 2565 427.667" stroke="#C16200" stroke-width="8" stroke-linecap="round"/>
<text id="Execution" fill="black" xml:space="preserve" style="white-space: pre" font-family="Libre Baskerville" font-size="32" font-weight="bold" letter-spacing="0em"><tspan x="1476" y="680.2">Execution&#10;</tspan></text>
<text id="Analysis" fill="black" xml:space="preserve" style="white-space: pre" font-family="Libre Baskerville" font-size="32" font-weight="bold" letter-spacing="0em"><tspan x="1979" y="146.2">Analysis&#10;</tspan></text>
<text id="Strategy" fill="black" xml:space="preserve" style="white-space: pre" font-family="Libre Baskerville" font-size="32" font-weight="bold" letter-spacing="0em"><tspan x="1031" y="119.2">Strategy&#10;</tspan></text>
<text id="I develop an actionable strategy rooted in market insights and aligned with your goals." fill="black" xml:space="preserve" style="white-space: pre" font-family="Work Sans" font-size="30" font-weight="500" letter-spacing="0em"><tspan x="1031" y="176.805">I develop an actionable strategy </tspan><tspan x="1031" y="211.805">rooted in market insights and </tspan><tspan x="1031" y="246.805">aligned with your goals.</tspan></text>
<text id="I handle end-to-end delivery of your strategy across the most effective channels." fill="black" xml:space="preserve" style="white-space: pre" font-family="Work Sans" font-size="30" font-weight="500" letter-spacing="0em"><tspan x="1473" y="737.805">I handle end-to-end delivery of </tspan><tspan x="1473" y="772.805">your strategy across the most </tspan><tspan x="1473" y="807.805">effective channels.</tspan></text>
<text id="I monitor and review performance so your strategy and campaigns can be optimised." fill="black" xml:space="preserve" style="white-space: pre" font-family="Work Sans" font-size="30" font-weight="500" letter-spacing="0em"><tspan x="1976" y="203.805">I monitor and review performance </tspan><tspan x="1976" y="238.805">so your strategy and campaigns </tspan><tspan x="1976" y="273.805">can be optimised.</tspan></text>
<rect id="Rectangle 18" x="431" y="570" width="639" height="307" rx="50" fill="#E7D9CB" fill-opacity="0.27"/>
<rect id="Rectangle 26" x="44" width="639" height="307" rx="50" fill="#E7D9CB" fill-opacity="0.27"/>
<text id="Deep-dive" fill="black" xml:space="preserve" style="white-space: pre" font-family="Libre Baskerville" font-size="32" font-weight="bold" letter-spacing="0em"><tspan x="505" y="670.2">Deep-dive&#10;</tspan></text>
<text id="I do an audit of your current marketing to spot any opportunities or gaps." fill="black" xml:space="preserve" style="white-space: pre" font-family="Work Sans" font-size="30" font-weight="500" letter-spacing="0em"><tspan x="505" y="733.805">I do an audit of your current </tspan><tspan x="505" y="768.805">marketing to spot any </tspan><tspan x="505" y="803.805">opportunities or gaps.</tspan></text>
<text id="Discovery" fill="black" xml:space="preserve" style="white-space: pre" font-family="Libre Baskerville" font-size="32" font-weight="bold" letter-spacing="0em"><tspan x="119" y="105.2">Discovery&#10;</tspan></text>
<text id="I have a 20 minute call with you to understand your business, goals and challenges you&#226;&#128;&#153;re facing." fill="black" xml:space="preserve" style="white-space: pre" font-family="Work Sans" font-size="30" font-weight="500" letter-spacing="0em"><tspan x="119" y="175.805">I have a 20 minute call with you to </tspan><tspan x="119" y="210.805">understand your business, goals </tspan><tspan x="119" y="245.805">and challenges you&#x2019;re facing.</tspan></text>
<g id="Group 63">
<ellipse id="Ellipse 28" cx="362.279" cy="433" rx="19.2794" ry="19" fill="#C16200"/>
</g>
<g id="Group 70">
<ellipse id="Ellipse 28_2" cx="718.28" cy="448" rx="19.28" ry="19" fill="#C16200"/>
</g>
<g id="Group 71">
<circle id="Ellipse 28_3" cx="1244" cy="410" r="19" fill="#C16200"/>
</g>
<line id="Line 5" x1="362.5" y1="414" x2="362.5" y2="307" stroke="#C16200"/>
<line id="Line 7" x1="1243.5" y1="402" x2="1243.5" y2="321" stroke="#C16200"/>
<line id="Line 8" x1="1717.5" y1="570" x2="1717.5" y2="454" stroke="#C16200"/>
<line id="Line 6" x1="717.5" y1="570" x2="717.5" y2="467" stroke="#C16200"/>
<path id="Rectangle 33" d="M532.5 54.5C532.5 48.9772 536.977 44.5 542.5 44.5H585.5C591.023 44.5 595.5 48.9772 595.5 54.5V94.5C595.5 100.023 591.023 104.5 585.5 104.5H542.5C536.977 104.5 532.5 100.023 532.5 94.5V54.5Z" fill="black"/>
<path id="Rectangle 34" d="M1451 68C1451 62.4772 1455.48 58 1461 58H1504C1509.52 58 1514 62.4772 1514 68V108C1514 113.523 1509.52 118 1504 118H1461C1455.48 118 1451 113.523 1451 108V68Z" fill="black"/>
<text id="01" fill="white" xml:space="preserve" style="white-space: pre" font-family="Libre Baskerville" font-size="32" letter-spacing="0em"><tspan x="545.438" y="89.2">01</tspan></text>
<path id="Rectangle 35" d="M920 624C920 618.477 924.477 614 930 614H973C978.523 614 983 618.477 983 624V664C983 669.523 978.523 674 973 674H930C924.477 674 920 669.523 920 664V624Z" fill="black"/>
<text id="02" fill="white" xml:space="preserve" style="white-space: pre" font-family="Libre Baskerville" font-size="32" letter-spacing="0em"><tspan x="930.219" y="658.7">02</tspan></text>
<text id="03" fill="white" xml:space="preserve" style="white-space: pre" font-family="Libre Baskerville" font-size="32" letter-spacing="0em"><tspan x="1461.22" y="102.7">03</tspan></text>
<path id="Rectangle 36" d="M1888 624C1888 618.477 1892.48 614 1898 614H1941C1946.52 614 1951 618.477 1951 624V664C1951 669.523 1946.52 674 1941 674H1898C1892.48 674 1888 669.523 1888 664V624Z" fill="black"/>
<text id="04" fill="white" xml:space="preserve" style="white-space: pre" font-family="Libre Baskerville" font-size="32" letter-spacing="0em"><tspan x="1898.72" y="658.7">04</tspan></text>
<g id="Group 72">
<path id="Ellipse 28_4" d="M1737 439C1737 449.493 1728.49 458 1718 458C1707.51 458 1699 449.493 1699 439C1699 428.507 1707.51 420 1718 420C1728.49 420 1737 428.507 1737 439Z" fill="#C16200"/>
</g>
<text id="05" fill="white" xml:space="preserve" style="white-space: pre" font-family="Libre Baskerville" font-size="32" letter-spacing="0em"><tspan x="2406.98" y="124.7">05</tspan></text>
</g>
</svg>
