<svg width="1355" height="593" viewBox="0 0 1355 593" fill="none" xmlns="http://www.w3.org/2000/svg">
<rect y="4.5885" width="426.996" height="255.237" rx="50" fill="#E5E3DC"/>
<rect x="464.002" y="0.286743" width="426.996" height="255.237" rx="50" fill="#E5E3DC"/>
<rect x="232.001" y="337.257" width="426.996" height="255.237" rx="50" fill="#E5E3DC"/>
<rect x="696.003" y="332.956" width="426.996" height="255.237" rx="50" fill="#E5E3DC"/>
<rect x="928.004" y="4.5885" width="426.996" height="255.237" rx="50" fill="#E5E3DC"/>
<ellipse cx="78.9941" cy="80.375" rx="37.718" ry="37.0708" fill="#495A58"/>
<path d="M148.9 67.3042V66.3042C149.45 66.2875 149.892 66.2459 150.225 66.1792C150.575 66.0959 150.842 65.9542 151.025 65.7542C151.225 65.5375 151.358 65.2542 151.425 64.9042C151.492 64.5375 151.525 64.0542 151.525 63.4542V51.9042C151.525 51.3209 151.5 50.8542 151.45 50.5042C151.4 50.1375 151.292 49.8542 151.125 49.6542C150.958 49.4375 150.725 49.2959 150.425 49.2292C150.142 49.1459 149.767 49.0875 149.3 49.0542V48.0542H158.8C160.4 48.0542 161.875 48.3042 163.225 48.8042C164.575 49.3042 165.742 49.9959 166.725 50.8792C167.708 51.7625 168.475 52.8125 169.025 54.0292C169.575 55.2459 169.85 56.5709 169.85 58.0042C169.85 59.3709 169.592 60.6292 169.075 61.7792C168.558 62.9125 167.833 63.8875 166.9 64.7042C165.983 65.5209 164.875 66.1625 163.575 66.6292C162.292 67.0792 160.875 67.3042 159.325 67.3042H148.9ZM155.625 49.5792C155.342 49.5792 155.2 49.7209 155.2 50.0042V62.9292C155.2 63.8959 155.5 64.6125 156.1 65.0792C156.7 65.5459 157.625 65.7792 158.875 65.7792C161.058 65.7792 162.733 65.1209 163.9 63.8042C165.083 62.4875 165.675 60.5709 165.675 58.0542C165.675 56.7209 165.517 55.5292 165.2 54.4792C164.883 53.4292 164.425 52.5459 163.825 51.8292C163.225 51.0959 162.492 50.5375 161.625 50.1542C160.775 49.7709 159.817 49.5792 158.75 49.5792H155.625ZM177.424 63.2042C177.424 63.8709 177.449 64.4042 177.499 64.8042C177.549 65.2042 177.649 65.5125 177.799 65.7292C177.949 65.9459 178.165 66.0959 178.449 66.1792C178.732 66.2459 179.115 66.2875 179.599 66.3042V67.3042H171.724V66.3042C172.19 66.2875 172.565 66.2375 172.849 66.1542C173.149 66.0542 173.374 65.9042 173.524 65.7042C173.69 65.4875 173.799 65.1959 173.849 64.8292C173.915 64.4459 173.949 63.9625 173.949 63.3792V60.3042C173.949 59.3375 173.932 58.5459 173.899 57.9292C173.865 57.2959 173.824 56.8625 173.774 56.6292C173.69 56.2125 173.499 55.9375 173.199 55.8042C172.915 55.6709 172.39 55.6042 171.624 55.6042V54.7542L177.424 53.8042V63.2042ZM173.749 48.5042C173.749 47.9542 173.932 47.4959 174.299 47.1292C174.682 46.7459 175.14 46.5542 175.674 46.5542C176.224 46.5542 176.682 46.7459 177.049 47.1292C177.432 47.4959 177.624 47.9542 177.624 48.5042C177.624 49.0375 177.432 49.4959 177.049 49.8792C176.682 50.2459 176.224 50.4292 175.674 50.4292C175.14 50.4292 174.682 50.2459 174.299 49.8792C173.932 49.4959 173.749 49.0375 173.749 48.5042ZM182.157 67.3042H181.382V62.7542H182.432C182.715 63.9542 183.124 64.8292 183.657 65.3792C184.19 65.9292 184.882 66.2042 185.732 66.2042C186.349 66.2042 186.824 66.0792 187.157 65.8292C187.507 65.5625 187.682 65.2042 187.682 64.7542C187.682 64.2875 187.474 63.8375 187.057 63.4042C186.64 62.9542 185.965 62.4792 185.032 61.9792C183.765 61.2959 182.857 60.6209 182.307 59.9542C181.757 59.2709 181.482 58.5042 181.482 57.6542C181.482 57.1042 181.582 56.5959 181.782 56.1292C181.999 55.6459 182.282 55.2292 182.632 54.8792C182.999 54.5292 183.432 54.2625 183.932 54.0792C184.432 53.8792 184.974 53.7792 185.557 53.7792C186.074 53.7792 186.582 53.8542 187.082 54.0042C187.599 54.1542 188.049 54.3625 188.432 54.6292L188.882 54.0292H189.532V57.8042H188.557C188.174 56.8542 187.774 56.1709 187.357 55.7542C186.957 55.3375 186.465 55.1292 185.882 55.1292C185.415 55.1292 185.04 55.2542 184.757 55.5042C184.49 55.7542 184.357 56.0875 184.357 56.5042C184.357 56.9709 184.557 57.4125 184.957 57.8292C185.374 58.2459 186.057 58.7042 187.007 59.2042C187.674 59.5709 188.249 59.9292 188.732 60.2792C189.215 60.6292 189.607 60.9875 189.907 61.3542C190.207 61.7042 190.424 62.0792 190.557 62.4792C190.707 62.8625 190.782 63.2792 190.782 63.7292C190.782 64.3125 190.674 64.8375 190.457 65.3042C190.24 65.7709 189.932 66.1709 189.532 66.5042C189.132 66.8375 188.649 67.0959 188.082 67.2792C187.532 67.4625 186.915 67.5542 186.232 67.5542C185.515 67.5542 184.849 67.4625 184.232 67.2792C183.615 67.0792 183.107 66.7959 182.707 66.4292L182.157 67.3042ZM204.877 65.2292C204.244 65.9292 203.452 66.4709 202.502 66.8542C201.569 67.2375 200.552 67.4292 199.452 67.4292C198.436 67.4292 197.511 67.2709 196.677 66.9542C195.844 66.6209 195.127 66.1625 194.527 65.5792C193.927 64.9959 193.461 64.2959 193.127 63.4792C192.811 62.6459 192.652 61.7292 192.652 60.7292C192.652 59.6959 192.827 58.7542 193.177 57.9042C193.527 57.0542 194.019 56.3292 194.652 55.7292C195.286 55.1125 196.044 54.6375 196.927 54.3042C197.811 53.9709 198.786 53.8042 199.852 53.8042C200.602 53.8042 201.294 53.8792 201.927 54.0292C202.577 54.1792 203.127 54.3875 203.577 54.6542C204.044 54.9209 204.411 55.2375 204.677 55.6042C204.944 55.9542 205.077 56.3375 205.077 56.7542C205.077 57.2375 204.936 57.6209 204.652 57.9042C204.386 58.1875 204.019 58.3292 203.552 58.3292C203.169 58.3292 202.827 58.2292 202.527 58.0292C202.244 57.8292 201.961 57.5042 201.677 57.0542C201.427 56.6542 201.211 56.3375 201.027 56.1042C200.861 55.8709 200.702 55.6959 200.552 55.5792C200.402 55.4459 200.252 55.3625 200.102 55.3292C199.952 55.2792 199.769 55.2542 199.552 55.2542C198.586 55.2542 197.836 55.7042 197.302 56.6042C196.769 57.5042 196.502 58.7625 196.502 60.3792C196.502 62.1125 196.819 63.4459 197.452 64.3792C198.102 65.3125 199.027 65.7792 200.227 65.7792C200.911 65.7792 201.594 65.6542 202.277 65.4042C202.961 65.1375 203.611 64.7625 204.227 64.2792L204.877 65.2292ZM213.989 53.8042C214.989 53.8042 215.93 53.9792 216.814 54.3292C217.714 54.6625 218.497 55.1292 219.164 55.7292C219.847 56.3292 220.38 57.0459 220.764 57.8792C221.164 58.6959 221.364 59.5959 221.364 60.5792C221.364 61.5959 221.164 62.5292 220.764 63.3792C220.38 64.2292 219.847 64.9625 219.164 65.5792C218.497 66.1959 217.714 66.6792 216.814 67.0292C215.93 67.3792 214.989 67.5542 213.989 67.5542C213.005 67.5542 212.072 67.3875 211.189 67.0542C210.305 66.7042 209.53 66.2209 208.864 65.6042C208.197 64.9875 207.672 64.2542 207.289 63.4042C206.905 62.5375 206.714 61.5959 206.714 60.5792C206.714 59.5959 206.905 58.6875 207.289 57.8542C207.672 57.0209 208.197 56.3042 208.864 55.7042C209.53 55.1042 210.305 54.6375 211.189 54.3042C212.072 53.9709 213.005 53.8042 213.989 53.8042ZM213.989 55.2542C213.489 55.2542 213.03 55.3875 212.614 55.6542C212.197 55.9042 211.839 56.2625 211.539 56.7292C211.255 57.1959 211.03 57.7625 210.864 58.4292C210.714 59.0792 210.639 59.8042 210.639 60.6042C210.639 61.4375 210.714 62.1875 210.864 62.8542C211.03 63.5209 211.255 64.0875 211.539 64.5542C211.839 65.0209 212.189 65.3875 212.589 65.6542C213.005 65.9042 213.472 66.0292 213.989 66.0292C214.505 66.0292 214.972 65.9042 215.389 65.6542C215.822 65.3875 216.189 65.0209 216.489 64.5542C216.789 64.0709 217.022 63.4959 217.189 62.8292C217.355 62.1625 217.439 61.4209 217.439 60.6042C217.439 59.8042 217.355 59.0792 217.189 58.4292C217.022 57.7792 216.789 57.2209 216.489 56.7542C216.189 56.2709 215.822 55.9042 215.389 55.6542C214.972 55.3875 214.505 55.2542 213.989 55.2542ZM224.183 57.2792C224 56.7959 223.825 56.4125 223.658 56.1292C223.491 55.8292 223.316 55.6042 223.133 55.4542C222.966 55.2875 222.775 55.1792 222.558 55.1292C222.358 55.0792 222.116 55.0542 221.833 55.0542V54.0542H229.308V55.0542C228.891 55.0542 228.558 55.0709 228.308 55.1042C228.075 55.1375 227.891 55.1875 227.758 55.2542C227.641 55.3209 227.566 55.4125 227.533 55.5292C227.5 55.6292 227.483 55.7459 227.483 55.8792C227.483 56.0959 227.525 56.3459 227.608 56.6292C227.691 56.9125 227.791 57.1959 227.908 57.4792L230.283 64.0292H230.383L233.058 57.5042C233.175 57.2209 233.266 56.9709 233.333 56.7542C233.4 56.5209 233.433 56.3125 233.433 56.1292C233.433 55.7625 233.308 55.4959 233.058 55.3292C232.808 55.1625 232.366 55.0709 231.733 55.0542V54.0542H237.258V55.0542C236.808 55.0542 236.416 55.1709 236.083 55.4042C235.766 55.6375 235.433 56.1542 235.083 56.9542L230.408 67.5542H228.133L224.183 57.2792ZM250.221 64.9792C248.705 66.6959 246.813 67.5542 244.546 67.5542C243.513 67.5542 242.571 67.3959 241.721 67.0792C240.888 66.7459 240.171 66.2875 239.571 65.7042C238.971 65.1042 238.505 64.3959 238.171 63.5792C237.838 62.7625 237.671 61.8542 237.671 60.8542C237.671 59.8209 237.846 58.8792 238.196 58.0292C238.546 57.1625 239.038 56.4209 239.671 55.8042C240.321 55.1709 241.08 54.6792 241.946 54.3292C242.83 53.9792 243.796 53.8042 244.846 53.8042C246.613 53.8042 247.988 54.2792 248.971 55.2292C249.955 56.1792 250.446 57.5125 250.446 59.2292C250.446 59.4959 250.405 59.6625 250.321 59.7292C250.238 59.7792 250.005 59.8042 249.621 59.8042H241.571C241.505 59.9542 241.471 60.2292 241.471 60.6292C241.471 62.2625 241.821 63.5542 242.521 64.5042C243.238 65.4542 244.205 65.9292 245.421 65.9292C246.121 65.9292 246.813 65.7709 247.496 65.4542C248.196 65.1375 248.871 64.6875 249.521 64.1042L250.221 64.9792ZM245.371 58.4042C246.038 58.4042 246.463 58.3709 246.646 58.3042C246.846 58.2209 246.946 58.0375 246.946 57.7542C246.946 57.0209 246.738 56.4209 246.321 55.9542C245.905 55.4875 245.38 55.2542 244.746 55.2542C244.03 55.2542 243.388 55.5542 242.821 56.1542C242.271 56.7375 241.913 57.4875 241.746 58.4042H245.371ZM257.795 63.4292C257.795 64.0792 257.82 64.5959 257.87 64.9792C257.937 65.3459 258.062 65.6292 258.245 65.8292C258.429 66.0292 258.695 66.1625 259.045 66.2292C259.395 66.2792 259.862 66.3042 260.445 66.3042V67.3042H252.095V66.3042C252.595 66.2709 252.995 66.2209 253.295 66.1542C253.595 66.0875 253.82 65.9542 253.97 65.7542C254.12 65.5542 254.212 65.2709 254.245 64.9042C254.295 64.5209 254.32 64.0125 254.32 63.3792V60.3292C254.32 59.2959 254.295 58.4709 254.245 57.8542C254.195 57.2375 254.087 56.7625 253.92 56.4292C253.754 56.0959 253.512 55.8792 253.195 55.7792C252.895 55.6625 252.495 55.6042 251.995 55.6042V54.7292L256.995 53.8042L257.395 56.6792H257.495C257.945 55.7959 258.537 55.0959 259.27 54.5792C260.004 54.0625 260.779 53.8042 261.595 53.8042C262.229 53.8042 262.745 53.9625 263.145 54.2792C263.545 54.5959 263.745 54.9959 263.745 55.4792C263.745 56.0125 263.587 56.4625 263.27 56.8292C262.97 57.1959 262.554 57.3792 262.02 57.3792C261.77 57.3792 261.545 57.3292 261.345 57.2292C261.145 57.1292 260.962 57.0209 260.795 56.9042C260.645 56.7709 260.487 56.6542 260.32 56.5542C260.17 56.4375 260.012 56.3792 259.845 56.3792C259.529 56.3792 259.229 56.5875 258.945 57.0042C258.662 57.4209 258.429 57.9792 258.245 58.6792C258.112 59.1792 258.004 59.7459 257.92 60.3792C257.837 60.9959 257.795 61.6125 257.795 62.2292V63.4292ZM270.972 71.2292C270.788 71.5959 270.555 71.9375 270.272 72.2542C270.005 72.5709 269.697 72.8375 269.347 73.0542C269.013 73.2875 268.663 73.4709 268.297 73.6042C267.93 73.7375 267.563 73.8042 267.197 73.8042C266.647 73.8042 266.205 73.6709 265.872 73.4042C265.538 73.1375 265.372 72.7792 265.372 72.3292C265.372 71.9125 265.513 71.5875 265.797 71.3542C266.097 71.1209 266.572 70.9792 267.222 70.9292C268.705 70.8125 269.663 70.3459 270.097 69.5292L270.772 68.2292L266.347 57.2792C266.147 56.7959 265.972 56.4125 265.822 56.1292C265.688 55.8459 265.538 55.6292 265.372 55.4792C265.205 55.3125 265.013 55.2042 264.797 55.1542C264.58 55.1042 264.313 55.0709 263.997 55.0542V54.0542H271.572V55.0542C270.922 55.0542 270.463 55.1209 270.197 55.2542C269.947 55.3709 269.822 55.5959 269.822 55.9292C269.822 56.0625 269.838 56.2209 269.872 56.4042C269.922 56.5709 269.98 56.7459 270.047 56.9292L272.597 64.2292H272.697L274.847 59.3542C275.063 58.8375 275.247 58.4125 275.397 58.0792C275.547 57.7292 275.655 57.4375 275.722 57.2042C275.805 56.9542 275.863 56.7542 275.897 56.6042C275.93 56.4542 275.947 56.3042 275.947 56.1542C275.947 55.7209 275.822 55.4292 275.572 55.2792C275.338 55.1292 274.855 55.0542 274.122 55.0542V54.0542H280.147V55.0542C279.813 55.0542 279.53 55.1042 279.297 55.2042C279.063 55.2875 278.822 55.4709 278.572 55.7542C278.338 56.0375 278.072 56.4625 277.772 57.0292C277.488 57.5792 277.13 58.3125 276.697 59.2292L270.972 71.2292Z" fill="black"/>
<path d="M152.745 120.095L148.625 106.895H149.665L153.385 119.175L156.825 106.895H157.985L161.445 119.195L165.165 106.895H166.165L162.045 120.095H160.805L158.145 110.835L157.405 107.975H157.385L156.645 110.835L153.985 120.095H152.745ZM171.932 120.295C171.012 120.295 170.192 120.088 169.472 119.675C168.752 119.262 168.185 118.668 167.772 117.895C167.372 117.108 167.172 116.175 167.172 115.095C167.172 114.015 167.372 113.088 167.772 112.315C168.185 111.528 168.739 110.928 169.432 110.515C170.125 110.102 170.919 109.895 171.812 109.895C172.719 109.895 173.492 110.095 174.132 110.495C174.772 110.895 175.265 111.455 175.612 112.175C175.959 112.882 176.132 113.702 176.132 114.635C176.132 114.755 176.125 114.875 176.112 114.995C176.112 115.102 176.105 115.202 176.092 115.295H167.792V114.395H175.652L175.152 114.535C175.139 113.388 174.832 112.475 174.232 111.795C173.645 111.115 172.832 110.775 171.792 110.775C171.072 110.775 170.439 110.948 169.892 111.295C169.345 111.628 168.919 112.122 168.612 112.775C168.305 113.415 168.152 114.188 168.152 115.095C168.152 115.988 168.305 116.762 168.612 117.415C168.932 118.068 169.372 118.568 169.932 118.915C170.505 119.248 171.165 119.415 171.912 119.415C172.685 119.415 173.345 119.248 173.892 118.915C174.452 118.582 174.885 118.122 175.192 117.535L175.992 117.995C175.752 118.475 175.432 118.888 175.032 119.235C174.632 119.568 174.172 119.828 173.652 120.015C173.132 120.202 172.559 120.295 171.932 120.295ZM193.534 108.255L193.774 109.135C193.761 109.135 193.748 109.135 193.734 109.135C193.721 109.135 193.701 109.135 193.674 109.135C193.021 109.135 192.514 109.308 192.154 109.655C191.808 109.988 191.634 110.462 191.634 111.075L190.994 110.755C190.994 110.248 191.101 109.808 191.314 109.435C191.528 109.062 191.821 108.775 192.194 108.575C192.568 108.362 192.988 108.255 193.454 108.255C193.481 108.255 193.494 108.255 193.494 108.255C193.508 108.255 193.521 108.255 193.534 108.255ZM190.374 119.075C191.361 119.075 192.134 119.282 192.694 119.695C193.254 120.108 193.534 120.662 193.534 121.355C193.534 121.968 193.328 122.502 192.914 122.955C192.514 123.408 191.961 123.762 191.254 124.015C190.548 124.268 189.741 124.395 188.834 124.395C187.328 124.395 186.174 124.135 185.374 123.615C184.574 123.108 184.174 122.468 184.174 121.695C184.174 121.135 184.374 120.648 184.774 120.235C185.188 119.822 185.788 119.575 186.574 119.495L186.494 119.675C186.068 119.555 185.688 119.355 185.354 119.075C185.034 118.795 184.874 118.395 184.874 117.875C184.874 117.315 185.081 116.862 185.494 116.515C185.921 116.155 186.481 115.948 187.174 115.895L188.234 116.255H187.814C187.201 116.295 186.708 116.448 186.334 116.715C185.974 116.968 185.794 117.302 185.794 117.715C185.794 118.168 185.968 118.508 186.314 118.735C186.674 118.962 187.128 119.075 187.674 119.075H190.374ZM188.834 123.555C189.621 123.555 190.294 123.462 190.854 123.275C191.414 123.088 191.841 122.835 192.134 122.515C192.441 122.208 192.594 121.862 192.594 121.475C192.594 121.008 192.388 120.635 191.974 120.355C191.574 120.075 190.961 119.935 190.134 119.935H187.294C186.668 119.935 186.148 120.082 185.734 120.375C185.321 120.668 185.114 121.062 185.114 121.555C185.114 122.155 185.441 122.635 186.094 122.995C186.761 123.368 187.674 123.555 188.834 123.555ZM188.694 109.895C189.481 109.895 190.174 110.035 190.774 110.315C191.388 110.582 191.861 110.962 192.194 111.455C192.528 111.935 192.694 112.502 192.694 113.155C192.694 113.795 192.528 114.368 192.194 114.875C191.861 115.368 191.388 115.755 190.774 116.035C190.174 116.302 189.481 116.435 188.694 116.435C187.428 116.435 186.434 116.135 185.714 115.535C185.008 114.922 184.654 114.128 184.654 113.155C184.654 112.502 184.821 111.935 185.154 111.455C185.501 110.962 185.974 110.582 186.574 110.315C187.188 110.035 187.894 109.895 188.694 109.895ZM188.694 110.715C187.814 110.715 187.094 110.942 186.534 111.395C185.974 111.835 185.694 112.422 185.694 113.155C185.694 113.888 185.974 114.482 186.534 114.935C187.094 115.388 187.814 115.615 188.694 115.615C189.574 115.615 190.288 115.388 190.834 114.935C191.394 114.482 191.674 113.888 191.674 113.155C191.674 112.422 191.394 111.835 190.834 111.395C190.288 110.942 189.574 110.715 188.694 110.715ZM199.627 120.295C198.707 120.295 197.887 120.088 197.167 119.675C196.447 119.262 195.881 118.668 195.467 117.895C195.067 117.108 194.867 116.175 194.867 115.095C194.867 114.015 195.067 113.088 195.467 112.315C195.881 111.528 196.434 110.928 197.127 110.515C197.821 110.102 198.614 109.895 199.507 109.895C200.414 109.895 201.187 110.095 201.827 110.495C202.467 110.895 202.961 111.455 203.307 112.175C203.654 112.882 203.827 113.702 203.827 114.635C203.827 114.755 203.821 114.875 203.807 114.995C203.807 115.102 203.801 115.202 203.787 115.295H195.487V114.395H203.347L202.847 114.535C202.834 113.388 202.527 112.475 201.927 111.795C201.341 111.115 200.527 110.775 199.487 110.775C198.767 110.775 198.134 110.948 197.587 111.295C197.041 111.628 196.614 112.122 196.307 112.775C196.001 113.415 195.847 114.188 195.847 115.095C195.847 115.988 196.001 116.762 196.307 117.415C196.627 118.068 197.067 118.568 197.627 118.915C198.201 119.248 198.861 119.415 199.607 119.415C200.381 119.415 201.041 119.248 201.587 118.915C202.147 118.582 202.581 118.122 202.887 117.535L203.687 117.995C203.447 118.475 203.127 118.888 202.727 119.235C202.327 119.568 201.867 119.828 201.347 120.015C200.827 120.202 200.254 120.295 199.627 120.295ZM208.125 107.315V117.455C208.125 118.082 208.272 118.562 208.565 118.895C208.872 119.215 209.312 119.375 209.885 119.375C210.259 119.375 210.585 119.315 210.865 119.195C211.159 119.062 211.419 118.875 211.645 118.635L212.025 119.455C211.772 119.708 211.452 119.915 211.065 120.075C210.679 120.222 210.245 120.295 209.765 120.295C209.245 120.295 208.785 120.202 208.385 120.015C207.985 119.815 207.672 119.515 207.445 119.115C207.232 118.715 207.125 118.208 207.125 117.595V107.595L208.125 107.315ZM211.865 110.095V110.955H205.125V110.095H211.865ZM221.446 107.315V117.455C221.446 118.082 221.592 118.562 221.886 118.895C222.192 119.215 222.632 119.375 223.206 119.375C223.579 119.375 223.906 119.315 224.186 119.195C224.479 119.062 224.739 118.875 224.966 118.635L225.346 119.455C225.092 119.708 224.772 119.915 224.386 120.075C223.999 120.222 223.566 120.295 223.086 120.295C222.566 120.295 222.106 120.202 221.706 120.015C221.306 119.815 220.992 119.515 220.766 119.115C220.552 118.715 220.446 118.208 220.446 117.595V107.595L221.446 107.315ZM225.186 110.095V110.955H218.446V110.095H225.186ZM231.405 109.895C232.338 109.895 233.158 110.102 233.865 110.515C234.585 110.928 235.145 111.528 235.545 112.315C235.958 113.088 236.165 114.015 236.165 115.095C236.165 116.175 235.958 117.108 235.545 117.895C235.145 118.668 234.585 119.262 233.865 119.675C233.158 120.088 232.338 120.295 231.405 120.295C230.471 120.295 229.645 120.088 228.925 119.675C228.218 119.262 227.658 118.668 227.245 117.895C226.845 117.108 226.645 116.175 226.645 115.095C226.645 114.015 226.845 113.088 227.245 112.315C227.658 111.528 228.218 110.928 228.925 110.515C229.645 110.102 230.471 109.895 231.405 109.895ZM231.405 110.755C230.645 110.755 229.985 110.928 229.425 111.275C228.865 111.622 228.425 112.122 228.105 112.775C227.798 113.415 227.645 114.188 227.645 115.095C227.645 115.988 227.798 116.762 228.105 117.415C228.425 118.068 228.865 118.568 229.425 118.915C229.985 119.262 230.645 119.435 231.405 119.435C232.165 119.435 232.825 119.262 233.385 118.915C233.945 118.568 234.378 118.068 234.685 117.415C235.005 116.762 235.165 115.988 235.165 115.095C235.165 114.188 235.005 113.415 234.685 112.775C234.378 112.122 233.945 111.622 233.385 111.275C232.825 110.928 232.165 110.755 231.405 110.755ZM253.533 110.095L249.133 114.335L248.893 114.575L245.793 117.575V116.295L252.233 110.095H253.533ZM246.293 105.495V120.095H245.293V105.495H246.293ZM249.193 113.815L253.693 120.095H252.473L248.373 114.395L249.193 113.815ZM255.84 120.095V110.095H256.74L256.82 112.595L256.66 112.455C256.847 111.908 257.127 111.448 257.5 111.075C257.874 110.688 258.32 110.395 258.84 110.195C259.36 109.995 259.92 109.895 260.52 109.895C261.267 109.895 261.927 110.035 262.5 110.315C263.074 110.595 263.52 111.008 263.84 111.555C264.174 112.102 264.34 112.788 264.34 113.615V120.095H263.34V113.935C263.34 112.842 263.067 112.042 262.52 111.535C261.987 111.028 261.287 110.775 260.42 110.775C259.794 110.775 259.207 110.922 258.66 111.215C258.127 111.495 257.687 111.908 257.34 112.455C257.007 113.002 256.84 113.668 256.84 114.455V120.095H255.84ZM271.873 109.895C272.807 109.895 273.627 110.102 274.333 110.515C275.053 110.928 275.613 111.528 276.013 112.315C276.427 113.088 276.633 114.015 276.633 115.095C276.633 116.175 276.427 117.108 276.013 117.895C275.613 118.668 275.053 119.262 274.333 119.675C273.627 120.088 272.807 120.295 271.873 120.295C270.94 120.295 270.113 120.088 269.393 119.675C268.687 119.262 268.127 118.668 267.713 117.895C267.313 117.108 267.113 116.175 267.113 115.095C267.113 114.015 267.313 113.088 267.713 112.315C268.127 111.528 268.687 110.928 269.393 110.515C270.113 110.102 270.94 109.895 271.873 109.895ZM271.873 110.755C271.113 110.755 270.453 110.928 269.893 111.275C269.333 111.622 268.893 112.122 268.573 112.775C268.267 113.415 268.113 114.188 268.113 115.095C268.113 115.988 268.267 116.762 268.573 117.415C268.893 118.068 269.333 118.568 269.893 118.915C270.453 119.262 271.113 119.435 271.873 119.435C272.633 119.435 273.293 119.262 273.853 118.915C274.413 118.568 274.847 118.068 275.153 117.415C275.473 116.762 275.633 115.988 275.633 115.095C275.633 114.188 275.473 113.415 275.153 112.775C274.847 112.122 274.413 111.622 273.853 111.275C273.293 110.928 272.633 110.755 271.873 110.755ZM291.979 110.095H293.079L289.679 120.095H288.679L285.519 111.395L282.419 120.095H281.419L278.019 110.095H279.119L281.939 118.895L285.039 110.095H286.059L289.179 118.895L291.979 110.095ZM308.603 110.095L303.763 121.935C303.523 122.548 303.263 123.035 302.983 123.395C302.703 123.755 302.39 124.008 302.043 124.155C301.696 124.315 301.296 124.395 300.843 124.395C300.443 124.395 300.076 124.335 299.743 124.215C299.41 124.095 299.136 123.928 298.923 123.715L299.243 122.855C299.443 123.095 299.683 123.262 299.963 123.355C300.243 123.462 300.53 123.515 300.823 123.515C301.25 123.515 301.63 123.388 301.963 123.135C302.296 122.895 302.61 122.415 302.903 121.695L303.563 120.095L302.503 117.615L299.343 110.095H300.483L303.543 117.675L304.043 119.015L304.583 117.575L307.523 110.095H308.603ZM314.666 109.895C315.6 109.895 316.42 110.102 317.126 110.515C317.846 110.928 318.406 111.528 318.806 112.315C319.22 113.088 319.426 114.015 319.426 115.095C319.426 116.175 319.22 117.108 318.806 117.895C318.406 118.668 317.846 119.262 317.126 119.675C316.42 120.088 315.6 120.295 314.666 120.295C313.733 120.295 312.906 120.088 312.186 119.675C311.48 119.262 310.92 118.668 310.506 117.895C310.106 117.108 309.906 116.175 309.906 115.095C309.906 114.015 310.106 113.088 310.506 112.315C310.92 111.528 311.48 110.928 312.186 110.515C312.906 110.102 313.733 109.895 314.666 109.895ZM314.666 110.755C313.906 110.755 313.246 110.928 312.686 111.275C312.126 111.622 311.686 112.122 311.366 112.775C311.06 113.415 310.906 114.188 310.906 115.095C310.906 115.988 311.06 116.762 311.366 117.415C311.686 118.068 312.126 118.568 312.686 118.915C313.246 119.262 313.906 119.435 314.666 119.435C315.426 119.435 316.086 119.262 316.646 118.915C317.206 118.568 317.64 118.068 317.946 117.415C318.266 116.762 318.426 115.988 318.426 115.095C318.426 114.188 318.266 113.415 317.946 112.775C317.64 112.122 317.206 111.622 316.646 111.275C316.086 110.928 315.426 110.755 314.666 110.755ZM325.806 120.295C325.112 120.295 324.492 120.168 323.946 119.915C323.399 119.662 322.966 119.268 322.646 118.735C322.339 118.188 322.186 117.508 322.186 116.695V110.095H323.186V116.455C323.186 117.495 323.432 118.248 323.926 118.715C324.432 119.182 325.139 119.415 326.046 119.415C326.579 119.415 327.059 119.322 327.486 119.135C327.926 118.948 328.299 118.688 328.606 118.355C328.912 118.022 329.146 117.642 329.306 117.215C329.479 116.788 329.566 116.328 329.566 115.835V110.095H330.566V120.095H329.666L329.626 118.035C329.332 118.742 328.852 119.295 328.186 119.695C327.519 120.095 326.726 120.295 325.806 120.295ZM334.122 120.095V110.095H334.962L335.082 112.195C335.335 111.488 335.742 110.928 336.302 110.515C336.862 110.102 337.535 109.895 338.322 109.895C338.588 109.895 338.828 109.922 339.042 109.975C339.255 110.028 339.428 110.115 339.562 110.235L339.342 111.115C339.195 111.022 339.035 110.948 338.862 110.895C338.688 110.842 338.428 110.815 338.082 110.815C337.575 110.815 337.095 110.975 336.642 111.295C336.188 111.602 335.822 112.035 335.542 112.595C335.262 113.142 335.122 113.775 335.122 114.495V120.095H334.122ZM154.505 143.295C153.892 143.295 153.318 143.182 152.785 142.955C152.265 142.728 151.818 142.402 151.445 141.975C151.085 141.548 150.818 141.048 150.645 140.475L150.785 140.315L150.705 143.095H149.805V128.495H150.805V135.775L150.685 135.595C150.952 134.768 151.425 134.115 152.105 133.635C152.798 133.142 153.598 132.895 154.505 132.895C155.385 132.895 156.165 133.102 156.845 133.515C157.525 133.928 158.065 134.522 158.465 135.295C158.865 136.068 159.065 137.002 159.065 138.095C159.065 139.175 158.865 140.108 158.465 140.895C158.065 141.668 157.518 142.262 156.825 142.675C156.145 143.088 155.372 143.295 154.505 143.295ZM154.385 142.415C155.518 142.415 156.412 142.028 157.065 141.255C157.732 140.482 158.065 139.428 158.065 138.095C158.065 136.762 157.738 135.708 157.085 134.935C156.432 134.162 155.538 133.775 154.405 133.775C153.712 133.775 153.092 133.955 152.545 134.315C151.998 134.662 151.572 135.162 151.265 135.815C150.958 136.468 150.805 137.235 150.805 138.115C150.805 138.995 150.958 139.762 151.265 140.415C151.572 141.055 151.992 141.548 152.525 141.895C153.072 142.242 153.692 142.415 154.385 142.415ZM165.474 143.295C164.78 143.295 164.16 143.168 163.614 142.915C163.067 142.662 162.634 142.268 162.314 141.735C162.007 141.188 161.854 140.508 161.854 139.695V133.095H162.854V139.455C162.854 140.495 163.1 141.248 163.594 141.715C164.1 142.182 164.807 142.415 165.714 142.415C166.247 142.415 166.727 142.322 167.154 142.135C167.594 141.948 167.967 141.688 168.274 141.355C168.58 141.022 168.814 140.642 168.974 140.215C169.147 139.788 169.234 139.328 169.234 138.835V133.095H170.234V143.095H169.334L169.294 141.035C169 141.742 168.52 142.295 167.854 142.695C167.187 143.095 166.394 143.295 165.474 143.295ZM177.17 143.295C176.156 143.295 175.256 143.088 174.47 142.675C173.696 142.262 173.15 141.668 172.83 140.895L173.69 140.315C173.93 140.982 174.356 141.502 174.97 141.875C175.596 142.235 176.356 142.415 177.25 142.415C178.13 142.415 178.816 142.242 179.31 141.895C179.816 141.548 180.07 141.088 180.07 140.515C180.07 140.128 179.943 139.795 179.69 139.515C179.45 139.222 178.99 139.002 178.31 138.855L175.97 138.355C175.01 138.155 174.323 137.835 173.91 137.395C173.51 136.942 173.31 136.395 173.31 135.755C173.31 135.222 173.47 134.742 173.79 134.315C174.11 133.888 174.55 133.548 175.11 133.295C175.683 133.028 176.35 132.895 177.11 132.895C178.11 132.895 178.936 133.095 179.59 133.495C180.243 133.882 180.703 134.468 180.97 135.255L180.13 135.795C179.93 135.088 179.556 134.575 179.01 134.255C178.476 133.935 177.843 133.775 177.11 133.775C176.55 133.775 176.056 133.862 175.63 134.035C175.216 134.195 174.89 134.422 174.65 134.715C174.423 134.995 174.31 135.322 174.31 135.695C174.31 136.082 174.443 136.435 174.71 136.755C174.976 137.062 175.45 137.288 176.13 137.435L178.53 137.955C179.476 138.155 180.136 138.462 180.51 138.875C180.883 139.275 181.07 139.775 181.07 140.375C181.07 140.975 180.91 141.495 180.59 141.935C180.27 142.375 179.816 142.715 179.23 142.955C178.643 143.182 177.956 143.295 177.17 143.295ZM184.368 131.155C184.114 131.155 183.908 131.082 183.748 130.935C183.601 130.775 183.528 130.568 183.528 130.315C183.528 130.062 183.601 129.862 183.748 129.715C183.908 129.555 184.114 129.475 184.368 129.475C184.621 129.475 184.821 129.555 184.968 129.715C185.128 129.862 185.208 130.062 185.208 130.315C185.208 130.568 185.128 130.775 184.968 130.935C184.821 131.082 184.621 131.155 184.368 131.155ZM184.868 133.095V143.095H183.868V133.095H184.868ZM188.418 143.095V133.095H189.318L189.398 135.595L189.238 135.455C189.425 134.908 189.705 134.448 190.078 134.075C190.452 133.688 190.898 133.395 191.418 133.195C191.938 132.995 192.498 132.895 193.098 132.895C193.845 132.895 194.505 133.035 195.078 133.315C195.652 133.595 196.098 134.008 196.418 134.555C196.752 135.102 196.918 135.788 196.918 136.615V143.095H195.918V136.935C195.918 135.842 195.645 135.042 195.098 134.535C194.565 134.028 193.865 133.775 192.998 133.775C192.372 133.775 191.785 133.922 191.238 134.215C190.705 134.495 190.265 134.908 189.918 135.455C189.585 136.002 189.418 136.668 189.418 137.455V143.095H188.418ZM204.452 143.295C203.532 143.295 202.712 143.088 201.992 142.675C201.272 142.262 200.705 141.668 200.292 140.895C199.892 140.108 199.692 139.175 199.692 138.095C199.692 137.015 199.892 136.088 200.292 135.315C200.705 134.528 201.258 133.928 201.952 133.515C202.645 133.102 203.438 132.895 204.332 132.895C205.238 132.895 206.012 133.095 206.652 133.495C207.292 133.895 207.785 134.455 208.132 135.175C208.478 135.882 208.652 136.702 208.652 137.635C208.652 137.755 208.645 137.875 208.632 137.995C208.632 138.102 208.625 138.202 208.612 138.295H200.312V137.395H208.172L207.672 137.535C207.658 136.388 207.352 135.475 206.752 134.795C206.165 134.115 205.352 133.775 204.312 133.775C203.592 133.775 202.958 133.948 202.412 134.295C201.865 134.628 201.438 135.122 201.132 135.775C200.825 136.415 200.672 137.188 200.672 138.095C200.672 138.988 200.825 139.762 201.132 140.415C201.452 141.068 201.892 141.568 202.452 141.915C203.025 142.248 203.685 142.415 204.432 142.415C205.205 142.415 205.865 142.248 206.412 141.915C206.972 141.582 207.405 141.122 207.712 140.535L208.512 140.995C208.272 141.475 207.952 141.888 207.552 142.235C207.152 142.568 206.692 142.828 206.172 143.015C205.652 143.202 205.078 143.295 204.452 143.295ZM214.884 143.295C213.871 143.295 212.971 143.088 212.184 142.675C211.411 142.262 210.864 141.668 210.544 140.895L211.404 140.315C211.644 140.982 212.071 141.502 212.684 141.875C213.311 142.235 214.071 142.415 214.964 142.415C215.844 142.415 216.531 142.242 217.024 141.895C217.531 141.548 217.784 141.088 217.784 140.515C217.784 140.128 217.658 139.795 217.404 139.515C217.164 139.222 216.704 139.002 216.024 138.855L213.684 138.355C212.724 138.155 212.038 137.835 211.624 137.395C211.224 136.942 211.024 136.395 211.024 135.755C211.024 135.222 211.184 134.742 211.504 134.315C211.824 133.888 212.264 133.548 212.824 133.295C213.398 133.028 214.064 132.895 214.824 132.895C215.824 132.895 216.651 133.095 217.304 133.495C217.958 133.882 218.418 134.468 218.684 135.255L217.844 135.795C217.644 135.088 217.271 134.575 216.724 134.255C216.191 133.935 215.558 133.775 214.824 133.775C214.264 133.775 213.771 133.862 213.344 134.035C212.931 134.195 212.604 134.422 212.364 134.715C212.138 134.995 212.024 135.322 212.024 135.695C212.024 136.082 212.158 136.435 212.424 136.755C212.691 137.062 213.164 137.288 213.844 137.435L216.244 137.955C217.191 138.155 217.851 138.462 218.224 138.875C218.598 139.275 218.784 139.775 218.784 140.375C218.784 140.975 218.624 141.495 218.304 141.935C217.984 142.375 217.531 142.715 216.944 142.955C216.358 143.182 215.671 143.295 214.884 143.295ZM224.962 143.295C223.949 143.295 223.049 143.088 222.262 142.675C221.489 142.262 220.942 141.668 220.622 140.895L221.482 140.315C221.722 140.982 222.149 141.502 222.762 141.875C223.389 142.235 224.149 142.415 225.042 142.415C225.922 142.415 226.609 142.242 227.102 141.895C227.609 141.548 227.862 141.088 227.862 140.515C227.862 140.128 227.736 139.795 227.482 139.515C227.242 139.222 226.782 139.002 226.102 138.855L223.762 138.355C222.802 138.155 222.116 137.835 221.702 137.395C221.302 136.942 221.102 136.395 221.102 135.755C221.102 135.222 221.262 134.742 221.582 134.315C221.902 133.888 222.342 133.548 222.902 133.295C223.476 133.028 224.142 132.895 224.902 132.895C225.902 132.895 226.729 133.095 227.382 133.495C228.036 133.882 228.496 134.468 228.762 135.255L227.922 135.795C227.722 135.088 227.349 134.575 226.802 134.255C226.269 133.935 225.636 133.775 224.902 133.775C224.342 133.775 223.849 133.862 223.422 134.035C223.009 134.195 222.682 134.422 222.442 134.715C222.216 134.995 222.102 135.322 222.102 135.695C222.102 136.082 222.236 136.435 222.502 136.755C222.769 137.062 223.242 137.288 223.922 137.435L226.322 137.955C227.269 138.155 227.929 138.462 228.302 138.875C228.676 139.275 228.862 139.775 228.862 140.375C228.862 140.975 228.702 141.495 228.382 141.935C228.062 142.375 227.609 142.715 227.022 142.955C226.436 143.182 225.749 143.295 224.962 143.295ZM232.081 141.455C232.321 141.455 232.521 141.522 232.681 141.655C232.854 141.775 232.981 141.942 233.061 142.155C233.154 142.368 233.201 142.622 233.201 142.915C233.201 143.262 233.134 143.608 233.001 143.955C232.881 144.302 232.694 144.622 232.441 144.915C232.201 145.208 231.881 145.455 231.481 145.655L230.921 145.155C231.241 145.035 231.521 144.855 231.761 144.615C232.001 144.388 232.181 144.135 232.301 143.855C232.434 143.588 232.494 143.328 232.481 143.075L232.421 143.055C232.381 143.122 232.327 143.168 232.261 143.195C232.194 143.235 232.094 143.255 231.961 143.255C231.841 143.255 231.721 143.215 231.601 143.135C231.481 143.068 231.381 142.975 231.301 142.855C231.221 142.722 231.181 142.562 231.181 142.375C231.181 142.215 231.221 142.062 231.301 141.915C231.394 141.768 231.507 141.655 231.641 141.575C231.774 141.495 231.921 141.455 232.081 141.455ZM248.445 136.515C248.445 135.648 248.211 134.975 247.745 134.495C247.278 134.015 246.611 133.775 245.745 133.775C244.985 133.775 244.331 133.942 243.785 134.275C243.238 134.595 242.831 135.135 242.565 135.895L241.745 135.375C242.038 134.588 242.525 133.982 243.205 133.555C243.898 133.115 244.751 132.895 245.765 132.895C246.498 132.895 247.138 133.028 247.685 133.295C248.245 133.548 248.678 133.928 248.985 134.435C249.291 134.942 249.445 135.575 249.445 136.335V141.335C249.445 142.042 249.765 142.395 250.405 142.395C250.685 142.395 250.925 142.348 251.125 142.255L251.065 143.055C250.838 143.175 250.545 143.235 250.185 143.235C249.878 143.235 249.591 143.175 249.325 143.055C249.058 142.935 248.838 142.735 248.665 142.455C248.505 142.175 248.425 141.795 248.425 141.315V140.775L248.705 140.755C248.585 141.328 248.318 141.808 247.905 142.195C247.505 142.568 247.038 142.848 246.505 143.035C245.971 143.208 245.438 143.295 244.905 143.295C244.278 143.295 243.718 143.195 243.225 142.995C242.731 142.795 242.345 142.508 242.065 142.135C241.785 141.748 241.645 141.275 241.645 140.715C241.645 139.968 241.891 139.368 242.385 138.915C242.891 138.448 243.598 138.128 244.505 137.955L248.645 137.135V137.975L245.005 138.695C244.218 138.855 243.631 139.088 243.245 139.395C242.858 139.702 242.665 140.122 242.665 140.655C242.665 141.202 242.871 141.635 243.285 141.955C243.698 142.262 244.285 142.415 245.045 142.415C245.431 142.415 245.825 142.362 246.225 142.255C246.625 142.148 246.991 141.982 247.325 141.755C247.671 141.515 247.945 141.222 248.145 140.875C248.345 140.515 248.445 140.082 248.445 139.575V136.515ZM256.704 143.295C256.011 143.295 255.391 143.168 254.844 142.915C254.297 142.662 253.864 142.268 253.544 141.735C253.237 141.188 253.084 140.508 253.084 139.695V133.095H254.084V139.455C254.084 140.495 254.331 141.248 254.824 141.715C255.331 142.182 256.037 142.415 256.944 142.415C257.477 142.415 257.957 142.322 258.384 142.135C258.824 141.948 259.197 141.688 259.504 141.355C259.811 141.022 260.044 140.642 260.204 140.215C260.377 139.788 260.464 139.328 260.464 138.835V133.095H261.464V143.095H260.564L260.524 141.035C260.231 141.742 259.751 142.295 259.084 142.695C258.417 143.095 257.624 143.295 256.704 143.295ZM268.92 143.295C268.053 143.295 267.273 143.088 266.58 142.675C265.887 142.262 265.34 141.668 264.94 140.895C264.553 140.108 264.36 139.175 264.36 138.095C264.36 136.988 264.567 136.048 264.98 135.275C265.393 134.502 265.953 133.915 266.66 133.515C267.367 133.102 268.147 132.895 269 132.895C269.933 132.895 270.727 133.142 271.38 133.635C272.047 134.128 272.493 134.815 272.72 135.695L272.6 135.775V128.495H273.6V143.095H272.7L272.64 140.315L272.76 140.275C272.64 140.915 272.393 141.462 272.02 141.915C271.66 142.368 271.207 142.715 270.66 142.955C270.127 143.182 269.547 143.295 268.92 143.295ZM269.04 142.415C269.747 142.415 270.367 142.242 270.9 141.895C271.433 141.535 271.847 141.022 272.14 140.355C272.447 139.688 272.6 138.908 272.6 138.015C272.6 137.135 272.447 136.382 272.14 135.755C271.847 135.115 271.433 134.628 270.9 134.295C270.38 133.948 269.773 133.775 269.08 133.775C267.933 133.775 267.027 134.162 266.36 134.935C265.693 135.708 265.36 136.762 265.36 138.095C265.36 139.428 265.687 140.482 266.34 141.255C267.007 142.028 267.907 142.415 269.04 142.415ZM277.668 131.155C277.415 131.155 277.208 131.082 277.048 130.935C276.902 130.775 276.828 130.568 276.828 130.315C276.828 130.062 276.902 129.862 277.048 129.715C277.208 129.555 277.415 129.475 277.668 129.475C277.922 129.475 278.122 129.555 278.268 129.715C278.428 129.862 278.508 130.062 278.508 130.315C278.508 130.568 278.428 130.775 278.268 130.935C278.122 131.082 277.922 131.155 277.668 131.155ZM278.168 133.095V143.095H277.168V133.095H278.168ZM285.799 143.295C284.879 143.295 284.059 143.088 283.339 142.675C282.619 142.262 282.053 141.668 281.639 140.895C281.239 140.108 281.039 139.175 281.039 138.095C281.039 137.015 281.239 136.088 281.639 135.315C282.053 134.528 282.606 133.928 283.299 133.515C283.993 133.102 284.786 132.895 285.679 132.895C286.586 132.895 287.359 133.095 287.999 133.495C288.639 133.895 289.133 134.455 289.479 135.175C289.826 135.882 289.999 136.702 289.999 137.635C289.999 137.755 289.993 137.875 289.979 137.995C289.979 138.102 289.973 138.202 289.959 138.295H281.659V137.395H289.519L289.019 137.535C289.006 136.388 288.699 135.475 288.099 134.795C287.513 134.115 286.699 133.775 285.659 133.775C284.939 133.775 284.306 133.948 283.759 134.295C283.213 134.628 282.786 135.122 282.479 135.775C282.173 136.415 282.019 137.188 282.019 138.095C282.019 138.988 282.173 139.762 282.479 140.415C282.799 141.068 283.239 141.568 283.799 141.915C284.373 142.248 285.033 142.415 285.779 142.415C286.553 142.415 287.213 142.248 287.759 141.915C288.319 141.582 288.753 141.122 289.059 140.535L289.859 140.995C289.619 141.475 289.299 141.888 288.899 142.235C288.499 142.568 288.039 142.828 287.519 143.015C286.999 143.202 286.426 143.295 285.799 143.295ZM292.852 143.095V133.095H293.752L293.832 135.595L293.672 135.455C293.859 134.908 294.139 134.448 294.512 134.075C294.885 133.688 295.332 133.395 295.852 133.195C296.372 132.995 296.932 132.895 297.532 132.895C298.279 132.895 298.939 133.035 299.512 133.315C300.085 133.595 300.532 134.008 300.852 134.555C301.185 135.102 301.352 135.788 301.352 136.615V143.095H300.352V136.935C300.352 135.842 300.079 135.042 299.532 134.535C298.999 134.028 298.299 133.775 297.432 133.775C296.805 133.775 296.219 133.922 295.672 134.215C295.139 134.495 294.699 134.908 294.352 135.455C294.019 136.002 293.852 136.668 293.852 137.455V143.095H292.852ZM308.845 132.895C309.525 132.895 310.132 133.002 310.665 133.215C311.198 133.428 311.652 133.735 312.025 134.135C312.398 134.535 312.685 135.022 312.885 135.595L311.945 136.035C311.732 135.315 311.358 134.762 310.825 134.375C310.305 133.975 309.638 133.775 308.825 133.775C308.092 133.775 307.445 133.948 306.885 134.295C306.325 134.628 305.892 135.122 305.585 135.775C305.278 136.415 305.125 137.188 305.125 138.095C305.125 138.988 305.278 139.762 305.585 140.415C305.892 141.068 306.318 141.568 306.865 141.915C307.412 142.248 308.058 142.415 308.805 142.415C309.365 142.415 309.872 142.322 310.325 142.135C310.792 141.948 311.172 141.675 311.465 141.315C311.772 140.955 311.972 140.528 312.065 140.035L312.985 140.355C312.812 140.968 312.525 141.495 312.125 141.935C311.738 142.375 311.265 142.715 310.705 142.955C310.145 143.182 309.518 143.295 308.825 143.295C307.918 143.295 307.105 143.088 306.385 142.675C305.678 142.262 305.125 141.668 304.725 140.895C304.325 140.108 304.125 139.175 304.125 138.095C304.125 137.015 304.325 136.088 304.725 135.315C305.138 134.528 305.698 133.928 306.405 133.515C307.125 133.102 307.938 132.895 308.845 132.895ZM319.745 143.295C318.825 143.295 318.005 143.088 317.285 142.675C316.565 142.262 315.998 141.668 315.585 140.895C315.185 140.108 314.985 139.175 314.985 138.095C314.985 137.015 315.185 136.088 315.585 135.315C315.998 134.528 316.551 133.928 317.245 133.515C317.938 133.102 318.731 132.895 319.625 132.895C320.531 132.895 321.305 133.095 321.945 133.495C322.585 133.895 323.078 134.455 323.425 135.175C323.771 135.882 323.945 136.702 323.945 137.635C323.945 137.755 323.938 137.875 323.925 137.995C323.925 138.102 323.918 138.202 323.905 138.295H315.605V137.395H323.465L322.965 137.535C322.951 136.388 322.645 135.475 322.045 134.795C321.458 134.115 320.645 133.775 319.605 133.775C318.885 133.775 318.251 133.948 317.705 134.295C317.158 134.628 316.731 135.122 316.425 135.775C316.118 136.415 315.965 137.188 315.965 138.095C315.965 138.988 316.118 139.762 316.425 140.415C316.745 141.068 317.185 141.568 317.745 141.915C318.318 142.248 318.978 142.415 319.725 142.415C320.498 142.415 321.158 142.248 321.705 141.915C322.265 141.582 322.698 141.122 323.005 140.535L323.805 140.995C323.565 141.475 323.245 141.888 322.845 142.235C322.445 142.568 321.985 142.828 321.465 143.015C320.945 143.202 320.371 143.295 319.745 143.295ZM327.12 141.455C327.36 141.455 327.56 141.522 327.72 141.655C327.893 141.775 328.02 141.942 328.1 142.155C328.193 142.368 328.24 142.622 328.24 142.915C328.24 143.262 328.173 143.608 328.04 143.955C327.92 144.302 327.733 144.622 327.48 144.915C327.24 145.208 326.92 145.455 326.52 145.655L325.96 145.155C326.28 145.035 326.56 144.855 326.8 144.615C327.04 144.388 327.22 144.135 327.34 143.855C327.473 143.588 327.533 143.328 327.52 143.075L327.46 143.055C327.42 143.122 327.366 143.168 327.3 143.195C327.233 143.235 327.133 143.255 327 143.255C326.88 143.255 326.76 143.215 326.64 143.135C326.52 143.068 326.42 142.975 326.34 142.855C326.26 142.722 326.22 142.562 326.22 142.375C326.22 142.215 326.26 142.062 326.34 141.915C326.433 141.768 326.546 141.655 326.68 141.575C326.813 141.495 326.96 141.455 327.12 141.455ZM343.484 136.515C343.484 135.648 343.25 134.975 342.784 134.495C342.317 134.015 341.65 133.775 340.784 133.775C340.024 133.775 339.37 133.942 338.824 134.275C338.277 134.595 337.87 135.135 337.604 135.895L336.784 135.375C337.077 134.588 337.564 133.982 338.244 133.555C338.937 133.115 339.79 132.895 340.804 132.895C341.537 132.895 342.177 133.028 342.724 133.295C343.284 133.548 343.717 133.928 344.024 134.435C344.33 134.942 344.484 135.575 344.484 136.335V141.335C344.484 142.042 344.804 142.395 345.444 142.395C345.724 142.395 345.964 142.348 346.164 142.255L346.104 143.055C345.877 143.175 345.584 143.235 345.224 143.235C344.917 143.235 344.63 143.175 344.364 143.055C344.097 142.935 343.877 142.735 343.704 142.455C343.544 142.175 343.464 141.795 343.464 141.315V140.775L343.744 140.755C343.624 141.328 343.357 141.808 342.944 142.195C342.544 142.568 342.077 142.848 341.544 143.035C341.01 143.208 340.477 143.295 339.944 143.295C339.317 143.295 338.757 143.195 338.264 142.995C337.77 142.795 337.384 142.508 337.104 142.135C336.824 141.748 336.684 141.275 336.684 140.715C336.684 139.968 336.93 139.368 337.424 138.915C337.93 138.448 338.637 138.128 339.544 137.955L343.684 137.135V137.975L340.044 138.695C339.257 138.855 338.67 139.088 338.284 139.395C337.897 139.702 337.704 140.122 337.704 140.655C337.704 141.202 337.91 141.635 338.324 141.955C338.737 142.262 339.324 142.415 340.084 142.415C340.47 142.415 340.864 142.362 341.264 142.255C341.664 142.148 342.03 141.982 342.364 141.755C342.71 141.515 342.984 141.222 343.184 140.875C343.384 140.515 343.484 140.082 343.484 139.575V136.515ZM348.223 143.095V133.095H349.123L349.203 135.595L349.043 135.455C349.23 134.908 349.51 134.448 349.883 134.075C350.256 133.688 350.703 133.395 351.223 133.195C351.743 132.995 352.303 132.895 352.903 132.895C353.65 132.895 354.31 133.035 354.883 133.315C355.456 133.595 355.903 134.008 356.223 134.555C356.556 135.102 356.723 135.788 356.723 136.615V143.095H355.723V136.935C355.723 135.842 355.45 135.042 354.903 134.535C354.37 134.028 353.67 133.775 352.803 133.775C352.176 133.775 351.59 133.922 351.043 134.215C350.51 134.495 350.07 134.908 349.723 135.455C349.39 136.002 349.223 136.668 349.223 137.455V143.095H348.223ZM364.076 143.295C363.21 143.295 362.43 143.088 361.736 142.675C361.043 142.262 360.496 141.668 360.096 140.895C359.71 140.108 359.516 139.175 359.516 138.095C359.516 136.988 359.723 136.048 360.136 135.275C360.55 134.502 361.11 133.915 361.816 133.515C362.523 133.102 363.303 132.895 364.156 132.895C365.09 132.895 365.883 133.142 366.536 133.635C367.203 134.128 367.65 134.815 367.876 135.695L367.756 135.775V128.495H368.756V143.095H367.856L367.796 140.315L367.916 140.275C367.796 140.915 367.55 141.462 367.176 141.915C366.816 142.368 366.363 142.715 365.816 142.955C365.283 143.182 364.703 143.295 364.076 143.295ZM364.196 142.415C364.903 142.415 365.523 142.242 366.056 141.895C366.59 141.535 367.003 141.022 367.296 140.355C367.603 139.688 367.756 138.908 367.756 138.015C367.756 137.135 367.603 136.382 367.296 135.755C367.003 135.115 366.59 134.628 366.056 134.295C365.536 133.948 364.93 133.775 364.236 133.775C363.09 133.775 362.183 134.162 361.516 134.935C360.85 135.708 360.516 136.762 360.516 138.095C360.516 139.428 360.843 140.482 361.496 141.255C362.163 142.028 363.063 142.415 364.196 142.415ZM158.085 154.255L158.325 155.135C158.312 155.135 158.298 155.135 158.285 155.135C158.272 155.135 158.252 155.135 158.225 155.135C157.572 155.135 157.065 155.308 156.705 155.655C156.358 155.988 156.185 156.462 156.185 157.075L155.545 156.755C155.545 156.248 155.652 155.808 155.865 155.435C156.078 155.062 156.372 154.775 156.745 154.575C157.118 154.362 157.538 154.255 158.005 154.255C158.032 154.255 158.045 154.255 158.045 154.255C158.058 154.255 158.072 154.255 158.085 154.255ZM154.925 165.075C155.912 165.075 156.685 165.282 157.245 165.695C157.805 166.108 158.085 166.662 158.085 167.355C158.085 167.968 157.878 168.502 157.465 168.955C157.065 169.408 156.512 169.762 155.805 170.015C155.098 170.268 154.292 170.395 153.385 170.395C151.878 170.395 150.725 170.135 149.925 169.615C149.125 169.108 148.725 168.468 148.725 167.695C148.725 167.135 148.925 166.648 149.325 166.235C149.738 165.822 150.338 165.575 151.125 165.495L151.045 165.675C150.618 165.555 150.238 165.355 149.905 165.075C149.585 164.795 149.425 164.395 149.425 163.875C149.425 163.315 149.632 162.862 150.045 162.515C150.472 162.155 151.032 161.948 151.725 161.895L152.785 162.255H152.365C151.752 162.295 151.258 162.448 150.885 162.715C150.525 162.968 150.345 163.302 150.345 163.715C150.345 164.168 150.518 164.508 150.865 164.735C151.225 164.962 151.678 165.075 152.225 165.075H154.925ZM153.385 169.555C154.172 169.555 154.845 169.462 155.405 169.275C155.965 169.088 156.392 168.835 156.685 168.515C156.992 168.208 157.145 167.862 157.145 167.475C157.145 167.008 156.938 166.635 156.525 166.355C156.125 166.075 155.512 165.935 154.685 165.935H151.845C151.218 165.935 150.698 166.082 150.285 166.375C149.872 166.668 149.665 167.062 149.665 167.555C149.665 168.155 149.992 168.635 150.645 168.995C151.312 169.368 152.225 169.555 153.385 169.555ZM153.245 155.895C154.032 155.895 154.725 156.035 155.325 156.315C155.938 156.582 156.412 156.962 156.745 157.455C157.078 157.935 157.245 158.502 157.245 159.155C157.245 159.795 157.078 160.368 156.745 160.875C156.412 161.368 155.938 161.755 155.325 162.035C154.725 162.302 154.032 162.435 153.245 162.435C151.978 162.435 150.985 162.135 150.265 161.535C149.558 160.922 149.205 160.128 149.205 159.155C149.205 158.502 149.372 157.935 149.705 157.455C150.052 156.962 150.525 156.582 151.125 156.315C151.738 156.035 152.445 155.895 153.245 155.895ZM153.245 156.715C152.365 156.715 151.645 156.942 151.085 157.395C150.525 157.835 150.245 158.422 150.245 159.155C150.245 159.888 150.525 160.482 151.085 160.935C151.645 161.388 152.365 161.615 153.245 161.615C154.125 161.615 154.838 161.388 155.385 160.935C155.945 160.482 156.225 159.888 156.225 159.155C156.225 158.422 155.945 157.835 155.385 157.395C154.838 156.942 154.125 156.715 153.245 156.715ZM164.178 155.895C165.111 155.895 165.931 156.102 166.638 156.515C167.358 156.928 167.918 157.528 168.318 158.315C168.731 159.088 168.938 160.015 168.938 161.095C168.938 162.175 168.731 163.108 168.318 163.895C167.918 164.668 167.358 165.262 166.638 165.675C165.931 166.088 165.111 166.295 164.178 166.295C163.245 166.295 162.418 166.088 161.698 165.675C160.991 165.262 160.431 164.668 160.018 163.895C159.618 163.108 159.418 162.175 159.418 161.095C159.418 160.015 159.618 159.088 160.018 158.315C160.431 157.528 160.991 156.928 161.698 156.515C162.418 156.102 163.245 155.895 164.178 155.895ZM164.178 156.755C163.418 156.755 162.758 156.928 162.198 157.275C161.638 157.622 161.198 158.122 160.878 158.775C160.571 159.415 160.418 160.188 160.418 161.095C160.418 161.988 160.571 162.762 160.878 163.415C161.198 164.068 161.638 164.568 162.198 164.915C162.758 165.262 163.418 165.435 164.178 165.435C164.938 165.435 165.598 165.262 166.158 164.915C166.718 164.568 167.151 164.068 167.458 163.415C167.778 162.762 167.938 161.988 167.938 161.095C167.938 160.188 167.778 159.415 167.458 158.775C167.151 158.122 166.718 157.622 166.158 157.275C165.598 156.928 164.938 156.755 164.178 156.755ZM177.917 159.515C177.917 158.648 177.684 157.975 177.217 157.495C176.751 157.015 176.084 156.775 175.217 156.775C174.457 156.775 173.804 156.942 173.257 157.275C172.711 157.595 172.304 158.135 172.037 158.895L171.217 158.375C171.511 157.588 171.997 156.982 172.677 156.555C173.371 156.115 174.224 155.895 175.237 155.895C175.971 155.895 176.611 156.028 177.157 156.295C177.717 156.548 178.151 156.928 178.457 157.435C178.764 157.942 178.917 158.575 178.917 159.335V164.335C178.917 165.042 179.237 165.395 179.877 165.395C180.157 165.395 180.397 165.348 180.597 165.255L180.537 166.055C180.311 166.175 180.017 166.235 179.657 166.235C179.351 166.235 179.064 166.175 178.797 166.055C178.531 165.935 178.311 165.735 178.137 165.455C177.977 165.175 177.897 164.795 177.897 164.315V163.775L178.177 163.755C178.057 164.328 177.791 164.808 177.377 165.195C176.977 165.568 176.511 165.848 175.977 166.035C175.444 166.208 174.911 166.295 174.377 166.295C173.751 166.295 173.191 166.195 172.697 165.995C172.204 165.795 171.817 165.508 171.537 165.135C171.257 164.748 171.117 164.275 171.117 163.715C171.117 162.968 171.364 162.368 171.857 161.915C172.364 161.448 173.071 161.128 173.977 160.955L178.117 160.135V160.975L174.477 161.695C173.691 161.855 173.104 162.088 172.717 162.395C172.331 162.702 172.137 163.122 172.137 163.655C172.137 164.202 172.344 164.635 172.757 164.955C173.171 165.262 173.757 165.415 174.517 165.415C174.904 165.415 175.297 165.362 175.697 165.255C176.097 165.148 176.464 164.982 176.797 164.755C177.144 164.515 177.417 164.222 177.617 163.875C177.817 163.515 177.917 163.082 177.917 162.575V159.515ZM183.577 151.495V163.735C183.577 164.348 183.683 164.782 183.897 165.035C184.11 165.288 184.443 165.415 184.897 165.415C185.177 165.415 185.397 165.395 185.557 165.355C185.73 165.315 185.93 165.248 186.157 165.155L186.017 166.035C185.843 166.115 185.643 166.175 185.417 166.215C185.203 166.268 184.963 166.295 184.697 166.295C183.99 166.295 183.457 166.095 183.097 165.695C182.75 165.282 182.577 164.642 182.577 163.775V151.495H183.577ZM191.525 166.295C190.512 166.295 189.612 166.088 188.825 165.675C188.052 165.262 187.505 164.668 187.185 163.895L188.045 163.315C188.285 163.982 188.712 164.502 189.325 164.875C189.952 165.235 190.712 165.415 191.605 165.415C192.485 165.415 193.172 165.242 193.665 164.895C194.172 164.548 194.425 164.088 194.425 163.515C194.425 163.128 194.298 162.795 194.045 162.515C193.805 162.222 193.345 162.002 192.665 161.855L190.325 161.355C189.365 161.155 188.678 160.835 188.265 160.395C187.865 159.942 187.665 159.395 187.665 158.755C187.665 158.222 187.825 157.742 188.145 157.315C188.465 156.888 188.905 156.548 189.465 156.295C190.038 156.028 190.705 155.895 191.465 155.895C192.465 155.895 193.292 156.095 193.945 156.495C194.598 156.882 195.058 157.468 195.325 158.255L194.485 158.795C194.285 158.088 193.912 157.575 193.365 157.255C192.832 156.935 192.198 156.775 191.465 156.775C190.905 156.775 190.412 156.862 189.985 157.035C189.572 157.195 189.245 157.422 189.005 157.715C188.778 157.995 188.665 158.322 188.665 158.695C188.665 159.082 188.798 159.435 189.065 159.755C189.332 160.062 189.805 160.288 190.485 160.435L192.885 160.955C193.832 161.155 194.492 161.462 194.865 161.875C195.238 162.275 195.425 162.775 195.425 163.375C195.425 163.975 195.265 164.495 194.945 164.935C194.625 165.375 194.172 165.715 193.585 165.955C192.998 166.182 192.312 166.295 191.525 166.295ZM220.773 160.315V161.255H204.213V160.315H220.773ZM231.252 151.495V163.735C231.252 164.348 231.359 164.782 231.572 165.035C231.786 165.288 232.119 165.415 232.572 165.415C232.852 165.415 233.072 165.395 233.232 165.355C233.406 165.315 233.606 165.248 233.832 165.155L233.692 166.035C233.519 166.115 233.319 166.175 233.092 166.215C232.879 166.268 232.639 166.295 232.372 166.295C231.666 166.295 231.132 166.095 230.772 165.695C230.426 165.282 230.252 164.642 230.252 163.775V151.495H231.252ZM241.941 159.515C241.941 158.648 241.707 157.975 241.241 157.495C240.774 157.015 240.107 156.775 239.241 156.775C238.481 156.775 237.827 156.942 237.281 157.275C236.734 157.595 236.327 158.135 236.061 158.895L235.241 158.375C235.534 157.588 236.021 156.982 236.701 156.555C237.394 156.115 238.247 155.895 239.261 155.895C239.994 155.895 240.634 156.028 241.181 156.295C241.741 156.548 242.174 156.928 242.481 157.435C242.787 157.942 242.941 158.575 242.941 159.335V164.335C242.941 165.042 243.261 165.395 243.901 165.395C244.181 165.395 244.421 165.348 244.621 165.255L244.561 166.055C244.334 166.175 244.041 166.235 243.681 166.235C243.374 166.235 243.087 166.175 242.821 166.055C242.554 165.935 242.334 165.735 242.161 165.455C242.001 165.175 241.921 164.795 241.921 164.315V163.775L242.201 163.755C242.081 164.328 241.814 164.808 241.401 165.195C241.001 165.568 240.534 165.848 240.001 166.035C239.467 166.208 238.934 166.295 238.401 166.295C237.774 166.295 237.214 166.195 236.721 165.995C236.227 165.795 235.841 165.508 235.561 165.135C235.281 164.748 235.141 164.275 235.141 163.715C235.141 162.968 235.387 162.368 235.881 161.915C236.387 161.448 237.094 161.128 238.001 160.955L242.141 160.135V160.975L238.501 161.695C237.714 161.855 237.127 162.088 236.741 162.395C236.354 162.702 236.161 163.122 236.161 163.655C236.161 164.202 236.367 164.635 236.781 164.955C237.194 165.262 237.781 165.415 238.541 165.415C238.927 165.415 239.321 165.362 239.721 165.255C240.121 165.148 240.487 164.982 240.821 164.755C241.167 164.515 241.441 164.222 241.641 163.875C241.841 163.515 241.941 163.082 241.941 162.575V159.515ZM254.091 156.095L249.251 167.935C249.011 168.548 248.751 169.035 248.471 169.395C248.191 169.755 247.878 170.008 247.531 170.155C247.185 170.315 246.785 170.395 246.331 170.395C245.931 170.395 245.565 170.335 245.231 170.215C244.898 170.095 244.625 169.928 244.411 169.715L244.731 168.855C244.931 169.095 245.171 169.262 245.451 169.355C245.731 169.462 246.018 169.515 246.311 169.515C246.738 169.515 247.118 169.388 247.451 169.135C247.785 168.895 248.098 168.415 248.391 167.695L249.051 166.095L247.991 163.615L244.831 156.095H245.971L249.031 163.675L249.531 165.015L250.071 163.575L253.011 156.095H254.091ZM256.711 154.155C256.458 154.155 256.251 154.082 256.091 153.935C255.945 153.775 255.871 153.568 255.871 153.315C255.871 153.062 255.945 152.862 256.091 152.715C256.251 152.555 256.458 152.475 256.711 152.475C256.965 152.475 257.165 152.555 257.311 152.715C257.471 152.862 257.551 153.062 257.551 153.315C257.551 153.568 257.471 153.775 257.311 153.935C257.165 154.082 256.965 154.155 256.711 154.155ZM257.211 156.095V166.095H256.211V156.095H257.211ZM260.762 166.095V156.095H261.662L261.742 158.595L261.582 158.455C261.769 157.908 262.049 157.448 262.422 157.075C262.796 156.688 263.242 156.395 263.762 156.195C264.282 155.995 264.842 155.895 265.442 155.895C266.189 155.895 266.849 156.035 267.422 156.315C267.996 156.595 268.442 157.008 268.762 157.555C269.096 158.102 269.262 158.788 269.262 159.615V166.095H268.262V159.935C268.262 158.842 267.989 158.042 267.442 157.535C266.909 157.028 266.209 156.775 265.342 156.775C264.716 156.775 264.129 156.922 263.582 157.215C263.049 157.495 262.609 157.908 262.262 158.455C261.929 159.002 261.762 159.668 261.762 160.455V166.095H260.762ZM280.995 154.255L281.235 155.135C281.222 155.135 281.209 155.135 281.195 155.135C281.182 155.135 281.162 155.135 281.135 155.135C280.482 155.135 279.975 155.308 279.615 155.655C279.269 155.988 279.095 156.462 279.095 157.075L278.455 156.755C278.455 156.248 278.562 155.808 278.775 155.435C278.989 155.062 279.282 154.775 279.655 154.575C280.029 154.362 280.449 154.255 280.915 154.255C280.942 154.255 280.955 154.255 280.955 154.255C280.969 154.255 280.982 154.255 280.995 154.255ZM277.835 165.075C278.822 165.075 279.595 165.282 280.155 165.695C280.715 166.108 280.995 166.662 280.995 167.355C280.995 167.968 280.789 168.502 280.375 168.955C279.975 169.408 279.422 169.762 278.715 170.015C278.009 170.268 277.202 170.395 276.295 170.395C274.789 170.395 273.635 170.135 272.835 169.615C272.035 169.108 271.635 168.468 271.635 167.695C271.635 167.135 271.835 166.648 272.235 166.235C272.649 165.822 273.249 165.575 274.035 165.495L273.955 165.675C273.529 165.555 273.149 165.355 272.815 165.075C272.495 164.795 272.335 164.395 272.335 163.875C272.335 163.315 272.542 162.862 272.955 162.515C273.382 162.155 273.942 161.948 274.635 161.895L275.695 162.255H275.275C274.662 162.295 274.169 162.448 273.795 162.715C273.435 162.968 273.255 163.302 273.255 163.715C273.255 164.168 273.429 164.508 273.775 164.735C274.135 164.962 274.589 165.075 275.135 165.075H277.835ZM276.295 169.555C277.082 169.555 277.755 169.462 278.315 169.275C278.875 169.088 279.302 168.835 279.595 168.515C279.902 168.208 280.055 167.862 280.055 167.475C280.055 167.008 279.849 166.635 279.435 166.355C279.035 166.075 278.422 165.935 277.595 165.935H274.755C274.129 165.935 273.609 166.082 273.195 166.375C272.782 166.668 272.575 167.062 272.575 167.555C272.575 168.155 272.902 168.635 273.555 168.995C274.222 169.368 275.135 169.555 276.295 169.555ZM276.155 155.895C276.942 155.895 277.635 156.035 278.235 156.315C278.849 156.582 279.322 156.962 279.655 157.455C279.989 157.935 280.155 158.502 280.155 159.155C280.155 159.795 279.989 160.368 279.655 160.875C279.322 161.368 278.849 161.755 278.235 162.035C277.635 162.302 276.942 162.435 276.155 162.435C274.889 162.435 273.895 162.135 273.175 161.535C272.469 160.922 272.115 160.128 272.115 159.155C272.115 158.502 272.282 157.935 272.615 157.455C272.962 156.962 273.435 156.582 274.035 156.315C274.649 156.035 275.355 155.895 276.155 155.895ZM276.155 156.715C275.275 156.715 274.555 156.942 273.995 157.395C273.435 157.835 273.155 158.422 273.155 159.155C273.155 159.888 273.435 160.482 273.995 160.935C274.555 161.388 275.275 161.615 276.155 161.615C277.035 161.615 277.749 161.388 278.295 160.935C278.855 160.482 279.135 159.888 279.135 159.155C279.135 158.422 278.855 157.835 278.295 157.395C277.749 156.942 277.035 156.715 276.155 156.715ZM290.547 153.315V163.455C290.547 164.082 290.694 164.562 290.987 164.895C291.294 165.215 291.734 165.375 292.307 165.375C292.681 165.375 293.007 165.315 293.287 165.195C293.581 165.062 293.841 164.875 294.067 164.635L294.447 165.455C294.194 165.708 293.874 165.915 293.487 166.075C293.101 166.222 292.667 166.295 292.187 166.295C291.667 166.295 291.207 166.202 290.807 166.015C290.407 165.815 290.094 165.515 289.867 165.115C289.654 164.715 289.547 164.208 289.547 163.595V153.595L290.547 153.315ZM294.287 156.095V156.955H287.547V156.095H294.287ZM296.426 166.095V151.495H297.426V158.135C297.72 157.428 298.193 156.882 298.846 156.495C299.5 156.095 300.253 155.895 301.106 155.895C301.853 155.895 302.513 156.035 303.086 156.315C303.66 156.582 304.106 156.995 304.426 157.555C304.76 158.102 304.926 158.782 304.926 159.595V166.095H303.926V159.915C303.926 158.835 303.653 158.042 303.106 157.535C302.573 157.015 301.873 156.755 301.006 156.755C300.38 156.755 299.793 156.902 299.246 157.195C298.713 157.488 298.273 157.908 297.926 158.455C297.593 159.002 297.426 159.668 297.426 160.455V166.095H296.426ZM312.459 166.295C311.539 166.295 310.719 166.088 309.999 165.675C309.279 165.262 308.713 164.668 308.299 163.895C307.899 163.108 307.699 162.175 307.699 161.095C307.699 160.015 307.899 159.088 308.299 158.315C308.713 157.528 309.266 156.928 309.959 156.515C310.653 156.102 311.446 155.895 312.339 155.895C313.246 155.895 314.019 156.095 314.659 156.495C315.299 156.895 315.793 157.455 316.139 158.175C316.486 158.882 316.659 159.702 316.659 160.635C316.659 160.755 316.653 160.875 316.639 160.995C316.639 161.102 316.633 161.202 316.619 161.295H308.319V160.395H316.179L315.679 160.535C315.666 159.388 315.359 158.475 314.759 157.795C314.173 157.115 313.359 156.775 312.319 156.775C311.599 156.775 310.966 156.948 310.419 157.295C309.873 157.628 309.446 158.122 309.139 158.775C308.833 159.415 308.679 160.188 308.679 161.095C308.679 161.988 308.833 162.762 309.139 163.415C309.459 164.068 309.899 164.568 310.459 164.915C311.033 165.248 311.693 165.415 312.439 165.415C313.213 165.415 313.873 165.248 314.419 164.915C314.979 164.582 315.413 164.122 315.719 163.535L316.519 163.995C316.279 164.475 315.959 164.888 315.559 165.235C315.159 165.568 314.699 165.828 314.179 166.015C313.659 166.202 313.086 166.295 312.459 166.295ZM158.085 177.255L158.325 178.135C158.312 178.135 158.298 178.135 158.285 178.135C158.272 178.135 158.252 178.135 158.225 178.135C157.572 178.135 157.065 178.308 156.705 178.655C156.358 178.988 156.185 179.462 156.185 180.075L155.545 179.755C155.545 179.248 155.652 178.808 155.865 178.435C156.078 178.062 156.372 177.775 156.745 177.575C157.118 177.362 157.538 177.255 158.005 177.255C158.032 177.255 158.045 177.255 158.045 177.255C158.058 177.255 158.072 177.255 158.085 177.255ZM154.925 188.075C155.912 188.075 156.685 188.282 157.245 188.695C157.805 189.108 158.085 189.662 158.085 190.355C158.085 190.968 157.878 191.502 157.465 191.955C157.065 192.408 156.512 192.762 155.805 193.015C155.098 193.268 154.292 193.395 153.385 193.395C151.878 193.395 150.725 193.135 149.925 192.615C149.125 192.108 148.725 191.468 148.725 190.695C148.725 190.135 148.925 189.648 149.325 189.235C149.738 188.822 150.338 188.575 151.125 188.495L151.045 188.675C150.618 188.555 150.238 188.355 149.905 188.075C149.585 187.795 149.425 187.395 149.425 186.875C149.425 186.315 149.632 185.862 150.045 185.515C150.472 185.155 151.032 184.948 151.725 184.895L152.785 185.255H152.365C151.752 185.295 151.258 185.448 150.885 185.715C150.525 185.968 150.345 186.302 150.345 186.715C150.345 187.168 150.518 187.508 150.865 187.735C151.225 187.962 151.678 188.075 152.225 188.075H154.925ZM153.385 192.555C154.172 192.555 154.845 192.462 155.405 192.275C155.965 192.088 156.392 191.835 156.685 191.515C156.992 191.208 157.145 190.862 157.145 190.475C157.145 190.008 156.938 189.635 156.525 189.355C156.125 189.075 155.512 188.935 154.685 188.935H151.845C151.218 188.935 150.698 189.082 150.285 189.375C149.872 189.668 149.665 190.062 149.665 190.555C149.665 191.155 149.992 191.635 150.645 191.995C151.312 192.368 152.225 192.555 153.385 192.555ZM153.245 178.895C154.032 178.895 154.725 179.035 155.325 179.315C155.938 179.582 156.412 179.962 156.745 180.455C157.078 180.935 157.245 181.502 157.245 182.155C157.245 182.795 157.078 183.368 156.745 183.875C156.412 184.368 155.938 184.755 155.325 185.035C154.725 185.302 154.032 185.435 153.245 185.435C151.978 185.435 150.985 185.135 150.265 184.535C149.558 183.922 149.205 183.128 149.205 182.155C149.205 181.502 149.372 180.935 149.705 180.455C150.052 179.962 150.525 179.582 151.125 179.315C151.738 179.035 152.445 178.895 153.245 178.895ZM153.245 179.715C152.365 179.715 151.645 179.942 151.085 180.395C150.525 180.835 150.245 181.422 150.245 182.155C150.245 182.888 150.525 183.482 151.085 183.935C151.645 184.388 152.365 184.615 153.245 184.615C154.125 184.615 154.838 184.388 155.385 183.935C155.945 183.482 156.225 182.888 156.225 182.155C156.225 181.422 155.945 180.835 155.385 180.395C154.838 179.942 154.125 179.715 153.245 179.715ZM160.098 189.095V179.095H160.938L161.058 181.195C161.311 180.488 161.718 179.928 162.278 179.515C162.838 179.102 163.511 178.895 164.298 178.895C164.565 178.895 164.805 178.922 165.018 178.975C165.231 179.028 165.405 179.115 165.538 179.235L165.318 180.115C165.171 180.022 165.011 179.948 164.838 179.895C164.665 179.842 164.405 179.815 164.058 179.815C163.551 179.815 163.071 179.975 162.618 180.295C162.165 180.602 161.798 181.035 161.518 181.595C161.238 182.142 161.098 182.775 161.098 183.495V189.095H160.098ZM171.268 178.895C172.201 178.895 173.021 179.102 173.728 179.515C174.448 179.928 175.008 180.528 175.408 181.315C175.821 182.088 176.028 183.015 176.028 184.095C176.028 185.175 175.821 186.108 175.408 186.895C175.008 187.668 174.448 188.262 173.728 188.675C173.021 189.088 172.201 189.295 171.268 189.295C170.335 189.295 169.508 189.088 168.788 188.675C168.081 188.262 167.521 187.668 167.108 186.895C166.708 186.108 166.508 185.175 166.508 184.095C166.508 183.015 166.708 182.088 167.108 181.315C167.521 180.528 168.081 179.928 168.788 179.515C169.508 179.102 170.335 178.895 171.268 178.895ZM171.268 179.755C170.508 179.755 169.848 179.928 169.288 180.275C168.728 180.622 168.288 181.122 167.968 181.775C167.661 182.415 167.508 183.188 167.508 184.095C167.508 184.988 167.661 185.762 167.968 186.415C168.288 187.068 168.728 187.568 169.288 187.915C169.848 188.262 170.508 188.435 171.268 188.435C172.028 188.435 172.688 188.262 173.248 187.915C173.808 187.568 174.241 187.068 174.548 186.415C174.868 185.762 175.028 184.988 175.028 184.095C175.028 183.188 174.868 182.415 174.548 181.775C174.241 181.122 173.808 180.622 173.248 180.275C172.688 179.928 172.028 179.755 171.268 179.755ZM182.407 189.295C181.714 189.295 181.094 189.168 180.547 188.915C180.001 188.662 179.567 188.268 179.247 187.735C178.941 187.188 178.787 186.508 178.787 185.695V179.095H179.787V185.455C179.787 186.495 180.034 187.248 180.527 187.715C181.034 188.182 181.741 188.415 182.647 188.415C183.181 188.415 183.661 188.322 184.087 188.135C184.527 187.948 184.901 187.688 185.207 187.355C185.514 187.022 185.747 186.642 185.907 186.215C186.081 185.788 186.167 185.328 186.167 184.835V179.095H187.167V189.095H186.267L186.227 187.035C185.934 187.742 185.454 188.295 184.787 188.695C184.121 189.095 183.327 189.295 182.407 189.295ZM190.723 189.095V179.095H191.623L191.703 181.595L191.543 181.455C191.73 180.908 192.01 180.448 192.383 180.075C192.756 179.688 193.203 179.395 193.723 179.195C194.243 178.995 194.803 178.895 195.403 178.895C196.15 178.895 196.81 179.035 197.383 179.315C197.956 179.595 198.403 180.008 198.723 180.555C199.056 181.102 199.223 181.788 199.223 182.615V189.095H198.223V182.935C198.223 181.842 197.95 181.042 197.403 180.535C196.87 180.028 196.17 179.775 195.303 179.775C194.676 179.775 194.09 179.922 193.543 180.215C193.01 180.495 192.57 180.908 192.223 181.455C191.89 182.002 191.723 182.668 191.723 183.455V189.095H190.723ZM206.576 189.295C205.71 189.295 204.93 189.088 204.236 188.675C203.543 188.262 202.996 187.668 202.596 186.895C202.21 186.108 202.016 185.175 202.016 184.095C202.016 182.988 202.223 182.048 202.636 181.275C203.05 180.502 203.61 179.915 204.316 179.515C205.023 179.102 205.803 178.895 206.656 178.895C207.59 178.895 208.383 179.142 209.036 179.635C209.703 180.128 210.15 180.815 210.376 181.695L210.256 181.775V174.495H211.256V189.095H210.356L210.296 186.315L210.416 186.275C210.296 186.915 210.05 187.462 209.676 187.915C209.316 188.368 208.863 188.715 208.316 188.955C207.783 189.182 207.203 189.295 206.576 189.295ZM206.696 188.415C207.403 188.415 208.023 188.242 208.556 187.895C209.09 187.535 209.503 187.022 209.796 186.355C210.103 185.688 210.256 184.908 210.256 184.015C210.256 183.135 210.103 182.382 209.796 181.755C209.503 181.115 209.09 180.628 208.556 180.295C208.036 179.948 207.43 179.775 206.736 179.775C205.59 179.775 204.683 180.162 204.016 180.935C203.35 181.708 203.016 182.762 203.016 184.095C203.016 185.428 203.343 186.482 203.996 187.255C204.663 188.028 205.563 188.415 206.696 188.415ZM227.565 179.095H228.665L225.265 189.095H224.265L221.105 180.395L218.005 189.095H217.005L213.605 179.095H214.705L217.525 187.895L220.625 179.095H221.645L224.765 187.895L227.565 179.095ZM234.823 178.895C235.756 178.895 236.576 179.102 237.283 179.515C238.003 179.928 238.563 180.528 238.963 181.315C239.376 182.088 239.583 183.015 239.583 184.095C239.583 185.175 239.376 186.108 238.963 186.895C238.563 187.668 238.003 188.262 237.283 188.675C236.576 189.088 235.756 189.295 234.823 189.295C233.889 189.295 233.063 189.088 232.343 188.675C231.636 188.262 231.076 187.668 230.663 186.895C230.263 186.108 230.063 185.175 230.063 184.095C230.063 183.015 230.263 182.088 230.663 181.315C231.076 180.528 231.636 179.928 232.343 179.515C233.063 179.102 233.889 178.895 234.823 178.895ZM234.823 179.755C234.063 179.755 233.403 179.928 232.843 180.275C232.283 180.622 231.843 181.122 231.523 181.775C231.216 182.415 231.063 183.188 231.063 184.095C231.063 184.988 231.216 185.762 231.523 186.415C231.843 187.068 232.283 187.568 232.843 187.915C233.403 188.262 234.063 188.435 234.823 188.435C235.583 188.435 236.243 188.262 236.803 187.915C237.363 187.568 237.796 187.068 238.103 186.415C238.423 185.762 238.583 184.988 238.583 184.095C238.583 183.188 238.423 182.415 238.103 181.775C237.796 181.122 237.363 180.622 236.803 180.275C236.243 179.928 235.583 179.755 234.823 179.755ZM242.442 189.095V179.095H243.282L243.402 181.195C243.655 180.488 244.062 179.928 244.622 179.515C245.182 179.102 245.855 178.895 246.642 178.895C246.909 178.895 247.149 178.922 247.362 178.975C247.575 179.028 247.749 179.115 247.882 179.235L247.662 180.115C247.515 180.022 247.355 179.948 247.182 179.895C247.009 179.842 246.749 179.815 246.402 179.815C245.895 179.815 245.415 179.975 244.962 180.295C244.509 180.602 244.142 181.035 243.862 181.595C243.582 182.142 243.442 182.775 243.442 183.495V189.095H242.442ZM258.24 179.095L253.84 183.335L253.6 183.575L250.5 186.575V185.295L256.94 179.095H258.24ZM251 174.495V189.095H250V174.495H251ZM253.9 182.815L258.4 189.095H257.18L253.08 183.395L253.9 182.815ZM269.735 174.395C270.095 174.395 270.415 174.442 270.695 174.535C270.975 174.628 271.195 174.762 271.355 174.935L271.075 175.735C270.901 175.575 270.715 175.462 270.515 175.395C270.315 175.328 270.081 175.295 269.815 175.295C269.161 175.295 268.655 175.482 268.295 175.855C267.935 176.228 267.755 176.782 267.755 177.515V179.095V179.455V189.095H266.755V177.415C266.755 176.962 266.815 176.548 266.935 176.175C267.068 175.802 267.261 175.488 267.515 175.235C267.768 174.968 268.081 174.762 268.455 174.615C268.828 174.468 269.255 174.395 269.735 174.395ZM271.275 179.095V179.955H264.755V179.095H271.275ZM276.912 178.895C277.846 178.895 278.666 179.102 279.372 179.515C280.092 179.928 280.652 180.528 281.052 181.315C281.466 182.088 281.672 183.015 281.672 184.095C281.672 185.175 281.466 186.108 281.052 186.895C280.652 187.668 280.092 188.262 279.372 188.675C278.666 189.088 277.846 189.295 276.912 189.295C275.979 189.295 275.152 189.088 274.432 188.675C273.726 188.262 273.166 187.668 272.752 186.895C272.352 186.108 272.152 185.175 272.152 184.095C272.152 183.015 272.352 182.088 272.752 181.315C273.166 180.528 273.726 179.928 274.432 179.515C275.152 179.102 275.979 178.895 276.912 178.895ZM276.912 179.755C276.152 179.755 275.492 179.928 274.932 180.275C274.372 180.622 273.932 181.122 273.612 181.775C273.306 182.415 273.152 183.188 273.152 184.095C273.152 184.988 273.306 185.762 273.612 186.415C273.932 187.068 274.372 187.568 274.932 187.915C275.492 188.262 276.152 188.435 276.912 188.435C277.672 188.435 278.332 188.262 278.892 187.915C279.452 187.568 279.886 187.068 280.192 186.415C280.512 185.762 280.672 184.988 280.672 184.095C280.672 183.188 280.512 182.415 280.192 181.775C279.886 181.122 279.452 180.622 278.892 180.275C278.332 179.928 277.672 179.755 276.912 179.755ZM284.532 189.095V179.095H285.372L285.492 181.195C285.745 180.488 286.152 179.928 286.712 179.515C287.272 179.102 287.945 178.895 288.732 178.895C288.998 178.895 289.238 178.922 289.452 178.975C289.665 179.028 289.838 179.115 289.972 179.235L289.752 180.115C289.605 180.022 289.445 179.948 289.272 179.895C289.098 179.842 288.838 179.815 288.492 179.815C287.985 179.815 287.505 179.975 287.052 180.295C286.598 180.602 286.232 181.035 285.952 181.595C285.672 182.142 285.532 182.775 285.532 183.495V189.095H284.532ZM301.16 174.395C301.52 174.395 301.84 174.442 302.12 174.535C302.4 174.628 302.62 174.762 302.78 174.935L302.5 175.735C302.327 175.575 302.14 175.462 301.94 175.395C301.74 175.328 301.507 175.295 301.24 175.295C300.587 175.295 300.08 175.482 299.72 175.855C299.36 176.228 299.18 176.782 299.18 177.515V179.095V179.455V189.095H298.18V177.415C298.18 176.962 298.24 176.548 298.36 176.175C298.494 175.802 298.687 175.488 298.94 175.235C299.194 174.968 299.507 174.762 299.88 174.615C300.254 174.468 300.68 174.395 301.16 174.395ZM302.7 179.095V179.955H296.18V179.095H302.7ZM308.338 178.895C309.272 178.895 310.092 179.102 310.798 179.515C311.518 179.928 312.078 180.528 312.478 181.315C312.892 182.088 313.098 183.015 313.098 184.095C313.098 185.175 312.892 186.108 312.478 186.895C312.078 187.668 311.518 188.262 310.798 188.675C310.092 189.088 309.272 189.295 308.338 189.295C307.405 189.295 306.578 189.088 305.858 188.675C305.152 188.262 304.592 187.668 304.178 186.895C303.778 186.108 303.578 185.175 303.578 184.095C303.578 183.015 303.778 182.088 304.178 181.315C304.592 180.528 305.152 179.928 305.858 179.515C306.578 179.102 307.405 178.895 308.338 178.895ZM308.338 179.755C307.578 179.755 306.918 179.928 306.358 180.275C305.798 180.622 305.358 181.122 305.038 181.775C304.732 182.415 304.578 183.188 304.578 184.095C304.578 184.988 304.732 185.762 305.038 186.415C305.358 187.068 305.798 187.568 306.358 187.915C306.918 188.262 307.578 188.435 308.338 188.435C309.098 188.435 309.758 188.262 310.318 187.915C310.878 187.568 311.312 187.068 311.618 186.415C311.938 185.762 312.098 184.988 312.098 184.095C312.098 183.188 311.938 182.415 311.618 181.775C311.312 181.122 310.878 180.622 310.318 180.275C309.758 179.928 309.098 179.755 308.338 179.755ZM319.997 178.895C320.677 178.895 321.284 179.002 321.817 179.215C322.351 179.428 322.804 179.735 323.177 180.135C323.551 180.535 323.837 181.022 324.037 181.595L323.097 182.035C322.884 181.315 322.511 180.762 321.977 180.375C321.457 179.975 320.791 179.775 319.977 179.775C319.244 179.775 318.597 179.948 318.037 180.295C317.477 180.628 317.044 181.122 316.737 181.775C316.431 182.415 316.277 183.188 316.277 184.095C316.277 184.988 316.431 185.762 316.737 186.415C317.044 187.068 317.471 187.568 318.017 187.915C318.564 188.248 319.211 188.415 319.957 188.415C320.517 188.415 321.024 188.322 321.477 188.135C321.944 187.948 322.324 187.675 322.617 187.315C322.924 186.955 323.124 186.528 323.217 186.035L324.137 186.355C323.964 186.968 323.677 187.495 323.277 187.935C322.891 188.375 322.417 188.715 321.857 188.955C321.297 189.182 320.671 189.295 319.977 189.295C319.071 189.295 318.257 189.088 317.537 188.675C316.831 188.262 316.277 187.668 315.877 186.895C315.477 186.108 315.277 185.175 315.277 184.095C315.277 183.015 315.477 182.088 315.877 181.315C316.291 180.528 316.851 179.928 317.557 179.515C318.277 179.102 319.091 178.895 319.997 178.895ZM330.337 189.295C329.644 189.295 329.024 189.168 328.477 188.915C327.93 188.662 327.497 188.268 327.177 187.735C326.87 187.188 326.717 186.508 326.717 185.695V179.095H327.717V185.455C327.717 186.495 327.964 187.248 328.457 187.715C328.964 188.182 329.67 188.415 330.577 188.415C331.11 188.415 331.59 188.322 332.017 188.135C332.457 187.948 332.83 187.688 333.137 187.355C333.444 187.022 333.677 186.642 333.837 186.215C334.01 185.788 334.097 185.328 334.097 184.835V179.095H335.097V189.095H334.197L334.157 187.035C333.864 187.742 333.384 188.295 332.717 188.695C332.05 189.095 331.257 189.295 330.337 189.295ZM342.033 189.295C341.019 189.295 340.119 189.088 339.333 188.675C338.559 188.262 338.013 187.668 337.693 186.895L338.553 186.315C338.793 186.982 339.219 187.502 339.833 187.875C340.459 188.235 341.219 188.415 342.113 188.415C342.993 188.415 343.679 188.242 344.173 187.895C344.679 187.548 344.933 187.088 344.933 186.515C344.933 186.128 344.806 185.795 344.553 185.515C344.313 185.222 343.853 185.002 343.173 184.855L340.833 184.355C339.873 184.155 339.186 183.835 338.773 183.395C338.373 182.942 338.173 182.395 338.173 181.755C338.173 181.222 338.333 180.742 338.653 180.315C338.973 179.888 339.413 179.548 339.973 179.295C340.546 179.028 341.213 178.895 341.973 178.895C342.973 178.895 343.799 179.095 344.453 179.495C345.106 179.882 345.566 180.468 345.833 181.255L344.993 181.795C344.793 181.088 344.419 180.575 343.873 180.255C343.339 179.935 342.706 179.775 341.973 179.775C341.413 179.775 340.919 179.862 340.493 180.035C340.079 180.195 339.753 180.422 339.513 180.715C339.286 180.995 339.173 181.322 339.173 181.695C339.173 182.082 339.306 182.435 339.573 182.755C339.839 183.062 340.313 183.288 340.993 183.435L343.393 183.955C344.339 184.155 344.999 184.462 345.373 184.875C345.746 185.275 345.933 185.775 345.933 186.375C345.933 186.975 345.773 187.495 345.453 187.935C345.133 188.375 344.679 188.715 344.093 188.955C343.506 189.182 342.819 189.295 342.033 189.295ZM352.811 189.295C351.891 189.295 351.071 189.088 350.351 188.675C349.631 188.262 349.064 187.668 348.651 186.895C348.251 186.108 348.051 185.175 348.051 184.095C348.051 183.015 348.251 182.088 348.651 181.315C349.064 180.528 349.618 179.928 350.311 179.515C351.004 179.102 351.798 178.895 352.691 178.895C353.598 178.895 354.371 179.095 355.011 179.495C355.651 179.895 356.144 180.455 356.491 181.175C356.838 181.882 357.011 182.702 357.011 183.635C357.011 183.755 357.004 183.875 356.991 183.995C356.991 184.102 356.984 184.202 356.971 184.295H348.671V183.395H356.531L356.031 183.535C356.018 182.388 355.711 181.475 355.111 180.795C354.524 180.115 353.711 179.775 352.671 179.775C351.951 179.775 351.318 179.948 350.771 180.295C350.224 180.628 349.798 181.122 349.491 181.775C349.184 182.415 349.031 183.188 349.031 184.095C349.031 184.988 349.184 185.762 349.491 186.415C349.811 187.068 350.251 187.568 350.811 187.915C351.384 188.248 352.044 188.415 352.791 188.415C353.564 188.415 354.224 188.248 354.771 187.915C355.331 187.582 355.764 187.122 356.071 186.535L356.871 186.995C356.631 187.475 356.311 187.888 355.911 188.235C355.511 188.568 355.051 188.828 354.531 189.015C354.011 189.202 353.438 189.295 352.811 189.295ZM363.764 189.295C362.897 189.295 362.117 189.088 361.424 188.675C360.73 188.262 360.184 187.668 359.784 186.895C359.397 186.108 359.204 185.175 359.204 184.095C359.204 182.988 359.41 182.048 359.824 181.275C360.237 180.502 360.797 179.915 361.504 179.515C362.21 179.102 362.99 178.895 363.844 178.895C364.777 178.895 365.57 179.142 366.224 179.635C366.89 180.128 367.337 180.815 367.564 181.695L367.444 181.775V174.495H368.444V189.095H367.544L367.484 186.315L367.604 186.275C367.484 186.915 367.237 187.462 366.864 187.915C366.504 188.368 366.05 188.715 365.504 188.955C364.97 189.182 364.39 189.295 363.764 189.295ZM363.884 188.415C364.59 188.415 365.21 188.242 365.744 187.895C366.277 187.535 366.69 187.022 366.984 186.355C367.29 185.688 367.444 184.908 367.444 184.015C367.444 183.135 367.29 182.382 366.984 181.755C366.69 181.115 366.277 180.628 365.744 180.295C365.224 179.948 364.617 179.775 363.924 179.775C362.777 179.775 361.87 180.162 361.204 180.935C360.537 181.708 360.204 182.762 360.204 184.095C360.204 185.428 360.53 186.482 361.184 187.255C361.85 188.028 362.75 188.415 363.884 188.415ZM372.432 187.455C372.672 187.455 372.872 187.522 373.032 187.655C373.206 187.775 373.332 187.942 373.412 188.155C373.506 188.368 373.552 188.622 373.552 188.915C373.552 189.262 373.486 189.608 373.352 189.955C373.232 190.302 373.046 190.622 372.792 190.915C372.552 191.208 372.232 191.455 371.832 191.655L371.272 191.155C371.592 191.035 371.872 190.855 372.112 190.615C372.352 190.388 372.532 190.135 372.652 189.855C372.786 189.588 372.846 189.328 372.832 189.075L372.772 189.055C372.732 189.122 372.679 189.168 372.612 189.195C372.546 189.235 372.446 189.255 372.312 189.255C372.192 189.255 372.072 189.215 371.952 189.135C371.832 189.068 371.732 188.975 371.652 188.855C371.572 188.722 371.532 188.562 371.532 188.375C371.532 188.215 371.572 188.062 371.652 187.915C371.746 187.768 371.859 187.655 371.992 187.575C372.126 187.495 372.272 187.455 372.432 187.455ZM153.885 212.295C152.965 212.295 152.145 212.088 151.425 211.675C150.705 211.262 150.138 210.668 149.725 209.895C149.325 209.108 149.125 208.175 149.125 207.095C149.125 206.015 149.325 205.088 149.725 204.315C150.138 203.528 150.692 202.928 151.385 202.515C152.078 202.102 152.872 201.895 153.765 201.895C154.672 201.895 155.445 202.095 156.085 202.495C156.725 202.895 157.218 203.455 157.565 204.175C157.912 204.882 158.085 205.702 158.085 206.635C158.085 206.755 158.078 206.875 158.065 206.995C158.065 207.102 158.058 207.202 158.045 207.295H149.745V206.395H157.605L157.105 206.535C157.092 205.388 156.785 204.475 156.185 203.795C155.598 203.115 154.785 202.775 153.745 202.775C153.025 202.775 152.392 202.948 151.845 203.295C151.298 203.628 150.872 204.122 150.565 204.775C150.258 205.415 150.105 206.188 150.105 207.095C150.105 207.988 150.258 208.762 150.565 209.415C150.885 210.068 151.325 210.568 151.885 210.915C152.458 211.248 153.118 211.415 153.865 211.415C154.638 211.415 155.298 211.248 155.845 210.915C156.405 210.582 156.838 210.122 157.145 209.535L157.945 209.995C157.705 210.475 157.385 210.888 156.985 211.235C156.585 211.568 156.125 211.828 155.605 212.015C155.085 212.202 154.512 212.295 153.885 212.295ZM164.5 197.395C164.86 197.395 165.18 197.442 165.46 197.535C165.74 197.628 165.96 197.762 166.12 197.935L165.84 198.735C165.667 198.575 165.48 198.462 165.28 198.395C165.08 198.328 164.847 198.295 164.58 198.295C163.927 198.295 163.42 198.482 163.06 198.855C162.7 199.228 162.52 199.782 162.52 200.515V202.095V202.455V212.095H161.52V200.415C161.52 199.962 161.58 199.548 161.7 199.175C161.834 198.802 162.027 198.488 162.28 198.235C162.534 197.968 162.847 197.762 163.22 197.615C163.594 197.468 164.02 197.395 164.5 197.395ZM166.04 202.095V202.955H159.52V202.095H166.04ZM171.4 197.395C171.76 197.395 172.08 197.442 172.36 197.535C172.64 197.628 172.86 197.762 173.02 197.935L172.74 198.735C172.567 198.575 172.38 198.462 172.18 198.395C171.98 198.328 171.747 198.295 171.48 198.295C170.827 198.295 170.32 198.482 169.96 198.855C169.6 199.228 169.42 199.782 169.42 200.515V202.095V202.455V212.095H168.42V200.415C168.42 199.962 168.48 199.548 168.6 199.175C168.734 198.802 168.927 198.488 169.18 198.235C169.434 197.968 169.747 197.762 170.12 197.615C170.494 197.468 170.92 197.395 171.4 197.395ZM172.94 202.095V202.955H166.42V202.095H172.94ZM178.553 212.295C177.633 212.295 176.813 212.088 176.093 211.675C175.373 211.262 174.806 210.668 174.393 209.895C173.993 209.108 173.793 208.175 173.793 207.095C173.793 206.015 173.993 205.088 174.393 204.315C174.806 203.528 175.36 202.928 176.053 202.515C176.746 202.102 177.54 201.895 178.433 201.895C179.34 201.895 180.113 202.095 180.753 202.495C181.393 202.895 181.886 203.455 182.233 204.175C182.58 204.882 182.753 205.702 182.753 206.635C182.753 206.755 182.746 206.875 182.733 206.995C182.733 207.102 182.726 207.202 182.713 207.295H174.413V206.395H182.273L181.773 206.535C181.76 205.388 181.453 204.475 180.853 203.795C180.266 203.115 179.453 202.775 178.413 202.775C177.693 202.775 177.06 202.948 176.513 203.295C175.966 203.628 175.54 204.122 175.233 204.775C174.926 205.415 174.773 206.188 174.773 207.095C174.773 207.988 174.926 208.762 175.233 209.415C175.553 210.068 175.993 210.568 176.553 210.915C177.126 211.248 177.786 211.415 178.533 211.415C179.306 211.415 179.966 211.248 180.513 210.915C181.073 210.582 181.506 210.122 181.813 209.535L182.613 209.995C182.373 210.475 182.053 210.888 181.653 211.235C181.253 211.568 180.793 211.828 180.273 212.015C179.753 212.202 179.18 212.295 178.553 212.295ZM189.646 201.895C190.326 201.895 190.933 202.002 191.466 202.215C191.999 202.428 192.453 202.735 192.826 203.135C193.199 203.535 193.486 204.022 193.686 204.595L192.746 205.035C192.533 204.315 192.159 203.762 191.626 203.375C191.106 202.975 190.439 202.775 189.626 202.775C188.893 202.775 188.246 202.948 187.686 203.295C187.126 203.628 186.693 204.122 186.386 204.775C186.079 205.415 185.926 206.188 185.926 207.095C185.926 207.988 186.079 208.762 186.386 209.415C186.693 210.068 187.119 210.568 187.666 210.915C188.213 211.248 188.859 211.415 189.606 211.415C190.166 211.415 190.673 211.322 191.126 211.135C191.593 210.948 191.973 210.675 192.266 210.315C192.573 209.955 192.773 209.528 192.866 209.035L193.786 209.355C193.613 209.968 193.326 210.495 192.926 210.935C192.539 211.375 192.066 211.715 191.506 211.955C190.946 212.182 190.319 212.295 189.626 212.295C188.719 212.295 187.906 212.088 187.186 211.675C186.479 211.262 185.926 210.668 185.526 209.895C185.126 209.108 184.926 208.175 184.926 207.095C184.926 206.015 185.126 205.088 185.526 204.315C185.939 203.528 186.499 202.928 187.206 202.515C187.926 202.102 188.739 201.895 189.646 201.895ZM198.125 199.315V209.455C198.125 210.082 198.272 210.562 198.565 210.895C198.872 211.215 199.312 211.375 199.885 211.375C200.259 211.375 200.585 211.315 200.865 211.195C201.159 211.062 201.419 210.875 201.645 210.635L202.025 211.455C201.772 211.708 201.452 211.915 201.065 212.075C200.679 212.222 200.245 212.295 199.765 212.295C199.245 212.295 198.785 212.202 198.385 212.015C197.985 211.815 197.672 211.515 197.445 211.115C197.232 210.715 197.125 210.208 197.125 209.595V199.595L198.125 199.315ZM201.865 202.095V202.955H195.125V202.095H201.865ZM204.504 200.155C204.251 200.155 204.044 200.082 203.884 199.935C203.738 199.775 203.664 199.568 203.664 199.315C203.664 199.062 203.738 198.862 203.884 198.715C204.044 198.555 204.251 198.475 204.504 198.475C204.758 198.475 204.958 198.555 205.104 198.715C205.264 198.862 205.344 199.062 205.344 199.315C205.344 199.568 205.264 199.775 205.104 199.935C204.958 200.082 204.758 200.155 204.504 200.155ZM205.004 202.095V212.095H204.004V202.095H205.004ZM215.415 202.095H216.475L212.295 212.095H211.295L207.115 202.095H208.235L211.815 211.055L215.415 202.095ZM222.537 212.295C221.617 212.295 220.797 212.088 220.077 211.675C219.357 211.262 218.791 210.668 218.377 209.895C217.977 209.108 217.777 208.175 217.777 207.095C217.777 206.015 217.977 205.088 218.377 204.315C218.791 203.528 219.344 202.928 220.037 202.515C220.731 202.102 221.524 201.895 222.417 201.895C223.324 201.895 224.097 202.095 224.737 202.495C225.377 202.895 225.871 203.455 226.217 204.175C226.564 204.882 226.737 205.702 226.737 206.635C226.737 206.755 226.731 206.875 226.717 206.995C226.717 207.102 226.711 207.202 226.697 207.295H218.397V206.395H226.257L225.757 206.535C225.744 205.388 225.437 204.475 224.837 203.795C224.251 203.115 223.437 202.775 222.397 202.775C221.677 202.775 221.044 202.948 220.497 203.295C219.951 203.628 219.524 204.122 219.217 204.775C218.911 205.415 218.757 206.188 218.757 207.095C218.757 207.988 218.911 208.762 219.217 209.415C219.537 210.068 219.977 210.568 220.537 210.915C221.111 211.248 221.771 211.415 222.517 211.415C223.291 211.415 223.951 211.248 224.497 210.915C225.057 210.582 225.491 210.122 225.797 209.535L226.597 209.995C226.357 210.475 226.037 210.888 225.637 211.235C225.237 211.568 224.777 211.828 224.257 212.015C223.737 212.202 223.164 212.295 222.537 212.295ZM235.86 212.095V202.095H236.76L236.82 204.175C237.113 203.455 237.587 202.895 238.24 202.495C238.907 202.095 239.647 201.895 240.46 201.895C241.327 201.895 242.073 202.102 242.7 202.515C243.34 202.928 243.78 203.535 244.02 204.335C244.193 203.828 244.473 203.395 244.86 203.035C245.247 202.662 245.7 202.375 246.22 202.175C246.74 201.975 247.28 201.875 247.84 201.875C248.533 201.875 249.16 202.015 249.72 202.295C250.293 202.562 250.747 202.975 251.08 203.535C251.427 204.082 251.6 204.768 251.6 205.595V212.075H250.6V205.695C250.6 204.708 250.333 203.975 249.8 203.495C249.28 203.002 248.587 202.755 247.72 202.755C247.093 202.755 246.513 202.908 245.98 203.215C245.447 203.508 245.02 203.928 244.7 204.475C244.393 205.008 244.24 205.628 244.24 206.335V212.095H243.24V205.715C243.24 204.728 242.973 203.995 242.44 203.515C241.907 203.022 241.213 202.775 240.36 202.775C239.76 202.775 239.193 202.922 238.66 203.215C238.127 203.508 237.693 203.928 237.36 204.475C237.027 205.022 236.86 205.675 236.86 206.435V212.095H235.86ZM261.179 205.515C261.179 204.648 260.946 203.975 260.479 203.495C260.012 203.015 259.346 202.775 258.479 202.775C257.719 202.775 257.066 202.942 256.519 203.275C255.972 203.595 255.566 204.135 255.299 204.895L254.479 204.375C254.772 203.588 255.259 202.982 255.939 202.555C256.632 202.115 257.486 201.895 258.499 201.895C259.232 201.895 259.872 202.028 260.419 202.295C260.979 202.548 261.412 202.928 261.719 203.435C262.026 203.942 262.179 204.575 262.179 205.335V210.335C262.179 211.042 262.499 211.395 263.139 211.395C263.419 211.395 263.659 211.348 263.859 211.255L263.799 212.055C263.572 212.175 263.279 212.235 262.919 212.235C262.612 212.235 262.326 212.175 262.059 212.055C261.792 211.935 261.572 211.735 261.399 211.455C261.239 211.175 261.159 210.795 261.159 210.315V209.775L261.439 209.755C261.319 210.328 261.052 210.808 260.639 211.195C260.239 211.568 259.772 211.848 259.239 212.035C258.706 212.208 258.172 212.295 257.639 212.295C257.012 212.295 256.452 212.195 255.959 211.995C255.466 211.795 255.079 211.508 254.799 211.135C254.519 210.748 254.379 210.275 254.379 209.715C254.379 208.968 254.626 208.368 255.119 207.915C255.626 207.448 256.332 207.128 257.239 206.955L261.379 206.135V206.975L257.739 207.695C256.952 207.855 256.366 208.088 255.979 208.395C255.592 208.702 255.399 209.122 255.399 209.655C255.399 210.202 255.606 210.635 256.019 210.955C256.432 211.262 257.019 211.415 257.779 211.415C258.166 211.415 258.559 211.362 258.959 211.255C259.359 211.148 259.726 210.982 260.059 210.755C260.406 210.515 260.679 210.222 260.879 209.875C261.079 209.515 261.179 209.082 261.179 208.575V205.515ZM265.918 212.095V202.095H266.758L266.878 204.195C267.132 203.488 267.538 202.928 268.098 202.515C268.658 202.102 269.332 201.895 270.118 201.895C270.385 201.895 270.625 201.922 270.838 201.975C271.052 202.028 271.225 202.115 271.358 202.235L271.138 203.115C270.992 203.022 270.832 202.948 270.658 202.895C270.485 202.842 270.225 202.815 269.878 202.815C269.372 202.815 268.892 202.975 268.438 203.295C267.985 203.602 267.618 204.035 267.338 204.595C267.058 205.142 266.918 205.775 266.918 206.495V212.095H265.918ZM281.717 202.095L277.317 206.335L277.077 206.575L273.977 209.575V208.295L280.417 202.095H281.717ZM274.477 197.495V212.095H273.477V197.495H274.477ZM277.377 205.815L281.877 212.095H280.657L276.557 206.395L277.377 205.815ZM287.752 212.295C286.832 212.295 286.012 212.088 285.292 211.675C284.572 211.262 284.006 210.668 283.592 209.895C283.192 209.108 282.992 208.175 282.992 207.095C282.992 206.015 283.192 205.088 283.592 204.315C284.006 203.528 284.559 202.928 285.252 202.515C285.946 202.102 286.739 201.895 287.632 201.895C288.539 201.895 289.312 202.095 289.952 202.495C290.592 202.895 291.086 203.455 291.432 204.175C291.779 204.882 291.952 205.702 291.952 206.635C291.952 206.755 291.946 206.875 291.932 206.995C291.932 207.102 291.926 207.202 291.912 207.295H283.612V206.395H291.472L290.972 206.535C290.959 205.388 290.652 204.475 290.052 203.795C289.466 203.115 288.652 202.775 287.612 202.775C286.892 202.775 286.259 202.948 285.712 203.295C285.166 203.628 284.739 204.122 284.432 204.775C284.126 205.415 283.972 206.188 283.972 207.095C283.972 207.988 284.126 208.762 284.432 209.415C284.752 210.068 285.192 210.568 285.752 210.915C286.326 211.248 286.986 211.415 287.732 211.415C288.506 211.415 289.166 211.248 289.712 210.915C290.272 210.582 290.706 210.122 291.012 209.535L291.812 209.995C291.572 210.475 291.252 210.888 290.852 211.235C290.452 211.568 289.992 211.828 289.472 212.015C288.952 212.202 288.379 212.295 287.752 212.295ZM296.25 199.315V209.455C296.25 210.082 296.397 210.562 296.69 210.895C296.997 211.215 297.437 211.375 298.01 211.375C298.384 211.375 298.71 211.315 298.99 211.195C299.284 211.062 299.544 210.875 299.77 210.635L300.15 211.455C299.897 211.708 299.577 211.915 299.19 212.075C298.804 212.222 298.37 212.295 297.89 212.295C297.37 212.295 296.91 212.202 296.51 212.015C296.11 211.815 295.797 211.515 295.57 211.115C295.357 210.715 295.25 210.208 295.25 209.595V199.595L296.25 199.315ZM299.99 202.095V202.955H293.25V202.095H299.99ZM302.629 200.155C302.376 200.155 302.169 200.082 302.009 199.935C301.863 199.775 301.789 199.568 301.789 199.315C301.789 199.062 301.863 198.862 302.009 198.715C302.169 198.555 302.376 198.475 302.629 198.475C302.883 198.475 303.083 198.555 303.229 198.715C303.389 198.862 303.469 199.062 303.469 199.315C303.469 199.568 303.389 199.775 303.229 199.935C303.083 200.082 302.883 200.155 302.629 200.155ZM303.129 202.095V212.095H302.129V202.095H303.129ZM306.68 212.095V202.095H307.58L307.66 204.595L307.5 204.455C307.687 203.908 307.967 203.448 308.34 203.075C308.713 202.688 309.16 202.395 309.68 202.195C310.2 201.995 310.76 201.895 311.36 201.895C312.107 201.895 312.767 202.035 313.34 202.315C313.913 202.595 314.36 203.008 314.68 203.555C315.013 204.102 315.18 204.788 315.18 205.615V212.095H314.18V205.935C314.18 204.842 313.907 204.042 313.36 203.535C312.827 203.028 312.127 202.775 311.26 202.775C310.633 202.775 310.047 202.922 309.5 203.215C308.967 203.495 308.527 203.908 308.18 204.455C307.847 205.002 307.68 205.668 307.68 206.455V212.095H306.68ZM326.913 200.255L327.153 201.135C327.14 201.135 327.127 201.135 327.113 201.135C327.1 201.135 327.08 201.135 327.053 201.135C326.4 201.135 325.893 201.308 325.533 201.655C325.187 201.988 325.013 202.462 325.013 203.075L324.373 202.755C324.373 202.248 324.48 201.808 324.693 201.435C324.907 201.062 325.2 200.775 325.573 200.575C325.947 200.362 326.367 200.255 326.833 200.255C326.86 200.255 326.873 200.255 326.873 200.255C326.887 200.255 326.9 200.255 326.913 200.255ZM323.753 211.075C324.74 211.075 325.513 211.282 326.073 211.695C326.633 212.108 326.913 212.662 326.913 213.355C326.913 213.968 326.707 214.502 326.293 214.955C325.893 215.408 325.34 215.762 324.633 216.015C323.927 216.268 323.12 216.395 322.213 216.395C320.707 216.395 319.553 216.135 318.753 215.615C317.953 215.108 317.553 214.468 317.553 213.695C317.553 213.135 317.753 212.648 318.153 212.235C318.567 211.822 319.167 211.575 319.953 211.495L319.873 211.675C319.447 211.555 319.067 211.355 318.733 211.075C318.413 210.795 318.253 210.395 318.253 209.875C318.253 209.315 318.46 208.862 318.873 208.515C319.3 208.155 319.86 207.948 320.553 207.895L321.613 208.255H321.193C320.58 208.295 320.087 208.448 319.713 208.715C319.353 208.968 319.173 209.302 319.173 209.715C319.173 210.168 319.347 210.508 319.693 210.735C320.053 210.962 320.507 211.075 321.053 211.075H323.753ZM322.213 215.555C323 215.555 323.673 215.462 324.233 215.275C324.793 215.088 325.22 214.835 325.513 214.515C325.82 214.208 325.973 213.862 325.973 213.475C325.973 213.008 325.767 212.635 325.353 212.355C324.953 212.075 324.34 211.935 323.513 211.935H320.673C320.047 211.935 319.527 212.082 319.113 212.375C318.7 212.668 318.493 213.062 318.493 213.555C318.493 214.155 318.82 214.635 319.473 214.995C320.14 215.368 321.053 215.555 322.213 215.555ZM322.073 201.895C322.86 201.895 323.553 202.035 324.153 202.315C324.767 202.582 325.24 202.962 325.573 203.455C325.907 203.935 326.073 204.502 326.073 205.155C326.073 205.795 325.907 206.368 325.573 206.875C325.24 207.368 324.767 207.755 324.153 208.035C323.553 208.302 322.86 208.435 322.073 208.435C320.807 208.435 319.813 208.135 319.093 207.535C318.387 206.922 318.033 206.128 318.033 205.155C318.033 204.502 318.2 203.935 318.533 203.455C318.88 202.962 319.353 202.582 319.953 202.315C320.567 202.035 321.273 201.895 322.073 201.895ZM322.073 202.715C321.193 202.715 320.473 202.942 319.913 203.395C319.353 203.835 319.073 204.422 319.073 205.155C319.073 205.888 319.353 206.482 319.913 206.935C320.473 207.388 321.193 207.615 322.073 207.615C322.953 207.615 323.667 207.388 324.213 206.935C324.773 206.482 325.053 205.888 325.053 205.155C325.053 204.422 324.773 203.835 324.213 203.395C323.667 202.942 322.953 202.715 322.073 202.715ZM329.346 210.455C329.613 210.455 329.826 210.542 329.986 210.715C330.16 210.875 330.246 211.088 330.246 211.355C330.246 211.622 330.16 211.842 329.986 212.015C329.826 212.175 329.613 212.255 329.346 212.255C329.08 212.255 328.86 212.175 328.686 212.015C328.526 211.842 328.446 211.622 328.446 211.355C328.446 211.088 328.526 210.875 328.686 210.715C328.86 210.542 329.08 210.455 329.346 210.455Z" fill="black"/>
</svg>
